%TF.GenerationSoftware,Altium Limited,Altium Designer,18.1.9 (240)*%
G04 Layer_Color=255*
%FSLAX45Y45*%
%MOMM*%
%TF.FileFunction,Pads,Bot*%
%TF.Part,Single*%
G01*
G75*
%TA.AperFunction,ComponentPad*%
%ADD14C,1.20000*%
%TA.AperFunction,SMDPad,CuDef*%
%ADD19O,0.60000X2.20000*%
%ADD20R,2.10000X0.70000*%
%ADD21O,1.52400X3.00000*%
%ADD22C,0.50000*%
%ADD23C,2.00000*%
%ADD24R,0.80000X1.00000*%
%ADD25R,2.00000X1.00000*%
%ADD26R,1.40000X1.10000*%
%ADD27R,1.20000X1.40000*%
%ADD28R,1.10000X1.40000*%
%ADD29R,1.40000X1.20000*%
%ADD30R,1.39700X0.43180*%
D14*
X225000Y1525000D02*
D03*
X475000D02*
D03*
D19*
X1699500Y2002847D02*
D03*
X1826500D02*
D03*
X1953500D02*
D03*
X2080500D02*
D03*
X1699500Y1522847D02*
D03*
X1826500D02*
D03*
X1953500D02*
D03*
X2080500D02*
D03*
D20*
X610000Y950000D02*
D03*
Y800000D02*
D03*
D21*
X1483000Y225000D02*
D03*
X1229000D02*
D03*
X975000D02*
D03*
X721000D02*
D03*
D22*
X1100000Y1325000D02*
D03*
D23*
Y1525000D02*
D03*
D24*
X1500000Y1200000D02*
D03*
X1750000D02*
D03*
X1775000Y700000D02*
D03*
X2025000D02*
D03*
X1775000Y900000D02*
D03*
X2025000D02*
D03*
X475000Y1125000D02*
D03*
X225000D02*
D03*
D25*
X1784200Y2760001D02*
D03*
Y2510001D02*
D03*
D26*
X350000Y950000D02*
D03*
Y800000D02*
D03*
X1425000Y2275000D02*
D03*
Y2125000D02*
D03*
D27*
X1810000Y500000D02*
D03*
X1990000D02*
D03*
X360000Y625000D02*
D03*
X540000D02*
D03*
X610001Y2659367D02*
D03*
X790000D02*
D03*
D28*
X1627058Y2912500D02*
D03*
X1477058D02*
D03*
X615000Y2472847D02*
D03*
X765000D02*
D03*
D29*
X1030000Y2252847D02*
D03*
Y2072847D02*
D03*
X830000Y2072847D02*
D03*
Y2252847D02*
D03*
X1516748Y1510000D02*
D03*
Y1690000D02*
D03*
D30*
X1031560Y2400287D02*
D03*
Y2466327D02*
D03*
Y2529827D02*
D03*
Y2595867D02*
D03*
Y2659367D02*
D03*
Y2725407D02*
D03*
X1468440D02*
D03*
Y2659367D02*
D03*
Y2595867D02*
D03*
Y2529827D02*
D03*
Y2466327D02*
D03*
Y2400287D02*
D03*
%TF.MD5,f95fdd013a58f52e3640281e06b70810*%
M02*
