%TF.GenerationSoftware,Altium Limited,Altium Designer,18.1.9 (240)*%
G04 Layer_Color=2752767*
%FSLAX45Y45*%
%MOMM*%
%TF.FileFunction,Drawing*%
%TF.Part,Single*%
G01*
G75*
%TA.AperFunction,NonConductor*%
%ADD52C,0.12700*%
%ADD60C,0.16933*%
D52*
X174200Y1474200D02*
Y1575800D01*
X275800D01*
Y1474200D01*
X174200D01*
X424200D02*
Y1575800D01*
X525800D01*
Y1474200D01*
X424200D01*
X1100000Y2974200D02*
X1049200Y3075800D01*
X1150800D01*
X1100000Y2974200D01*
D60*
X1618300Y1942500D02*
G03*
X1618300Y1942500I-50800J0D01*
G01*
X1775800Y1340000D02*
G03*
X1775800Y1340000I-50800J0D01*
G01*
X1958900Y691900D02*
G03*
X1958900Y691900I-50800J0D01*
G01*
X2075800Y1344499D02*
G03*
X2075800Y1344499I-50800J0D01*
G01*
X675800Y1902847D02*
G03*
X675800Y1902847I-50800J0D01*
G01*
X175800Y800000D02*
G03*
X175800Y800000I-50800J0D01*
G01*
X1605800Y1325000D02*
G03*
X1605800Y1325000I-50800J0D01*
G01*
X725800Y675000D02*
G03*
X725800Y675000I-50800J0D01*
G01*
X665800Y2167847D02*
G03*
X665800Y2167847I-50800J0D01*
G01*
X1975796Y2399995D02*
G03*
X1975796Y2399995I-50800J0D01*
G01*
X1740800Y2382847D02*
G03*
X1740800Y2382847I-50800J0D01*
G01*
X1875800Y2192847D02*
G03*
X1875800Y2192847I-50800J0D01*
G01*
X2010800D02*
G03*
X2010800Y2192847I-50800J0D01*
G01*
%TF.MD5,defac6fe66df7629a712d7f653d175f9*%
M02*
