%TF.GenerationSoftware,Altium Limited,Altium Designer,18.1.9 (240)*%
G04 Layer_Physical_Order=1*
G04 Layer_Color=255*
%FSLAX45Y45*%
%MOMM*%
%TF.FileFunction,Copper,L1,Top,Signal*%
%TF.Part,Single*%
G01*
G75*
%TA.AperFunction,ConnectorPad*%
%ADD10R,7.00000X2.00000*%
%TA.AperFunction,SMDPad,CuDef*%
%ADD11R,2.80000X2.00000*%
%TA.AperFunction,Conductor*%
%ADD12C,0.25400*%
%ADD13C,0.40000*%
%TA.AperFunction,ViaPad*%
%ADD14C,0.75000*%
%ADD15C,1.50000*%
D10*
X1447500Y200000D02*
D03*
Y2400000D02*
D03*
X350000Y200000D02*
D03*
Y2400000D02*
D03*
D11*
X900000Y1100000D02*
D03*
Y1450000D02*
D03*
D12*
X505000Y1955000D02*
X592500Y2042500D01*
X505000Y1287500D02*
Y1955000D01*
X185000Y1172500D02*
X390000D01*
X505000Y1287500D01*
X592500Y2042500D02*
Y2179840D01*
X407500Y2375160D02*
X597660Y2185000D01*
X592500Y2179840D02*
X597660Y2185000D01*
X1180058Y1295063D02*
X1282437D01*
X1282500Y1295000D01*
X185000Y569687D02*
Y1172500D01*
Y569687D02*
X350000Y404687D01*
X347660Y2375160D02*
X407500D01*
X1300000Y2010000D02*
X1305000Y2005000D01*
Y1915585D02*
Y2005000D01*
Y1915585D02*
X1547500Y1673086D01*
X592500Y1955320D02*
Y2042500D01*
X1547500Y1560000D02*
Y1673086D01*
X1282500Y1295000D02*
X1547500Y1560000D01*
X597660Y2185000D02*
X622660Y2210000D01*
X1447660Y200160D02*
X1712580Y465080D01*
X1727500Y480000D01*
X1657500Y1970000D02*
X1727500Y1900000D01*
Y480000D02*
Y1900000D01*
X1673900Y626400D02*
Y1778760D01*
X1447660Y2005000D02*
X1673900Y1778760D01*
X1447660Y2005000D02*
Y2375160D01*
X1522660Y475160D02*
X1673900Y626400D01*
X1407500Y1910000D02*
X1623100Y1694400D01*
X1397500Y600000D02*
X1623100Y825600D01*
Y1694400D01*
X1407500Y1910000D02*
Y1920000D01*
X347660Y200160D02*
Y228640D01*
Y175160D02*
Y200160D01*
X1197820Y600000D02*
X1397500D01*
X1197660Y475160D02*
X1522660D01*
X347660Y228640D02*
X594180Y475160D01*
D13*
X592500Y1955320D02*
X897660Y1650160D01*
Y1450160D02*
Y1650160D01*
Y900160D02*
X1197820Y600000D01*
X897660Y900160D02*
Y1100160D01*
D14*
X1180058Y1295063D02*
D03*
X1300000Y2010000D02*
D03*
X592500Y2042500D02*
D03*
X1712580Y465080D02*
D03*
X350000Y404687D02*
D03*
X622660Y2210000D02*
D03*
X1658760Y1970000D02*
D03*
X1407500Y1920000D02*
D03*
X1547500Y1560000D02*
D03*
X505000Y1287500D02*
D03*
X185000Y1172500D02*
D03*
X1197660Y475160D02*
D03*
X594180D02*
D03*
D15*
X887500Y2560000D02*
D03*
%TF.MD5,b4a0e840b78961f01bcbcd500b667dd5*%
M02*
