%TF.GenerationSoftware,Altium Limited,Altium Designer,18.1.9 (240)*%
G04 Layer_Physical_Order=2*
G04 Layer_Color=16711680*
%FSLAX45Y45*%
%MOMM*%
%TF.FileFunction,Copper,L2,Bot,Signal*%
%TF.Part,Single*%
G01*
G75*
%TA.AperFunction,Conductor*%
%ADD12C,0.25400*%
%TA.AperFunction,ViaPad*%
%ADD14C,0.75000*%
%ADD15C,1.50000*%
%TA.AperFunction,SMDPad,CuDef*%
%ADD16O,3.00000X1.52400*%
%ADD17R,1.20000X1.40000*%
%ADD18R,1.40000X1.20000*%
%ADD19R,1.10000X1.70000*%
%ADD20R,1.70000X1.10000*%
%ADD21R,0.43180X1.39700*%
%ADD22R,0.70000X2.10000*%
%ADD23O,0.60000X2.20000*%
D12*
X1227000Y1518000D02*
Y1720000D01*
Y1518000D02*
X1257960Y1487040D01*
Y740460D02*
Y1487040D01*
Y740460D02*
X1352260Y646160D01*
X1359560Y1342260D02*
X1547660Y1154160D01*
X1359560Y1342260D02*
Y1492060D01*
X1308760Y1139060D02*
Y1513102D01*
X967563Y1295063D02*
X1180058D01*
X967500Y1295000D02*
X967563Y1295063D01*
X635600Y1430000D02*
Y1715782D01*
X915000Y1720000D02*
X1227000D01*
X592500Y2042500D02*
X915000Y1720000D01*
X622660Y2210000D02*
Y2468800D01*
X1227000Y2083000D02*
Y2200000D01*
Y2083000D02*
X1300000Y2010000D01*
X1354000Y2064000D01*
Y2200000D01*
X1283086Y1920000D02*
X1407500D01*
X1127500Y2075586D02*
Y2310000D01*
Y2075586D02*
X1283086Y1920000D01*
X251140Y1831720D02*
X254950Y1835530D01*
Y1917352D01*
X305098Y1967500D01*
X537500D01*
X962500Y1542500D01*
Y1300000D02*
Y1542500D01*
X635600Y1430000D02*
X637500D01*
X519662Y1831720D02*
X635600Y1715782D01*
X510220Y1831720D02*
X519662D01*
X455000Y2042500D02*
X592500D01*
X623814Y2118100D02*
X681915Y2060000D01*
X782260D01*
X515398Y2118100D02*
X623814D01*
X450530Y2182968D02*
X515398Y2118100D01*
X314640Y2182860D02*
X455000Y2042500D01*
X174400Y1575700D02*
Y1821020D01*
Y1575700D02*
X185100Y1565000D01*
X174400Y1821020D02*
X185100Y1831720D01*
X57500Y890000D02*
Y2141000D01*
X1592581Y465080D02*
X1712580D01*
X1267500Y270000D02*
X1273260Y275760D01*
Y524060D01*
X1222160Y575160D02*
X1273260Y524060D01*
X372500Y1430000D02*
Y1490000D01*
Y775320D02*
Y1430000D01*
X572660Y575160D02*
X1222160D01*
X372500Y775320D02*
X572660Y575160D01*
X1397500Y270000D02*
X1592581Y465080D01*
X622660Y2210000D02*
X752260D01*
X787500Y2245240D01*
X782260Y2060000D02*
X787500Y2065240D01*
X350000Y400000D02*
Y404687D01*
Y400000D02*
X480000Y270000D01*
X637500Y1430000D02*
X682500D01*
X812500Y1300000D01*
X962500D02*
X967500Y1295000D01*
X1267500Y270000D02*
X1397500D01*
X57500Y890000D02*
X677500Y270000D01*
X1608000Y2200000D02*
Y2299500D01*
X1437500Y2470000D02*
X1608000Y2299500D01*
X1127500Y2310000D02*
X1272580Y2455080D01*
X568820Y2210000D02*
X622660D01*
X510220Y2268600D02*
X568820Y2210000D01*
X1477500Y2150000D02*
X1657500Y1970000D01*
X1658760D01*
X314640Y2182860D02*
Y2268600D01*
X320990Y2274950D01*
X251140Y2268600D02*
Y2400460D01*
X320835Y2470155D01*
X1354000Y1558342D02*
Y1720000D01*
X1308760Y1513102D02*
X1354000Y1558342D01*
X1308760Y1139060D02*
X1547660Y900160D01*
X1547500Y1408320D02*
Y1560000D01*
X1481000Y1613500D02*
Y1720000D01*
X1359560Y1492060D02*
X1481000Y1613500D01*
X1547500Y1408320D02*
X1547660Y1408160D01*
X1597500Y1458000D01*
X377500Y1828540D02*
X380680Y1831720D01*
X377500Y1630000D02*
Y1828540D01*
X537500Y1580000D02*
Y1630000D01*
Y1659119D01*
X444180Y1752438D02*
Y1831720D01*
Y1752438D02*
X537500Y1659119D01*
X372500Y1430000D02*
X387500D01*
X367500D02*
X372500D01*
X387500D02*
X537500Y1580000D01*
X450530Y2182968D02*
Y2268600D01*
X444180Y1831720D02*
X450530Y1838070D01*
X444180Y2268600D02*
X450530D01*
X505000Y1287500D02*
X640000Y1422500D01*
X57500Y2141000D02*
X185100Y2268600D01*
X677500Y270000D02*
X1087500D01*
X185100Y1180100D02*
Y1295000D01*
X250000Y1830580D02*
X251140Y1831720D01*
X510220D02*
Y1862720D01*
X1352260Y646160D02*
X1547660D01*
X594180Y475160D02*
X1197660D01*
D14*
X1180058Y1295063D02*
D03*
X1300000Y2010000D02*
D03*
X592500Y2042500D02*
D03*
X1712580Y465080D02*
D03*
X350000Y404687D02*
D03*
X622660Y2210000D02*
D03*
X1658760Y1970000D02*
D03*
X1407500Y1920000D02*
D03*
X1547500Y1560000D02*
D03*
X505000Y1287500D02*
D03*
X185000Y1172500D02*
D03*
X1197660Y475160D02*
D03*
X594180D02*
D03*
D15*
X887500Y2560000D02*
D03*
D16*
X1547660Y1408160D02*
D03*
Y1154160D02*
D03*
Y900160D02*
D03*
Y646160D02*
D03*
D17*
X1437500Y2470000D02*
D03*
X1257500D02*
D03*
X1087500Y270000D02*
D03*
X1267500D02*
D03*
X480000D02*
D03*
X660000D02*
D03*
X537500Y1630000D02*
D03*
X377500D02*
D03*
D18*
X787500Y2245240D02*
D03*
Y2065240D02*
D03*
D19*
X615000Y2468800D02*
D03*
X345000D02*
D03*
X367500Y1430000D02*
D03*
X637500D02*
D03*
D20*
X185100Y1565000D02*
D03*
Y1295000D02*
D03*
D21*
Y1831720D02*
D03*
X251140D02*
D03*
X314640D02*
D03*
X380680D02*
D03*
X444180D02*
D03*
X510220D02*
D03*
Y2268600D02*
D03*
X444180D02*
D03*
X380680D02*
D03*
X314640D02*
D03*
X251140D02*
D03*
X185100D02*
D03*
D22*
X812500Y1300000D02*
D03*
X962500D02*
D03*
D23*
X1227000Y2200000D02*
D03*
X1354000D02*
D03*
X1481000D02*
D03*
X1608000D02*
D03*
X1227000Y1720000D02*
D03*
X1354000D02*
D03*
X1481000D02*
D03*
X1608000D02*
D03*
%TF.MD5,1e74e779e862d0fd7d050f778e797f0d*%
M02*
