%TF.GenerationSoftware,Altium Limited,Altium Designer,18.1.9 (240)*%
G04 Layer_Color=16711935*
%FSLAX45Y45*%
%MOMM*%
%TF.FileFunction,Other,Mechanical_5*%
%TF.Part,Single*%
G01*
G75*
%TA.AperFunction,NonConductor*%
%ADD25C,0.25400*%
%ADD41C,0.12700*%
%ADD42C,0.10160*%
D25*
X95000Y2500D02*
X95000D01*
X1697500D02*
X1700000D01*
X1695000D02*
X1697500D01*
X95000D02*
X95000D01*
D41*
X1351570Y2015500D02*
G03*
X1232190Y2015500I-59690J0D01*
G01*
X1662499Y2142594D02*
G03*
X1649893Y2155200I-12701J-94D01*
G01*
X1232190Y2015500D02*
G03*
X1351570Y2015500I59690J0D01*
G01*
X1649893Y1765200D02*
G03*
X1662499Y1777807I-94J12701D01*
G01*
X1185106Y2155200D02*
G03*
X1172500Y2142594I94J-12701D01*
G01*
Y1777807D02*
G03*
X1185106Y1765200I12701J94D01*
G01*
X1662499Y1777807D02*
Y1777901D01*
Y2142500D02*
Y2142594D01*
Y1993199D02*
Y2142500D01*
Y1978200D02*
Y1993199D01*
X1172500Y2142500D02*
Y2142594D01*
X1662499Y1942201D02*
Y1978200D01*
Y1777901D02*
Y1927199D01*
X1649799Y2155200D02*
X1649893D01*
X1172500Y1777901D02*
Y1927199D01*
X1649799Y1765201D02*
X1649893D01*
X1172500Y1942201D02*
Y1978200D01*
Y1993199D02*
Y2142500D01*
X1185200Y1765201D02*
X1649799D01*
X1172500Y1927199D02*
Y1942201D01*
X1185106Y2155200D02*
X1185200D01*
X1185106Y1765201D02*
X1185200D01*
Y2155200D02*
X1649799D01*
X1172500Y1978200D02*
Y1993199D01*
X1662499Y1927199D02*
Y1942201D01*
X1172500Y1777807D02*
Y1777901D01*
X1588999Y2260201D02*
X1627000D01*
Y2218921D02*
Y2260201D01*
X1588999Y2197524D02*
Y2218921D01*
X1627000Y2159526D02*
Y2197524D01*
X1588999Y2159526D02*
Y2197524D01*
X1627000Y2155200D02*
Y2159526D01*
X1588999Y2218921D02*
Y2260201D01*
X1627000Y2197524D02*
Y2218921D01*
X1588999Y2155200D02*
Y2159526D01*
Y2155200D02*
X1627000D01*
X1588999Y2197524D02*
X1627000D01*
X1461999Y2260201D02*
X1500000D01*
Y2218921D02*
Y2260201D01*
X1461999Y2197524D02*
Y2218921D01*
X1500000Y2159526D02*
Y2197524D01*
X1461999Y2159526D02*
Y2197524D01*
X1500000Y2155200D02*
Y2159526D01*
X1461999Y2218921D02*
Y2260201D01*
X1500000Y2197524D02*
Y2218921D01*
X1461999Y2155200D02*
Y2159526D01*
Y2155200D02*
X1500000D01*
X1461999Y2197524D02*
X1500000D01*
X1334999Y2260201D02*
X1373000D01*
Y2218921D02*
Y2260201D01*
X1334999Y2197524D02*
Y2218921D01*
X1373000Y2159526D02*
Y2197524D01*
X1334999Y2159526D02*
Y2197524D01*
X1373000Y2155200D02*
Y2159526D01*
X1334999Y2218921D02*
Y2260201D01*
X1373000Y2197524D02*
Y2218921D01*
X1334999Y2155200D02*
Y2159526D01*
Y2155200D02*
X1373000D01*
X1334999Y2197524D02*
X1373000D01*
X1207999Y2260201D02*
X1246000D01*
Y2218921D02*
Y2260201D01*
X1207999Y2197524D02*
Y2218921D01*
X1246000Y2159526D02*
Y2197524D01*
X1207999Y2159526D02*
Y2197524D01*
X1246000Y2155200D02*
Y2159526D01*
X1207999Y2218921D02*
Y2260201D01*
X1246000Y2197524D02*
Y2218921D01*
X1207999Y2155200D02*
Y2159526D01*
Y2155200D02*
X1246000D01*
X1207999Y2197524D02*
X1246000D01*
X1588999Y1660200D02*
X1627000D01*
X1588999D02*
Y1701480D01*
X1627000D02*
Y1722874D01*
X1588999D02*
Y1760875D01*
X1627000Y1722874D02*
Y1760875D01*
X1588999D02*
Y1765201D01*
X1627000Y1660200D02*
Y1701480D01*
X1588999D02*
Y1722874D01*
X1627000Y1760875D02*
Y1765201D01*
X1588999D02*
X1627000D01*
X1588999Y1722874D02*
X1627000D01*
X1461999Y1660200D02*
X1500000D01*
X1461999D02*
Y1701480D01*
X1500000D02*
Y1722874D01*
X1461999D02*
Y1760875D01*
X1500000Y1722874D02*
Y1760875D01*
X1461999D02*
Y1765201D01*
X1500000Y1660200D02*
Y1701480D01*
X1461999D02*
Y1722874D01*
X1500000Y1760875D02*
Y1765201D01*
X1461999D02*
X1500000D01*
X1461999Y1722874D02*
X1500000D01*
X1334999Y1660200D02*
X1373000D01*
X1334999D02*
Y1701480D01*
X1373000D02*
Y1722874D01*
X1334999D02*
Y1760875D01*
X1373000Y1722874D02*
Y1760875D01*
X1334999D02*
Y1765201D01*
X1373000Y1660200D02*
Y1701480D01*
X1334999D02*
Y1722874D01*
X1373000Y1760875D02*
Y1765201D01*
X1334999D02*
X1373000D01*
X1334999Y1722874D02*
X1373000D01*
X1207999Y1660200D02*
X1246000D01*
X1207999D02*
Y1701480D01*
X1246000D02*
Y1722874D01*
X1207999D02*
Y1760875D01*
X1246000Y1722874D02*
Y1760875D01*
X1207999D02*
Y1765201D01*
X1246000Y1660200D02*
Y1701480D01*
X1207999D02*
Y1722874D01*
X1246000Y1760875D02*
Y1765201D01*
X1207999D02*
X1246000D01*
X1207999Y1722874D02*
X1246000D01*
X1172500Y1927199D02*
Y1942201D01*
Y1978200D02*
Y1993199D01*
X1662499Y1978200D02*
Y1993199D01*
Y1927199D02*
Y1942201D01*
D42*
X1391129Y2122500D02*
X1465188D01*
X1480000Y2107688D01*
Y2078064D01*
X1465188Y2063252D01*
X1391129D01*
X1480000Y1974381D02*
Y2033629D01*
X1420752Y1974381D01*
X1405941D01*
X1391129Y1989193D01*
Y2018817D01*
X1405941Y2033629D01*
%TF.MD5,e8c7ba77b4ddd8fb689c93d1284201e5*%
M02*
