%TF.GenerationSoftware,Altium Limited,Altium Designer,18.1.9 (240)*%
G04 Layer_Color=32768*
%FSLAX45Y45*%
%MOMM*%
%TF.FileFunction,Other,Mechanical_15*%
%TF.Part,Single*%
G01*
G75*
%TA.AperFunction,NonConductor*%
%ADD39C,0.10000*%
%ADD43C,0.05000*%
D39*
X1522500Y2375000D02*
Y2565000D01*
X1172500Y2375000D02*
Y2565000D01*
X1522500D01*
X1172500Y2375000D02*
X1522500D01*
X1297500Y2470000D02*
X1397500D01*
X1347500Y2420000D02*
Y2520000D01*
X692500Y2330240D02*
X882500D01*
X692500Y1980240D02*
X882500D01*
X692500D02*
Y2330240D01*
X882500Y1980240D02*
Y2330240D01*
X787500Y2105240D02*
Y2205240D01*
X737500Y2155240D02*
X837500D01*
X1002500Y175000D02*
Y365000D01*
X1352500Y175000D02*
Y365000D01*
X1002500Y175000D02*
X1352500D01*
X1002500Y365000D02*
X1352500D01*
X1127500Y270000D02*
X1227500D01*
X1177500Y220000D02*
Y320000D01*
X395000Y175000D02*
Y365000D01*
X745000Y175000D02*
Y365000D01*
X395000Y175000D02*
X745000D01*
X395000Y365000D02*
X745000D01*
X520000Y270000D02*
X620000D01*
X570000Y220000D02*
Y320000D01*
X480000Y2418800D02*
Y2518800D01*
X430000Y2468800D02*
X530000D01*
X280000Y2563800D02*
X680000D01*
X280000Y2373800D02*
X680000D01*
Y2563800D01*
X280000Y2373800D02*
Y2563800D01*
X607500Y1550000D02*
Y1710000D01*
X307500Y1550000D02*
Y1710000D01*
X607500D01*
X307500Y1550000D02*
X607500D01*
X407500Y1630000D02*
X507500D01*
X457500Y1580000D02*
Y1680000D01*
X502500Y1380000D02*
Y1480000D01*
X452500Y1430000D02*
X552500D01*
X302500Y1335000D02*
X702500D01*
X302500Y1525000D02*
X702500D01*
X302500Y1335000D02*
Y1525000D01*
X702500Y1335000D02*
Y1525000D01*
X135100Y1430000D02*
X235100D01*
X185100Y1380000D02*
Y1480000D01*
X90100Y1230000D02*
Y1630000D01*
X280100Y1230000D02*
Y1630000D01*
X90100D02*
X280100D01*
X90100Y1230000D02*
X280100D01*
X1417500Y1910000D02*
Y2010000D01*
X1367500Y1960000D02*
X1467500D01*
D43*
X1142500Y2335000D02*
X1692500D01*
X1142500Y1585000D02*
X1692500D01*
X1142500D02*
Y2335000D01*
X1692500Y1585000D02*
Y2335000D01*
%TF.MD5,08378f17ab428841320c69bea824ec45*%
M02*
