%TF.GenerationSoftware,Altium Limited,Altium Designer,18.1.9 (240)*%
G04 Layer_Physical_Order=2*
G04 Layer_Color=16711680*
%FSLAX45Y45*%
%MOMM*%
%TF.FileFunction,Copper,L2,Bot,Signal*%
%TF.Part,Single*%
G01*
G75*
%TA.AperFunction,Conductor*%
%ADD12C,0.25400*%
%TA.AperFunction,ComponentPad*%
%ADD14C,1.20000*%
%TA.AperFunction,ViaPad*%
%ADD15C,0.80000*%
%ADD16C,1.70000*%
%TA.AperFunction,Conductor*%
%ADD17C,1.00000*%
%TA.AperFunction,NonConductor*%
%ADD18C,0.25400*%
%TA.AperFunction,SMDPad,CuDef*%
%ADD19O,0.60000X2.20000*%
%ADD20R,2.10000X0.70000*%
%ADD21O,1.52400X3.00000*%
%ADD22C,0.50000*%
%ADD23C,2.00000*%
%ADD24R,0.80000X1.00000*%
%ADD25R,2.00000X1.00000*%
%ADD26R,1.40000X1.10000*%
%ADD27R,1.20000X1.40000*%
%ADD28R,1.10000X1.40000*%
%ADD29R,1.40000X1.20000*%
%ADD30R,1.39700X0.43180*%
D12*
X2025000Y701500D02*
X2051500Y675000D01*
X1100000Y1210000D02*
Y1325000D01*
X1699500Y1365501D02*
Y1522847D01*
Y1365501D02*
X1725000Y1340000D01*
X1826500Y1267382D02*
Y1522847D01*
Y1267382D02*
X1828100Y1265782D01*
Y1134218D02*
Y1265782D01*
X1826500Y1132618D02*
X1828100Y1134218D01*
X1826500Y1051500D02*
Y1132618D01*
X1775000Y1000000D02*
X1826500Y1051500D01*
X2052379Y1852031D02*
X2080500Y1880152D01*
X872031Y1852031D02*
X2052379D01*
X2080500Y1880152D02*
Y2002847D01*
X1627847D02*
X1699500D01*
X1567500Y1942500D02*
X1627847Y2002847D01*
X1407674Y1902847D02*
X1804827Y2300000D01*
X1807153D01*
X1280653Y1160000D02*
X1476900Y1356247D01*
X1150000Y1160000D02*
X1280653D01*
X1100000Y1210000D02*
X1150000Y1160000D01*
X1908100Y542200D02*
X1946900Y503400D01*
X1908100Y542200D02*
Y691900D01*
X1943500Y500000D02*
X1946900Y503400D01*
X1725000Y1043480D02*
Y1175000D01*
X1556520Y875000D02*
X1725000Y1043480D01*
Y1225000D02*
Y1340000D01*
Y1225000D02*
X1750000Y1200000D01*
X1946900Y928018D02*
Y1516247D01*
X1775000Y900000D02*
Y1000000D01*
X1785000Y658501D02*
X1801500Y675000D01*
X1785000Y500000D02*
Y658501D01*
X1775000Y700000D02*
Y756118D01*
X1946900Y928018D01*
X1775000Y846842D02*
Y900000D01*
X1728158Y800000D02*
X1775000Y846842D01*
X1110000Y800000D02*
X1728158D01*
X750000Y1275000D02*
Y1730000D01*
X600000Y1125000D02*
X750000Y1275000D01*
X475000Y1125000D02*
X600000D01*
X475000D02*
Y1525000D01*
X225000Y1000000D02*
Y1125000D01*
X125000Y900000D02*
X225000Y1000000D01*
X125000Y800000D02*
Y900000D01*
X225000Y1125000D02*
Y1525000D01*
X1530000Y1725000D02*
X1555000Y1700000D01*
X1140882Y1800000D02*
X1477709D01*
X1100000Y1759118D02*
X1140882Y1800000D01*
X1477709D02*
X1501608Y1776100D01*
X625000Y1902847D02*
X1407674D01*
X871353Y1953647D02*
X1353647D01*
X1807153Y2300000D02*
X1916072Y2408919D01*
X750000Y1730000D02*
X872031Y1852031D01*
X575000Y225000D02*
X721000D01*
X360000Y440000D02*
X575000Y225000D01*
X360000Y440000D02*
Y625000D01*
X1127440Y2725407D02*
X1468440D01*
X1031560D02*
X1127440D01*
X1031560D02*
Y2773440D01*
X1005000Y2800000D02*
X1031560Y2773440D01*
X650000Y2800000D02*
X1005000D01*
X610001Y2760001D02*
X650000Y2800000D01*
X610001Y2659367D02*
Y2760001D01*
X2025000Y900000D02*
Y1344499D01*
X1500000Y1035000D02*
Y1200000D01*
X1415000Y950000D02*
X1500000Y1035000D01*
X610000Y950000D02*
X1415000D01*
X1500000Y1200000D02*
Y1272942D01*
X1552058Y1325000D01*
X1555000D01*
X895000Y875000D02*
X1556520D01*
X350000Y635000D02*
Y800000D01*
Y635000D02*
X360000Y625000D01*
X350000Y800000D02*
X610000D01*
X125000D02*
X350000D01*
X540000Y625000D02*
X590000Y675000D01*
X675000D01*
X375001Y950000D02*
X610000D01*
X820000Y800000D02*
X895000Y875000D01*
X610000Y800000D02*
X820000D01*
X975000Y665000D02*
X1110000Y800000D01*
X1516748Y1397197D02*
Y1510000D01*
X1476900Y1357350D02*
X1516748Y1397197D01*
X1476900Y1356247D02*
Y1357350D01*
X2025000Y701500D02*
Y900000D01*
X1299200Y499200D02*
X1784200D01*
X1229000Y429000D02*
X1299200Y499200D01*
X1229000Y225000D02*
Y429000D01*
X975000Y225000D02*
Y665000D01*
X1990000Y340000D02*
Y500000D01*
X1784200Y499200D02*
X1785000Y500000D01*
X1946900Y1516247D02*
X1953500Y1522847D01*
X1502058Y1776100D02*
X1516748Y1761411D01*
X1501608Y1776100D02*
X1502058D01*
X1875000Y225000D02*
X1990000Y340000D01*
X1483000Y225000D02*
X1875000D01*
X1950000Y2039347D02*
X1970000Y2019347D01*
X1100000Y1575000D02*
Y1759118D01*
X1516748Y1716748D02*
Y1761411D01*
X615000Y2167847D02*
Y2472847D01*
X1516748Y1510000D02*
X1529594Y1522847D01*
X1699500D01*
X2052847Y1700000D02*
X2080500Y1672347D01*
X1555000Y1700000D02*
X2052847D01*
X1516748Y1690000D02*
Y1716748D01*
X1526424Y1726424D01*
X1530000Y1730000D01*
Y1725000D02*
Y1730000D01*
Y1722847D02*
Y1725000D01*
X1527847D02*
X1530000D01*
X1526424Y1726424D02*
X1527847Y1725000D01*
X1948020Y2729827D02*
X2003096Y2674751D01*
X1960000Y2260000D02*
X2003096Y2303096D01*
Y2674751D01*
X1825000Y2004347D02*
X1826500Y2002847D01*
X1825000Y2004347D02*
Y2192847D01*
X1425000Y2025000D02*
Y2125000D01*
X1353647Y1953647D02*
X1425000Y2025000D01*
X1606520Y2466327D02*
X1690000Y2382847D01*
X1960000Y2192847D02*
Y2260000D01*
Y2049347D02*
Y2192847D01*
X1950000Y2039347D02*
X1960000Y2049347D01*
X1770000Y2729827D02*
X1948020D01*
X615000Y2167847D02*
X710000Y2072847D01*
X830000Y1995000D02*
X871353Y1953647D01*
X1527847Y1725000D02*
X1530000Y1722847D01*
X830000Y1995000D02*
Y2072847D01*
X1240000Y2190000D02*
Y2402847D01*
X1122847Y2072847D02*
X1240000Y2190000D01*
X1030000Y2072847D02*
X1122847D01*
X1953500Y2002847D02*
X1970000Y2019347D01*
X610001Y2477847D02*
X615000Y2472847D01*
X610001Y2477847D02*
Y2659367D01*
X1031560D02*
X1031560Y2659367D01*
X790000Y2659367D02*
X1031560D01*
X765000Y2466327D02*
X1031560D01*
X1468440Y2725407D02*
X1485000Y2741967D01*
Y2892847D01*
X1635000D02*
X1740000D01*
X1770000Y2862847D01*
Y2729827D02*
Y2862847D01*
X1468440Y2466327D02*
X1606520D01*
X1468440Y2266288D02*
Y2400287D01*
X1465000Y2262847D02*
X1468440Y2266288D01*
X1127440Y2725407D02*
X1160000Y2692847D01*
Y2552847D02*
Y2692847D01*
X1136980Y2529827D02*
X1160000Y2552847D01*
X1031560Y2529827D02*
X1136980D01*
X1303480Y2466327D02*
X1468440D01*
X1240000Y2402847D02*
X1303480Y2466327D01*
X710000Y2072847D02*
X830000D01*
X885880Y2398727D02*
X1030000D01*
X830000Y2342847D02*
X885880Y2398727D01*
X830000Y2252847D02*
Y2342847D01*
X1030000Y2252847D02*
Y2398727D01*
X1468440Y2595867D02*
X1596980D01*
X1663020Y2529827D01*
X1770000D01*
X1468440Y2659367D02*
X1586520D01*
X1656980Y2729827D01*
X1770000D01*
X2080500Y1522847D02*
Y1672347D01*
D14*
X225000Y1525000D02*
D03*
X475000D02*
D03*
D15*
X1567500Y1942500D02*
D03*
X1725000Y1340000D02*
D03*
X1908100Y691900D02*
D03*
X2025000Y1344499D02*
D03*
X625000Y1902847D02*
D03*
X125000Y800000D02*
D03*
X1555000Y1325000D02*
D03*
X675000Y675000D02*
D03*
X615000Y2167847D02*
D03*
X1924996Y2399995D02*
D03*
X1690000Y2382847D02*
D03*
X1825000Y2192847D02*
D03*
X1960000D02*
D03*
D16*
X1100000Y3025000D02*
D03*
D17*
Y1325000D02*
G03*
X1200000Y1698205I0J200000D01*
G01*
X1000000D02*
G03*
X1100000Y1325000I100000J-173205D01*
G01*
D18*
X285000Y1445000D02*
G03*
X165000Y1445000I-60000J80000D01*
G01*
X535000D02*
G03*
X415000Y1445000I-60000J80000D01*
G01*
D19*
X1699500Y2002847D02*
D03*
X1826500D02*
D03*
X1953500D02*
D03*
X2080500D02*
D03*
X1699500Y1522847D02*
D03*
X1826500D02*
D03*
X1953500D02*
D03*
X2080500D02*
D03*
D20*
X610000Y950000D02*
D03*
Y800000D02*
D03*
D21*
X1483000Y225000D02*
D03*
X1229000D02*
D03*
X975000D02*
D03*
X721000D02*
D03*
D22*
X1100000Y1325000D02*
D03*
D23*
Y1525000D02*
D03*
D24*
X1500000Y1200000D02*
D03*
X1750000D02*
D03*
X1775000Y700000D02*
D03*
X2025000D02*
D03*
X1775000Y900000D02*
D03*
X2025000D02*
D03*
X475000Y1125000D02*
D03*
X225000D02*
D03*
D25*
X1784200Y2760001D02*
D03*
Y2510001D02*
D03*
D26*
X350000Y950000D02*
D03*
Y800000D02*
D03*
X1425000Y2275000D02*
D03*
Y2125000D02*
D03*
D27*
X1810000Y500000D02*
D03*
X1990000D02*
D03*
X360000Y625000D02*
D03*
X540000D02*
D03*
X610001Y2659367D02*
D03*
X790000D02*
D03*
D28*
X1627058Y2912500D02*
D03*
X1477058D02*
D03*
X615000Y2472847D02*
D03*
X765000D02*
D03*
D29*
X1030000Y2252847D02*
D03*
Y2072847D02*
D03*
X830000Y2072847D02*
D03*
Y2252847D02*
D03*
X1516748Y1510000D02*
D03*
Y1690000D02*
D03*
D30*
X1031560Y2400287D02*
D03*
Y2466327D02*
D03*
Y2529827D02*
D03*
Y2595867D02*
D03*
Y2659367D02*
D03*
Y2725407D02*
D03*
X1468440D02*
D03*
Y2659367D02*
D03*
Y2595867D02*
D03*
Y2529827D02*
D03*
Y2466327D02*
D03*
Y2400287D02*
D03*
%TF.MD5,570c020c4c25027aa535549d8d5b37c1*%
M02*
