%TF.GenerationSoftware,Altium Limited,Altium Designer,18.1.9 (240)*%
G04 Layer_Color=16711935*
%FSLAX45Y45*%
%MOMM*%
%TF.FileFunction,Other,Mechanical_13*%
%TF.Part,Single*%
G01*
G75*
%TA.AperFunction,NonConductor*%
%ADD18C,0.25400*%
%ADD51C,0.10000*%
D18*
X300000Y3200000D02*
X1900000D01*
X2200000Y2900000D01*
X0D02*
X300000Y3200000D01*
X0Y300000D02*
Y2900000D01*
Y300000D02*
X300000Y0D01*
X1900000D01*
X2200000Y300000D01*
Y2900000D01*
D51*
X277500Y765000D02*
Y985000D01*
X422501Y765000D02*
Y985000D01*
X277500D02*
X422501D01*
X277500Y765000D02*
X422501D01*
X1792500Y430000D02*
Y570000D01*
X2007500Y430000D02*
Y570000D01*
X1792500Y430000D02*
X2007500D01*
X1792500Y570000D02*
X2007500D01*
X342500Y555000D02*
Y695000D01*
X557500Y555000D02*
Y695000D01*
X342500Y555000D02*
X557500D01*
X342500Y695000D02*
X557500D01*
X1442058Y2985000D02*
X1662058D01*
X1442058Y2839999D02*
X1662058D01*
Y2985000D01*
X1442058Y2839999D02*
Y2985000D01*
X1352500Y2090000D02*
Y2310000D01*
X1497500Y2090000D02*
Y2310000D01*
X1352500D02*
X1497500D01*
X1352500Y2090000D02*
X1497500D01*
X960000Y2270347D02*
X1100000D01*
X960000Y2055347D02*
X1100000D01*
X960000D02*
Y2270347D01*
X1100000Y2055347D02*
Y2270347D01*
X760001Y2055347D02*
X900000D01*
X760001Y2270347D02*
X900000D01*
Y2055347D02*
Y2270347D01*
X760001Y2055347D02*
Y2270347D01*
X580000Y2400347D02*
X800000D01*
X580000Y2545348D02*
X800000D01*
X580000Y2400347D02*
Y2545348D01*
X800000Y2400347D02*
Y2545348D01*
X592500Y2589367D02*
Y2729367D01*
X807501Y2589367D02*
Y2729367D01*
X592500Y2589367D02*
X807501D01*
X592500Y2729367D02*
X807501D01*
X1446748Y1492500D02*
X1586748D01*
X1446748Y1707500D02*
X1586748D01*
Y1492500D02*
Y1707500D01*
X1446748Y1492500D02*
Y1707500D01*
%TF.MD5,6dd6e1de437334e1cd9cc2bd1ca6bc74*%
M02*
