%TF.GenerationSoftware,Altium Limited,Altium Designer,18.1.9 (240)*%
G04 Layer_Color=2752767*
%FSLAX45Y45*%
%MOMM*%
%TF.FileFunction,Drawing*%
%TF.Part,Single*%
G01*
G75*
%TA.AperFunction,NonConductor*%
%ADD41C,0.12700*%
%ADD48C,0.16933*%
D41*
X1129258Y1244263D02*
Y1345863D01*
X1230858D01*
Y1244263D01*
X1129258D01*
X1249200Y1959200D02*
Y2060800D01*
X1350800D01*
Y1959200D01*
X1249200D01*
X541700Y1991700D02*
Y2093300D01*
X643300D01*
Y1991700D01*
X541700D01*
X1661780Y414280D02*
Y515880D01*
X1763380D01*
Y414280D01*
X1661780D01*
X299200Y353887D02*
Y455487D01*
X400800D01*
Y353887D01*
X299200D01*
X571860Y2159200D02*
Y2260800D01*
X673460D01*
Y2159200D01*
X571860D01*
X1607960Y1919200D02*
Y2020800D01*
X1709560D01*
Y1919200D01*
X1607960D01*
X1356700Y1869200D02*
Y1970800D01*
X1458300D01*
Y1869200D01*
X1356700D01*
X1496700Y1509200D02*
Y1610800D01*
X1598300D01*
Y1509200D01*
X1496700D01*
X454200Y1236700D02*
Y1338300D01*
X555800D01*
Y1236700D01*
X454200D01*
X134200Y1121700D02*
Y1223300D01*
X235800D01*
Y1121700D01*
X134200D01*
X1146860Y424360D02*
Y525960D01*
X1248460D01*
Y424360D01*
X1146860D01*
X543380D02*
Y525960D01*
X644980D01*
Y424360D01*
X543380D01*
D48*
X938300Y2560000D02*
G03*
X938300Y2560000I-50800J0D01*
G01*
%TF.MD5,fd9bfc7a7c05636c051fd63eef883e31*%
M02*
