%TF.GenerationSoftware,Altium Limited,Altium Designer,18.1.9 (240)*%
G04 Layer_Color=32768*
%FSLAX45Y45*%
%MOMM*%
%TF.FileFunction,Other,Mechanical_15*%
%TF.Part,Single*%
G01*
G75*
%TA.AperFunction,NonConductor*%
%ADD53C,0.05000*%
%ADD54C,0.10000*%
D53*
X1615000Y2137847D02*
X2165000D01*
X1615000Y1387847D02*
X2165000D01*
X1615000D02*
Y2137847D01*
X2165000Y1387847D02*
Y2137847D01*
D54*
X1890000Y1712847D02*
Y1812847D01*
X1840000Y1762847D02*
X1940000D01*
X300000Y875000D02*
X400000D01*
X350000Y825000D02*
Y925000D01*
X270000Y735000D02*
Y1015000D01*
X430000Y735000D02*
Y1015000D01*
X270000D02*
X430000D01*
X270000Y735000D02*
X430000D01*
X1725000Y405000D02*
Y595000D01*
X2075000Y405000D02*
Y595000D01*
X1725000Y405000D02*
X2075000D01*
X1725000Y595000D02*
X2075000D01*
X1850000Y500000D02*
X1950000D01*
X1900000Y450000D02*
Y550000D01*
X275000Y530000D02*
Y720000D01*
X625000Y530000D02*
Y720000D01*
X275000Y530000D02*
X625000D01*
X275000Y720000D02*
X625000D01*
X400000Y625000D02*
X500000D01*
X450000Y575000D02*
Y675000D01*
X1552058Y2862499D02*
Y2962500D01*
X1502058Y2912500D02*
X1602058D01*
X1412058Y2992499D02*
X1692058D01*
X1412058Y2832500D02*
X1692058D01*
Y2992499D01*
X1412058Y2832500D02*
Y2992499D01*
X1375000Y2200000D02*
X1475000D01*
X1425000Y2150000D02*
Y2250000D01*
X1345000Y2060000D02*
Y2340000D01*
X1505000Y2060000D02*
Y2340000D01*
X1345000D02*
X1505000D01*
X1345000Y2060000D02*
X1505000D01*
X935000Y2337847D02*
X1125000D01*
X935000Y1987847D02*
X1125000D01*
X935000D02*
Y2337847D01*
X1125000Y1987847D02*
Y2337847D01*
X1030000Y2112847D02*
Y2212847D01*
X980000Y2162847D02*
X1080000D01*
X735001Y1987847D02*
X925000D01*
X735001Y2337847D02*
X925000D01*
Y1987847D02*
Y2337847D01*
X735001Y1987847D02*
Y2337847D01*
X830000Y2112847D02*
Y2212847D01*
X780000Y2162847D02*
X880001D01*
X690000Y2422848D02*
Y2522848D01*
X640000Y2472847D02*
X740000D01*
X550000Y2392848D02*
X830000D01*
X550000Y2552848D02*
X830000D01*
X550000Y2392848D02*
Y2552848D01*
X830000Y2392848D02*
Y2552848D01*
X525000Y2564367D02*
Y2754367D01*
X875001Y2564367D02*
Y2754367D01*
X525000Y2564367D02*
X875001D01*
X525000Y2754367D02*
X875001D01*
X650000Y2659367D02*
X750001D01*
X700001Y2609367D02*
Y2709367D01*
X1421748Y1425000D02*
X1611748D01*
X1421748Y1775000D02*
X1611748D01*
Y1425000D02*
Y1775000D01*
X1421748Y1425000D02*
Y1775000D01*
X1516748Y1550000D02*
Y1650000D01*
X1466748Y1600000D02*
X1566748D01*
%TF.MD5,f49be67207da14484ac04b028a23cee6*%
M02*
