%TF.GenerationSoftware,Altium Limited,Altium Designer,18.1.9 (240)*%
G04 Layer_Color=16711935*
%FSLAX45Y45*%
%MOMM*%
%TF.FileFunction,Soldermask,Bot*%
%TF.Part,Single*%
G01*
G75*
%TA.AperFunction,SMDPad,CuDef*%
%ADD27O,3.20000X1.72400*%
%ADD28R,1.40000X1.60000*%
%ADD29R,1.60000X1.40000*%
%ADD30R,1.30000X1.90000*%
%ADD31R,1.90000X1.30000*%
%ADD32R,0.63180X1.59700*%
%ADD33R,0.90000X2.30000*%
%ADD34O,0.80000X2.40000*%
%TA.AperFunction,ViaPad*%
%ADD35C,0.95000*%
%ADD36C,1.70000*%
D27*
X1547660Y1408160D02*
D03*
Y1154160D02*
D03*
Y900160D02*
D03*
Y646160D02*
D03*
D28*
X1437500Y2470000D02*
D03*
X1257500D02*
D03*
X1087500Y270000D02*
D03*
X1267500D02*
D03*
X480000D02*
D03*
X660000D02*
D03*
X537500Y1630000D02*
D03*
X377500D02*
D03*
D29*
X787500Y2245240D02*
D03*
Y2065240D02*
D03*
D30*
X615000Y2468800D02*
D03*
X345000D02*
D03*
X367500Y1430000D02*
D03*
X637500D02*
D03*
D31*
X185100Y1565000D02*
D03*
Y1295000D02*
D03*
D32*
Y1831720D02*
D03*
X251140D02*
D03*
X314640D02*
D03*
X380680D02*
D03*
X444180D02*
D03*
X510220D02*
D03*
Y2268600D02*
D03*
X444180D02*
D03*
X380680D02*
D03*
X314640D02*
D03*
X251140D02*
D03*
X185100D02*
D03*
D33*
X812500Y1300000D02*
D03*
X962500D02*
D03*
D34*
X1227000Y2200000D02*
D03*
X1354000D02*
D03*
X1481000D02*
D03*
X1608000D02*
D03*
X1227000Y1720000D02*
D03*
X1354000D02*
D03*
X1481000D02*
D03*
X1608000D02*
D03*
D35*
X1180058Y1295063D02*
D03*
X1300000Y2010000D02*
D03*
X592500Y2042500D02*
D03*
X1712580Y465080D02*
D03*
X350000Y404687D02*
D03*
X622660Y2210000D02*
D03*
X1658760Y1970000D02*
D03*
X1407500Y1920000D02*
D03*
X1547500Y1560000D02*
D03*
X505000Y1287500D02*
D03*
X185000Y1172500D02*
D03*
X1197660Y475160D02*
D03*
X594180D02*
D03*
D36*
X887500Y2560000D02*
D03*
%TF.MD5,6e5b27ab4e3a1104cf138954cc7ac808*%
M02*
