%TF.GenerationSoftware,Altium Limited,Altium Designer,18.1.9 (240)*%
G04 Layer_Color=32896*
%FSLAX45Y45*%
%MOMM*%
%TF.FileFunction,Legend,Bot*%
%TF.Part,Single*%
G01*
G75*
%TA.AperFunction,NonConductor*%
%ADD24C,0.15240*%
%ADD25C,0.25400*%
%ADD26C,0.20000*%
D24*
X144460Y2019680D02*
G03*
X144460Y2080640I0J30480D01*
G01*
Y2172080D01*
Y2019680D02*
Y2080640D01*
Y1928240D02*
Y2019680D01*
X550860Y1928240D02*
Y2172080D01*
D25*
X1227647Y810000D02*
G03*
X1227647Y810000I-340147J0D01*
G01*
X1077500Y1250000D02*
Y1330000D01*
Y1290000D02*
X1117500Y1290000D01*
X1037500Y1290000D02*
X1117500Y1290000D01*
X727500Y1250000D02*
Y1330000D01*
X183355Y2493306D02*
X200016Y2509968D01*
X233339D01*
X250000Y2493306D01*
Y2426661D01*
X233339Y2410000D01*
X200016D01*
X183355Y2426661D01*
X100048Y2410000D02*
Y2509968D01*
X150032Y2459984D01*
X83387D01*
X1697660Y2410000D02*
Y2509968D01*
X1647676D01*
X1631015Y2493306D01*
Y2459984D01*
X1647676Y2443323D01*
X1697660D01*
X1664337D02*
X1631015Y2410000D01*
X1547708D02*
Y2509968D01*
X1597692Y2459984D01*
X1531047D01*
X752260Y1679968D02*
Y1580000D01*
X685615D01*
X652292D02*
X618970D01*
X635631D01*
Y1679968D01*
X652292Y1663306D01*
X887500Y2310000D02*
Y2409968D01*
X837516D01*
X820855Y2393306D01*
Y2359984D01*
X837516Y2343322D01*
X887500D01*
X854177D02*
X820855Y2310000D01*
X787532Y2393306D02*
X770871Y2409968D01*
X737548D01*
X720887Y2393306D01*
Y2376645D01*
X737548Y2359984D01*
X754210D01*
X737548D01*
X720887Y2343322D01*
Y2326661D01*
X737548Y2310000D01*
X770871D01*
X787532Y2326661D01*
X1547500Y210000D02*
Y309968D01*
X1497516D01*
X1480855Y293306D01*
Y259984D01*
X1497516Y243323D01*
X1547500D01*
X1514177D02*
X1480855Y210000D01*
X1380887D02*
X1447532D01*
X1380887Y276645D01*
Y293306D01*
X1397548Y309968D01*
X1430871D01*
X1447532Y293306D01*
X367500Y210000D02*
Y309968D01*
X317516D01*
X300855Y293306D01*
Y259984D01*
X317516Y243323D01*
X367500D01*
X334177D02*
X300855Y210000D01*
X267532D02*
X234210D01*
X250871D01*
Y309968D01*
X267532Y293306D01*
X510855Y1226694D02*
X527516Y1210032D01*
X560839D01*
X577500Y1226694D01*
Y1293339D01*
X560839Y1310000D01*
X527516D01*
X510855Y1293339D01*
X477532Y1226694D02*
X460871Y1210032D01*
X427548D01*
X410887Y1226694D01*
Y1243355D01*
X427548Y1260016D01*
X444210D01*
X427548D01*
X410887Y1276677D01*
Y1293339D01*
X427548Y1310000D01*
X460871D01*
X477532Y1293339D01*
X205855Y1183467D02*
X222516Y1200128D01*
X255838D01*
X272500Y1183467D01*
Y1116821D01*
X255838Y1100160D01*
X222516D01*
X205855Y1116821D01*
X105887Y1100160D02*
X172532D01*
X105887Y1166805D01*
Y1183467D01*
X122548Y1200128D01*
X155871D01*
X172532Y1183467D01*
X420695Y863146D02*
X437356Y879808D01*
X470679D01*
X487340Y863146D01*
Y796501D01*
X470679Y779840D01*
X437356D01*
X420695Y796501D01*
X387372Y779840D02*
X354050D01*
X370711D01*
Y879808D01*
X387372Y863146D01*
X687500Y1885128D02*
Y1801821D01*
X670839Y1785160D01*
X637516D01*
X620855Y1801821D01*
Y1885128D01*
X587532Y1785160D02*
X554210D01*
X570871D01*
Y1885128D01*
X587532Y1868466D01*
X1127500Y2050128D02*
Y1966822D01*
X1110839Y1950160D01*
X1077516D01*
X1060855Y1966822D01*
Y2050128D01*
X960887Y1950160D02*
X1027532D01*
X960887Y2016805D01*
Y2033467D01*
X977548Y2050128D01*
X1010871D01*
X1027532Y2033467D01*
D26*
X1347500Y2410000D02*
Y2530000D01*
X727500Y2155240D02*
X847500D01*
X1177500Y210000D02*
Y330000D01*
X570000Y210000D02*
Y330000D01*
X440000Y2543800D02*
X520000D01*
X440000Y2393800D02*
X520000D01*
X462500Y1355000D02*
X542500D01*
X462500Y1505000D02*
X542500D01*
X110100Y1390000D02*
Y1470000D01*
X260100Y1390000D02*
Y1470000D01*
X1167500Y1870000D02*
Y2290000D01*
X1667500Y1870000D02*
Y2050000D01*
X1452673Y803143D02*
X1462669Y813140D01*
X1482663D01*
X1492660Y803143D01*
Y763156D01*
X1482663Y753160D01*
X1462669D01*
X1452673Y763156D01*
Y783150D01*
X1472666D01*
X1432679Y753160D02*
Y813140D01*
X1392692Y753160D01*
Y813140D01*
X1372699D02*
Y753160D01*
X1342708D01*
X1332712Y763156D01*
Y803143D01*
X1342708Y813140D01*
X1372699D01*
X1492660Y1063140D02*
X1452673D01*
X1472666D01*
Y1003160D01*
X1392692Y1053143D02*
X1402689Y1063140D01*
X1422682D01*
X1432679Y1053143D01*
Y1043147D01*
X1422682Y1033150D01*
X1402689D01*
X1392692Y1023153D01*
Y1013156D01*
X1402689Y1003160D01*
X1422682D01*
X1432679Y1013156D01*
X1372699Y1063140D02*
X1332712D01*
X1352705D01*
Y1003160D01*
X1492660Y1253160D02*
Y1313140D01*
X1462669D01*
X1452673Y1303143D01*
Y1283150D01*
X1462669Y1273153D01*
X1492660D01*
X1472666D02*
X1452673Y1253160D01*
X1392692Y1303143D02*
X1402689Y1313140D01*
X1422682D01*
X1432679Y1303143D01*
Y1293147D01*
X1422682Y1283150D01*
X1402689D01*
X1392692Y1273153D01*
Y1263156D01*
X1402689Y1253160D01*
X1422682D01*
X1432679Y1263156D01*
X1372699Y1313140D02*
X1332712D01*
X1352705D01*
Y1253160D01*
X1492660Y1563140D02*
Y1523153D01*
X1472666Y1503160D01*
X1452673Y1523153D01*
Y1563140D01*
X1392692Y1553143D02*
X1402689Y1563140D01*
X1422682D01*
X1432679Y1553143D01*
Y1513156D01*
X1422682Y1503160D01*
X1402689D01*
X1392692Y1513156D01*
X1332712Y1553143D02*
X1342708Y1563140D01*
X1362702D01*
X1372699Y1553143D01*
Y1513156D01*
X1362702Y1503160D01*
X1342708D01*
X1332712Y1513156D01*
%TF.MD5,56c52b50f385477cac97dbd5a82d680b*%
M02*
