%TF.GenerationSoftware,Altium Limited,Altium Designer,18.1.9 (240)*%
G04 Layer_Color=32896*
%FSLAX45Y45*%
%MOMM*%
%TF.FileFunction,Other,Mechanical_4*%
%TF.Part,Single*%
G01*
G75*
%TA.AperFunction,NonConductor*%
%ADD40C,0.00000*%
D40*
X144460Y2019680D02*
G03*
X144460Y2080640I0J30480D01*
G01*
Y2019680D02*
G03*
X144460Y2080640I0J30480D01*
G01*
Y2200020D02*
X550860D01*
X144460Y2080640D02*
Y2200020D01*
Y2019680D02*
Y2080640D01*
Y1900300D02*
Y2019680D01*
Y1900300D02*
X550860D01*
Y2200020D01*
X167320Y1798700D02*
Y1900300D01*
Y1798700D02*
X202880D01*
Y1900300D01*
X167320D02*
X202880D01*
X230820Y1798700D02*
Y1900300D01*
Y1798700D02*
X268920D01*
Y1900300D01*
X230820D02*
X268920D01*
X296860Y1798700D02*
Y1900300D01*
Y1798700D02*
X334960D01*
Y1900300D01*
X296860D02*
X334960D01*
X360360Y1798700D02*
Y1900300D01*
Y1798700D02*
X398460D01*
Y1900300D01*
X360360D02*
X398460D01*
X426400Y1798700D02*
Y1900300D01*
Y1798700D02*
X464500D01*
Y1900300D01*
X426400D02*
X464500D01*
X492440Y1798700D02*
Y1900300D01*
Y1798700D02*
X528000D01*
Y1900300D01*
X492440D02*
X528000D01*
Y2200020D02*
Y2301620D01*
X492440D02*
X528000D01*
X492440Y2200020D02*
Y2301620D01*
Y2200020D02*
X528000D01*
X464500D02*
Y2301620D01*
X426400D02*
X464500D01*
X426400Y2200020D02*
Y2301620D01*
Y2200020D02*
X464500D01*
X398460D02*
Y2301620D01*
X360360D02*
X398460D01*
X360360Y2200020D02*
Y2301620D01*
Y2200020D02*
X398460D01*
X334960D02*
Y2301620D01*
X296860D02*
X334960D01*
X296860Y2200020D02*
Y2301620D01*
Y2200020D02*
X334960D01*
X268920D02*
Y2301620D01*
X230820D02*
X268920D01*
X230820Y2200020D02*
Y2301620D01*
Y2200020D02*
X268920D01*
X202880D02*
Y2301620D01*
X167320D02*
X202880D01*
X167320Y2200020D02*
Y2301620D01*
Y2200020D02*
X202880D01*
X144460D02*
X550860D01*
X144460Y2080640D02*
Y2200020D01*
Y2019680D02*
Y2080640D01*
Y1900300D02*
Y2019680D01*
Y1900300D02*
X550860D01*
Y2200020D01*
X167320Y1798700D02*
Y1900300D01*
Y1798700D02*
X202880D01*
Y1900300D01*
X167320D02*
X202880D01*
X230820Y1798700D02*
Y1900300D01*
Y1798700D02*
X268920D01*
Y1900300D01*
X230820D02*
X268920D01*
X296860Y1798700D02*
Y1900300D01*
Y1798700D02*
X334960D01*
Y1900300D01*
X296860D02*
X334960D01*
X360360Y1798700D02*
Y1900300D01*
Y1798700D02*
X398460D01*
Y1900300D01*
X360360D02*
X398460D01*
X426400Y1798700D02*
Y1900300D01*
Y1798700D02*
X464500D01*
Y1900300D01*
X426400D02*
X464500D01*
X492440Y1798700D02*
Y1900300D01*
Y1798700D02*
X528000D01*
Y1900300D01*
X492440D02*
X528000D01*
Y2200020D02*
Y2301620D01*
X492440D02*
X528000D01*
X492440Y2200020D02*
Y2301620D01*
Y2200020D02*
X528000D01*
X464500D02*
Y2301620D01*
X426400D02*
X464500D01*
X426400Y2200020D02*
Y2301620D01*
Y2200020D02*
X464500D01*
X398460D02*
Y2301620D01*
X360360D02*
X398460D01*
X360360Y2200020D02*
Y2301620D01*
Y2200020D02*
X398460D01*
X334960D02*
Y2301620D01*
X296860D02*
X334960D01*
X296860Y2200020D02*
Y2301620D01*
Y2200020D02*
X334960D01*
X268920D02*
Y2301620D01*
X230820D02*
X268920D01*
X230820Y2200020D02*
Y2301620D01*
Y2200020D02*
X268920D01*
X202880D02*
Y2301620D01*
X167320D02*
X202880D01*
X167320Y2200020D02*
Y2301620D01*
Y2200020D02*
X202880D01*
%TF.MD5,18237234f12a4c947fb32533be7d1347*%
M02*
