%TF.GenerationSoftware,Altium Limited,Altium Designer,18.1.9 (240)*%
G04 Layer_Color=32896*
%FSLAX45Y45*%
%MOMM*%
%TF.FileFunction,Legend,Bot*%
%TF.Part,Single*%
G01*
G75*
%TA.AperFunction,NonConductor*%
%ADD18C,0.25400*%
%ADD31C,0.50000*%
%ADD32C,1.00000*%
%ADD33C,0.15240*%
%ADD34C,0.20000*%
G36*
X353005Y2506013D02*
X352137Y2503064D01*
X351097Y2499767D01*
X350229Y2496471D01*
X349362Y2493349D01*
X348668Y2490573D01*
X348321Y2489358D01*
X347974Y2488318D01*
X347800Y2487450D01*
X347627Y2486756D01*
X347453Y2486409D01*
Y2486236D01*
X417367D01*
Y2444600D01*
X390477D01*
Y2463336D01*
X276499D01*
Y2444600D01*
X249610D01*
Y2486236D01*
X316227D01*
X316921Y2489012D01*
X317615Y2491787D01*
X318135Y2494216D01*
X318829Y2496471D01*
X319349Y2498727D01*
X319696Y2500635D01*
X320217Y2502370D01*
X320564Y2503931D01*
X320911Y2505319D01*
X321258Y2506533D01*
X321605Y2507574D01*
X321778Y2508442D01*
X321952Y2509135D01*
Y2509656D01*
X322125Y2509829D01*
Y2510003D01*
X353005Y2506013D01*
D02*
G37*
G36*
X308767Y2433497D02*
X425000D01*
Y2409036D01*
X388048D01*
X403662Y2390474D01*
X396202Y2385096D01*
X388916Y2379544D01*
X382150Y2374166D01*
X378854Y2371391D01*
X375905Y2368962D01*
X372955Y2366533D01*
X370527Y2364451D01*
X368271Y2362370D01*
X366363Y2360808D01*
X364802Y2359420D01*
X363587Y2358380D01*
X362893Y2357686D01*
X362720Y2357512D01*
X344678Y2380759D01*
X352484Y2386484D01*
X359771Y2391688D01*
X363067Y2394290D01*
X366363Y2396546D01*
X369486Y2398801D01*
X372261Y2400709D01*
X374864Y2402617D01*
X377292Y2404179D01*
X379201Y2405567D01*
X380935Y2406781D01*
X382323Y2407822D01*
X383364Y2408516D01*
X384058Y2408863D01*
X384232Y2409036D01*
X308767D01*
Y2371391D01*
X308940Y2368442D01*
X309461Y2365839D01*
X310328Y2363584D01*
X311369Y2361502D01*
X312584Y2359941D01*
X314145Y2358553D01*
X315706Y2357339D01*
X317268Y2356471D01*
X318829Y2355777D01*
X320390Y2355257D01*
X321952Y2354910D01*
X323166Y2354736D01*
X324380Y2354563D01*
X325248Y2354389D01*
X330799D01*
X335657Y2354563D01*
X340514D01*
X344851Y2354736D01*
X346760D01*
X348494Y2354910D01*
X351444D01*
X352484Y2355083D01*
X354046D01*
X352831Y2350573D01*
X351617Y2346062D01*
X350576Y2341378D01*
X349535Y2337215D01*
X349015Y2335306D01*
X348668Y2333398D01*
X348321Y2331837D01*
X347974Y2330449D01*
X347800Y2329408D01*
X347627Y2328541D01*
X347453Y2328020D01*
Y2327847D01*
X310849Y2328541D01*
X308247Y2328714D01*
X305818Y2329061D01*
X301481Y2330102D01*
X297664Y2331490D01*
X294541Y2333051D01*
X292113Y2334613D01*
X290378Y2336000D01*
X289857Y2336521D01*
X289337Y2336868D01*
X288990Y2337215D01*
X287602Y2338776D01*
X286388Y2340684D01*
X284479Y2344675D01*
X283092Y2348838D01*
X282224Y2353002D01*
X281530Y2356645D01*
X281357Y2358380D01*
Y2359767D01*
X281183Y2360982D01*
Y2361849D01*
Y2362370D01*
Y2362543D01*
Y2409036D01*
X241629D01*
Y2433497D01*
X281183D01*
Y2455356D01*
X308767D01*
Y2433497D01*
D02*
G37*
G36*
X356803Y2684275D02*
X364436Y2683408D01*
X367906Y2683061D01*
X371375Y2682714D01*
X374498Y2682367D01*
X377621Y2682020D01*
X380396Y2681846D01*
X382999Y2681499D01*
X385254Y2681326D01*
X387509Y2681152D01*
X389244D01*
X390805Y2680979D01*
X392020D01*
X392887Y2680805D01*
X393581D01*
X391499Y2656865D01*
X387509Y2657212D01*
X383693Y2657385D01*
X380050Y2657732D01*
X376753Y2658079D01*
X373631Y2658253D01*
X370855Y2658600D01*
X368253Y2658773D01*
X365824Y2658947D01*
X363742Y2659294D01*
X362007Y2659467D01*
X360446Y2659641D01*
X359058D01*
X358191Y2659814D01*
X357323Y2659988D01*
X356803D01*
Y2636567D01*
X360620Y2634659D01*
X364089Y2632751D01*
X367559Y2630843D01*
X370508Y2628761D01*
X373457Y2626853D01*
X376059Y2624771D01*
X378488Y2622862D01*
X380570Y2620954D01*
X382478Y2619219D01*
X384213Y2617658D01*
X385601Y2616270D01*
X386815Y2615056D01*
X387683Y2614015D01*
X388377Y2613321D01*
X388724Y2612800D01*
X388897Y2612627D01*
X390805Y2609851D01*
X392540Y2607249D01*
X394102Y2604473D01*
X395316Y2601871D01*
X396357Y2599442D01*
X397224Y2596840D01*
X398612Y2592330D01*
X399133Y2590421D01*
X399480Y2588513D01*
X399653Y2586952D01*
X399826Y2585564D01*
X400000Y2584523D01*
Y2583655D01*
Y2583135D01*
Y2582962D01*
X399826Y2580186D01*
X399653Y2577757D01*
X398612Y2573073D01*
X397051Y2568910D01*
X395316Y2565613D01*
X394449Y2564052D01*
X393581Y2562838D01*
X392714Y2561797D01*
X392020Y2560756D01*
X391499Y2560062D01*
X390979Y2559541D01*
X390805Y2559368D01*
X390632Y2559195D01*
X388724Y2557633D01*
X386815Y2556245D01*
X384734Y2554857D01*
X382652Y2553817D01*
X378488Y2552255D01*
X374325Y2551214D01*
X372590Y2550694D01*
X370855Y2550520D01*
X369294Y2550347D01*
X367906Y2550173D01*
X366865Y2550000D01*
X365304D01*
X362528Y2550173D01*
X359752Y2550347D01*
X354895Y2551561D01*
X350731Y2552949D01*
X348996Y2553817D01*
X347261Y2554857D01*
X345874Y2555725D01*
X344486Y2556592D01*
X343445Y2557286D01*
X342404Y2557980D01*
X341710Y2558674D01*
X341190Y2559195D01*
X341016Y2559368D01*
X340843Y2559541D01*
X339281Y2561450D01*
X337893Y2563358D01*
X336679Y2565440D01*
X335638Y2567522D01*
X334077Y2571859D01*
X332862Y2576022D01*
X332515Y2577931D01*
X332342Y2579839D01*
X332168Y2581400D01*
X331995Y2582788D01*
X331822Y2584002D01*
Y2584870D01*
Y2585390D01*
Y2585564D01*
Y2619740D01*
X327138Y2621128D01*
X322627Y2622168D01*
X318463Y2622862D01*
X314647Y2623383D01*
X313085Y2623556D01*
X311524Y2623730D01*
X310310D01*
X309269Y2623903D01*
X307187D01*
X304064Y2623730D01*
X301289Y2623556D01*
X295911Y2622515D01*
X293482Y2621822D01*
X291400Y2621128D01*
X289318Y2620434D01*
X287410Y2619566D01*
X285849Y2618699D01*
X284461Y2618005D01*
X283247Y2617311D01*
X282206Y2616617D01*
X281338Y2616097D01*
X280818Y2615576D01*
X280471Y2615403D01*
X280297Y2615229D01*
X278563Y2613668D01*
X276828Y2611933D01*
X275613Y2610198D01*
X274399Y2608637D01*
X273358Y2606902D01*
X272491Y2605167D01*
X271276Y2602218D01*
X270582Y2599442D01*
X270409Y2598401D01*
X270235Y2597361D01*
X270062Y2596493D01*
Y2595973D01*
Y2595626D01*
Y2595452D01*
X270235Y2592503D01*
X270756Y2589901D01*
X271450Y2587646D01*
X272144Y2585564D01*
X272838Y2584002D01*
X273532Y2582962D01*
X274052Y2582094D01*
X274226Y2581921D01*
X275787Y2580186D01*
X277522Y2578798D01*
X279430Y2577931D01*
X281165Y2577237D01*
X282553Y2576890D01*
X283941Y2576716D01*
X284634Y2576543D01*
X284981D01*
X287237Y2576716D01*
X289492Y2577410D01*
X291747Y2578278D01*
X294176Y2579318D01*
X296431Y2580706D01*
X298686Y2582268D01*
X303024Y2585737D01*
X305105Y2587299D01*
X306840Y2589033D01*
X308401Y2590595D01*
X309789Y2591983D01*
X311004Y2593024D01*
X311871Y2594064D01*
X312392Y2594585D01*
X312565Y2594758D01*
X328699Y2576196D01*
X324709Y2571859D01*
X320719Y2568042D01*
X316555Y2564919D01*
X312565Y2562144D01*
X308748Y2559715D01*
X304932Y2557633D01*
X301289Y2556072D01*
X297993Y2554857D01*
X294870Y2553817D01*
X291921Y2552949D01*
X289318Y2552429D01*
X287237Y2552082D01*
X285502Y2551908D01*
X284114Y2551735D01*
X283073D01*
X279950Y2551908D01*
X277001Y2552255D01*
X274226Y2552949D01*
X271797Y2553643D01*
X269368Y2554511D01*
X267113Y2555551D01*
X265031Y2556766D01*
X263123Y2557980D01*
X261388Y2559021D01*
X260000Y2560235D01*
X258786Y2561276D01*
X257745Y2562144D01*
X256877Y2562838D01*
X256357Y2563532D01*
X256010Y2563879D01*
X255836Y2564052D01*
X253928Y2566481D01*
X252367Y2568910D01*
X250979Y2571512D01*
X249765Y2574114D01*
X248724Y2576716D01*
X247856Y2579318D01*
X246642Y2584176D01*
X246121Y2586431D01*
X245774Y2588340D01*
X245601Y2590248D01*
X245428Y2591809D01*
X245254Y2593197D01*
Y2594064D01*
Y2594758D01*
Y2594932D01*
X245428Y2599095D01*
X245948Y2603085D01*
X246815Y2606902D01*
X247856Y2610372D01*
X249244Y2613668D01*
X250632Y2616791D01*
X252193Y2619740D01*
X253755Y2622342D01*
X255489Y2624771D01*
X257051Y2626853D01*
X258439Y2628587D01*
X259653Y2630149D01*
X260867Y2631363D01*
X261735Y2632230D01*
X262255Y2632751D01*
X262429Y2632924D01*
X265725Y2635700D01*
X269195Y2638129D01*
X272664Y2640211D01*
X276307Y2641945D01*
X279950Y2643507D01*
X283594Y2644721D01*
X287063Y2645762D01*
X290359Y2646629D01*
X293482Y2647150D01*
X296258Y2647670D01*
X298860Y2648017D01*
X301115Y2648364D01*
X302850D01*
X304238Y2648538D01*
X305452D01*
X309963Y2648364D01*
X314647Y2648017D01*
X318984Y2647497D01*
X323147Y2646803D01*
X324882Y2646456D01*
X326617Y2646109D01*
X328178Y2645936D01*
X329393Y2645589D01*
X330434Y2645415D01*
X331128Y2645242D01*
X331648Y2645068D01*
X331822D01*
Y2663457D01*
X326444Y2664151D01*
X320719Y2664845D01*
X315167Y2665712D01*
X309963Y2666580D01*
X307708Y2666927D01*
X305452Y2667274D01*
X303544Y2667621D01*
X301983Y2667968D01*
X300595Y2668141D01*
X299554Y2668315D01*
X298860Y2668488D01*
X298686D01*
X300942Y2692429D01*
X306667Y2691388D01*
X312218Y2690520D01*
X317423Y2689653D01*
X319851Y2689306D01*
X322107Y2689133D01*
X324188Y2688786D01*
X326097Y2688439D01*
X327658Y2688265D01*
X329219Y2688092D01*
X330260Y2687918D01*
X331128D01*
X331648Y2687745D01*
X331822D01*
Y2723655D01*
X356803D01*
Y2684275D01*
D02*
G37*
G36*
X294176Y2683061D02*
X289665Y2679071D01*
X285328Y2675254D01*
X281338Y2671784D01*
X277522Y2668315D01*
X274052Y2665192D01*
X270756Y2662243D01*
X267807Y2659467D01*
X265031Y2657038D01*
X262776Y2654783D01*
X260520Y2652701D01*
X258786Y2650967D01*
X257224Y2649579D01*
X256183Y2648538D01*
X255316Y2647670D01*
X254796Y2647150D01*
X254622Y2646976D01*
X236580Y2666406D01*
X239703Y2669356D01*
X242999Y2672305D01*
X249765Y2678203D01*
X256704Y2683928D01*
X260000Y2686704D01*
X263123Y2689306D01*
X266072Y2691561D01*
X268848Y2693817D01*
X271276Y2695725D01*
X273358Y2697460D01*
X275093Y2698674D01*
X276481Y2699715D01*
X277175Y2700409D01*
X277522Y2700582D01*
X294176Y2683061D01*
D02*
G37*
G36*
X367193Y2273154D02*
X368581Y2266388D01*
X369796Y2259796D01*
X371010Y2253377D01*
X371877Y2247305D01*
X372745Y2241406D01*
X373265Y2236029D01*
X373786Y2230824D01*
X374133Y2226140D01*
X374480Y2221977D01*
X374653Y2218333D01*
X374827Y2215211D01*
X375000Y2212608D01*
Y2211741D01*
Y2210874D01*
Y2210180D01*
Y2209659D01*
Y2209486D01*
Y2209312D01*
Y2204281D01*
X374827Y2199597D01*
X374480Y2195434D01*
X374306Y2191791D01*
X374133Y2190229D01*
X373959Y2188841D01*
Y2187627D01*
X373786Y2186586D01*
Y2185719D01*
X373612Y2185198D01*
Y2184851D01*
Y2184678D01*
X372918Y2180861D01*
X371704Y2177565D01*
X370316Y2174789D01*
X368928Y2172361D01*
X367540Y2170452D01*
X366326Y2169064D01*
X365632Y2168197D01*
X365285Y2167850D01*
X362683Y2165768D01*
X359907Y2164380D01*
X357305Y2163340D01*
X354876Y2162472D01*
X352794Y2162125D01*
X351059Y2161952D01*
X350019Y2161778D01*
X349672D01*
X347763Y2161952D01*
X345855Y2162125D01*
X343947Y2162646D01*
X342212Y2163340D01*
X338395Y2165074D01*
X334752Y2167503D01*
X331283Y2170279D01*
X327813Y2173228D01*
X324517Y2176524D01*
X321394Y2179994D01*
X318618Y2183290D01*
X316016Y2186586D01*
X313761Y2189709D01*
X311853Y2192311D01*
X310291Y2194740D01*
X309250Y2196475D01*
X308730Y2197169D01*
X308383Y2197689D01*
X308209Y2197863D01*
Y2198036D01*
X327813Y2213823D01*
X330068Y2209833D01*
X332323Y2206190D01*
X334232Y2203067D01*
X335967Y2200465D01*
X337701Y2198209D01*
X339089Y2196475D01*
X340304Y2194913D01*
X341518Y2193699D01*
X342385Y2192658D01*
X343253Y2191964D01*
X343947Y2191444D01*
X344467Y2191097D01*
X345161Y2190750D01*
X345335D01*
X346375Y2191097D01*
X347069Y2191617D01*
X347590Y2192138D01*
X347763Y2192485D01*
X347937Y2193005D01*
X348110Y2193872D01*
Y2194740D01*
X348284Y2195954D01*
X348457Y2198903D01*
Y2202026D01*
X348631Y2204975D01*
Y2206363D01*
Y2207578D01*
Y2208618D01*
Y2209312D01*
Y2209833D01*
Y2210006D01*
X348457Y2215384D01*
X348284Y2220762D01*
X347069Y2231865D01*
X346375Y2237243D01*
X345508Y2242621D01*
X344641Y2247825D01*
X343773Y2252683D01*
X342906Y2257193D01*
X342038Y2261530D01*
X341171Y2265174D01*
X340477Y2268296D01*
X339783Y2270898D01*
X339610Y2272113D01*
X339263Y2272980D01*
X339089Y2273674D01*
Y2274195D01*
X338916Y2274368D01*
Y2274542D01*
X365459Y2280093D01*
X367193Y2273154D01*
D02*
G37*
G36*
X304566Y2277144D02*
X303352Y2270205D01*
X302485Y2263612D01*
X301617Y2257193D01*
X300923Y2251295D01*
X300229Y2245570D01*
X299709Y2240366D01*
X299362Y2235508D01*
X299015Y2231171D01*
X298668Y2227181D01*
X298494Y2223711D01*
X298321Y2220589D01*
Y2218160D01*
X298147Y2216078D01*
Y2214690D01*
Y2213823D01*
Y2213476D01*
X298321Y2206710D01*
X298668Y2200291D01*
X299188Y2194393D01*
X299882Y2188841D01*
X300923Y2183810D01*
X301791Y2179300D01*
X302831Y2175136D01*
X303872Y2171493D01*
X305087Y2168371D01*
X306128Y2165421D01*
X306995Y2163166D01*
X307862Y2161258D01*
X308730Y2159696D01*
X309250Y2158656D01*
X309597Y2157962D01*
X309771Y2157788D01*
X312026Y2154492D01*
X314802Y2151196D01*
X317577Y2148073D01*
X320527Y2145124D01*
X323649Y2142175D01*
X326772Y2139573D01*
X329895Y2136970D01*
X333017Y2134715D01*
X335967Y2132460D01*
X338742Y2130551D01*
X341171Y2128990D01*
X343253Y2127602D01*
X345161Y2126561D01*
X346375Y2125694D01*
X347243Y2125174D01*
X347590Y2125000D01*
X328333Y2104703D01*
X323476Y2107825D01*
X318792Y2111122D01*
X314455Y2114418D01*
X310465Y2117714D01*
X306648Y2121010D01*
X303352Y2124306D01*
X300229Y2127429D01*
X297454Y2130378D01*
X295025Y2133154D01*
X292770Y2135756D01*
X291035Y2138185D01*
X289473Y2140093D01*
X288432Y2141654D01*
X287565Y2142869D01*
X287045Y2143736D01*
X286871Y2143910D01*
X284269Y2148420D01*
X282187Y2153278D01*
X280105Y2158482D01*
X278544Y2163860D01*
X277156Y2169411D01*
X275942Y2174963D01*
X275074Y2180341D01*
X274207Y2185545D01*
X273687Y2190576D01*
X273166Y2195087D01*
X272993Y2199250D01*
X272646Y2202893D01*
Y2204455D01*
Y2205843D01*
X272472Y2207057D01*
Y2208098D01*
Y2208965D01*
Y2209486D01*
Y2209833D01*
Y2210006D01*
Y2215558D01*
X272646Y2221456D01*
X273340Y2233253D01*
X273687Y2239151D01*
X274207Y2245050D01*
X274727Y2250775D01*
X275248Y2256152D01*
X275768Y2261183D01*
X276289Y2265694D01*
X276809Y2269858D01*
X277156Y2273327D01*
X277330Y2274889D01*
X277503Y2276276D01*
X277677Y2277491D01*
X277850Y2278532D01*
Y2279226D01*
X278024Y2279746D01*
Y2280093D01*
Y2280266D01*
X304566Y2277144D01*
D02*
G37*
%LPC*%
G36*
X356803Y2608810D02*
Y2584696D01*
X356976Y2582962D01*
X357150Y2581574D01*
X357670Y2580186D01*
X358191Y2579145D01*
X359752Y2577410D01*
X361487Y2576196D01*
X363222Y2575502D01*
X364783Y2575155D01*
X365824Y2574981D01*
X366171D01*
X367732Y2575155D01*
X368947Y2575328D01*
X370161Y2575849D01*
X371028Y2576369D01*
X371896Y2576716D01*
X372416Y2577237D01*
X372763Y2577410D01*
X372937Y2577584D01*
X373804Y2578625D01*
X374498Y2579839D01*
X374845Y2581053D01*
X375192Y2582094D01*
X375366Y2583135D01*
X375539Y2583829D01*
Y2584349D01*
Y2584523D01*
X375366Y2586778D01*
X374672Y2588860D01*
X373804Y2591115D01*
X372763Y2593024D01*
X371896Y2594758D01*
X371028Y2595973D01*
X370335Y2596840D01*
X370161Y2597187D01*
X368079Y2599616D01*
X365824Y2601871D01*
X363569Y2603953D01*
X361487Y2605688D01*
X359579Y2606902D01*
X358191Y2607943D01*
X357150Y2608637D01*
X356803Y2608810D01*
D02*
G37*
%LPD*%
D18*
X500000Y1400000D02*
G03*
X500000Y1400000I-25000J0D01*
G01*
X1440147Y875000D02*
G03*
X1440147Y875000I-340147J0D01*
G01*
X200000Y1375000D02*
X250000D01*
X225000D02*
X250000D01*
X225000D02*
Y1425000D01*
X580000Y715000D02*
X660000D01*
X620000Y1105000D02*
X620000Y1025000D01*
X620000Y1105000D02*
X620000Y1065000D01*
X580000D02*
X660000D01*
X413355Y1783307D02*
X430016Y1799968D01*
X463339D01*
X480000Y1783307D01*
Y1716662D01*
X463339Y1700000D01*
X430016D01*
X413355Y1716662D01*
X330048Y1799968D02*
X363371D01*
X380032Y1783307D01*
Y1716662D01*
X363371Y1700000D01*
X330048D01*
X313387Y1716662D01*
Y1783307D01*
X330048Y1799968D01*
X280064Y1700000D02*
Y1799968D01*
X246742Y1766645D01*
X213419Y1799968D01*
Y1700000D01*
X1225000Y1899968D02*
Y1800000D01*
X1175016D01*
X1158355Y1816661D01*
Y1833322D01*
X1175016Y1849984D01*
X1225000D01*
X1175016D01*
X1158355Y1866645D01*
Y1883306D01*
X1175016Y1899968D01*
X1225000D01*
X1125032D02*
X1058387D01*
X1091710D01*
Y1800000D01*
X1025064D02*
Y1899968D01*
X958419Y1800000D01*
Y1899968D01*
D31*
X1000000Y1698205D02*
G03*
X1200000Y1698205I100000J-173205D01*
G01*
D32*
X1125000Y1525000D02*
G03*
X1125000Y1525000I-25000J0D01*
G01*
D33*
X1280480Y2359647D02*
G03*
X1219520Y2359647I-30480J0D01*
G01*
X1128080Y2766047D02*
X1371920D01*
X1280480Y2359647D02*
X1371920D01*
X1219520D02*
X1280480D01*
X1128080D02*
X1219520D01*
D34*
X1640000Y1672847D02*
Y2092847D01*
X2140000Y1672847D02*
Y1852847D01*
X1900000Y440000D02*
Y560000D01*
X450000Y565000D02*
Y685000D01*
X970000Y2162847D02*
X1090000D01*
X770000D02*
X890000D01*
X700000Y2599367D02*
Y2719367D01*
X1456747Y1600000D02*
X1576747D01*
X768013Y449984D02*
X778010Y459981D01*
X798003D01*
X808000Y449984D01*
Y409997D01*
X798003Y400000D01*
X778010D01*
X768013Y409997D01*
Y429990D01*
X788007D01*
X748020Y400000D02*
Y459981D01*
X708033Y400000D01*
Y459981D01*
X688039D02*
Y400000D01*
X658049D01*
X648052Y409997D01*
Y449984D01*
X658049Y459981D01*
X688039D01*
X1058000D02*
X1018013D01*
X1038007D01*
Y400000D01*
X958033Y449984D02*
X968029Y459981D01*
X988023D01*
X998020Y449984D01*
Y439987D01*
X988023Y429990D01*
X968029D01*
X958033Y419994D01*
Y409997D01*
X968029Y400000D01*
X988023D01*
X998020Y409997D01*
X938039Y459981D02*
X898052D01*
X918045D01*
Y400000D01*
X1308000D02*
Y459981D01*
X1278010D01*
X1268013Y449984D01*
Y429990D01*
X1278010Y419994D01*
X1308000D01*
X1288007D02*
X1268013Y400000D01*
X1208033Y449984D02*
X1218029Y459981D01*
X1238023D01*
X1248020Y449984D01*
Y439987D01*
X1238023Y429990D01*
X1218029D01*
X1208033Y419994D01*
Y409997D01*
X1218029Y400000D01*
X1238023D01*
X1248020Y409997D01*
X1188039Y459981D02*
X1148052D01*
X1168045D01*
Y400000D01*
X1558000Y459981D02*
Y419994D01*
X1538007Y400000D01*
X1518013Y419994D01*
Y459981D01*
X1458033Y449984D02*
X1468029Y459981D01*
X1488023D01*
X1498020Y449984D01*
Y409997D01*
X1488023Y400000D01*
X1468029D01*
X1458033Y409997D01*
X1398052Y449984D02*
X1408049Y459981D01*
X1428042D01*
X1438039Y449984D01*
Y409997D01*
X1428042Y400000D01*
X1408049D01*
X1398052Y409997D01*
%TF.MD5,51751111445c4a2e394da1fa0b018000*%
M02*
