G04 #@! TF.GenerationSoftware,KiCad,Pcbnew,(5.1.9)-1*
G04 #@! TF.CreationDate,2021-12-20T21:32:52+01:00*
G04 #@! TF.ProjectId,Omamori,4f6d616d-6f72-4692-9e6b-696361645f70,rev?*
G04 #@! TF.SameCoordinates,Original*
G04 #@! TF.FileFunction,Soldermask,Bot*
G04 #@! TF.FilePolarity,Negative*
%FSLAX46Y46*%
G04 Gerber Fmt 4.6, Leading zero omitted, Abs format (unit mm)*
G04 Created by KiCad (PCBNEW (5.1.9)-1) date 2021-12-20 21:32:52*
%MOMM*%
%LPD*%
G01*
G04 APERTURE LIST*
%ADD10C,2.102000*%
%ADD11C,1.102000*%
%ADD12O,1.102000X1.102000*%
%ADD13C,0.100000*%
G04 APERTURE END LIST*
G36*
G01*
X30979000Y-45078000D02*
X31505000Y-45078000D01*
G75*
G02*
X31768000Y-45341000I0J-263000D01*
G01*
X31768000Y-45892000D01*
G75*
G02*
X31505000Y-46155000I-263000J0D01*
G01*
X30979000Y-46155000D01*
G75*
G02*
X30716000Y-45892000I0J263000D01*
G01*
X30716000Y-45341000D01*
G75*
G02*
X30979000Y-45078000I263000J0D01*
G01*
G37*
G36*
G01*
X30979000Y-43253000D02*
X31505000Y-43253000D01*
G75*
G02*
X31768000Y-43516000I0J-263000D01*
G01*
X31768000Y-44067000D01*
G75*
G02*
X31505000Y-44330000I-263000J0D01*
G01*
X30979000Y-44330000D01*
G75*
G02*
X30716000Y-44067000I0J263000D01*
G01*
X30716000Y-43516000D01*
G75*
G02*
X30979000Y-43253000I263000J0D01*
G01*
G37*
G36*
G01*
X28085000Y-28190298D02*
X28085000Y-27181702D01*
G75*
G02*
X28356702Y-26910000I271702J0D01*
G01*
X29090298Y-26910000D01*
G75*
G02*
X29362000Y-27181702I0J-271702D01*
G01*
X29362000Y-28190298D01*
G75*
G02*
X29090298Y-28462000I-271702J0D01*
G01*
X28356702Y-28462000D01*
G75*
G02*
X28085000Y-28190298I0J271702D01*
G01*
G37*
G36*
G01*
X26010000Y-28190298D02*
X26010000Y-27181702D01*
G75*
G02*
X26281702Y-26910000I271702J0D01*
G01*
X27015298Y-26910000D01*
G75*
G02*
X27287000Y-27181702I0J-271702D01*
G01*
X27287000Y-28190298D01*
G75*
G02*
X27015298Y-28462000I-271702J0D01*
G01*
X26281702Y-28462000D01*
G75*
G02*
X26010000Y-28190298I0J271702D01*
G01*
G37*
D10*
X17000000Y-37000000D03*
X33000000Y-37000000D03*
G36*
G01*
X29624500Y-22099000D02*
X30475500Y-22099000D01*
G75*
G02*
X30901000Y-22524500I0J-425500D01*
G01*
X30901000Y-23375500D01*
G75*
G02*
X30475500Y-23801000I-425500J0D01*
G01*
X29624500Y-23801000D01*
G75*
G02*
X29199000Y-23375500I0J425500D01*
G01*
X29199000Y-22524500D01*
G75*
G02*
X29624500Y-22099000I425500J0D01*
G01*
G37*
G36*
G01*
X28212000Y-22024000D02*
X28913000Y-22024000D01*
G75*
G02*
X29001000Y-22112000I0J-88000D01*
G01*
X29001000Y-22288000D01*
G75*
G02*
X28913000Y-22376000I-88000J0D01*
G01*
X28212000Y-22376000D01*
G75*
G02*
X28124000Y-22288000I0J88000D01*
G01*
X28124000Y-22112000D01*
G75*
G02*
X28212000Y-22024000I88000J0D01*
G01*
G37*
G36*
G01*
X28212000Y-22524000D02*
X28913000Y-22524000D01*
G75*
G02*
X29001000Y-22612000I0J-88000D01*
G01*
X29001000Y-22788000D01*
G75*
G02*
X28913000Y-22876000I-88000J0D01*
G01*
X28212000Y-22876000D01*
G75*
G02*
X28124000Y-22788000I0J88000D01*
G01*
X28124000Y-22612000D01*
G75*
G02*
X28212000Y-22524000I88000J0D01*
G01*
G37*
G36*
G01*
X28212000Y-23024000D02*
X28913000Y-23024000D01*
G75*
G02*
X29001000Y-23112000I0J-88000D01*
G01*
X29001000Y-23288000D01*
G75*
G02*
X28913000Y-23376000I-88000J0D01*
G01*
X28212000Y-23376000D01*
G75*
G02*
X28124000Y-23288000I0J88000D01*
G01*
X28124000Y-23112000D01*
G75*
G02*
X28212000Y-23024000I88000J0D01*
G01*
G37*
G36*
G01*
X28212000Y-23524000D02*
X28913000Y-23524000D01*
G75*
G02*
X29001000Y-23612000I0J-88000D01*
G01*
X29001000Y-23788000D01*
G75*
G02*
X28913000Y-23876000I-88000J0D01*
G01*
X28212000Y-23876000D01*
G75*
G02*
X28124000Y-23788000I0J88000D01*
G01*
X28124000Y-23612000D01*
G75*
G02*
X28212000Y-23524000I88000J0D01*
G01*
G37*
G36*
G01*
X29212000Y-23999000D02*
X29388000Y-23999000D01*
G75*
G02*
X29476000Y-24087000I0J-88000D01*
G01*
X29476000Y-24788000D01*
G75*
G02*
X29388000Y-24876000I-88000J0D01*
G01*
X29212000Y-24876000D01*
G75*
G02*
X29124000Y-24788000I0J88000D01*
G01*
X29124000Y-24087000D01*
G75*
G02*
X29212000Y-23999000I88000J0D01*
G01*
G37*
G36*
G01*
X29712000Y-23999000D02*
X29888000Y-23999000D01*
G75*
G02*
X29976000Y-24087000I0J-88000D01*
G01*
X29976000Y-24788000D01*
G75*
G02*
X29888000Y-24876000I-88000J0D01*
G01*
X29712000Y-24876000D01*
G75*
G02*
X29624000Y-24788000I0J88000D01*
G01*
X29624000Y-24087000D01*
G75*
G02*
X29712000Y-23999000I88000J0D01*
G01*
G37*
G36*
G01*
X30212000Y-23999000D02*
X30388000Y-23999000D01*
G75*
G02*
X30476000Y-24087000I0J-88000D01*
G01*
X30476000Y-24788000D01*
G75*
G02*
X30388000Y-24876000I-88000J0D01*
G01*
X30212000Y-24876000D01*
G75*
G02*
X30124000Y-24788000I0J88000D01*
G01*
X30124000Y-24087000D01*
G75*
G02*
X30212000Y-23999000I88000J0D01*
G01*
G37*
G36*
G01*
X30712000Y-23999000D02*
X30888000Y-23999000D01*
G75*
G02*
X30976000Y-24087000I0J-88000D01*
G01*
X30976000Y-24788000D01*
G75*
G02*
X30888000Y-24876000I-88000J0D01*
G01*
X30712000Y-24876000D01*
G75*
G02*
X30624000Y-24788000I0J88000D01*
G01*
X30624000Y-24087000D01*
G75*
G02*
X30712000Y-23999000I88000J0D01*
G01*
G37*
G36*
G01*
X31187000Y-23524000D02*
X31888000Y-23524000D01*
G75*
G02*
X31976000Y-23612000I0J-88000D01*
G01*
X31976000Y-23788000D01*
G75*
G02*
X31888000Y-23876000I-88000J0D01*
G01*
X31187000Y-23876000D01*
G75*
G02*
X31099000Y-23788000I0J88000D01*
G01*
X31099000Y-23612000D01*
G75*
G02*
X31187000Y-23524000I88000J0D01*
G01*
G37*
G36*
G01*
X31187000Y-23024000D02*
X31888000Y-23024000D01*
G75*
G02*
X31976000Y-23112000I0J-88000D01*
G01*
X31976000Y-23288000D01*
G75*
G02*
X31888000Y-23376000I-88000J0D01*
G01*
X31187000Y-23376000D01*
G75*
G02*
X31099000Y-23288000I0J88000D01*
G01*
X31099000Y-23112000D01*
G75*
G02*
X31187000Y-23024000I88000J0D01*
G01*
G37*
G36*
G01*
X31187000Y-22524000D02*
X31888000Y-22524000D01*
G75*
G02*
X31976000Y-22612000I0J-88000D01*
G01*
X31976000Y-22788000D01*
G75*
G02*
X31888000Y-22876000I-88000J0D01*
G01*
X31187000Y-22876000D01*
G75*
G02*
X31099000Y-22788000I0J88000D01*
G01*
X31099000Y-22612000D01*
G75*
G02*
X31187000Y-22524000I88000J0D01*
G01*
G37*
G36*
G01*
X31187000Y-22024000D02*
X31888000Y-22024000D01*
G75*
G02*
X31976000Y-22112000I0J-88000D01*
G01*
X31976000Y-22288000D01*
G75*
G02*
X31888000Y-22376000I-88000J0D01*
G01*
X31187000Y-22376000D01*
G75*
G02*
X31099000Y-22288000I0J88000D01*
G01*
X31099000Y-22112000D01*
G75*
G02*
X31187000Y-22024000I88000J0D01*
G01*
G37*
G36*
G01*
X30712000Y-21024000D02*
X30888000Y-21024000D01*
G75*
G02*
X30976000Y-21112000I0J-88000D01*
G01*
X30976000Y-21813000D01*
G75*
G02*
X30888000Y-21901000I-88000J0D01*
G01*
X30712000Y-21901000D01*
G75*
G02*
X30624000Y-21813000I0J88000D01*
G01*
X30624000Y-21112000D01*
G75*
G02*
X30712000Y-21024000I88000J0D01*
G01*
G37*
G36*
G01*
X30212000Y-21024000D02*
X30388000Y-21024000D01*
G75*
G02*
X30476000Y-21112000I0J-88000D01*
G01*
X30476000Y-21813000D01*
G75*
G02*
X30388000Y-21901000I-88000J0D01*
G01*
X30212000Y-21901000D01*
G75*
G02*
X30124000Y-21813000I0J88000D01*
G01*
X30124000Y-21112000D01*
G75*
G02*
X30212000Y-21024000I88000J0D01*
G01*
G37*
G36*
G01*
X29712000Y-21024000D02*
X29888000Y-21024000D01*
G75*
G02*
X29976000Y-21112000I0J-88000D01*
G01*
X29976000Y-21813000D01*
G75*
G02*
X29888000Y-21901000I-88000J0D01*
G01*
X29712000Y-21901000D01*
G75*
G02*
X29624000Y-21813000I0J88000D01*
G01*
X29624000Y-21112000D01*
G75*
G02*
X29712000Y-21024000I88000J0D01*
G01*
G37*
G36*
G01*
X29212000Y-21024000D02*
X29388000Y-21024000D01*
G75*
G02*
X29476000Y-21112000I0J-88000D01*
G01*
X29476000Y-21813000D01*
G75*
G02*
X29388000Y-21901000I-88000J0D01*
G01*
X29212000Y-21901000D01*
G75*
G02*
X29124000Y-21813000I0J88000D01*
G01*
X29124000Y-21112000D01*
G75*
G02*
X29212000Y-21024000I88000J0D01*
G01*
G37*
G36*
G01*
X33029000Y-45092000D02*
X32503000Y-45092000D01*
G75*
G02*
X32240000Y-44829000I0J263000D01*
G01*
X32240000Y-44278000D01*
G75*
G02*
X32503000Y-44015000I263000J0D01*
G01*
X33029000Y-44015000D01*
G75*
G02*
X33292000Y-44278000I0J-263000D01*
G01*
X33292000Y-44829000D01*
G75*
G02*
X33029000Y-45092000I-263000J0D01*
G01*
G37*
G36*
G01*
X33029000Y-46917000D02*
X32503000Y-46917000D01*
G75*
G02*
X32240000Y-46654000I0J263000D01*
G01*
X32240000Y-46103000D01*
G75*
G02*
X32503000Y-45840000I263000J0D01*
G01*
X33029000Y-45840000D01*
G75*
G02*
X33292000Y-46103000I0J-263000D01*
G01*
X33292000Y-46654000D01*
G75*
G02*
X33029000Y-46917000I-263000J0D01*
G01*
G37*
G36*
G01*
X34027000Y-44316000D02*
X34553000Y-44316000D01*
G75*
G02*
X34816000Y-44579000I0J-263000D01*
G01*
X34816000Y-45130000D01*
G75*
G02*
X34553000Y-45393000I-263000J0D01*
G01*
X34027000Y-45393000D01*
G75*
G02*
X33764000Y-45130000I0J263000D01*
G01*
X33764000Y-44579000D01*
G75*
G02*
X34027000Y-44316000I263000J0D01*
G01*
G37*
G36*
G01*
X34027000Y-42491000D02*
X34553000Y-42491000D01*
G75*
G02*
X34816000Y-42754000I0J-263000D01*
G01*
X34816000Y-43305000D01*
G75*
G02*
X34553000Y-43568000I-263000J0D01*
G01*
X34027000Y-43568000D01*
G75*
G02*
X33764000Y-43305000I0J263000D01*
G01*
X33764000Y-42754000D01*
G75*
G02*
X34027000Y-42491000I263000J0D01*
G01*
G37*
G36*
G01*
X34045000Y-39478000D02*
X34045000Y-40278000D01*
G75*
G02*
X33994000Y-40329000I-51000J0D01*
G01*
X33094000Y-40329000D01*
G75*
G02*
X33043000Y-40278000I0J51000D01*
G01*
X33043000Y-39478000D01*
G75*
G02*
X33094000Y-39427000I51000J0D01*
G01*
X33994000Y-39427000D01*
G75*
G02*
X34045000Y-39478000I0J-51000D01*
G01*
G37*
G36*
G01*
X36045000Y-40428000D02*
X36045000Y-41228000D01*
G75*
G02*
X35994000Y-41279000I-51000J0D01*
G01*
X35094000Y-41279000D01*
G75*
G02*
X35043000Y-41228000I0J51000D01*
G01*
X35043000Y-40428000D01*
G75*
G02*
X35094000Y-40377000I51000J0D01*
G01*
X35994000Y-40377000D01*
G75*
G02*
X36045000Y-40428000I0J-51000D01*
G01*
G37*
G36*
G01*
X36045000Y-38528000D02*
X36045000Y-39328000D01*
G75*
G02*
X35994000Y-39379000I-51000J0D01*
G01*
X35094000Y-39379000D01*
G75*
G02*
X35043000Y-39328000I0J51000D01*
G01*
X35043000Y-38528000D01*
G75*
G02*
X35094000Y-38477000I51000J0D01*
G01*
X35994000Y-38477000D01*
G75*
G02*
X36045000Y-38528000I0J-51000D01*
G01*
G37*
D11*
X23250000Y-45800000D03*
D12*
X26980000Y-45800000D03*
X25710000Y-45800000D03*
X24440000Y-45800000D03*
G36*
G01*
X13919500Y-30249000D02*
X14270500Y-30249000D01*
G75*
G02*
X14446000Y-30424500I0J-175500D01*
G01*
X14446000Y-31775500D01*
G75*
G02*
X14270500Y-31951000I-175500J0D01*
G01*
X13919500Y-31951000D01*
G75*
G02*
X13744000Y-31775500I0J175500D01*
G01*
X13744000Y-30424500D01*
G75*
G02*
X13919500Y-30249000I175500J0D01*
G01*
G37*
G36*
G01*
X15189500Y-30249000D02*
X15540500Y-30249000D01*
G75*
G02*
X15716000Y-30424500I0J-175500D01*
G01*
X15716000Y-31775500D01*
G75*
G02*
X15540500Y-31951000I-175500J0D01*
G01*
X15189500Y-31951000D01*
G75*
G02*
X15014000Y-31775500I0J175500D01*
G01*
X15014000Y-30424500D01*
G75*
G02*
X15189500Y-30249000I175500J0D01*
G01*
G37*
G36*
G01*
X16459500Y-30249000D02*
X16810500Y-30249000D01*
G75*
G02*
X16986000Y-30424500I0J-175500D01*
G01*
X16986000Y-31775500D01*
G75*
G02*
X16810500Y-31951000I-175500J0D01*
G01*
X16459500Y-31951000D01*
G75*
G02*
X16284000Y-31775500I0J175500D01*
G01*
X16284000Y-30424500D01*
G75*
G02*
X16459500Y-30249000I175500J0D01*
G01*
G37*
G36*
G01*
X17729500Y-30249000D02*
X18080500Y-30249000D01*
G75*
G02*
X18256000Y-30424500I0J-175500D01*
G01*
X18256000Y-31775500D01*
G75*
G02*
X18080500Y-31951000I-175500J0D01*
G01*
X17729500Y-31951000D01*
G75*
G02*
X17554000Y-31775500I0J175500D01*
G01*
X17554000Y-30424500D01*
G75*
G02*
X17729500Y-30249000I175500J0D01*
G01*
G37*
G36*
G01*
X17729500Y-23049000D02*
X18080500Y-23049000D01*
G75*
G02*
X18256000Y-23224500I0J-175500D01*
G01*
X18256000Y-24575500D01*
G75*
G02*
X18080500Y-24751000I-175500J0D01*
G01*
X17729500Y-24751000D01*
G75*
G02*
X17554000Y-24575500I0J175500D01*
G01*
X17554000Y-23224500D01*
G75*
G02*
X17729500Y-23049000I175500J0D01*
G01*
G37*
G36*
G01*
X16459500Y-23049000D02*
X16810500Y-23049000D01*
G75*
G02*
X16986000Y-23224500I0J-175500D01*
G01*
X16986000Y-24575500D01*
G75*
G02*
X16810500Y-24751000I-175500J0D01*
G01*
X16459500Y-24751000D01*
G75*
G02*
X16284000Y-24575500I0J175500D01*
G01*
X16284000Y-23224500D01*
G75*
G02*
X16459500Y-23049000I175500J0D01*
G01*
G37*
G36*
G01*
X15189500Y-23049000D02*
X15540500Y-23049000D01*
G75*
G02*
X15716000Y-23224500I0J-175500D01*
G01*
X15716000Y-24575500D01*
G75*
G02*
X15540500Y-24751000I-175500J0D01*
G01*
X15189500Y-24751000D01*
G75*
G02*
X15014000Y-24575500I0J175500D01*
G01*
X15014000Y-23224500D01*
G75*
G02*
X15189500Y-23049000I175500J0D01*
G01*
G37*
G36*
G01*
X13919500Y-23049000D02*
X14270500Y-23049000D01*
G75*
G02*
X14446000Y-23224500I0J-175500D01*
G01*
X14446000Y-24575500D01*
G75*
G02*
X14270500Y-24751000I-175500J0D01*
G01*
X13919500Y-24751000D01*
G75*
G02*
X13744000Y-24575500I0J175500D01*
G01*
X13744000Y-23224500D01*
G75*
G02*
X13919500Y-23049000I175500J0D01*
G01*
G37*
G36*
G01*
X20831702Y-23005000D02*
X21840298Y-23005000D01*
G75*
G02*
X22112000Y-23276702I0J-271702D01*
G01*
X22112000Y-24010298D01*
G75*
G02*
X21840298Y-24282000I-271702J0D01*
G01*
X20831702Y-24282000D01*
G75*
G02*
X20560000Y-24010298I0J271702D01*
G01*
X20560000Y-23276702D01*
G75*
G02*
X20831702Y-23005000I271702J0D01*
G01*
G37*
G36*
G01*
X20831702Y-20930000D02*
X21840298Y-20930000D01*
G75*
G02*
X22112000Y-21201702I0J-271702D01*
G01*
X22112000Y-21935298D01*
G75*
G02*
X21840298Y-22207000I-271702J0D01*
G01*
X20831702Y-22207000D01*
G75*
G02*
X20560000Y-21935298I0J271702D01*
G01*
X20560000Y-21201702D01*
G75*
G02*
X20831702Y-20930000I271702J0D01*
G01*
G37*
G36*
G01*
X14995702Y-20399000D02*
X16004298Y-20399000D01*
G75*
G02*
X16276000Y-20670702I0J-271702D01*
G01*
X16276000Y-21404298D01*
G75*
G02*
X16004298Y-21676000I-271702J0D01*
G01*
X14995702Y-21676000D01*
G75*
G02*
X14724000Y-21404298I0J271702D01*
G01*
X14724000Y-20670702D01*
G75*
G02*
X14995702Y-20399000I271702J0D01*
G01*
G37*
G36*
G01*
X14995702Y-18324000D02*
X16004298Y-18324000D01*
G75*
G02*
X16276000Y-18595702I0J-271702D01*
G01*
X16276000Y-19329298D01*
G75*
G02*
X16004298Y-19601000I-271702J0D01*
G01*
X14995702Y-19601000D01*
G75*
G02*
X14724000Y-19329298I0J271702D01*
G01*
X14724000Y-18595702D01*
G75*
G02*
X14995702Y-18324000I271702J0D01*
G01*
G37*
G36*
G01*
X33701000Y-16737000D02*
X33701000Y-17263000D01*
G75*
G02*
X33438000Y-17526000I-263000J0D01*
G01*
X32812000Y-17526000D01*
G75*
G02*
X32549000Y-17263000I0J263000D01*
G01*
X32549000Y-16737000D01*
G75*
G02*
X32812000Y-16474000I263000J0D01*
G01*
X33438000Y-16474000D01*
G75*
G02*
X33701000Y-16737000I0J-263000D01*
G01*
G37*
G36*
G01*
X35451000Y-16737000D02*
X35451000Y-17263000D01*
G75*
G02*
X35188000Y-17526000I-263000J0D01*
G01*
X34562000Y-17526000D01*
G75*
G02*
X34299000Y-17263000I0J263000D01*
G01*
X34299000Y-16737000D01*
G75*
G02*
X34562000Y-16474000I263000J0D01*
G01*
X35188000Y-16474000D01*
G75*
G02*
X35451000Y-16737000I0J-263000D01*
G01*
G37*
G36*
G01*
X31763000Y-18626000D02*
X31237000Y-18626000D01*
G75*
G02*
X30974000Y-18363000I0J263000D01*
G01*
X30974000Y-17812000D01*
G75*
G02*
X31237000Y-17549000I263000J0D01*
G01*
X31763000Y-17549000D01*
G75*
G02*
X32026000Y-17812000I0J-263000D01*
G01*
X32026000Y-18363000D01*
G75*
G02*
X31763000Y-18626000I-263000J0D01*
G01*
G37*
G36*
G01*
X31763000Y-20451000D02*
X31237000Y-20451000D01*
G75*
G02*
X30974000Y-20188000I0J263000D01*
G01*
X30974000Y-19637000D01*
G75*
G02*
X31237000Y-19374000I263000J0D01*
G01*
X31763000Y-19374000D01*
G75*
G02*
X32026000Y-19637000I0J-263000D01*
G01*
X32026000Y-20188000D01*
G75*
G02*
X31763000Y-20451000I-263000J0D01*
G01*
G37*
G36*
G01*
X17902647Y-45919983D02*
X17327769Y-46494861D01*
G75*
G02*
X16752891Y-46494861I-287439J287439D01*
G01*
X16178013Y-45919983D01*
G75*
G02*
X16178013Y-45345105I287439J287439D01*
G01*
X16752891Y-44770227D01*
G75*
G02*
X17327769Y-44770227I287439J-287439D01*
G01*
X17902647Y-45345105D01*
G75*
G02*
X17902647Y-45919983I-287439J-287439D01*
G01*
G37*
G36*
G01*
X19316861Y-44505769D02*
X18741983Y-45080647D01*
G75*
G02*
X18167105Y-45080647I-287439J287439D01*
G01*
X17592227Y-44505769D01*
G75*
G02*
X17592227Y-43930891I287439J287439D01*
G01*
X18167105Y-43356013D01*
G75*
G02*
X18741983Y-43356013I287439J-287439D01*
G01*
X19316861Y-43930891D01*
G75*
G02*
X19316861Y-44505769I-287439J-287439D01*
G01*
G37*
G36*
G01*
X16841987Y-42030895D02*
X16267109Y-42605773D01*
G75*
G02*
X15692231Y-42605773I-287439J287439D01*
G01*
X15117353Y-42030895D01*
G75*
G02*
X15117353Y-41456017I287439J287439D01*
G01*
X15692231Y-40881139D01*
G75*
G02*
X16267109Y-40881139I287439J-287439D01*
G01*
X16841987Y-41456017D01*
G75*
G02*
X16841987Y-42030895I-287439J-287439D01*
G01*
G37*
G36*
G01*
X15427773Y-43445109D02*
X14852895Y-44019987D01*
G75*
G02*
X14278017Y-44019987I-287439J287439D01*
G01*
X13703139Y-43445109D01*
G75*
G02*
X13703139Y-42870231I287439J287439D01*
G01*
X14278017Y-42295353D01*
G75*
G02*
X14852895Y-42295353I287439J-287439D01*
G01*
X15427773Y-42870231D01*
G75*
G02*
X15427773Y-43445109I-287439J-287439D01*
G01*
G37*
G36*
G01*
X23450000Y-18401000D02*
X20050000Y-18401000D01*
G75*
G02*
X19999000Y-18350000I0J51000D01*
G01*
X19999000Y-17050000D01*
G75*
G02*
X20050000Y-16999000I51000J0D01*
G01*
X23450000Y-16999000D01*
G75*
G02*
X23501000Y-17050000I0J-51000D01*
G01*
X23501000Y-18350000D01*
G75*
G02*
X23450000Y-18401000I-51000J0D01*
G01*
G37*
G36*
G01*
X23450000Y-20501000D02*
X20050000Y-20501000D01*
G75*
G02*
X19999000Y-20450000I0J51000D01*
G01*
X19999000Y-19150000D01*
G75*
G02*
X20050000Y-19099000I51000J0D01*
G01*
X23450000Y-19099000D01*
G75*
G02*
X23501000Y-19150000I0J-51000D01*
G01*
X23501000Y-20450000D01*
G75*
G02*
X23450000Y-20501000I-51000J0D01*
G01*
G37*
G36*
G01*
X27901000Y-17050000D02*
X27901000Y-20450000D01*
G75*
G02*
X27850000Y-20501000I-51000J0D01*
G01*
X26550000Y-20501000D01*
G75*
G02*
X26499000Y-20450000I0J51000D01*
G01*
X26499000Y-17050000D01*
G75*
G02*
X26550000Y-16999000I51000J0D01*
G01*
X27850000Y-16999000D01*
G75*
G02*
X27901000Y-17050000I0J-51000D01*
G01*
G37*
G36*
G01*
X30001000Y-17050000D02*
X30001000Y-20450000D01*
G75*
G02*
X29950000Y-20501000I-51000J0D01*
G01*
X28650000Y-20501000D01*
G75*
G02*
X28599000Y-20450000I0J51000D01*
G01*
X28599000Y-17050000D01*
G75*
G02*
X28650000Y-16999000I51000J0D01*
G01*
X29950000Y-16999000D01*
G75*
G02*
X30001000Y-17050000I0J-51000D01*
G01*
G37*
G36*
G01*
X33701000Y-19737000D02*
X33701000Y-20263000D01*
G75*
G02*
X33438000Y-20526000I-263000J0D01*
G01*
X32812000Y-20526000D01*
G75*
G02*
X32549000Y-20263000I0J263000D01*
G01*
X32549000Y-19737000D01*
G75*
G02*
X32812000Y-19474000I263000J0D01*
G01*
X33438000Y-19474000D01*
G75*
G02*
X33701000Y-19737000I0J-263000D01*
G01*
G37*
G36*
G01*
X35451000Y-19737000D02*
X35451000Y-20263000D01*
G75*
G02*
X35188000Y-20526000I-263000J0D01*
G01*
X34562000Y-20526000D01*
G75*
G02*
X34299000Y-20263000I0J263000D01*
G01*
X34299000Y-19737000D01*
G75*
G02*
X34562000Y-19474000I263000J0D01*
G01*
X35188000Y-19474000D01*
G75*
G02*
X35451000Y-19737000I0J-263000D01*
G01*
G37*
G36*
G01*
X18850000Y-19401000D02*
X18450000Y-19401000D01*
G75*
G02*
X18399000Y-19350000I0J51000D01*
G01*
X18399000Y-18450000D01*
G75*
G02*
X18450000Y-18399000I51000J0D01*
G01*
X18850000Y-18399000D01*
G75*
G02*
X18901000Y-18450000I0J-51000D01*
G01*
X18901000Y-19350000D01*
G75*
G02*
X18850000Y-19401000I-51000J0D01*
G01*
G37*
G36*
G01*
X17550000Y-19401000D02*
X17150000Y-19401000D01*
G75*
G02*
X17099000Y-19350000I0J51000D01*
G01*
X17099000Y-18450000D01*
G75*
G02*
X17150000Y-18399000I51000J0D01*
G01*
X17550000Y-18399000D01*
G75*
G02*
X17601000Y-18450000I0J-51000D01*
G01*
X17601000Y-19350000D01*
G75*
G02*
X17550000Y-19401000I-51000J0D01*
G01*
G37*
G36*
G01*
X18200000Y-21601000D02*
X17800000Y-21601000D01*
G75*
G02*
X17749000Y-21550000I0J51000D01*
G01*
X17749000Y-20650000D01*
G75*
G02*
X17800000Y-20599000I51000J0D01*
G01*
X18200000Y-20599000D01*
G75*
G02*
X18251000Y-20650000I0J-51000D01*
G01*
X18251000Y-21550000D01*
G75*
G02*
X18200000Y-21601000I-51000J0D01*
G01*
G37*
G36*
G01*
X18200000Y-19401000D02*
X17800000Y-19401000D01*
G75*
G02*
X17749000Y-19350000I0J51000D01*
G01*
X17749000Y-18450000D01*
G75*
G02*
X17800000Y-18399000I51000J0D01*
G01*
X18200000Y-18399000D01*
G75*
G02*
X18251000Y-18450000I0J-51000D01*
G01*
X18251000Y-19350000D01*
G75*
G02*
X18200000Y-19401000I-51000J0D01*
G01*
G37*
G36*
G01*
X17550000Y-21601000D02*
X17150000Y-21601000D01*
G75*
G02*
X17099000Y-21550000I0J51000D01*
G01*
X17099000Y-20650000D01*
G75*
G02*
X17150000Y-20599000I51000J0D01*
G01*
X17550000Y-20599000D01*
G75*
G02*
X17601000Y-20650000I0J-51000D01*
G01*
X17601000Y-21550000D01*
G75*
G02*
X17550000Y-21601000I-51000J0D01*
G01*
G37*
G36*
G01*
X18850000Y-21601000D02*
X18450000Y-21601000D01*
G75*
G02*
X18399000Y-21550000I0J51000D01*
G01*
X18399000Y-20650000D01*
G75*
G02*
X18450000Y-20599000I51000J0D01*
G01*
X18850000Y-20599000D01*
G75*
G02*
X18901000Y-20650000I0J-51000D01*
G01*
X18901000Y-21550000D01*
G75*
G02*
X18850000Y-21601000I-51000J0D01*
G01*
G37*
G36*
G01*
X34299000Y-23263000D02*
X34299000Y-22737000D01*
G75*
G02*
X34562000Y-22474000I263000J0D01*
G01*
X35188000Y-22474000D01*
G75*
G02*
X35451000Y-22737000I0J-263000D01*
G01*
X35451000Y-23263000D01*
G75*
G02*
X35188000Y-23526000I-263000J0D01*
G01*
X34562000Y-23526000D01*
G75*
G02*
X34299000Y-23263000I0J263000D01*
G01*
G37*
G36*
G01*
X32549000Y-23263000D02*
X32549000Y-22737000D01*
G75*
G02*
X32812000Y-22474000I263000J0D01*
G01*
X33438000Y-22474000D01*
G75*
G02*
X33701000Y-22737000I0J-263000D01*
G01*
X33701000Y-23263000D01*
G75*
G02*
X33438000Y-23526000I-263000J0D01*
G01*
X32812000Y-23526000D01*
G75*
G02*
X32549000Y-23263000I0J263000D01*
G01*
G37*
G36*
G01*
X34299000Y-27763000D02*
X34299000Y-27237000D01*
G75*
G02*
X34562000Y-26974000I263000J0D01*
G01*
X35188000Y-26974000D01*
G75*
G02*
X35451000Y-27237000I0J-263000D01*
G01*
X35451000Y-27763000D01*
G75*
G02*
X35188000Y-28026000I-263000J0D01*
G01*
X34562000Y-28026000D01*
G75*
G02*
X34299000Y-27763000I0J263000D01*
G01*
G37*
G36*
G01*
X32549000Y-27763000D02*
X32549000Y-27237000D01*
G75*
G02*
X32812000Y-26974000I263000J0D01*
G01*
X33438000Y-26974000D01*
G75*
G02*
X33701000Y-27237000I0J-263000D01*
G01*
X33701000Y-27763000D01*
G75*
G02*
X33438000Y-28026000I-263000J0D01*
G01*
X32812000Y-28026000D01*
G75*
G02*
X32549000Y-27763000I0J263000D01*
G01*
G37*
G36*
G01*
X33701000Y-25737000D02*
X33701000Y-26263000D01*
G75*
G02*
X33438000Y-26526000I-263000J0D01*
G01*
X32812000Y-26526000D01*
G75*
G02*
X32549000Y-26263000I0J263000D01*
G01*
X32549000Y-25737000D01*
G75*
G02*
X32812000Y-25474000I263000J0D01*
G01*
X33438000Y-25474000D01*
G75*
G02*
X33701000Y-25737000I0J-263000D01*
G01*
G37*
G36*
G01*
X35451000Y-25737000D02*
X35451000Y-26263000D01*
G75*
G02*
X35188000Y-26526000I-263000J0D01*
G01*
X34562000Y-26526000D01*
G75*
G02*
X34299000Y-26263000I0J263000D01*
G01*
X34299000Y-25737000D01*
G75*
G02*
X34562000Y-25474000I263000J0D01*
G01*
X35188000Y-25474000D01*
G75*
G02*
X35451000Y-25737000I0J-263000D01*
G01*
G37*
G36*
G01*
X34299000Y-24763000D02*
X34299000Y-24237000D01*
G75*
G02*
X34562000Y-23974000I263000J0D01*
G01*
X35188000Y-23974000D01*
G75*
G02*
X35451000Y-24237000I0J-263000D01*
G01*
X35451000Y-24763000D01*
G75*
G02*
X35188000Y-25026000I-263000J0D01*
G01*
X34562000Y-25026000D01*
G75*
G02*
X34299000Y-24763000I0J263000D01*
G01*
G37*
G36*
G01*
X32549000Y-24763000D02*
X32549000Y-24237000D01*
G75*
G02*
X32812000Y-23974000I263000J0D01*
G01*
X33438000Y-23974000D01*
G75*
G02*
X33701000Y-24237000I0J-263000D01*
G01*
X33701000Y-24763000D01*
G75*
G02*
X33438000Y-25026000I-263000J0D01*
G01*
X32812000Y-25026000D01*
G75*
G02*
X32549000Y-24763000I0J263000D01*
G01*
G37*
G36*
G01*
X29737000Y-28299000D02*
X30263000Y-28299000D01*
G75*
G02*
X30526000Y-28562000I0J-263000D01*
G01*
X30526000Y-29188000D01*
G75*
G02*
X30263000Y-29451000I-263000J0D01*
G01*
X29737000Y-29451000D01*
G75*
G02*
X29474000Y-29188000I0J263000D01*
G01*
X29474000Y-28562000D01*
G75*
G02*
X29737000Y-28299000I263000J0D01*
G01*
G37*
G36*
G01*
X29737000Y-26549000D02*
X30263000Y-26549000D01*
G75*
G02*
X30526000Y-26812000I0J-263000D01*
G01*
X30526000Y-27438000D01*
G75*
G02*
X30263000Y-27701000I-263000J0D01*
G01*
X29737000Y-27701000D01*
G75*
G02*
X29474000Y-27438000I0J263000D01*
G01*
X29474000Y-26812000D01*
G75*
G02*
X29737000Y-26549000I263000J0D01*
G01*
G37*
G36*
G01*
X31237000Y-28299000D02*
X31763000Y-28299000D01*
G75*
G02*
X32026000Y-28562000I0J-263000D01*
G01*
X32026000Y-29188000D01*
G75*
G02*
X31763000Y-29451000I-263000J0D01*
G01*
X31237000Y-29451000D01*
G75*
G02*
X30974000Y-29188000I0J263000D01*
G01*
X30974000Y-28562000D01*
G75*
G02*
X31237000Y-28299000I263000J0D01*
G01*
G37*
G36*
G01*
X31237000Y-26549000D02*
X31763000Y-26549000D01*
G75*
G02*
X32026000Y-26812000I0J-263000D01*
G01*
X32026000Y-27438000D01*
G75*
G02*
X31763000Y-27701000I-263000J0D01*
G01*
X31237000Y-27701000D01*
G75*
G02*
X30974000Y-27438000I0J263000D01*
G01*
X30974000Y-26812000D01*
G75*
G02*
X31237000Y-26549000I263000J0D01*
G01*
G37*
G36*
G01*
X33701000Y-28737000D02*
X33701000Y-29263000D01*
G75*
G02*
X33438000Y-29526000I-263000J0D01*
G01*
X32812000Y-29526000D01*
G75*
G02*
X32549000Y-29263000I0J263000D01*
G01*
X32549000Y-28737000D01*
G75*
G02*
X32812000Y-28474000I263000J0D01*
G01*
X33438000Y-28474000D01*
G75*
G02*
X33701000Y-28737000I0J-263000D01*
G01*
G37*
G36*
G01*
X35451000Y-28737000D02*
X35451000Y-29263000D01*
G75*
G02*
X35188000Y-29526000I-263000J0D01*
G01*
X34562000Y-29526000D01*
G75*
G02*
X34299000Y-29263000I0J263000D01*
G01*
X34299000Y-28737000D01*
G75*
G02*
X34562000Y-28474000I263000J0D01*
G01*
X35188000Y-28474000D01*
G75*
G02*
X35451000Y-28737000I0J-263000D01*
G01*
G37*
G36*
G01*
X22763000Y-26701000D02*
X22237000Y-26701000D01*
G75*
G02*
X21974000Y-26438000I0J263000D01*
G01*
X21974000Y-25812000D01*
G75*
G02*
X22237000Y-25549000I263000J0D01*
G01*
X22763000Y-25549000D01*
G75*
G02*
X23026000Y-25812000I0J-263000D01*
G01*
X23026000Y-26438000D01*
G75*
G02*
X22763000Y-26701000I-263000J0D01*
G01*
G37*
G36*
G01*
X22763000Y-28451000D02*
X22237000Y-28451000D01*
G75*
G02*
X21974000Y-28188000I0J263000D01*
G01*
X21974000Y-27562000D01*
G75*
G02*
X22237000Y-27299000I263000J0D01*
G01*
X22763000Y-27299000D01*
G75*
G02*
X23026000Y-27562000I0J-263000D01*
G01*
X23026000Y-28188000D01*
G75*
G02*
X22763000Y-28451000I-263000J0D01*
G01*
G37*
G36*
G01*
X34299000Y-21763000D02*
X34299000Y-21237000D01*
G75*
G02*
X34562000Y-20974000I263000J0D01*
G01*
X35188000Y-20974000D01*
G75*
G02*
X35451000Y-21237000I0J-263000D01*
G01*
X35451000Y-21763000D01*
G75*
G02*
X35188000Y-22026000I-263000J0D01*
G01*
X34562000Y-22026000D01*
G75*
G02*
X34299000Y-21763000I0J263000D01*
G01*
G37*
G36*
G01*
X32549000Y-21763000D02*
X32549000Y-21237000D01*
G75*
G02*
X32812000Y-20974000I263000J0D01*
G01*
X33438000Y-20974000D01*
G75*
G02*
X33701000Y-21237000I0J-263000D01*
G01*
X33701000Y-21763000D01*
G75*
G02*
X33438000Y-22026000I-263000J0D01*
G01*
X32812000Y-22026000D01*
G75*
G02*
X32549000Y-21763000I0J263000D01*
G01*
G37*
G36*
G01*
X21263000Y-27201000D02*
X20737000Y-27201000D01*
G75*
G02*
X20474000Y-26938000I0J263000D01*
G01*
X20474000Y-26312000D01*
G75*
G02*
X20737000Y-26049000I263000J0D01*
G01*
X21263000Y-26049000D01*
G75*
G02*
X21526000Y-26312000I0J-263000D01*
G01*
X21526000Y-26938000D01*
G75*
G02*
X21263000Y-27201000I-263000J0D01*
G01*
G37*
G36*
G01*
X21263000Y-28951000D02*
X20737000Y-28951000D01*
G75*
G02*
X20474000Y-28688000I0J263000D01*
G01*
X20474000Y-28062000D01*
G75*
G02*
X20737000Y-27799000I263000J0D01*
G01*
X21263000Y-27799000D01*
G75*
G02*
X21526000Y-28062000I0J-263000D01*
G01*
X21526000Y-28688000D01*
G75*
G02*
X21263000Y-28951000I-263000J0D01*
G01*
G37*
G36*
G01*
X34299000Y-18763000D02*
X34299000Y-18237000D01*
G75*
G02*
X34562000Y-17974000I263000J0D01*
G01*
X35188000Y-17974000D01*
G75*
G02*
X35451000Y-18237000I0J-263000D01*
G01*
X35451000Y-18763000D01*
G75*
G02*
X35188000Y-19026000I-263000J0D01*
G01*
X34562000Y-19026000D01*
G75*
G02*
X34299000Y-18763000I0J263000D01*
G01*
G37*
G36*
G01*
X32549000Y-18763000D02*
X32549000Y-18237000D01*
G75*
G02*
X32812000Y-17974000I263000J0D01*
G01*
X33438000Y-17974000D01*
G75*
G02*
X33701000Y-18237000I0J-263000D01*
G01*
X33701000Y-18763000D01*
G75*
G02*
X33438000Y-19026000I-263000J0D01*
G01*
X32812000Y-19026000D01*
G75*
G02*
X32549000Y-18763000I0J263000D01*
G01*
G37*
G36*
G01*
X26235000Y-26171000D02*
X26235000Y-25645000D01*
G75*
G02*
X26498000Y-25382000I263000J0D01*
G01*
X27124000Y-25382000D01*
G75*
G02*
X27387000Y-25645000I0J-263000D01*
G01*
X27387000Y-26171000D01*
G75*
G02*
X27124000Y-26434000I-263000J0D01*
G01*
X26498000Y-26434000D01*
G75*
G02*
X26235000Y-26171000I0J263000D01*
G01*
G37*
G36*
G01*
X27985000Y-26171000D02*
X27985000Y-25645000D01*
G75*
G02*
X28248000Y-25382000I263000J0D01*
G01*
X28874000Y-25382000D01*
G75*
G02*
X29137000Y-25645000I0J-263000D01*
G01*
X29137000Y-26171000D01*
G75*
G02*
X28874000Y-26434000I-263000J0D01*
G01*
X28248000Y-26434000D01*
G75*
G02*
X27985000Y-26171000I0J263000D01*
G01*
G37*
D13*
G36*
X16754171Y-46493324D02*
G01*
X16815607Y-46543743D01*
X16885538Y-46581122D01*
X16961421Y-46604141D01*
X17040330Y-46611913D01*
X17119239Y-46604141D01*
X17195122Y-46581122D01*
X17265053Y-46543743D01*
X17326489Y-46493324D01*
X17328463Y-46492998D01*
X17329731Y-46494544D01*
X17329172Y-46496284D01*
X17289326Y-46536130D01*
X17289181Y-46536262D01*
X17232380Y-46582878D01*
X17232054Y-46583096D01*
X17172684Y-46614830D01*
X17172322Y-46614980D01*
X17107904Y-46634521D01*
X17107519Y-46634597D01*
X17040526Y-46641195D01*
X17040134Y-46641195D01*
X16973141Y-46634597D01*
X16972756Y-46634521D01*
X16908338Y-46614980D01*
X16907976Y-46614830D01*
X16848606Y-46583096D01*
X16848280Y-46582878D01*
X16791479Y-46536262D01*
X16791334Y-46536130D01*
X16751488Y-46496284D01*
X16750970Y-46494352D01*
X16752384Y-46492938D01*
X16754171Y-46493324D01*
G37*
G36*
X23954673Y-45542228D02*
G01*
X23954727Y-45543878D01*
X23914650Y-45640635D01*
X23893653Y-45746192D01*
X23893653Y-45853808D01*
X23914650Y-45959365D01*
X23954727Y-46056122D01*
X23954466Y-46058105D01*
X23952618Y-46058870D01*
X23951216Y-46057998D01*
X23947325Y-46052175D01*
X23931966Y-46033460D01*
X23913329Y-46018165D01*
X23892066Y-46006800D01*
X23868991Y-45999800D01*
X23844999Y-45997437D01*
X23821008Y-45999800D01*
X23797933Y-46006800D01*
X23776670Y-46018165D01*
X23758033Y-46033461D01*
X23742675Y-46052175D01*
X23738784Y-46057998D01*
X23736990Y-46058883D01*
X23735327Y-46057772D01*
X23735273Y-46056122D01*
X23775350Y-45959365D01*
X23796347Y-45853808D01*
X23796347Y-45746192D01*
X23775350Y-45640635D01*
X23735273Y-45543878D01*
X23735534Y-45541895D01*
X23737382Y-45541130D01*
X23738784Y-45542002D01*
X23742675Y-45547825D01*
X23758034Y-45566540D01*
X23776671Y-45581835D01*
X23797934Y-45593200D01*
X23821009Y-45600200D01*
X23845001Y-45602563D01*
X23868992Y-45600200D01*
X23892067Y-45593200D01*
X23913330Y-45581835D01*
X23931967Y-45566539D01*
X23947325Y-45547825D01*
X23951216Y-45542002D01*
X23953010Y-45541117D01*
X23954673Y-45542228D01*
G37*
G36*
X26459287Y-45627256D02*
G01*
X26459437Y-45629077D01*
X26454650Y-45640635D01*
X26433653Y-45746192D01*
X26433653Y-45853808D01*
X26454650Y-45959365D01*
X26459437Y-45970923D01*
X26459176Y-45972906D01*
X26457328Y-45973671D01*
X26455825Y-45972631D01*
X26447262Y-45956609D01*
X26431967Y-45937972D01*
X26413330Y-45922677D01*
X26392066Y-45911312D01*
X26368991Y-45904312D01*
X26345000Y-45901949D01*
X26321009Y-45904312D01*
X26297934Y-45911312D01*
X26276670Y-45922677D01*
X26258033Y-45937972D01*
X26242738Y-45956609D01*
X26234175Y-45972631D01*
X26232476Y-45973687D01*
X26230713Y-45972744D01*
X26230563Y-45970923D01*
X26235350Y-45959365D01*
X26256347Y-45853808D01*
X26256347Y-45746192D01*
X26235350Y-45640635D01*
X26230563Y-45629077D01*
X26230824Y-45627094D01*
X26232672Y-45626329D01*
X26234175Y-45627369D01*
X26242738Y-45643391D01*
X26258033Y-45662028D01*
X26276670Y-45677323D01*
X26297934Y-45688688D01*
X26321009Y-45695688D01*
X26345000Y-45698051D01*
X26368991Y-45695688D01*
X26392066Y-45688688D01*
X26413330Y-45677323D01*
X26431967Y-45662028D01*
X26447262Y-45643391D01*
X26455825Y-45627369D01*
X26457524Y-45626313D01*
X26459287Y-45627256D01*
G37*
G36*
X25189287Y-45627256D02*
G01*
X25189437Y-45629077D01*
X25184650Y-45640635D01*
X25163653Y-45746192D01*
X25163653Y-45853808D01*
X25184650Y-45959365D01*
X25189437Y-45970923D01*
X25189176Y-45972906D01*
X25187328Y-45973671D01*
X25185825Y-45972631D01*
X25177262Y-45956609D01*
X25161967Y-45937972D01*
X25143330Y-45922677D01*
X25122066Y-45911312D01*
X25098991Y-45904312D01*
X25075000Y-45901949D01*
X25051009Y-45904312D01*
X25027934Y-45911312D01*
X25006670Y-45922677D01*
X24988033Y-45937972D01*
X24972738Y-45956609D01*
X24964175Y-45972631D01*
X24962476Y-45973687D01*
X24960713Y-45972744D01*
X24960563Y-45970923D01*
X24965350Y-45959365D01*
X24986347Y-45853808D01*
X24986347Y-45746192D01*
X24965350Y-45640635D01*
X24960563Y-45629077D01*
X24960824Y-45627094D01*
X24962672Y-45626329D01*
X24964175Y-45627369D01*
X24972738Y-45643391D01*
X24988033Y-45662028D01*
X25006670Y-45677323D01*
X25027934Y-45688688D01*
X25051009Y-45695688D01*
X25075000Y-45698051D01*
X25098991Y-45695688D01*
X25122066Y-45688688D01*
X25143330Y-45677323D01*
X25161967Y-45662028D01*
X25177262Y-45643391D01*
X25185825Y-45627369D01*
X25187524Y-45626313D01*
X25189287Y-45627256D01*
G37*
G36*
X16179936Y-45344598D02*
G01*
X16179550Y-45346385D01*
X16129131Y-45407821D01*
X16091752Y-45477752D01*
X16068733Y-45553635D01*
X16060961Y-45632544D01*
X16068733Y-45711453D01*
X16091752Y-45787336D01*
X16129131Y-45857267D01*
X16179550Y-45918703D01*
X16179876Y-45920677D01*
X16178330Y-45921945D01*
X16176590Y-45921386D01*
X16136744Y-45881540D01*
X16136612Y-45881395D01*
X16089996Y-45824594D01*
X16089778Y-45824268D01*
X16058044Y-45764898D01*
X16057894Y-45764536D01*
X16038353Y-45700118D01*
X16038277Y-45699733D01*
X16031679Y-45632740D01*
X16031679Y-45632348D01*
X16038277Y-45565355D01*
X16038353Y-45564970D01*
X16057894Y-45500552D01*
X16058044Y-45500190D01*
X16089778Y-45440820D01*
X16089996Y-45440494D01*
X16136612Y-45383693D01*
X16136744Y-45383548D01*
X16176590Y-45343702D01*
X16178522Y-45343184D01*
X16179936Y-45344598D01*
G37*
G36*
X17904070Y-45343702D02*
G01*
X17943916Y-45383548D01*
X17944048Y-45383693D01*
X17990664Y-45440494D01*
X17990882Y-45440820D01*
X18022616Y-45500190D01*
X18022766Y-45500552D01*
X18042307Y-45564970D01*
X18042383Y-45565355D01*
X18048981Y-45632348D01*
X18048981Y-45632740D01*
X18042383Y-45699733D01*
X18042307Y-45700118D01*
X18022766Y-45764536D01*
X18022616Y-45764898D01*
X17990882Y-45824268D01*
X17990664Y-45824594D01*
X17944048Y-45881395D01*
X17943916Y-45881540D01*
X17904070Y-45921386D01*
X17902138Y-45921904D01*
X17900724Y-45920490D01*
X17901110Y-45918703D01*
X17951529Y-45857267D01*
X17988908Y-45787336D01*
X18011927Y-45711453D01*
X18019699Y-45632544D01*
X18011927Y-45553635D01*
X17988908Y-45477752D01*
X17951529Y-45407821D01*
X17901110Y-45346385D01*
X17900784Y-45344411D01*
X17902330Y-45343143D01*
X17904070Y-45343702D01*
G37*
G36*
X18168385Y-45079110D02*
G01*
X18229821Y-45129529D01*
X18299752Y-45166908D01*
X18375635Y-45189927D01*
X18454544Y-45197699D01*
X18533453Y-45189927D01*
X18609336Y-45166908D01*
X18679267Y-45129529D01*
X18740703Y-45079110D01*
X18742677Y-45078784D01*
X18743945Y-45080330D01*
X18743386Y-45082070D01*
X18703540Y-45121916D01*
X18703395Y-45122048D01*
X18646594Y-45168664D01*
X18646268Y-45168882D01*
X18586898Y-45200616D01*
X18586536Y-45200766D01*
X18522118Y-45220307D01*
X18521733Y-45220383D01*
X18454740Y-45226981D01*
X18454348Y-45226981D01*
X18387355Y-45220383D01*
X18386970Y-45220307D01*
X18322552Y-45200766D01*
X18322190Y-45200616D01*
X18262820Y-45168882D01*
X18262494Y-45168664D01*
X18205693Y-45122048D01*
X18205548Y-45121916D01*
X18165702Y-45082070D01*
X18165184Y-45080138D01*
X18166598Y-45078724D01*
X18168385Y-45079110D01*
G37*
G36*
X17107519Y-44630491D02*
G01*
X17107904Y-44630567D01*
X17172322Y-44650108D01*
X17172684Y-44650258D01*
X17232054Y-44681992D01*
X17232380Y-44682210D01*
X17289181Y-44728826D01*
X17289326Y-44728958D01*
X17329172Y-44768804D01*
X17329690Y-44770736D01*
X17328276Y-44772150D01*
X17326489Y-44771764D01*
X17265053Y-44721345D01*
X17195122Y-44683966D01*
X17119239Y-44660947D01*
X17040330Y-44653175D01*
X16961421Y-44660947D01*
X16885538Y-44683966D01*
X16815607Y-44721345D01*
X16754171Y-44771764D01*
X16752197Y-44772090D01*
X16750929Y-44770544D01*
X16751488Y-44768804D01*
X16791334Y-44728958D01*
X16791479Y-44728826D01*
X16848280Y-44682210D01*
X16848606Y-44681992D01*
X16907976Y-44650258D01*
X16908338Y-44650108D01*
X16972756Y-44630567D01*
X16973141Y-44630491D01*
X17040134Y-44623893D01*
X17040526Y-44623893D01*
X17107519Y-44630491D01*
G37*
G36*
X17594150Y-43930384D02*
G01*
X17593764Y-43932171D01*
X17543345Y-43993607D01*
X17505966Y-44063538D01*
X17482947Y-44139421D01*
X17475175Y-44218330D01*
X17482947Y-44297239D01*
X17505966Y-44373122D01*
X17543345Y-44443053D01*
X17593764Y-44504489D01*
X17594090Y-44506463D01*
X17592544Y-44507731D01*
X17590804Y-44507172D01*
X17550958Y-44467326D01*
X17550826Y-44467181D01*
X17504210Y-44410380D01*
X17503992Y-44410054D01*
X17472258Y-44350684D01*
X17472108Y-44350322D01*
X17452567Y-44285904D01*
X17452491Y-44285519D01*
X17445893Y-44218526D01*
X17445893Y-44218134D01*
X17452491Y-44151141D01*
X17452567Y-44150756D01*
X17472108Y-44086338D01*
X17472258Y-44085976D01*
X17503992Y-44026606D01*
X17504210Y-44026280D01*
X17550826Y-43969479D01*
X17550958Y-43969334D01*
X17590804Y-43929488D01*
X17592736Y-43928970D01*
X17594150Y-43930384D01*
G37*
G36*
X19318284Y-43929488D02*
G01*
X19358130Y-43969334D01*
X19358262Y-43969479D01*
X19404878Y-44026280D01*
X19405096Y-44026606D01*
X19436830Y-44085976D01*
X19436980Y-44086338D01*
X19456521Y-44150756D01*
X19456597Y-44151141D01*
X19463195Y-44218134D01*
X19463195Y-44218526D01*
X19456597Y-44285519D01*
X19456521Y-44285904D01*
X19436980Y-44350322D01*
X19436830Y-44350684D01*
X19405096Y-44410054D01*
X19404878Y-44410380D01*
X19358262Y-44467181D01*
X19358130Y-44467326D01*
X19318284Y-44507172D01*
X19316352Y-44507690D01*
X19314938Y-44506276D01*
X19315324Y-44504489D01*
X19365743Y-44443053D01*
X19403122Y-44373122D01*
X19426141Y-44297239D01*
X19433913Y-44218330D01*
X19426141Y-44139421D01*
X19403122Y-44063538D01*
X19365743Y-43993607D01*
X19315324Y-43932171D01*
X19314998Y-43930197D01*
X19316544Y-43928929D01*
X19318284Y-43929488D01*
G37*
G36*
X14279297Y-44018450D02*
G01*
X14340733Y-44068869D01*
X14410664Y-44106248D01*
X14486547Y-44129267D01*
X14565456Y-44137039D01*
X14644365Y-44129267D01*
X14720248Y-44106248D01*
X14790179Y-44068869D01*
X14851615Y-44018450D01*
X14853589Y-44018124D01*
X14854857Y-44019670D01*
X14854298Y-44021410D01*
X14814452Y-44061256D01*
X14814307Y-44061388D01*
X14757506Y-44108004D01*
X14757180Y-44108222D01*
X14697810Y-44139956D01*
X14697448Y-44140106D01*
X14633030Y-44159647D01*
X14632645Y-44159723D01*
X14565652Y-44166321D01*
X14565260Y-44166321D01*
X14498267Y-44159723D01*
X14497882Y-44159647D01*
X14433464Y-44140106D01*
X14433102Y-44139956D01*
X14373732Y-44108222D01*
X14373406Y-44108004D01*
X14316605Y-44061388D01*
X14316460Y-44061256D01*
X14276614Y-44021410D01*
X14276096Y-44019478D01*
X14277510Y-44018064D01*
X14279297Y-44018450D01*
G37*
G36*
X13705062Y-42869724D02*
G01*
X13704676Y-42871511D01*
X13654257Y-42932947D01*
X13616878Y-43002878D01*
X13593859Y-43078761D01*
X13586087Y-43157670D01*
X13593859Y-43236579D01*
X13616878Y-43312462D01*
X13654257Y-43382393D01*
X13704676Y-43443829D01*
X13705002Y-43445803D01*
X13703456Y-43447071D01*
X13701716Y-43446512D01*
X13661870Y-43406666D01*
X13661738Y-43406521D01*
X13615122Y-43349720D01*
X13614904Y-43349394D01*
X13583170Y-43290024D01*
X13583020Y-43289662D01*
X13563479Y-43225244D01*
X13563403Y-43224859D01*
X13556805Y-43157866D01*
X13556805Y-43157474D01*
X13563403Y-43090481D01*
X13563479Y-43090096D01*
X13583020Y-43025678D01*
X13583170Y-43025316D01*
X13614904Y-42965946D01*
X13615122Y-42965620D01*
X13661738Y-42908819D01*
X13661870Y-42908674D01*
X13701716Y-42868828D01*
X13703648Y-42868310D01*
X13705062Y-42869724D01*
G37*
G36*
X15429196Y-42868828D02*
G01*
X15469042Y-42908674D01*
X15469174Y-42908819D01*
X15515790Y-42965620D01*
X15516008Y-42965946D01*
X15547742Y-43025316D01*
X15547892Y-43025678D01*
X15567433Y-43090096D01*
X15567509Y-43090481D01*
X15574107Y-43157474D01*
X15574107Y-43157866D01*
X15567509Y-43224859D01*
X15567433Y-43225244D01*
X15547892Y-43289662D01*
X15547742Y-43290024D01*
X15516008Y-43349394D01*
X15515790Y-43349720D01*
X15469174Y-43406521D01*
X15469042Y-43406666D01*
X15429196Y-43446512D01*
X15427264Y-43447030D01*
X15425850Y-43445616D01*
X15426236Y-43443829D01*
X15476655Y-43382393D01*
X15514034Y-43312462D01*
X15537053Y-43236579D01*
X15544825Y-43157670D01*
X15537053Y-43078761D01*
X15514034Y-43002878D01*
X15476655Y-42932947D01*
X15426236Y-42871511D01*
X15425910Y-42869537D01*
X15427456Y-42868269D01*
X15429196Y-42868828D01*
G37*
G36*
X18521733Y-43216277D02*
G01*
X18522118Y-43216353D01*
X18586536Y-43235894D01*
X18586898Y-43236044D01*
X18646268Y-43267778D01*
X18646594Y-43267996D01*
X18703395Y-43314612D01*
X18703540Y-43314744D01*
X18743386Y-43354590D01*
X18743904Y-43356522D01*
X18742490Y-43357936D01*
X18740703Y-43357550D01*
X18679267Y-43307131D01*
X18609336Y-43269752D01*
X18533453Y-43246733D01*
X18454544Y-43238961D01*
X18375635Y-43246733D01*
X18299752Y-43269752D01*
X18229821Y-43307131D01*
X18168385Y-43357550D01*
X18166411Y-43357876D01*
X18165143Y-43356330D01*
X18165702Y-43354590D01*
X18205548Y-43314744D01*
X18205693Y-43314612D01*
X18262494Y-43267996D01*
X18262820Y-43267778D01*
X18322190Y-43236044D01*
X18322552Y-43235894D01*
X18386970Y-43216353D01*
X18387355Y-43216277D01*
X18454348Y-43209679D01*
X18454740Y-43209679D01*
X18521733Y-43216277D01*
G37*
G36*
X15693511Y-42604236D02*
G01*
X15754947Y-42654655D01*
X15824878Y-42692034D01*
X15900761Y-42715053D01*
X15979670Y-42722825D01*
X16058579Y-42715053D01*
X16134462Y-42692034D01*
X16204393Y-42654655D01*
X16265829Y-42604236D01*
X16267803Y-42603910D01*
X16269071Y-42605456D01*
X16268512Y-42607196D01*
X16228666Y-42647042D01*
X16228521Y-42647174D01*
X16171720Y-42693790D01*
X16171394Y-42694008D01*
X16112024Y-42725742D01*
X16111662Y-42725892D01*
X16047244Y-42745433D01*
X16046859Y-42745509D01*
X15979866Y-42752107D01*
X15979474Y-42752107D01*
X15912481Y-42745509D01*
X15912096Y-42745433D01*
X15847678Y-42725892D01*
X15847316Y-42725742D01*
X15787946Y-42694008D01*
X15787620Y-42693790D01*
X15730819Y-42647174D01*
X15730674Y-42647042D01*
X15690828Y-42607196D01*
X15690310Y-42605264D01*
X15691724Y-42603850D01*
X15693511Y-42604236D01*
G37*
G36*
X14632645Y-42155617D02*
G01*
X14633030Y-42155693D01*
X14697448Y-42175234D01*
X14697810Y-42175384D01*
X14757180Y-42207118D01*
X14757506Y-42207336D01*
X14814307Y-42253952D01*
X14814452Y-42254084D01*
X14854298Y-42293930D01*
X14854816Y-42295862D01*
X14853402Y-42297276D01*
X14851615Y-42296890D01*
X14790179Y-42246471D01*
X14720248Y-42209092D01*
X14644365Y-42186073D01*
X14565456Y-42178301D01*
X14486547Y-42186073D01*
X14410664Y-42209092D01*
X14340733Y-42246471D01*
X14279297Y-42296890D01*
X14277323Y-42297216D01*
X14276055Y-42295670D01*
X14276614Y-42293930D01*
X14316460Y-42254084D01*
X14316605Y-42253952D01*
X14373406Y-42207336D01*
X14373732Y-42207118D01*
X14433102Y-42175384D01*
X14433464Y-42175234D01*
X14497882Y-42155693D01*
X14498267Y-42155617D01*
X14565260Y-42149019D01*
X14565652Y-42149019D01*
X14632645Y-42155617D01*
G37*
G36*
X15119276Y-41455510D02*
G01*
X15118890Y-41457297D01*
X15068471Y-41518733D01*
X15031092Y-41588664D01*
X15008073Y-41664547D01*
X15000301Y-41743456D01*
X15008073Y-41822365D01*
X15031092Y-41898248D01*
X15068471Y-41968179D01*
X15118890Y-42029615D01*
X15119216Y-42031589D01*
X15117670Y-42032857D01*
X15115930Y-42032298D01*
X15076084Y-41992452D01*
X15075952Y-41992307D01*
X15029336Y-41935506D01*
X15029118Y-41935180D01*
X14997384Y-41875810D01*
X14997234Y-41875448D01*
X14977693Y-41811030D01*
X14977617Y-41810645D01*
X14971019Y-41743652D01*
X14971019Y-41743260D01*
X14977617Y-41676267D01*
X14977693Y-41675882D01*
X14997234Y-41611464D01*
X14997384Y-41611102D01*
X15029118Y-41551732D01*
X15029336Y-41551406D01*
X15075952Y-41494605D01*
X15076084Y-41494460D01*
X15115930Y-41454614D01*
X15117862Y-41454096D01*
X15119276Y-41455510D01*
G37*
G36*
X16843410Y-41454614D02*
G01*
X16883256Y-41494460D01*
X16883388Y-41494605D01*
X16930004Y-41551406D01*
X16930222Y-41551732D01*
X16961956Y-41611102D01*
X16962106Y-41611464D01*
X16981647Y-41675882D01*
X16981723Y-41676267D01*
X16988321Y-41743260D01*
X16988321Y-41743652D01*
X16981723Y-41810645D01*
X16981647Y-41811030D01*
X16962106Y-41875448D01*
X16961956Y-41875810D01*
X16930222Y-41935180D01*
X16930004Y-41935506D01*
X16883388Y-41992307D01*
X16883256Y-41992452D01*
X16843410Y-42032298D01*
X16841478Y-42032816D01*
X16840064Y-42031402D01*
X16840450Y-42029615D01*
X16890869Y-41968179D01*
X16928248Y-41898248D01*
X16951267Y-41822365D01*
X16959039Y-41743456D01*
X16951267Y-41664547D01*
X16928248Y-41588664D01*
X16890869Y-41518733D01*
X16840450Y-41457297D01*
X16840124Y-41455323D01*
X16841670Y-41454055D01*
X16843410Y-41454614D01*
G37*
G36*
X16046859Y-40741403D02*
G01*
X16047244Y-40741479D01*
X16111662Y-40761020D01*
X16112024Y-40761170D01*
X16171394Y-40792904D01*
X16171720Y-40793122D01*
X16228521Y-40839738D01*
X16228666Y-40839870D01*
X16268512Y-40879716D01*
X16269030Y-40881648D01*
X16267616Y-40883062D01*
X16265829Y-40882676D01*
X16204393Y-40832257D01*
X16134462Y-40794878D01*
X16058579Y-40771859D01*
X15979670Y-40764087D01*
X15900761Y-40771859D01*
X15824878Y-40794878D01*
X15754947Y-40832257D01*
X15693511Y-40882676D01*
X15691537Y-40883002D01*
X15690269Y-40881456D01*
X15690828Y-40879716D01*
X15730674Y-40839870D01*
X15730819Y-40839738D01*
X15787620Y-40793122D01*
X15787946Y-40792904D01*
X15847316Y-40761170D01*
X15847678Y-40761020D01*
X15912096Y-40741479D01*
X15912481Y-40741403D01*
X15979474Y-40734805D01*
X15979866Y-40734805D01*
X16046859Y-40741403D01*
G37*
G36*
X29363165Y-28188672D02*
G01*
X29364000Y-28190298D01*
X29364000Y-28234231D01*
X29366372Y-28258316D01*
X29373372Y-28281391D01*
X29384737Y-28302655D01*
X29400032Y-28321292D01*
X29418669Y-28336587D01*
X29439933Y-28347952D01*
X29463008Y-28354952D01*
X29486999Y-28357315D01*
X29510990Y-28354952D01*
X29534020Y-28347966D01*
X29552679Y-28336782D01*
X29552764Y-28336733D01*
X29597062Y-28313056D01*
X29597424Y-28312906D01*
X29634920Y-28301531D01*
X29635305Y-28301455D01*
X29680442Y-28297010D01*
X29680638Y-28297000D01*
X29737000Y-28297000D01*
X29738732Y-28298000D01*
X29738732Y-28300000D01*
X29737196Y-28300990D01*
X29686086Y-28306023D01*
X29637123Y-28320877D01*
X29592001Y-28344994D01*
X29552452Y-28377452D01*
X29519994Y-28417001D01*
X29495877Y-28462123D01*
X29481023Y-28511086D01*
X29475990Y-28562196D01*
X29474825Y-28563822D01*
X29472835Y-28563626D01*
X29472000Y-28562000D01*
X29472000Y-28527092D01*
X29469628Y-28503007D01*
X29462628Y-28479932D01*
X29451263Y-28458668D01*
X29435968Y-28440031D01*
X29417331Y-28424736D01*
X29396067Y-28413371D01*
X29372992Y-28406371D01*
X29349001Y-28404008D01*
X29325010Y-28406371D01*
X29301980Y-28413357D01*
X29284504Y-28423831D01*
X29284419Y-28423880D01*
X29239315Y-28447988D01*
X29238953Y-28448138D01*
X29201564Y-28459480D01*
X29201179Y-28459556D01*
X29156161Y-28463990D01*
X29155965Y-28464000D01*
X29090298Y-28464000D01*
X29088566Y-28463000D01*
X29088566Y-28461000D01*
X29090102Y-28460010D01*
X29142909Y-28454809D01*
X29193505Y-28439461D01*
X29240132Y-28414539D01*
X29280999Y-28380999D01*
X29314539Y-28340132D01*
X29339461Y-28293505D01*
X29354809Y-28242909D01*
X29360010Y-28190102D01*
X29361175Y-28188476D01*
X29363165Y-28188672D01*
G37*
G36*
X29475243Y-26843435D02*
G01*
X29476000Y-26845002D01*
X29476000Y-27437906D01*
X29481023Y-27488914D01*
X29495877Y-27537877D01*
X29519994Y-27582999D01*
X29552452Y-27622548D01*
X29592001Y-27655006D01*
X29637123Y-27679123D01*
X29686086Y-27693977D01*
X29737196Y-27699010D01*
X29738822Y-27700175D01*
X29738626Y-27702165D01*
X29737000Y-27703000D01*
X29680638Y-27703000D01*
X29680442Y-27702990D01*
X29635305Y-27698545D01*
X29634920Y-27698469D01*
X29597424Y-27687094D01*
X29597062Y-27686944D01*
X29559243Y-27666730D01*
X29559075Y-27666629D01*
X29544974Y-27657208D01*
X29522700Y-27647982D01*
X29499050Y-27643278D01*
X29474944Y-27643278D01*
X29451294Y-27647983D01*
X29429020Y-27657210D01*
X29408973Y-27670605D01*
X29391926Y-27687652D01*
X29378532Y-27707700D01*
X29369323Y-27729931D01*
X29363978Y-27765968D01*
X29362735Y-27767535D01*
X29360757Y-27767242D01*
X29360000Y-27765675D01*
X29360000Y-27181796D01*
X29354809Y-27129091D01*
X29339461Y-27078495D01*
X29314539Y-27031868D01*
X29280999Y-26991001D01*
X29240132Y-26957461D01*
X29193505Y-26932539D01*
X29142909Y-26917191D01*
X29090102Y-26911990D01*
X29088476Y-26910825D01*
X29088672Y-26908835D01*
X29090298Y-26908000D01*
X29155965Y-26908000D01*
X29156161Y-26908010D01*
X29201179Y-26912444D01*
X29201564Y-26912520D01*
X29238953Y-26923862D01*
X29239315Y-26924012D01*
X29277330Y-26944331D01*
X29277498Y-26944432D01*
X29291028Y-26953471D01*
X29313302Y-26962696D01*
X29336953Y-26967400D01*
X29361059Y-26967399D01*
X29384709Y-26962693D01*
X29406982Y-26953466D01*
X29427029Y-26940070D01*
X29444076Y-26923023D01*
X29457470Y-26902975D01*
X29466678Y-26880744D01*
X29472022Y-26844709D01*
X29473265Y-26843142D01*
X29475243Y-26843435D01*
G37*
G36*
X29444555Y-21022010D02*
G01*
X29455551Y-21023093D01*
X29455936Y-21023169D01*
X29460610Y-21024587D01*
X29460972Y-21024737D01*
X29465273Y-21027036D01*
X29465599Y-21027254D01*
X29471896Y-21032421D01*
X29492023Y-21045870D01*
X29514297Y-21055096D01*
X29537948Y-21059800D01*
X29562054Y-21059800D01*
X29585704Y-21055095D01*
X29607978Y-21045869D01*
X29628104Y-21032421D01*
X29634401Y-21027254D01*
X29634727Y-21027036D01*
X29639028Y-21024737D01*
X29639390Y-21024587D01*
X29644064Y-21023169D01*
X29644449Y-21023093D01*
X29655445Y-21022010D01*
X29655641Y-21022000D01*
X29712000Y-21022000D01*
X29713732Y-21023000D01*
X29713732Y-21025000D01*
X29712196Y-21025990D01*
X29695227Y-21027661D01*
X29679093Y-21032556D01*
X29664226Y-21040502D01*
X29651196Y-21051196D01*
X29640502Y-21064226D01*
X29632556Y-21079093D01*
X29627661Y-21095227D01*
X29626000Y-21112094D01*
X29626000Y-21812906D01*
X29627661Y-21829773D01*
X29632556Y-21845907D01*
X29640502Y-21860774D01*
X29651196Y-21873804D01*
X29664226Y-21884498D01*
X29679093Y-21892444D01*
X29695227Y-21897339D01*
X29712094Y-21899000D01*
X29887906Y-21899000D01*
X29904773Y-21897339D01*
X29920907Y-21892444D01*
X29935774Y-21884498D01*
X29948804Y-21873804D01*
X29959498Y-21860774D01*
X29967444Y-21845907D01*
X29972339Y-21829773D01*
X29974000Y-21812906D01*
X29974000Y-21112094D01*
X29972339Y-21095227D01*
X29967444Y-21079093D01*
X29959498Y-21064226D01*
X29948804Y-21051196D01*
X29935774Y-21040502D01*
X29920907Y-21032556D01*
X29904773Y-21027661D01*
X29887804Y-21025990D01*
X29886178Y-21024825D01*
X29886374Y-21022835D01*
X29888000Y-21022000D01*
X29944359Y-21022000D01*
X29944555Y-21022010D01*
X29955551Y-21023093D01*
X29955936Y-21023169D01*
X29960610Y-21024587D01*
X29960972Y-21024737D01*
X29965273Y-21027036D01*
X29965599Y-21027254D01*
X29971896Y-21032421D01*
X29992023Y-21045870D01*
X30014297Y-21055096D01*
X30037948Y-21059800D01*
X30062054Y-21059800D01*
X30085704Y-21055095D01*
X30107978Y-21045869D01*
X30128104Y-21032421D01*
X30134401Y-21027254D01*
X30134727Y-21027036D01*
X30139028Y-21024737D01*
X30139390Y-21024587D01*
X30144064Y-21023169D01*
X30144449Y-21023093D01*
X30155445Y-21022010D01*
X30155641Y-21022000D01*
X30212000Y-21022000D01*
X30213732Y-21023000D01*
X30213732Y-21025000D01*
X30212196Y-21025990D01*
X30195227Y-21027661D01*
X30179093Y-21032556D01*
X30164226Y-21040502D01*
X30151196Y-21051196D01*
X30140502Y-21064226D01*
X30132556Y-21079093D01*
X30127661Y-21095227D01*
X30126000Y-21112094D01*
X30126000Y-21812906D01*
X30127661Y-21829773D01*
X30132556Y-21845907D01*
X30140502Y-21860774D01*
X30151196Y-21873804D01*
X30164226Y-21884498D01*
X30179093Y-21892444D01*
X30195227Y-21897339D01*
X30212094Y-21899000D01*
X30387906Y-21899000D01*
X30404773Y-21897339D01*
X30420907Y-21892444D01*
X30435774Y-21884498D01*
X30448804Y-21873804D01*
X30459498Y-21860774D01*
X30467444Y-21845907D01*
X30472339Y-21829773D01*
X30474000Y-21812906D01*
X30474000Y-21112094D01*
X30472339Y-21095227D01*
X30467444Y-21079093D01*
X30459498Y-21064226D01*
X30448804Y-21051196D01*
X30435774Y-21040502D01*
X30420907Y-21032556D01*
X30404773Y-21027661D01*
X30387804Y-21025990D01*
X30386178Y-21024825D01*
X30386374Y-21022835D01*
X30388000Y-21022000D01*
X30444359Y-21022000D01*
X30444555Y-21022010D01*
X30455551Y-21023093D01*
X30455936Y-21023169D01*
X30460610Y-21024587D01*
X30460972Y-21024737D01*
X30465273Y-21027036D01*
X30465599Y-21027254D01*
X30471896Y-21032421D01*
X30492023Y-21045870D01*
X30514297Y-21055096D01*
X30537948Y-21059800D01*
X30562054Y-21059800D01*
X30585704Y-21055095D01*
X30607978Y-21045869D01*
X30628104Y-21032421D01*
X30634401Y-21027254D01*
X30634727Y-21027036D01*
X30639028Y-21024737D01*
X30639390Y-21024587D01*
X30644064Y-21023169D01*
X30644449Y-21023093D01*
X30655445Y-21022010D01*
X30655641Y-21022000D01*
X30712000Y-21022000D01*
X30713732Y-21023000D01*
X30713732Y-21025000D01*
X30712196Y-21025990D01*
X30695227Y-21027661D01*
X30679093Y-21032556D01*
X30664226Y-21040502D01*
X30651196Y-21051196D01*
X30640502Y-21064226D01*
X30632556Y-21079093D01*
X30627661Y-21095227D01*
X30626000Y-21112094D01*
X30626000Y-21812906D01*
X30627661Y-21829773D01*
X30632556Y-21845907D01*
X30640502Y-21860774D01*
X30651196Y-21873804D01*
X30664226Y-21884498D01*
X30679093Y-21892444D01*
X30695227Y-21897339D01*
X30712094Y-21899000D01*
X30752533Y-21899000D01*
X30754265Y-21900000D01*
X30754265Y-21902000D01*
X30752729Y-21902990D01*
X30728542Y-21905372D01*
X30705467Y-21912372D01*
X30684203Y-21923737D01*
X30665566Y-21939032D01*
X30650271Y-21957669D01*
X30638906Y-21978933D01*
X30631906Y-22002008D01*
X30629543Y-22025999D01*
X30631906Y-22049990D01*
X30638906Y-22073065D01*
X30650271Y-22094329D01*
X30665566Y-22112966D01*
X30684245Y-22128295D01*
X30694582Y-22134491D01*
X30740282Y-22158918D01*
X30740608Y-22159136D01*
X30795521Y-22204202D01*
X30795798Y-22204479D01*
X30840864Y-22259392D01*
X30841082Y-22259718D01*
X30865480Y-22305364D01*
X30878929Y-22325491D01*
X30895976Y-22342538D01*
X30916023Y-22355933D01*
X30938297Y-22365159D01*
X30961947Y-22369864D01*
X30986054Y-22369864D01*
X31009704Y-22365160D01*
X31031978Y-22355934D01*
X31052025Y-22342539D01*
X31069072Y-22325492D01*
X31082467Y-22305445D01*
X31091693Y-22283171D01*
X31096407Y-22259475D01*
X31097002Y-22247369D01*
X31098086Y-22245688D01*
X31100084Y-22245786D01*
X31101000Y-22247467D01*
X31101000Y-22287906D01*
X31102661Y-22304773D01*
X31107556Y-22320907D01*
X31115502Y-22335774D01*
X31126196Y-22348804D01*
X31139226Y-22359498D01*
X31154093Y-22367444D01*
X31170227Y-22372339D01*
X31187094Y-22374000D01*
X31887906Y-22374000D01*
X31904773Y-22372339D01*
X31920907Y-22367444D01*
X31935774Y-22359498D01*
X31948804Y-22348804D01*
X31959498Y-22335774D01*
X31967444Y-22320907D01*
X31972339Y-22304773D01*
X31974010Y-22287804D01*
X31975175Y-22286178D01*
X31977165Y-22286374D01*
X31978000Y-22288000D01*
X31978000Y-22344359D01*
X31977990Y-22344555D01*
X31976907Y-22355551D01*
X31976831Y-22355936D01*
X31975413Y-22360610D01*
X31975263Y-22360972D01*
X31972964Y-22365273D01*
X31972746Y-22365599D01*
X31967579Y-22371896D01*
X31954130Y-22392023D01*
X31944904Y-22414297D01*
X31940200Y-22437948D01*
X31940200Y-22462054D01*
X31944905Y-22485704D01*
X31954131Y-22507978D01*
X31967579Y-22528104D01*
X31972746Y-22534401D01*
X31972964Y-22534727D01*
X31975263Y-22539028D01*
X31975413Y-22539390D01*
X31976831Y-22544064D01*
X31976907Y-22544449D01*
X31977990Y-22555445D01*
X31978000Y-22555641D01*
X31978000Y-22612000D01*
X31977000Y-22613732D01*
X31975000Y-22613732D01*
X31974010Y-22612196D01*
X31972339Y-22595227D01*
X31967444Y-22579093D01*
X31959498Y-22564226D01*
X31948804Y-22551196D01*
X31935774Y-22540502D01*
X31920907Y-22532556D01*
X31904773Y-22527661D01*
X31887906Y-22526000D01*
X31187094Y-22526000D01*
X31170227Y-22527661D01*
X31154093Y-22532556D01*
X31139226Y-22540502D01*
X31126196Y-22551196D01*
X31115502Y-22564226D01*
X31107556Y-22579093D01*
X31102661Y-22595227D01*
X31101000Y-22612094D01*
X31101000Y-22787906D01*
X31102661Y-22804773D01*
X31107556Y-22820907D01*
X31115502Y-22835774D01*
X31126196Y-22848804D01*
X31139226Y-22859498D01*
X31154093Y-22867444D01*
X31170227Y-22872339D01*
X31187094Y-22874000D01*
X31887906Y-22874000D01*
X31904773Y-22872339D01*
X31920907Y-22867444D01*
X31935774Y-22859498D01*
X31948804Y-22848804D01*
X31959498Y-22835774D01*
X31967444Y-22820907D01*
X31972339Y-22804773D01*
X31974010Y-22787804D01*
X31975175Y-22786178D01*
X31977165Y-22786374D01*
X31978000Y-22788000D01*
X31978000Y-22844359D01*
X31977990Y-22844555D01*
X31976907Y-22855551D01*
X31976831Y-22855936D01*
X31975413Y-22860610D01*
X31975263Y-22860972D01*
X31972964Y-22865273D01*
X31972746Y-22865599D01*
X31967579Y-22871896D01*
X31954130Y-22892023D01*
X31944904Y-22914297D01*
X31940200Y-22937948D01*
X31940200Y-22962054D01*
X31944905Y-22985704D01*
X31954131Y-23007978D01*
X31967579Y-23028104D01*
X31972746Y-23034401D01*
X31972964Y-23034727D01*
X31975263Y-23039028D01*
X31975413Y-23039390D01*
X31976831Y-23044064D01*
X31976907Y-23044449D01*
X31977990Y-23055445D01*
X31978000Y-23055641D01*
X31978000Y-23112000D01*
X31977000Y-23113732D01*
X31975000Y-23113732D01*
X31974010Y-23112196D01*
X31972339Y-23095227D01*
X31967444Y-23079093D01*
X31959498Y-23064226D01*
X31948804Y-23051196D01*
X31935774Y-23040502D01*
X31920907Y-23032556D01*
X31904773Y-23027661D01*
X31887906Y-23026000D01*
X31187094Y-23026000D01*
X31170227Y-23027661D01*
X31154093Y-23032556D01*
X31139226Y-23040502D01*
X31126196Y-23051196D01*
X31115502Y-23064226D01*
X31107556Y-23079093D01*
X31102661Y-23095227D01*
X31101000Y-23112094D01*
X31101000Y-23287906D01*
X31102661Y-23304773D01*
X31107556Y-23320907D01*
X31115502Y-23335774D01*
X31126196Y-23348804D01*
X31139226Y-23359498D01*
X31154093Y-23367444D01*
X31170227Y-23372339D01*
X31187094Y-23374000D01*
X31887906Y-23374000D01*
X31904773Y-23372339D01*
X31920907Y-23367444D01*
X31935774Y-23359498D01*
X31948804Y-23348804D01*
X31959498Y-23335774D01*
X31967444Y-23320907D01*
X31972339Y-23304773D01*
X31974010Y-23287804D01*
X31975175Y-23286178D01*
X31977165Y-23286374D01*
X31978000Y-23288000D01*
X31978000Y-23344359D01*
X31977990Y-23344555D01*
X31976907Y-23355551D01*
X31976831Y-23355936D01*
X31975413Y-23360610D01*
X31975263Y-23360972D01*
X31972964Y-23365273D01*
X31972746Y-23365599D01*
X31967579Y-23371896D01*
X31954130Y-23392023D01*
X31944904Y-23414297D01*
X31940200Y-23437948D01*
X31940200Y-23462054D01*
X31944905Y-23485704D01*
X31954131Y-23507978D01*
X31967579Y-23528104D01*
X31972746Y-23534401D01*
X31972964Y-23534727D01*
X31975263Y-23539028D01*
X31975413Y-23539390D01*
X31976831Y-23544064D01*
X31976907Y-23544449D01*
X31977990Y-23555445D01*
X31978000Y-23555641D01*
X31978000Y-23612000D01*
X31977000Y-23613732D01*
X31975000Y-23613732D01*
X31974010Y-23612196D01*
X31972339Y-23595227D01*
X31967444Y-23579093D01*
X31959498Y-23564226D01*
X31948804Y-23551196D01*
X31935774Y-23540502D01*
X31920907Y-23532556D01*
X31904773Y-23527661D01*
X31887906Y-23526000D01*
X31187094Y-23526000D01*
X31170227Y-23527661D01*
X31154093Y-23532556D01*
X31139226Y-23540502D01*
X31126196Y-23551196D01*
X31115502Y-23564226D01*
X31107556Y-23579093D01*
X31102661Y-23595227D01*
X31101000Y-23612094D01*
X31101000Y-23652533D01*
X31100000Y-23654265D01*
X31098000Y-23654265D01*
X31097010Y-23652729D01*
X31094628Y-23628542D01*
X31087628Y-23605467D01*
X31076263Y-23584203D01*
X31060968Y-23565566D01*
X31042331Y-23550271D01*
X31021067Y-23538906D01*
X30997992Y-23531906D01*
X30974001Y-23529543D01*
X30950010Y-23531906D01*
X30926935Y-23538906D01*
X30905671Y-23550271D01*
X30887034Y-23565566D01*
X30871705Y-23584245D01*
X30865509Y-23594582D01*
X30841082Y-23640282D01*
X30840864Y-23640608D01*
X30795798Y-23695521D01*
X30795521Y-23695798D01*
X30740608Y-23740864D01*
X30740282Y-23741082D01*
X30694636Y-23765480D01*
X30674509Y-23778929D01*
X30657462Y-23795976D01*
X30644067Y-23816023D01*
X30634841Y-23838297D01*
X30630136Y-23861947D01*
X30630136Y-23886054D01*
X30634840Y-23909704D01*
X30644066Y-23931978D01*
X30657461Y-23952025D01*
X30674508Y-23969072D01*
X30694555Y-23982467D01*
X30716829Y-23991693D01*
X30740525Y-23996407D01*
X30752631Y-23997002D01*
X30754312Y-23998086D01*
X30754214Y-24000084D01*
X30752533Y-24001000D01*
X30712094Y-24001000D01*
X30695227Y-24002661D01*
X30679093Y-24007556D01*
X30664226Y-24015502D01*
X30651196Y-24026196D01*
X30640502Y-24039226D01*
X30632556Y-24054093D01*
X30627661Y-24070227D01*
X30626000Y-24087094D01*
X30626000Y-24787906D01*
X30627661Y-24804773D01*
X30632556Y-24820907D01*
X30640502Y-24835774D01*
X30651196Y-24848804D01*
X30664226Y-24859498D01*
X30679093Y-24867444D01*
X30695227Y-24872339D01*
X30712196Y-24874010D01*
X30713822Y-24875175D01*
X30713626Y-24877165D01*
X30712000Y-24878000D01*
X30655641Y-24878000D01*
X30655445Y-24877990D01*
X30644449Y-24876907D01*
X30644064Y-24876831D01*
X30639390Y-24875413D01*
X30639028Y-24875263D01*
X30634727Y-24872964D01*
X30634401Y-24872746D01*
X30628104Y-24867579D01*
X30607977Y-24854130D01*
X30585703Y-24844904D01*
X30562052Y-24840200D01*
X30537946Y-24840200D01*
X30514296Y-24844905D01*
X30492022Y-24854131D01*
X30471896Y-24867579D01*
X30465599Y-24872746D01*
X30465273Y-24872964D01*
X30460972Y-24875263D01*
X30460610Y-24875413D01*
X30455936Y-24876831D01*
X30455551Y-24876907D01*
X30444555Y-24877990D01*
X30444359Y-24878000D01*
X30388000Y-24878000D01*
X30386268Y-24877000D01*
X30386268Y-24875000D01*
X30387804Y-24874010D01*
X30404773Y-24872339D01*
X30420907Y-24867444D01*
X30435774Y-24859498D01*
X30448804Y-24848804D01*
X30459498Y-24835774D01*
X30467444Y-24820907D01*
X30472339Y-24804773D01*
X30474000Y-24787906D01*
X30474000Y-24087094D01*
X30472339Y-24070227D01*
X30467444Y-24054093D01*
X30459498Y-24039226D01*
X30448804Y-24026196D01*
X30435774Y-24015502D01*
X30420907Y-24007556D01*
X30404773Y-24002661D01*
X30387906Y-24001000D01*
X30212094Y-24001000D01*
X30195227Y-24002661D01*
X30179093Y-24007556D01*
X30164226Y-24015502D01*
X30151196Y-24026196D01*
X30140502Y-24039226D01*
X30132556Y-24054093D01*
X30127661Y-24070227D01*
X30126000Y-24087094D01*
X30126000Y-24787906D01*
X30127661Y-24804773D01*
X30132556Y-24820907D01*
X30140502Y-24835774D01*
X30151196Y-24848804D01*
X30164226Y-24859498D01*
X30179093Y-24867444D01*
X30195227Y-24872339D01*
X30212196Y-24874010D01*
X30213822Y-24875175D01*
X30213626Y-24877165D01*
X30212000Y-24878000D01*
X30155641Y-24878000D01*
X30155445Y-24877990D01*
X30144449Y-24876907D01*
X30144064Y-24876831D01*
X30139390Y-24875413D01*
X30139028Y-24875263D01*
X30134727Y-24872964D01*
X30134401Y-24872746D01*
X30128104Y-24867579D01*
X30107977Y-24854130D01*
X30085703Y-24844904D01*
X30062052Y-24840200D01*
X30037946Y-24840200D01*
X30014296Y-24844905D01*
X29992022Y-24854131D01*
X29971896Y-24867579D01*
X29965599Y-24872746D01*
X29965273Y-24872964D01*
X29960972Y-24875263D01*
X29960610Y-24875413D01*
X29955936Y-24876831D01*
X29955551Y-24876907D01*
X29944555Y-24877990D01*
X29944359Y-24878000D01*
X29888000Y-24878000D01*
X29886268Y-24877000D01*
X29886268Y-24875000D01*
X29887804Y-24874010D01*
X29904773Y-24872339D01*
X29920907Y-24867444D01*
X29935774Y-24859498D01*
X29948804Y-24848804D01*
X29959498Y-24835774D01*
X29967444Y-24820907D01*
X29972339Y-24804773D01*
X29974000Y-24787906D01*
X29974000Y-24087094D01*
X29972339Y-24070227D01*
X29967444Y-24054093D01*
X29959498Y-24039226D01*
X29948804Y-24026196D01*
X29935774Y-24015502D01*
X29920907Y-24007556D01*
X29904773Y-24002661D01*
X29887906Y-24001000D01*
X29712094Y-24001000D01*
X29695227Y-24002661D01*
X29679093Y-24007556D01*
X29664226Y-24015502D01*
X29651196Y-24026196D01*
X29640502Y-24039226D01*
X29632556Y-24054093D01*
X29627661Y-24070227D01*
X29626000Y-24087094D01*
X29626000Y-24787906D01*
X29627661Y-24804773D01*
X29632556Y-24820907D01*
X29640502Y-24835774D01*
X29651196Y-24848804D01*
X29664226Y-24859498D01*
X29679093Y-24867444D01*
X29695227Y-24872339D01*
X29712196Y-24874010D01*
X29713822Y-24875175D01*
X29713626Y-24877165D01*
X29712000Y-24878000D01*
X29655641Y-24878000D01*
X29655445Y-24877990D01*
X29644449Y-24876907D01*
X29644064Y-24876831D01*
X29639390Y-24875413D01*
X29639028Y-24875263D01*
X29634727Y-24872964D01*
X29634401Y-24872746D01*
X29628104Y-24867579D01*
X29607977Y-24854130D01*
X29585703Y-24844904D01*
X29562052Y-24840200D01*
X29537946Y-24840200D01*
X29514296Y-24844905D01*
X29492022Y-24854131D01*
X29471896Y-24867579D01*
X29465599Y-24872746D01*
X29465273Y-24872964D01*
X29460972Y-24875263D01*
X29460610Y-24875413D01*
X29455936Y-24876831D01*
X29455551Y-24876907D01*
X29444555Y-24877990D01*
X29444359Y-24878000D01*
X29388000Y-24878000D01*
X29386268Y-24877000D01*
X29386268Y-24875000D01*
X29387804Y-24874010D01*
X29404773Y-24872339D01*
X29420907Y-24867444D01*
X29435774Y-24859498D01*
X29448804Y-24848804D01*
X29459498Y-24835774D01*
X29467444Y-24820907D01*
X29472339Y-24804773D01*
X29474000Y-24787906D01*
X29474000Y-24087094D01*
X29472339Y-24070227D01*
X29467444Y-24054093D01*
X29459498Y-24039226D01*
X29448804Y-24026196D01*
X29435774Y-24015502D01*
X29420907Y-24007556D01*
X29404773Y-24002661D01*
X29387906Y-24001000D01*
X29347467Y-24001000D01*
X29345735Y-24000000D01*
X29345735Y-23998000D01*
X29347271Y-23997010D01*
X29371458Y-23994628D01*
X29394533Y-23987628D01*
X29415797Y-23976263D01*
X29434434Y-23960968D01*
X29449729Y-23942331D01*
X29461094Y-23921067D01*
X29468094Y-23897992D01*
X29470457Y-23874001D01*
X29468094Y-23850010D01*
X29461094Y-23826935D01*
X29449729Y-23805671D01*
X29434434Y-23787034D01*
X29415755Y-23771705D01*
X29405418Y-23765509D01*
X29359718Y-23741082D01*
X29359392Y-23740864D01*
X29304479Y-23695798D01*
X29304202Y-23695521D01*
X29259136Y-23640608D01*
X29258918Y-23640282D01*
X29234520Y-23594636D01*
X29221071Y-23574509D01*
X29204024Y-23557462D01*
X29183977Y-23544067D01*
X29161703Y-23534841D01*
X29138053Y-23530136D01*
X29113946Y-23530136D01*
X29090296Y-23534840D01*
X29068022Y-23544066D01*
X29047975Y-23557461D01*
X29030928Y-23574508D01*
X29017533Y-23594555D01*
X29008307Y-23616829D01*
X29003593Y-23640525D01*
X29002998Y-23652631D01*
X29001914Y-23654312D01*
X28999916Y-23654214D01*
X28999000Y-23652533D01*
X28999000Y-23612094D01*
X28997339Y-23595227D01*
X28992444Y-23579093D01*
X28984498Y-23564226D01*
X28973804Y-23551196D01*
X28960774Y-23540502D01*
X28945907Y-23532556D01*
X28929773Y-23527661D01*
X28912906Y-23526000D01*
X28212094Y-23526000D01*
X28195227Y-23527661D01*
X28179093Y-23532556D01*
X28164226Y-23540502D01*
X28151196Y-23551196D01*
X28140502Y-23564226D01*
X28132556Y-23579093D01*
X28127661Y-23595227D01*
X28125990Y-23612196D01*
X28124825Y-23613822D01*
X28122835Y-23613626D01*
X28122000Y-23612000D01*
X28122000Y-23555641D01*
X28122010Y-23555445D01*
X28123093Y-23544449D01*
X28123169Y-23544064D01*
X28124587Y-23539390D01*
X28124737Y-23539028D01*
X28127036Y-23534727D01*
X28127254Y-23534401D01*
X28132421Y-23528104D01*
X28145870Y-23507977D01*
X28155096Y-23485703D01*
X28159800Y-23462052D01*
X28159800Y-23437946D01*
X28155095Y-23414296D01*
X28145869Y-23392022D01*
X28132421Y-23371896D01*
X28127254Y-23365599D01*
X28127036Y-23365273D01*
X28124737Y-23360972D01*
X28124587Y-23360610D01*
X28123169Y-23355936D01*
X28123093Y-23355551D01*
X28122010Y-23344555D01*
X28122000Y-23344359D01*
X28122000Y-23288000D01*
X28123000Y-23286268D01*
X28125000Y-23286268D01*
X28125990Y-23287804D01*
X28127661Y-23304773D01*
X28132556Y-23320907D01*
X28140502Y-23335774D01*
X28151196Y-23348804D01*
X28164226Y-23359498D01*
X28179093Y-23367444D01*
X28195227Y-23372339D01*
X28212094Y-23374000D01*
X28912906Y-23374000D01*
X28929773Y-23372339D01*
X28945907Y-23367444D01*
X28960774Y-23359498D01*
X28973804Y-23348804D01*
X28984498Y-23335774D01*
X28992444Y-23320907D01*
X28997339Y-23304773D01*
X28999000Y-23287906D01*
X28999000Y-23112094D01*
X28997339Y-23095227D01*
X28992444Y-23079093D01*
X28984498Y-23064226D01*
X28973804Y-23051196D01*
X28960774Y-23040502D01*
X28945907Y-23032556D01*
X28929773Y-23027661D01*
X28912906Y-23026000D01*
X28212094Y-23026000D01*
X28195227Y-23027661D01*
X28179093Y-23032556D01*
X28164226Y-23040502D01*
X28151196Y-23051196D01*
X28140502Y-23064226D01*
X28132556Y-23079093D01*
X28127661Y-23095227D01*
X28125990Y-23112196D01*
X28124825Y-23113822D01*
X28122835Y-23113626D01*
X28122000Y-23112000D01*
X28122000Y-23055641D01*
X28122010Y-23055445D01*
X28123093Y-23044449D01*
X28123169Y-23044064D01*
X28124587Y-23039390D01*
X28124737Y-23039028D01*
X28127036Y-23034727D01*
X28127254Y-23034401D01*
X28132421Y-23028104D01*
X28145870Y-23007977D01*
X28155096Y-22985703D01*
X28159800Y-22962052D01*
X28159800Y-22937946D01*
X28155095Y-22914296D01*
X28145869Y-22892022D01*
X28132421Y-22871896D01*
X28127254Y-22865599D01*
X28127036Y-22865273D01*
X28124737Y-22860972D01*
X28124587Y-22860610D01*
X28123169Y-22855936D01*
X28123093Y-22855551D01*
X28122010Y-22844555D01*
X28122000Y-22844359D01*
X28122000Y-22788000D01*
X28123000Y-22786268D01*
X28125000Y-22786268D01*
X28125990Y-22787804D01*
X28127661Y-22804773D01*
X28132556Y-22820907D01*
X28140502Y-22835774D01*
X28151196Y-22848804D01*
X28164226Y-22859498D01*
X28179093Y-22867444D01*
X28195227Y-22872339D01*
X28212094Y-22874000D01*
X28912906Y-22874000D01*
X28929773Y-22872339D01*
X28945907Y-22867444D01*
X28960774Y-22859498D01*
X28973804Y-22848804D01*
X28984498Y-22835774D01*
X28992444Y-22820907D01*
X28997339Y-22804773D01*
X28999000Y-22787906D01*
X28999000Y-22612094D01*
X28997339Y-22595227D01*
X28992444Y-22579093D01*
X28984498Y-22564226D01*
X28973804Y-22551196D01*
X28960774Y-22540502D01*
X28945907Y-22532556D01*
X28929773Y-22527661D01*
X28912906Y-22526000D01*
X28212094Y-22526000D01*
X28195227Y-22527661D01*
X28179093Y-22532556D01*
X28164226Y-22540502D01*
X28151196Y-22551196D01*
X28140502Y-22564226D01*
X28132556Y-22579093D01*
X28127661Y-22595227D01*
X28125990Y-22612196D01*
X28124825Y-22613822D01*
X28122835Y-22613626D01*
X28122000Y-22612000D01*
X28122000Y-22555641D01*
X28122010Y-22555445D01*
X28123093Y-22544449D01*
X28123169Y-22544064D01*
X28124587Y-22539390D01*
X28124737Y-22539028D01*
X28127036Y-22534727D01*
X28127254Y-22534401D01*
X28132421Y-22528104D01*
X28134766Y-22524594D01*
X29201000Y-22524594D01*
X29201000Y-23375406D01*
X29209146Y-23458116D01*
X29233246Y-23537563D01*
X29272381Y-23610779D01*
X29325047Y-23674953D01*
X29389221Y-23727619D01*
X29462437Y-23766754D01*
X29541884Y-23790854D01*
X29624594Y-23799000D01*
X30475406Y-23799000D01*
X30558116Y-23790854D01*
X30637563Y-23766754D01*
X30710779Y-23727619D01*
X30774953Y-23674953D01*
X30827619Y-23610779D01*
X30866754Y-23537563D01*
X30890854Y-23458116D01*
X30899000Y-23375406D01*
X30899000Y-22524594D01*
X30890854Y-22441884D01*
X30866754Y-22362437D01*
X30827619Y-22289221D01*
X30774953Y-22225047D01*
X30710779Y-22172381D01*
X30637563Y-22133246D01*
X30558116Y-22109146D01*
X30475406Y-22101000D01*
X29624594Y-22101000D01*
X29541884Y-22109146D01*
X29462437Y-22133246D01*
X29389221Y-22172381D01*
X29325047Y-22225047D01*
X29272381Y-22289221D01*
X29233246Y-22362437D01*
X29209146Y-22441884D01*
X29201000Y-22524594D01*
X28134766Y-22524594D01*
X28145870Y-22507977D01*
X28155096Y-22485703D01*
X28159800Y-22462052D01*
X28159800Y-22437946D01*
X28155095Y-22414296D01*
X28145869Y-22392022D01*
X28132421Y-22371896D01*
X28127254Y-22365599D01*
X28127036Y-22365273D01*
X28124737Y-22360972D01*
X28124587Y-22360610D01*
X28123169Y-22355936D01*
X28123093Y-22355551D01*
X28122010Y-22344555D01*
X28122000Y-22344359D01*
X28122000Y-22288000D01*
X28123000Y-22286268D01*
X28125000Y-22286268D01*
X28125990Y-22287804D01*
X28127661Y-22304773D01*
X28132556Y-22320907D01*
X28140502Y-22335774D01*
X28151196Y-22348804D01*
X28164226Y-22359498D01*
X28179093Y-22367444D01*
X28195227Y-22372339D01*
X28212094Y-22374000D01*
X28912906Y-22374000D01*
X28929773Y-22372339D01*
X28945907Y-22367444D01*
X28960774Y-22359498D01*
X28973804Y-22348804D01*
X28984498Y-22335774D01*
X28992444Y-22320907D01*
X28997339Y-22304773D01*
X28999000Y-22287906D01*
X28999000Y-22247467D01*
X29000000Y-22245735D01*
X29002000Y-22245735D01*
X29002990Y-22247271D01*
X29005372Y-22271458D01*
X29012372Y-22294533D01*
X29023737Y-22315797D01*
X29039032Y-22334434D01*
X29057669Y-22349729D01*
X29078933Y-22361094D01*
X29102008Y-22368094D01*
X29125999Y-22370457D01*
X29149990Y-22368094D01*
X29173065Y-22361094D01*
X29194329Y-22349729D01*
X29212966Y-22334434D01*
X29228295Y-22315755D01*
X29234491Y-22305418D01*
X29258918Y-22259718D01*
X29259136Y-22259392D01*
X29304202Y-22204479D01*
X29304479Y-22204202D01*
X29359392Y-22159136D01*
X29359718Y-22158918D01*
X29405364Y-22134520D01*
X29425491Y-22121071D01*
X29442538Y-22104024D01*
X29455933Y-22083977D01*
X29465159Y-22061703D01*
X29469864Y-22038053D01*
X29469864Y-22013946D01*
X29465160Y-21990296D01*
X29455934Y-21968022D01*
X29442539Y-21947975D01*
X29425492Y-21930928D01*
X29405445Y-21917533D01*
X29383171Y-21908307D01*
X29359475Y-21903593D01*
X29347369Y-21902998D01*
X29345688Y-21901914D01*
X29345786Y-21899916D01*
X29347467Y-21899000D01*
X29387906Y-21899000D01*
X29404773Y-21897339D01*
X29420907Y-21892444D01*
X29435774Y-21884498D01*
X29448804Y-21873804D01*
X29459498Y-21860774D01*
X29467444Y-21845907D01*
X29472339Y-21829773D01*
X29474000Y-21812906D01*
X29474000Y-21112094D01*
X29472339Y-21095227D01*
X29467444Y-21079093D01*
X29459498Y-21064226D01*
X29448804Y-21051196D01*
X29435774Y-21040502D01*
X29420907Y-21032556D01*
X29404773Y-21027661D01*
X29387804Y-21025990D01*
X29386178Y-21024825D01*
X29386374Y-21022835D01*
X29388000Y-21022000D01*
X29444359Y-21022000D01*
X29444555Y-21022010D01*
G37*
G36*
X17750732Y-20598000D02*
G01*
X17751000Y-20599000D01*
X17751000Y-21601000D01*
X17750000Y-21602732D01*
X17749000Y-21603000D01*
X17601000Y-21603000D01*
X17599268Y-21602000D01*
X17599000Y-21601000D01*
X17599000Y-20599000D01*
X17600000Y-20597268D01*
X17601000Y-20597000D01*
X17749000Y-20597000D01*
X17750732Y-20598000D01*
G37*
G36*
X18400732Y-20598000D02*
G01*
X18401000Y-20599000D01*
X18401000Y-21601000D01*
X18400000Y-21602732D01*
X18399000Y-21603000D01*
X18251000Y-21603000D01*
X18249268Y-21602000D01*
X18249000Y-21601000D01*
X18249000Y-20599000D01*
X18250000Y-20597268D01*
X18251000Y-20597000D01*
X18399000Y-20597000D01*
X18400732Y-20598000D01*
G37*
G36*
X18400732Y-18398000D02*
G01*
X18401000Y-18399000D01*
X18401000Y-19401000D01*
X18400000Y-19402732D01*
X18399000Y-19403000D01*
X18251000Y-19403000D01*
X18249268Y-19402000D01*
X18249000Y-19401000D01*
X18249000Y-18399000D01*
X18250000Y-18397268D01*
X18251000Y-18397000D01*
X18399000Y-18397000D01*
X18400732Y-18398000D01*
G37*
G36*
X17750732Y-18398000D02*
G01*
X17751000Y-18399000D01*
X17751000Y-19401000D01*
X17750000Y-19402732D01*
X17749000Y-19403000D01*
X17601000Y-19403000D01*
X17599268Y-19402000D01*
X17599000Y-19401000D01*
X17599000Y-18399000D01*
X17600000Y-18397268D01*
X17601000Y-18397000D01*
X17749000Y-18397000D01*
X17750732Y-18398000D01*
G37*
M02*
