G04 #@! TF.GenerationSoftware,KiCad,Pcbnew,(5.1.9)-1*
G04 #@! TF.CreationDate,2021-12-20T21:32:52+01:00*
G04 #@! TF.ProjectId,Omamori,4f6d616d-6f72-4692-9e6b-696361645f70,rev?*
G04 #@! TF.SameCoordinates,Original*
G04 #@! TF.FileFunction,Legend,Bot*
G04 #@! TF.FilePolarity,Positive*
%FSLAX46Y46*%
G04 Gerber Fmt 4.6, Leading zero omitted, Abs format (unit mm)*
G04 Created by KiCad (PCBNEW (5.1.9)-1) date 2021-12-20 21:32:52*
%MOMM*%
%LPD*%
G01*
G04 APERTURE LIST*
%ADD10C,0.120000*%
%ADD11C,0.125000*%
G04 APERTURE END LIST*
D10*
X31764500Y-44449276D02*
X31764500Y-44958724D01*
X30719500Y-44449276D02*
X30719500Y-44958724D01*
X27424748Y-26951000D02*
X27947252Y-26951000D01*
X27424748Y-28421000D02*
X27947252Y-28421000D01*
X17000001Y-38000001D02*
G75*
G03*
X32999999Y-37999999I7999999J1000001D01*
G01*
X32999999Y-35999999D02*
G75*
G03*
X17000001Y-36000001I-7999999J-1000001D01*
G01*
X28440000Y-24085000D02*
X28440000Y-24560000D01*
X28440000Y-24560000D02*
X28915000Y-24560000D01*
X31660000Y-21815000D02*
X31660000Y-21340000D01*
X31660000Y-21340000D02*
X31185000Y-21340000D01*
X31660000Y-24085000D02*
X31660000Y-24560000D01*
X31660000Y-24560000D02*
X31185000Y-24560000D01*
X28440000Y-21815000D02*
X28440000Y-21340000D01*
X32243500Y-45720724D02*
X32243500Y-45211276D01*
X33288500Y-45720724D02*
X33288500Y-45211276D01*
X34812500Y-43687276D02*
X34812500Y-44196724D01*
X33767500Y-43687276D02*
X33767500Y-44196724D01*
X33784000Y-41458000D02*
X35244000Y-41458000D01*
X33784000Y-38298000D02*
X35944000Y-38298000D01*
X33784000Y-38298000D02*
X33784000Y-39228000D01*
X33784000Y-41458000D02*
X33784000Y-40528000D01*
X24500000Y-47050000D02*
X24500000Y-46550000D01*
X24750000Y-47050000D02*
X24250000Y-47050000D01*
X18747500Y-27500000D02*
X18747500Y-30247500D01*
X18747500Y-30247500D02*
X18465000Y-30247500D01*
X18747500Y-27500000D02*
X18747500Y-24752500D01*
X18747500Y-24752500D02*
X18465000Y-24752500D01*
X13252500Y-27500000D02*
X13252500Y-30247500D01*
X13252500Y-30247500D02*
X13535000Y-30247500D01*
X13252500Y-27500000D02*
X13252500Y-24752500D01*
X13252500Y-24752500D02*
X13535000Y-24752500D01*
X13535000Y-24752500D02*
X13535000Y-23100000D01*
X22071000Y-22344748D02*
X22071000Y-22867252D01*
X20601000Y-22344748D02*
X20601000Y-22867252D01*
X16235000Y-19738748D02*
X16235000Y-20261252D01*
X14765000Y-19738748D02*
X14765000Y-20261252D01*
X34171267Y-16490000D02*
X33828733Y-16490000D01*
X34171267Y-17510000D02*
X33828733Y-17510000D01*
X32022500Y-19254724D02*
X32022500Y-18745276D01*
X30977500Y-19254724D02*
X30977500Y-18745276D01*
X15979670Y-45278990D02*
X14919010Y-44218330D01*
X18100990Y-43157670D02*
X17040330Y-42097010D01*
X17411387Y-43688000D02*
G75*
G03*
X17411387Y-43688000I-901387J0D01*
G01*
X23350000Y-18950000D02*
X23350000Y-18550000D01*
X20150000Y-18950000D02*
X20150000Y-18550000D01*
X28450000Y-17150000D02*
X28050000Y-17150000D01*
X28450000Y-20350000D02*
X28050000Y-20350000D01*
X34171267Y-19490000D02*
X33828733Y-19490000D01*
X34171267Y-20510000D02*
X33828733Y-20510000D01*
X19160000Y-19300000D02*
X19160000Y-21200000D01*
X16840000Y-20700000D02*
X16840000Y-19300000D01*
X33828733Y-23510000D02*
X34171267Y-23510000D01*
X33828733Y-22490000D02*
X34171267Y-22490000D01*
X33828733Y-28010000D02*
X34171267Y-28010000D01*
X33828733Y-26990000D02*
X34171267Y-26990000D01*
X34171267Y-25490000D02*
X33828733Y-25490000D01*
X34171267Y-26510000D02*
X33828733Y-26510000D01*
X33828733Y-25010000D02*
X34171267Y-25010000D01*
X33828733Y-23990000D02*
X34171267Y-23990000D01*
X29490000Y-27828733D02*
X29490000Y-28171267D01*
X30510000Y-27828733D02*
X30510000Y-28171267D01*
X30990000Y-27828733D02*
X30990000Y-28171267D01*
X32010000Y-27828733D02*
X32010000Y-28171267D01*
X34171267Y-28490000D02*
X33828733Y-28490000D01*
X34171267Y-29510000D02*
X33828733Y-29510000D01*
X23010000Y-27171267D02*
X23010000Y-26828733D01*
X21990000Y-27171267D02*
X21990000Y-26828733D01*
X33828733Y-22010000D02*
X34171267Y-22010000D01*
X33828733Y-20990000D02*
X34171267Y-20990000D01*
X21510000Y-27671267D02*
X21510000Y-27328733D01*
X20490000Y-27671267D02*
X20490000Y-27328733D01*
X33828733Y-19010000D02*
X34171267Y-19010000D01*
X33828733Y-17990000D02*
X34171267Y-17990000D01*
X27514733Y-25398000D02*
X27857267Y-25398000D01*
X27514733Y-26418000D02*
X27857267Y-26418000D01*
D11*
X23345238Y-46526190D02*
X23583333Y-46526190D01*
X23607142Y-46764285D01*
X23583333Y-46740476D01*
X23535714Y-46716666D01*
X23416666Y-46716666D01*
X23369047Y-46740476D01*
X23345238Y-46764285D01*
X23321428Y-46811904D01*
X23321428Y-46930952D01*
X23345238Y-46978571D01*
X23369047Y-47002380D01*
X23416666Y-47026190D01*
X23535714Y-47026190D01*
X23583333Y-47002380D01*
X23607142Y-46978571D01*
X23178571Y-46526190D02*
X23011904Y-47026190D01*
X22845238Y-46526190D01*
X27345238Y-46526190D02*
X27059523Y-46526190D01*
X27202380Y-47026190D02*
X27202380Y-46526190D01*
X26940476Y-47026190D02*
X26678571Y-46692857D01*
X26940476Y-46692857D02*
X26678571Y-47026190D01*
X25797619Y-47026190D02*
X25964285Y-46788095D01*
X26083333Y-47026190D02*
X26083333Y-46526190D01*
X25892857Y-46526190D01*
X25845238Y-46550000D01*
X25821428Y-46573809D01*
X25797619Y-46621428D01*
X25797619Y-46692857D01*
X25821428Y-46740476D01*
X25845238Y-46764285D01*
X25892857Y-46788095D01*
X26083333Y-46788095D01*
X25630952Y-47026190D02*
X25369047Y-46692857D01*
X25630952Y-46692857D02*
X25369047Y-47026190D01*
M02*
