G04 #@! TF.GenerationSoftware,KiCad,Pcbnew,(5.1.9)-1*
G04 #@! TF.CreationDate,2021-12-21T21:26:07+01:00*
G04 #@! TF.ProjectId,Omamori,4f6d616d-6f72-4692-9e6b-696361645f70,rev?*
G04 #@! TF.SameCoordinates,Original*
G04 #@! TF.FileFunction,Copper,L2,Bot*
G04 #@! TF.FilePolarity,Positive*
%FSLAX46Y46*%
G04 Gerber Fmt 4.6, Leading zero omitted, Abs format (unit mm)*
G04 Created by KiCad (PCBNEW (5.1.9)-1) date 2021-12-21 21:26:07*
%MOMM*%
%LPD*%
G01*
G04 APERTURE LIST*
G04 #@! TA.AperFunction,ComponentPad*
%ADD10C,2.000000*%
G04 #@! TD*
G04 #@! TA.AperFunction,SMDPad,CuDef*
%ADD11R,0.900000X0.800000*%
G04 #@! TD*
G04 #@! TA.AperFunction,ComponentPad*
%ADD12C,1.000000*%
G04 #@! TD*
G04 #@! TA.AperFunction,ComponentPad*
%ADD13O,1.000000X1.000000*%
G04 #@! TD*
G04 #@! TA.AperFunction,SMDPad,CuDef*
%ADD14R,3.400000X1.300000*%
G04 #@! TD*
G04 #@! TA.AperFunction,SMDPad,CuDef*
%ADD15R,1.300000X3.400000*%
G04 #@! TD*
G04 #@! TA.AperFunction,SMDPad,CuDef*
%ADD16R,0.400000X0.900000*%
G04 #@! TD*
G04 #@! TA.AperFunction,ViaPad*
%ADD17C,2.500000*%
G04 #@! TD*
G04 #@! TA.AperFunction,ViaPad*
%ADD18C,0.800000*%
G04 #@! TD*
G04 #@! TA.AperFunction,Conductor*
%ADD19C,0.250000*%
G04 #@! TD*
G04 #@! TA.AperFunction,Conductor*
%ADD20C,0.500000*%
G04 #@! TD*
G04 #@! TA.AperFunction,Conductor*
%ADD21C,1.000000*%
G04 #@! TD*
G04 #@! TA.AperFunction,Conductor*
%ADD22C,0.400000*%
G04 #@! TD*
G04 APERTURE END LIST*
G04 #@! TA.AperFunction,SMDPad,CuDef*
G36*
G01*
X35322500Y-35275000D02*
X35797500Y-35275000D01*
G75*
G02*
X36035000Y-35512500I0J-237500D01*
G01*
X36035000Y-36087500D01*
G75*
G02*
X35797500Y-36325000I-237500J0D01*
G01*
X35322500Y-36325000D01*
G75*
G02*
X35085000Y-36087500I0J237500D01*
G01*
X35085000Y-35512500D01*
G75*
G02*
X35322500Y-35275000I237500J0D01*
G01*
G37*
G04 #@! TD.AperFunction*
G04 #@! TA.AperFunction,SMDPad,CuDef*
G36*
G01*
X35322500Y-33525000D02*
X35797500Y-33525000D01*
G75*
G02*
X36035000Y-33762500I0J-237500D01*
G01*
X36035000Y-34337500D01*
G75*
G02*
X35797500Y-34575000I-237500J0D01*
G01*
X35322500Y-34575000D01*
G75*
G02*
X35085000Y-34337500I0J237500D01*
G01*
X35085000Y-33762500D01*
G75*
G02*
X35322500Y-33525000I237500J0D01*
G01*
G37*
G04 #@! TD.AperFunction*
G04 #@! TA.AperFunction,SMDPad,CuDef*
G36*
G01*
X31004500Y-45129000D02*
X31479500Y-45129000D01*
G75*
G02*
X31717000Y-45366500I0J-237500D01*
G01*
X31717000Y-45866500D01*
G75*
G02*
X31479500Y-46104000I-237500J0D01*
G01*
X31004500Y-46104000D01*
G75*
G02*
X30767000Y-45866500I0J237500D01*
G01*
X30767000Y-45366500D01*
G75*
G02*
X31004500Y-45129000I237500J0D01*
G01*
G37*
G04 #@! TD.AperFunction*
G04 #@! TA.AperFunction,SMDPad,CuDef*
G36*
G01*
X31004500Y-43304000D02*
X31479500Y-43304000D01*
G75*
G02*
X31717000Y-43541500I0J-237500D01*
G01*
X31717000Y-44041500D01*
G75*
G02*
X31479500Y-44279000I-237500J0D01*
G01*
X31004500Y-44279000D01*
G75*
G02*
X30767000Y-44041500I0J237500D01*
G01*
X30767000Y-43541500D01*
G75*
G02*
X31004500Y-43304000I237500J0D01*
G01*
G37*
G04 #@! TD.AperFunction*
G04 #@! TA.AperFunction,SMDPad,CuDef*
G36*
G01*
X24544000Y-24580000D02*
X25494000Y-24580000D01*
G75*
G02*
X25744000Y-24830000I0J-250000D01*
G01*
X25744000Y-25505000D01*
G75*
G02*
X25494000Y-25755000I-250000J0D01*
G01*
X24544000Y-25755000D01*
G75*
G02*
X24294000Y-25505000I0J250000D01*
G01*
X24294000Y-24830000D01*
G75*
G02*
X24544000Y-24580000I250000J0D01*
G01*
G37*
G04 #@! TD.AperFunction*
G04 #@! TA.AperFunction,SMDPad,CuDef*
G36*
G01*
X24544000Y-22505000D02*
X25494000Y-22505000D01*
G75*
G02*
X25744000Y-22755000I0J-250000D01*
G01*
X25744000Y-23430000D01*
G75*
G02*
X25494000Y-23680000I-250000J0D01*
G01*
X24544000Y-23680000D01*
G75*
G02*
X24294000Y-23430000I0J250000D01*
G01*
X24294000Y-22755000D01*
G75*
G02*
X24544000Y-22505000I250000J0D01*
G01*
G37*
G04 #@! TD.AperFunction*
D10*
X17000000Y-37000000D03*
X33000000Y-37000000D03*
G04 #@! TA.AperFunction,SMDPad,CuDef*
G36*
G01*
X29650000Y-22150000D02*
X30450000Y-22150000D01*
G75*
G02*
X30850000Y-22550000I0J-400000D01*
G01*
X30850000Y-23350000D01*
G75*
G02*
X30450000Y-23750000I-400000J0D01*
G01*
X29650000Y-23750000D01*
G75*
G02*
X29250000Y-23350000I0J400000D01*
G01*
X29250000Y-22550000D01*
G75*
G02*
X29650000Y-22150000I400000J0D01*
G01*
G37*
G04 #@! TD.AperFunction*
G04 #@! TA.AperFunction,SMDPad,CuDef*
G36*
G01*
X28237500Y-22075000D02*
X28887500Y-22075000D01*
G75*
G02*
X28950000Y-22137500I0J-62500D01*
G01*
X28950000Y-22262500D01*
G75*
G02*
X28887500Y-22325000I-62500J0D01*
G01*
X28237500Y-22325000D01*
G75*
G02*
X28175000Y-22262500I0J62500D01*
G01*
X28175000Y-22137500D01*
G75*
G02*
X28237500Y-22075000I62500J0D01*
G01*
G37*
G04 #@! TD.AperFunction*
G04 #@! TA.AperFunction,SMDPad,CuDef*
G36*
G01*
X28237500Y-22575000D02*
X28887500Y-22575000D01*
G75*
G02*
X28950000Y-22637500I0J-62500D01*
G01*
X28950000Y-22762500D01*
G75*
G02*
X28887500Y-22825000I-62500J0D01*
G01*
X28237500Y-22825000D01*
G75*
G02*
X28175000Y-22762500I0J62500D01*
G01*
X28175000Y-22637500D01*
G75*
G02*
X28237500Y-22575000I62500J0D01*
G01*
G37*
G04 #@! TD.AperFunction*
G04 #@! TA.AperFunction,SMDPad,CuDef*
G36*
G01*
X28237500Y-23075000D02*
X28887500Y-23075000D01*
G75*
G02*
X28950000Y-23137500I0J-62500D01*
G01*
X28950000Y-23262500D01*
G75*
G02*
X28887500Y-23325000I-62500J0D01*
G01*
X28237500Y-23325000D01*
G75*
G02*
X28175000Y-23262500I0J62500D01*
G01*
X28175000Y-23137500D01*
G75*
G02*
X28237500Y-23075000I62500J0D01*
G01*
G37*
G04 #@! TD.AperFunction*
G04 #@! TA.AperFunction,SMDPad,CuDef*
G36*
G01*
X28237500Y-23575000D02*
X28887500Y-23575000D01*
G75*
G02*
X28950000Y-23637500I0J-62500D01*
G01*
X28950000Y-23762500D01*
G75*
G02*
X28887500Y-23825000I-62500J0D01*
G01*
X28237500Y-23825000D01*
G75*
G02*
X28175000Y-23762500I0J62500D01*
G01*
X28175000Y-23637500D01*
G75*
G02*
X28237500Y-23575000I62500J0D01*
G01*
G37*
G04 #@! TD.AperFunction*
G04 #@! TA.AperFunction,SMDPad,CuDef*
G36*
G01*
X29237500Y-24050000D02*
X29362500Y-24050000D01*
G75*
G02*
X29425000Y-24112500I0J-62500D01*
G01*
X29425000Y-24762500D01*
G75*
G02*
X29362500Y-24825000I-62500J0D01*
G01*
X29237500Y-24825000D01*
G75*
G02*
X29175000Y-24762500I0J62500D01*
G01*
X29175000Y-24112500D01*
G75*
G02*
X29237500Y-24050000I62500J0D01*
G01*
G37*
G04 #@! TD.AperFunction*
G04 #@! TA.AperFunction,SMDPad,CuDef*
G36*
G01*
X29737500Y-24050000D02*
X29862500Y-24050000D01*
G75*
G02*
X29925000Y-24112500I0J-62500D01*
G01*
X29925000Y-24762500D01*
G75*
G02*
X29862500Y-24825000I-62500J0D01*
G01*
X29737500Y-24825000D01*
G75*
G02*
X29675000Y-24762500I0J62500D01*
G01*
X29675000Y-24112500D01*
G75*
G02*
X29737500Y-24050000I62500J0D01*
G01*
G37*
G04 #@! TD.AperFunction*
G04 #@! TA.AperFunction,SMDPad,CuDef*
G36*
G01*
X30237500Y-24050000D02*
X30362500Y-24050000D01*
G75*
G02*
X30425000Y-24112500I0J-62500D01*
G01*
X30425000Y-24762500D01*
G75*
G02*
X30362500Y-24825000I-62500J0D01*
G01*
X30237500Y-24825000D01*
G75*
G02*
X30175000Y-24762500I0J62500D01*
G01*
X30175000Y-24112500D01*
G75*
G02*
X30237500Y-24050000I62500J0D01*
G01*
G37*
G04 #@! TD.AperFunction*
G04 #@! TA.AperFunction,SMDPad,CuDef*
G36*
G01*
X30737500Y-24050000D02*
X30862500Y-24050000D01*
G75*
G02*
X30925000Y-24112500I0J-62500D01*
G01*
X30925000Y-24762500D01*
G75*
G02*
X30862500Y-24825000I-62500J0D01*
G01*
X30737500Y-24825000D01*
G75*
G02*
X30675000Y-24762500I0J62500D01*
G01*
X30675000Y-24112500D01*
G75*
G02*
X30737500Y-24050000I62500J0D01*
G01*
G37*
G04 #@! TD.AperFunction*
G04 #@! TA.AperFunction,SMDPad,CuDef*
G36*
G01*
X31212500Y-23575000D02*
X31862500Y-23575000D01*
G75*
G02*
X31925000Y-23637500I0J-62500D01*
G01*
X31925000Y-23762500D01*
G75*
G02*
X31862500Y-23825000I-62500J0D01*
G01*
X31212500Y-23825000D01*
G75*
G02*
X31150000Y-23762500I0J62500D01*
G01*
X31150000Y-23637500D01*
G75*
G02*
X31212500Y-23575000I62500J0D01*
G01*
G37*
G04 #@! TD.AperFunction*
G04 #@! TA.AperFunction,SMDPad,CuDef*
G36*
G01*
X31212500Y-23075000D02*
X31862500Y-23075000D01*
G75*
G02*
X31925000Y-23137500I0J-62500D01*
G01*
X31925000Y-23262500D01*
G75*
G02*
X31862500Y-23325000I-62500J0D01*
G01*
X31212500Y-23325000D01*
G75*
G02*
X31150000Y-23262500I0J62500D01*
G01*
X31150000Y-23137500D01*
G75*
G02*
X31212500Y-23075000I62500J0D01*
G01*
G37*
G04 #@! TD.AperFunction*
G04 #@! TA.AperFunction,SMDPad,CuDef*
G36*
G01*
X31212500Y-22575000D02*
X31862500Y-22575000D01*
G75*
G02*
X31925000Y-22637500I0J-62500D01*
G01*
X31925000Y-22762500D01*
G75*
G02*
X31862500Y-22825000I-62500J0D01*
G01*
X31212500Y-22825000D01*
G75*
G02*
X31150000Y-22762500I0J62500D01*
G01*
X31150000Y-22637500D01*
G75*
G02*
X31212500Y-22575000I62500J0D01*
G01*
G37*
G04 #@! TD.AperFunction*
G04 #@! TA.AperFunction,SMDPad,CuDef*
G36*
G01*
X31212500Y-22075000D02*
X31862500Y-22075000D01*
G75*
G02*
X31925000Y-22137500I0J-62500D01*
G01*
X31925000Y-22262500D01*
G75*
G02*
X31862500Y-22325000I-62500J0D01*
G01*
X31212500Y-22325000D01*
G75*
G02*
X31150000Y-22262500I0J62500D01*
G01*
X31150000Y-22137500D01*
G75*
G02*
X31212500Y-22075000I62500J0D01*
G01*
G37*
G04 #@! TD.AperFunction*
G04 #@! TA.AperFunction,SMDPad,CuDef*
G36*
G01*
X30737500Y-21075000D02*
X30862500Y-21075000D01*
G75*
G02*
X30925000Y-21137500I0J-62500D01*
G01*
X30925000Y-21787500D01*
G75*
G02*
X30862500Y-21850000I-62500J0D01*
G01*
X30737500Y-21850000D01*
G75*
G02*
X30675000Y-21787500I0J62500D01*
G01*
X30675000Y-21137500D01*
G75*
G02*
X30737500Y-21075000I62500J0D01*
G01*
G37*
G04 #@! TD.AperFunction*
G04 #@! TA.AperFunction,SMDPad,CuDef*
G36*
G01*
X30237500Y-21075000D02*
X30362500Y-21075000D01*
G75*
G02*
X30425000Y-21137500I0J-62500D01*
G01*
X30425000Y-21787500D01*
G75*
G02*
X30362500Y-21850000I-62500J0D01*
G01*
X30237500Y-21850000D01*
G75*
G02*
X30175000Y-21787500I0J62500D01*
G01*
X30175000Y-21137500D01*
G75*
G02*
X30237500Y-21075000I62500J0D01*
G01*
G37*
G04 #@! TD.AperFunction*
G04 #@! TA.AperFunction,SMDPad,CuDef*
G36*
G01*
X29737500Y-21075000D02*
X29862500Y-21075000D01*
G75*
G02*
X29925000Y-21137500I0J-62500D01*
G01*
X29925000Y-21787500D01*
G75*
G02*
X29862500Y-21850000I-62500J0D01*
G01*
X29737500Y-21850000D01*
G75*
G02*
X29675000Y-21787500I0J62500D01*
G01*
X29675000Y-21137500D01*
G75*
G02*
X29737500Y-21075000I62500J0D01*
G01*
G37*
G04 #@! TD.AperFunction*
G04 #@! TA.AperFunction,SMDPad,CuDef*
G36*
G01*
X29237500Y-21075000D02*
X29362500Y-21075000D01*
G75*
G02*
X29425000Y-21137500I0J-62500D01*
G01*
X29425000Y-21787500D01*
G75*
G02*
X29362500Y-21850000I-62500J0D01*
G01*
X29237500Y-21850000D01*
G75*
G02*
X29175000Y-21787500I0J62500D01*
G01*
X29175000Y-21137500D01*
G75*
G02*
X29237500Y-21075000I62500J0D01*
G01*
G37*
G04 #@! TD.AperFunction*
G04 #@! TA.AperFunction,SMDPad,CuDef*
G36*
G01*
X33003500Y-44279000D02*
X32528500Y-44279000D01*
G75*
G02*
X32291000Y-44041500I0J237500D01*
G01*
X32291000Y-43541500D01*
G75*
G02*
X32528500Y-43304000I237500J0D01*
G01*
X33003500Y-43304000D01*
G75*
G02*
X33241000Y-43541500I0J-237500D01*
G01*
X33241000Y-44041500D01*
G75*
G02*
X33003500Y-44279000I-237500J0D01*
G01*
G37*
G04 #@! TD.AperFunction*
G04 #@! TA.AperFunction,SMDPad,CuDef*
G36*
G01*
X33003500Y-46104000D02*
X32528500Y-46104000D01*
G75*
G02*
X32291000Y-45866500I0J237500D01*
G01*
X32291000Y-45366500D01*
G75*
G02*
X32528500Y-45129000I237500J0D01*
G01*
X33003500Y-45129000D01*
G75*
G02*
X33241000Y-45366500I0J-237500D01*
G01*
X33241000Y-45866500D01*
G75*
G02*
X33003500Y-46104000I-237500J0D01*
G01*
G37*
G04 #@! TD.AperFunction*
G04 #@! TA.AperFunction,SMDPad,CuDef*
G36*
G01*
X34052500Y-44240000D02*
X34527500Y-44240000D01*
G75*
G02*
X34765000Y-44477500I0J-237500D01*
G01*
X34765000Y-44977500D01*
G75*
G02*
X34527500Y-45215000I-237500J0D01*
G01*
X34052500Y-45215000D01*
G75*
G02*
X33815000Y-44977500I0J237500D01*
G01*
X33815000Y-44477500D01*
G75*
G02*
X34052500Y-44240000I237500J0D01*
G01*
G37*
G04 #@! TD.AperFunction*
G04 #@! TA.AperFunction,SMDPad,CuDef*
G36*
G01*
X34052500Y-42415000D02*
X34527500Y-42415000D01*
G75*
G02*
X34765000Y-42652500I0J-237500D01*
G01*
X34765000Y-43152500D01*
G75*
G02*
X34527500Y-43390000I-237500J0D01*
G01*
X34052500Y-43390000D01*
G75*
G02*
X33815000Y-43152500I0J237500D01*
G01*
X33815000Y-42652500D01*
G75*
G02*
X34052500Y-42415000I237500J0D01*
G01*
G37*
G04 #@! TD.AperFunction*
D11*
X33544000Y-39878000D03*
X35544000Y-40828000D03*
X35544000Y-38928000D03*
D12*
X23250000Y-45800000D03*
D13*
X26980000Y-45800000D03*
X25710000Y-45800000D03*
X24440000Y-45800000D03*
G04 #@! TA.AperFunction,SMDPad,CuDef*
G36*
G01*
X13945000Y-30300000D02*
X14245000Y-30300000D01*
G75*
G02*
X14395000Y-30450000I0J-150000D01*
G01*
X14395000Y-31750000D01*
G75*
G02*
X14245000Y-31900000I-150000J0D01*
G01*
X13945000Y-31900000D01*
G75*
G02*
X13795000Y-31750000I0J150000D01*
G01*
X13795000Y-30450000D01*
G75*
G02*
X13945000Y-30300000I150000J0D01*
G01*
G37*
G04 #@! TD.AperFunction*
G04 #@! TA.AperFunction,SMDPad,CuDef*
G36*
G01*
X15215000Y-30300000D02*
X15515000Y-30300000D01*
G75*
G02*
X15665000Y-30450000I0J-150000D01*
G01*
X15665000Y-31750000D01*
G75*
G02*
X15515000Y-31900000I-150000J0D01*
G01*
X15215000Y-31900000D01*
G75*
G02*
X15065000Y-31750000I0J150000D01*
G01*
X15065000Y-30450000D01*
G75*
G02*
X15215000Y-30300000I150000J0D01*
G01*
G37*
G04 #@! TD.AperFunction*
G04 #@! TA.AperFunction,SMDPad,CuDef*
G36*
G01*
X16485000Y-30300000D02*
X16785000Y-30300000D01*
G75*
G02*
X16935000Y-30450000I0J-150000D01*
G01*
X16935000Y-31750000D01*
G75*
G02*
X16785000Y-31900000I-150000J0D01*
G01*
X16485000Y-31900000D01*
G75*
G02*
X16335000Y-31750000I0J150000D01*
G01*
X16335000Y-30450000D01*
G75*
G02*
X16485000Y-30300000I150000J0D01*
G01*
G37*
G04 #@! TD.AperFunction*
G04 #@! TA.AperFunction,SMDPad,CuDef*
G36*
G01*
X17755000Y-30300000D02*
X18055000Y-30300000D01*
G75*
G02*
X18205000Y-30450000I0J-150000D01*
G01*
X18205000Y-31750000D01*
G75*
G02*
X18055000Y-31900000I-150000J0D01*
G01*
X17755000Y-31900000D01*
G75*
G02*
X17605000Y-31750000I0J150000D01*
G01*
X17605000Y-30450000D01*
G75*
G02*
X17755000Y-30300000I150000J0D01*
G01*
G37*
G04 #@! TD.AperFunction*
G04 #@! TA.AperFunction,SMDPad,CuDef*
G36*
G01*
X17755000Y-23100000D02*
X18055000Y-23100000D01*
G75*
G02*
X18205000Y-23250000I0J-150000D01*
G01*
X18205000Y-24550000D01*
G75*
G02*
X18055000Y-24700000I-150000J0D01*
G01*
X17755000Y-24700000D01*
G75*
G02*
X17605000Y-24550000I0J150000D01*
G01*
X17605000Y-23250000D01*
G75*
G02*
X17755000Y-23100000I150000J0D01*
G01*
G37*
G04 #@! TD.AperFunction*
G04 #@! TA.AperFunction,SMDPad,CuDef*
G36*
G01*
X16485000Y-23100000D02*
X16785000Y-23100000D01*
G75*
G02*
X16935000Y-23250000I0J-150000D01*
G01*
X16935000Y-24550000D01*
G75*
G02*
X16785000Y-24700000I-150000J0D01*
G01*
X16485000Y-24700000D01*
G75*
G02*
X16335000Y-24550000I0J150000D01*
G01*
X16335000Y-23250000D01*
G75*
G02*
X16485000Y-23100000I150000J0D01*
G01*
G37*
G04 #@! TD.AperFunction*
G04 #@! TA.AperFunction,SMDPad,CuDef*
G36*
G01*
X15215000Y-23100000D02*
X15515000Y-23100000D01*
G75*
G02*
X15665000Y-23250000I0J-150000D01*
G01*
X15665000Y-24550000D01*
G75*
G02*
X15515000Y-24700000I-150000J0D01*
G01*
X15215000Y-24700000D01*
G75*
G02*
X15065000Y-24550000I0J150000D01*
G01*
X15065000Y-23250000D01*
G75*
G02*
X15215000Y-23100000I150000J0D01*
G01*
G37*
G04 #@! TD.AperFunction*
G04 #@! TA.AperFunction,SMDPad,CuDef*
G36*
G01*
X13945000Y-23100000D02*
X14245000Y-23100000D01*
G75*
G02*
X14395000Y-23250000I0J-150000D01*
G01*
X14395000Y-24550000D01*
G75*
G02*
X14245000Y-24700000I-150000J0D01*
G01*
X13945000Y-24700000D01*
G75*
G02*
X13795000Y-24550000I0J150000D01*
G01*
X13795000Y-23250000D01*
G75*
G02*
X13945000Y-23100000I150000J0D01*
G01*
G37*
G04 #@! TD.AperFunction*
G04 #@! TA.AperFunction,SMDPad,CuDef*
G36*
G01*
X20861000Y-23183000D02*
X21811000Y-23183000D01*
G75*
G02*
X22061000Y-23433000I0J-250000D01*
G01*
X22061000Y-24108000D01*
G75*
G02*
X21811000Y-24358000I-250000J0D01*
G01*
X20861000Y-24358000D01*
G75*
G02*
X20611000Y-24108000I0J250000D01*
G01*
X20611000Y-23433000D01*
G75*
G02*
X20861000Y-23183000I250000J0D01*
G01*
G37*
G04 #@! TD.AperFunction*
G04 #@! TA.AperFunction,SMDPad,CuDef*
G36*
G01*
X20861000Y-21108000D02*
X21811000Y-21108000D01*
G75*
G02*
X22061000Y-21358000I0J-250000D01*
G01*
X22061000Y-22033000D01*
G75*
G02*
X21811000Y-22283000I-250000J0D01*
G01*
X20861000Y-22283000D01*
G75*
G02*
X20611000Y-22033000I0J250000D01*
G01*
X20611000Y-21358000D01*
G75*
G02*
X20861000Y-21108000I250000J0D01*
G01*
G37*
G04 #@! TD.AperFunction*
G04 #@! TA.AperFunction,SMDPad,CuDef*
G36*
G01*
X15025000Y-20450000D02*
X15975000Y-20450000D01*
G75*
G02*
X16225000Y-20700000I0J-250000D01*
G01*
X16225000Y-21375000D01*
G75*
G02*
X15975000Y-21625000I-250000J0D01*
G01*
X15025000Y-21625000D01*
G75*
G02*
X14775000Y-21375000I0J250000D01*
G01*
X14775000Y-20700000D01*
G75*
G02*
X15025000Y-20450000I250000J0D01*
G01*
G37*
G04 #@! TD.AperFunction*
G04 #@! TA.AperFunction,SMDPad,CuDef*
G36*
G01*
X15025000Y-18375000D02*
X15975000Y-18375000D01*
G75*
G02*
X16225000Y-18625000I0J-250000D01*
G01*
X16225000Y-19300000D01*
G75*
G02*
X15975000Y-19550000I-250000J0D01*
G01*
X15025000Y-19550000D01*
G75*
G02*
X14775000Y-19300000I0J250000D01*
G01*
X14775000Y-18625000D01*
G75*
G02*
X15025000Y-18375000I250000J0D01*
G01*
G37*
G04 #@! TD.AperFunction*
G04 #@! TA.AperFunction,SMDPad,CuDef*
G36*
G01*
X33650000Y-16762500D02*
X33650000Y-17237500D01*
G75*
G02*
X33412500Y-17475000I-237500J0D01*
G01*
X32837500Y-17475000D01*
G75*
G02*
X32600000Y-17237500I0J237500D01*
G01*
X32600000Y-16762500D01*
G75*
G02*
X32837500Y-16525000I237500J0D01*
G01*
X33412500Y-16525000D01*
G75*
G02*
X33650000Y-16762500I0J-237500D01*
G01*
G37*
G04 #@! TD.AperFunction*
G04 #@! TA.AperFunction,SMDPad,CuDef*
G36*
G01*
X35400000Y-16762500D02*
X35400000Y-17237500D01*
G75*
G02*
X35162500Y-17475000I-237500J0D01*
G01*
X34587500Y-17475000D01*
G75*
G02*
X34350000Y-17237500I0J237500D01*
G01*
X34350000Y-16762500D01*
G75*
G02*
X34587500Y-16525000I237500J0D01*
G01*
X35162500Y-16525000D01*
G75*
G02*
X35400000Y-16762500I0J-237500D01*
G01*
G37*
G04 #@! TD.AperFunction*
G04 #@! TA.AperFunction,SMDPad,CuDef*
G36*
G01*
X31737500Y-18575000D02*
X31262500Y-18575000D01*
G75*
G02*
X31025000Y-18337500I0J237500D01*
G01*
X31025000Y-17837500D01*
G75*
G02*
X31262500Y-17600000I237500J0D01*
G01*
X31737500Y-17600000D01*
G75*
G02*
X31975000Y-17837500I0J-237500D01*
G01*
X31975000Y-18337500D01*
G75*
G02*
X31737500Y-18575000I-237500J0D01*
G01*
G37*
G04 #@! TD.AperFunction*
G04 #@! TA.AperFunction,SMDPad,CuDef*
G36*
G01*
X31737500Y-20400000D02*
X31262500Y-20400000D01*
G75*
G02*
X31025000Y-20162500I0J237500D01*
G01*
X31025000Y-19662500D01*
G75*
G02*
X31262500Y-19425000I237500J0D01*
G01*
X31737500Y-19425000D01*
G75*
G02*
X31975000Y-19662500I0J-237500D01*
G01*
X31975000Y-20162500D01*
G75*
G02*
X31737500Y-20400000I-237500J0D01*
G01*
G37*
G04 #@! TD.AperFunction*
G04 #@! TA.AperFunction,SMDPad,CuDef*
G36*
G01*
X17848553Y-45901952D02*
X17309738Y-46440767D01*
G75*
G02*
X16770922Y-46440767I-269408J269408D01*
G01*
X16232107Y-45901952D01*
G75*
G02*
X16232107Y-45363136I269408J269408D01*
G01*
X16770922Y-44824321D01*
G75*
G02*
X17309738Y-44824321I269408J-269408D01*
G01*
X17848553Y-45363136D01*
G75*
G02*
X17848553Y-45901952I-269408J-269408D01*
G01*
G37*
G04 #@! TD.AperFunction*
G04 #@! TA.AperFunction,SMDPad,CuDef*
G36*
G01*
X19262767Y-44487738D02*
X18723952Y-45026553D01*
G75*
G02*
X18185136Y-45026553I-269408J269408D01*
G01*
X17646321Y-44487738D01*
G75*
G02*
X17646321Y-43948922I269408J269408D01*
G01*
X18185136Y-43410107D01*
G75*
G02*
X18723952Y-43410107I269408J-269408D01*
G01*
X19262767Y-43948922D01*
G75*
G02*
X19262767Y-44487738I-269408J-269408D01*
G01*
G37*
G04 #@! TD.AperFunction*
G04 #@! TA.AperFunction,SMDPad,CuDef*
G36*
G01*
X16787893Y-42012864D02*
X16249078Y-42551679D01*
G75*
G02*
X15710262Y-42551679I-269408J269408D01*
G01*
X15171447Y-42012864D01*
G75*
G02*
X15171447Y-41474048I269408J269408D01*
G01*
X15710262Y-40935233D01*
G75*
G02*
X16249078Y-40935233I269408J-269408D01*
G01*
X16787893Y-41474048D01*
G75*
G02*
X16787893Y-42012864I-269408J-269408D01*
G01*
G37*
G04 #@! TD.AperFunction*
G04 #@! TA.AperFunction,SMDPad,CuDef*
G36*
G01*
X15373679Y-43427078D02*
X14834864Y-43965893D01*
G75*
G02*
X14296048Y-43965893I-269408J269408D01*
G01*
X13757233Y-43427078D01*
G75*
G02*
X13757233Y-42888262I269408J269408D01*
G01*
X14296048Y-42349447D01*
G75*
G02*
X14834864Y-42349447I269408J-269408D01*
G01*
X15373679Y-42888262D01*
G75*
G02*
X15373679Y-43427078I-269408J-269408D01*
G01*
G37*
G04 #@! TD.AperFunction*
D14*
X21750000Y-17700000D03*
X21750000Y-19800000D03*
D15*
X27200000Y-18750000D03*
X29300000Y-18750000D03*
G04 #@! TA.AperFunction,SMDPad,CuDef*
G36*
G01*
X33650000Y-19762500D02*
X33650000Y-20237500D01*
G75*
G02*
X33412500Y-20475000I-237500J0D01*
G01*
X32837500Y-20475000D01*
G75*
G02*
X32600000Y-20237500I0J237500D01*
G01*
X32600000Y-19762500D01*
G75*
G02*
X32837500Y-19525000I237500J0D01*
G01*
X33412500Y-19525000D01*
G75*
G02*
X33650000Y-19762500I0J-237500D01*
G01*
G37*
G04 #@! TD.AperFunction*
G04 #@! TA.AperFunction,SMDPad,CuDef*
G36*
G01*
X35400000Y-19762500D02*
X35400000Y-20237500D01*
G75*
G02*
X35162500Y-20475000I-237500J0D01*
G01*
X34587500Y-20475000D01*
G75*
G02*
X34350000Y-20237500I0J237500D01*
G01*
X34350000Y-19762500D01*
G75*
G02*
X34587500Y-19525000I237500J0D01*
G01*
X35162500Y-19525000D01*
G75*
G02*
X35400000Y-19762500I0J-237500D01*
G01*
G37*
G04 #@! TD.AperFunction*
D16*
X18650000Y-18900000D03*
X17350000Y-18900000D03*
X18000000Y-21100000D03*
X18000000Y-18900000D03*
X17350000Y-21100000D03*
X18650000Y-21100000D03*
G04 #@! TA.AperFunction,SMDPad,CuDef*
G36*
G01*
X34350000Y-23237500D02*
X34350000Y-22762500D01*
G75*
G02*
X34587500Y-22525000I237500J0D01*
G01*
X35162500Y-22525000D01*
G75*
G02*
X35400000Y-22762500I0J-237500D01*
G01*
X35400000Y-23237500D01*
G75*
G02*
X35162500Y-23475000I-237500J0D01*
G01*
X34587500Y-23475000D01*
G75*
G02*
X34350000Y-23237500I0J237500D01*
G01*
G37*
G04 #@! TD.AperFunction*
G04 #@! TA.AperFunction,SMDPad,CuDef*
G36*
G01*
X32600000Y-23237500D02*
X32600000Y-22762500D01*
G75*
G02*
X32837500Y-22525000I237500J0D01*
G01*
X33412500Y-22525000D01*
G75*
G02*
X33650000Y-22762500I0J-237500D01*
G01*
X33650000Y-23237500D01*
G75*
G02*
X33412500Y-23475000I-237500J0D01*
G01*
X32837500Y-23475000D01*
G75*
G02*
X32600000Y-23237500I0J237500D01*
G01*
G37*
G04 #@! TD.AperFunction*
G04 #@! TA.AperFunction,SMDPad,CuDef*
G36*
G01*
X34350000Y-27737500D02*
X34350000Y-27262500D01*
G75*
G02*
X34587500Y-27025000I237500J0D01*
G01*
X35162500Y-27025000D01*
G75*
G02*
X35400000Y-27262500I0J-237500D01*
G01*
X35400000Y-27737500D01*
G75*
G02*
X35162500Y-27975000I-237500J0D01*
G01*
X34587500Y-27975000D01*
G75*
G02*
X34350000Y-27737500I0J237500D01*
G01*
G37*
G04 #@! TD.AperFunction*
G04 #@! TA.AperFunction,SMDPad,CuDef*
G36*
G01*
X32600000Y-27737500D02*
X32600000Y-27262500D01*
G75*
G02*
X32837500Y-27025000I237500J0D01*
G01*
X33412500Y-27025000D01*
G75*
G02*
X33650000Y-27262500I0J-237500D01*
G01*
X33650000Y-27737500D01*
G75*
G02*
X33412500Y-27975000I-237500J0D01*
G01*
X32837500Y-27975000D01*
G75*
G02*
X32600000Y-27737500I0J237500D01*
G01*
G37*
G04 #@! TD.AperFunction*
G04 #@! TA.AperFunction,SMDPad,CuDef*
G36*
G01*
X33650000Y-25762500D02*
X33650000Y-26237500D01*
G75*
G02*
X33412500Y-26475000I-237500J0D01*
G01*
X32837500Y-26475000D01*
G75*
G02*
X32600000Y-26237500I0J237500D01*
G01*
X32600000Y-25762500D01*
G75*
G02*
X32837500Y-25525000I237500J0D01*
G01*
X33412500Y-25525000D01*
G75*
G02*
X33650000Y-25762500I0J-237500D01*
G01*
G37*
G04 #@! TD.AperFunction*
G04 #@! TA.AperFunction,SMDPad,CuDef*
G36*
G01*
X35400000Y-25762500D02*
X35400000Y-26237500D01*
G75*
G02*
X35162500Y-26475000I-237500J0D01*
G01*
X34587500Y-26475000D01*
G75*
G02*
X34350000Y-26237500I0J237500D01*
G01*
X34350000Y-25762500D01*
G75*
G02*
X34587500Y-25525000I237500J0D01*
G01*
X35162500Y-25525000D01*
G75*
G02*
X35400000Y-25762500I0J-237500D01*
G01*
G37*
G04 #@! TD.AperFunction*
G04 #@! TA.AperFunction,SMDPad,CuDef*
G36*
G01*
X34350000Y-24737500D02*
X34350000Y-24262500D01*
G75*
G02*
X34587500Y-24025000I237500J0D01*
G01*
X35162500Y-24025000D01*
G75*
G02*
X35400000Y-24262500I0J-237500D01*
G01*
X35400000Y-24737500D01*
G75*
G02*
X35162500Y-24975000I-237500J0D01*
G01*
X34587500Y-24975000D01*
G75*
G02*
X34350000Y-24737500I0J237500D01*
G01*
G37*
G04 #@! TD.AperFunction*
G04 #@! TA.AperFunction,SMDPad,CuDef*
G36*
G01*
X32600000Y-24737500D02*
X32600000Y-24262500D01*
G75*
G02*
X32837500Y-24025000I237500J0D01*
G01*
X33412500Y-24025000D01*
G75*
G02*
X33650000Y-24262500I0J-237500D01*
G01*
X33650000Y-24737500D01*
G75*
G02*
X33412500Y-24975000I-237500J0D01*
G01*
X32837500Y-24975000D01*
G75*
G02*
X32600000Y-24737500I0J237500D01*
G01*
G37*
G04 #@! TD.AperFunction*
G04 #@! TA.AperFunction,SMDPad,CuDef*
G36*
G01*
X29762500Y-28350000D02*
X30237500Y-28350000D01*
G75*
G02*
X30475000Y-28587500I0J-237500D01*
G01*
X30475000Y-29162500D01*
G75*
G02*
X30237500Y-29400000I-237500J0D01*
G01*
X29762500Y-29400000D01*
G75*
G02*
X29525000Y-29162500I0J237500D01*
G01*
X29525000Y-28587500D01*
G75*
G02*
X29762500Y-28350000I237500J0D01*
G01*
G37*
G04 #@! TD.AperFunction*
G04 #@! TA.AperFunction,SMDPad,CuDef*
G36*
G01*
X29762500Y-26600000D02*
X30237500Y-26600000D01*
G75*
G02*
X30475000Y-26837500I0J-237500D01*
G01*
X30475000Y-27412500D01*
G75*
G02*
X30237500Y-27650000I-237500J0D01*
G01*
X29762500Y-27650000D01*
G75*
G02*
X29525000Y-27412500I0J237500D01*
G01*
X29525000Y-26837500D01*
G75*
G02*
X29762500Y-26600000I237500J0D01*
G01*
G37*
G04 #@! TD.AperFunction*
G04 #@! TA.AperFunction,SMDPad,CuDef*
G36*
G01*
X31262500Y-28350000D02*
X31737500Y-28350000D01*
G75*
G02*
X31975000Y-28587500I0J-237500D01*
G01*
X31975000Y-29162500D01*
G75*
G02*
X31737500Y-29400000I-237500J0D01*
G01*
X31262500Y-29400000D01*
G75*
G02*
X31025000Y-29162500I0J237500D01*
G01*
X31025000Y-28587500D01*
G75*
G02*
X31262500Y-28350000I237500J0D01*
G01*
G37*
G04 #@! TD.AperFunction*
G04 #@! TA.AperFunction,SMDPad,CuDef*
G36*
G01*
X31262500Y-26600000D02*
X31737500Y-26600000D01*
G75*
G02*
X31975000Y-26837500I0J-237500D01*
G01*
X31975000Y-27412500D01*
G75*
G02*
X31737500Y-27650000I-237500J0D01*
G01*
X31262500Y-27650000D01*
G75*
G02*
X31025000Y-27412500I0J237500D01*
G01*
X31025000Y-26837500D01*
G75*
G02*
X31262500Y-26600000I237500J0D01*
G01*
G37*
G04 #@! TD.AperFunction*
G04 #@! TA.AperFunction,SMDPad,CuDef*
G36*
G01*
X33650000Y-28762500D02*
X33650000Y-29237500D01*
G75*
G02*
X33412500Y-29475000I-237500J0D01*
G01*
X32837500Y-29475000D01*
G75*
G02*
X32600000Y-29237500I0J237500D01*
G01*
X32600000Y-28762500D01*
G75*
G02*
X32837500Y-28525000I237500J0D01*
G01*
X33412500Y-28525000D01*
G75*
G02*
X33650000Y-28762500I0J-237500D01*
G01*
G37*
G04 #@! TD.AperFunction*
G04 #@! TA.AperFunction,SMDPad,CuDef*
G36*
G01*
X35400000Y-28762500D02*
X35400000Y-29237500D01*
G75*
G02*
X35162500Y-29475000I-237500J0D01*
G01*
X34587500Y-29475000D01*
G75*
G02*
X34350000Y-29237500I0J237500D01*
G01*
X34350000Y-28762500D01*
G75*
G02*
X34587500Y-28525000I237500J0D01*
G01*
X35162500Y-28525000D01*
G75*
G02*
X35400000Y-28762500I0J-237500D01*
G01*
G37*
G04 #@! TD.AperFunction*
G04 #@! TA.AperFunction,SMDPad,CuDef*
G36*
G01*
X22737500Y-26650000D02*
X22262500Y-26650000D01*
G75*
G02*
X22025000Y-26412500I0J237500D01*
G01*
X22025000Y-25837500D01*
G75*
G02*
X22262500Y-25600000I237500J0D01*
G01*
X22737500Y-25600000D01*
G75*
G02*
X22975000Y-25837500I0J-237500D01*
G01*
X22975000Y-26412500D01*
G75*
G02*
X22737500Y-26650000I-237500J0D01*
G01*
G37*
G04 #@! TD.AperFunction*
G04 #@! TA.AperFunction,SMDPad,CuDef*
G36*
G01*
X22737500Y-28400000D02*
X22262500Y-28400000D01*
G75*
G02*
X22025000Y-28162500I0J237500D01*
G01*
X22025000Y-27587500D01*
G75*
G02*
X22262500Y-27350000I237500J0D01*
G01*
X22737500Y-27350000D01*
G75*
G02*
X22975000Y-27587500I0J-237500D01*
G01*
X22975000Y-28162500D01*
G75*
G02*
X22737500Y-28400000I-237500J0D01*
G01*
G37*
G04 #@! TD.AperFunction*
G04 #@! TA.AperFunction,SMDPad,CuDef*
G36*
G01*
X34350000Y-21737500D02*
X34350000Y-21262500D01*
G75*
G02*
X34587500Y-21025000I237500J0D01*
G01*
X35162500Y-21025000D01*
G75*
G02*
X35400000Y-21262500I0J-237500D01*
G01*
X35400000Y-21737500D01*
G75*
G02*
X35162500Y-21975000I-237500J0D01*
G01*
X34587500Y-21975000D01*
G75*
G02*
X34350000Y-21737500I0J237500D01*
G01*
G37*
G04 #@! TD.AperFunction*
G04 #@! TA.AperFunction,SMDPad,CuDef*
G36*
G01*
X32600000Y-21737500D02*
X32600000Y-21262500D01*
G75*
G02*
X32837500Y-21025000I237500J0D01*
G01*
X33412500Y-21025000D01*
G75*
G02*
X33650000Y-21262500I0J-237500D01*
G01*
X33650000Y-21737500D01*
G75*
G02*
X33412500Y-21975000I-237500J0D01*
G01*
X32837500Y-21975000D01*
G75*
G02*
X32600000Y-21737500I0J237500D01*
G01*
G37*
G04 #@! TD.AperFunction*
G04 #@! TA.AperFunction,SMDPad,CuDef*
G36*
G01*
X21237500Y-27150000D02*
X20762500Y-27150000D01*
G75*
G02*
X20525000Y-26912500I0J237500D01*
G01*
X20525000Y-26337500D01*
G75*
G02*
X20762500Y-26100000I237500J0D01*
G01*
X21237500Y-26100000D01*
G75*
G02*
X21475000Y-26337500I0J-237500D01*
G01*
X21475000Y-26912500D01*
G75*
G02*
X21237500Y-27150000I-237500J0D01*
G01*
G37*
G04 #@! TD.AperFunction*
G04 #@! TA.AperFunction,SMDPad,CuDef*
G36*
G01*
X21237500Y-28900000D02*
X20762500Y-28900000D01*
G75*
G02*
X20525000Y-28662500I0J237500D01*
G01*
X20525000Y-28087500D01*
G75*
G02*
X20762500Y-27850000I237500J0D01*
G01*
X21237500Y-27850000D01*
G75*
G02*
X21475000Y-28087500I0J-237500D01*
G01*
X21475000Y-28662500D01*
G75*
G02*
X21237500Y-28900000I-237500J0D01*
G01*
G37*
G04 #@! TD.AperFunction*
G04 #@! TA.AperFunction,SMDPad,CuDef*
G36*
G01*
X34350000Y-18737500D02*
X34350000Y-18262500D01*
G75*
G02*
X34587500Y-18025000I237500J0D01*
G01*
X35162500Y-18025000D01*
G75*
G02*
X35400000Y-18262500I0J-237500D01*
G01*
X35400000Y-18737500D01*
G75*
G02*
X35162500Y-18975000I-237500J0D01*
G01*
X34587500Y-18975000D01*
G75*
G02*
X34350000Y-18737500I0J237500D01*
G01*
G37*
G04 #@! TD.AperFunction*
G04 #@! TA.AperFunction,SMDPad,CuDef*
G36*
G01*
X32600000Y-18737500D02*
X32600000Y-18262500D01*
G75*
G02*
X32837500Y-18025000I237500J0D01*
G01*
X33412500Y-18025000D01*
G75*
G02*
X33650000Y-18262500I0J-237500D01*
G01*
X33650000Y-18737500D01*
G75*
G02*
X33412500Y-18975000I-237500J0D01*
G01*
X32837500Y-18975000D01*
G75*
G02*
X32600000Y-18737500I0J237500D01*
G01*
G37*
G04 #@! TD.AperFunction*
G04 #@! TA.AperFunction,SMDPad,CuDef*
G36*
G01*
X26559500Y-22476000D02*
X27034500Y-22476000D01*
G75*
G02*
X27272000Y-22713500I0J-237500D01*
G01*
X27272000Y-23288500D01*
G75*
G02*
X27034500Y-23526000I-237500J0D01*
G01*
X26559500Y-23526000D01*
G75*
G02*
X26322000Y-23288500I0J237500D01*
G01*
X26322000Y-22713500D01*
G75*
G02*
X26559500Y-22476000I237500J0D01*
G01*
G37*
G04 #@! TD.AperFunction*
G04 #@! TA.AperFunction,SMDPad,CuDef*
G36*
G01*
X26559500Y-24226000D02*
X27034500Y-24226000D01*
G75*
G02*
X27272000Y-24463500I0J-237500D01*
G01*
X27272000Y-25038500D01*
G75*
G02*
X27034500Y-25276000I-237500J0D01*
G01*
X26559500Y-25276000D01*
G75*
G02*
X26322000Y-25038500I0J237500D01*
G01*
X26322000Y-24463500D01*
G75*
G02*
X26559500Y-24226000I237500J0D01*
G01*
G37*
G04 #@! TD.AperFunction*
D17*
X25000000Y-14500000D03*
D18*
X31371999Y-33652001D03*
X30734000Y-37084000D03*
X30734000Y-37084000D03*
X19710000Y-34290000D03*
X36250000Y-21750000D03*
X30099000Y-25908000D03*
X35560000Y-37084000D03*
X23400000Y-31600000D03*
X23400000Y-29337000D03*
X15240000Y-27432000D03*
X13970000Y-33020000D03*
X19000000Y-26500000D03*
X19000000Y-24003000D03*
X33782000Y-33020000D03*
X26162000Y-21590000D03*
X28702000Y-29210000D03*
D19*
X29300000Y-22200000D02*
X30050000Y-22950000D01*
X29300000Y-21462500D02*
X29300000Y-22200000D01*
X30800000Y-22200000D02*
X31537500Y-22200000D01*
X30050000Y-22950000D02*
X30800000Y-22200000D01*
X28562500Y-23700000D02*
X29300000Y-23700000D01*
X29300000Y-23700000D02*
X30050000Y-22950000D01*
X29300000Y-24437500D02*
X29300000Y-23700000D01*
X16875000Y-36875000D02*
X17000000Y-37000000D01*
X30000000Y-29065685D02*
X30000000Y-28875000D01*
D20*
X28562500Y-25437500D02*
X28562500Y-24762500D01*
X28562500Y-24762500D02*
X28562500Y-24437500D01*
X28562500Y-24762500D02*
X28562500Y-24737500D01*
X28562500Y-25437500D02*
X28562500Y-25175000D01*
X28562500Y-27437500D02*
X28562500Y-25437500D01*
X29000000Y-24000000D02*
X30050000Y-22950000D01*
X28562500Y-27437500D02*
X30000000Y-28875000D01*
X34875000Y-27497288D02*
X34875000Y-27500000D01*
X28900750Y-24775750D02*
X28562500Y-24437500D01*
X28900750Y-24836750D02*
X28900750Y-24775750D01*
X28562500Y-25175000D02*
X28900750Y-24836750D01*
X29000000Y-24737500D02*
X28900750Y-24836750D01*
X29000000Y-24000000D02*
X29000000Y-24737500D01*
D19*
X28562500Y-25437500D02*
X28728000Y-25437500D01*
X29300000Y-24865500D02*
X29300000Y-24437500D01*
X28728000Y-25437500D02*
X29300000Y-24865500D01*
D21*
X34875000Y-18500000D02*
X34875000Y-20000000D01*
X34875000Y-20000000D02*
X34875000Y-21500000D01*
X34875000Y-21500000D02*
X34875000Y-23000000D01*
X35225840Y-27500000D02*
X34875000Y-27500000D01*
X35225840Y-23000000D02*
X36100010Y-23874170D01*
X36100010Y-26625830D02*
X35225840Y-27500000D01*
X36100010Y-23874170D02*
X36100010Y-26625830D01*
X34875000Y-23000000D02*
X35225840Y-23000000D01*
X31371999Y-31500001D02*
X30000000Y-30128002D01*
X30000000Y-30128002D02*
X30000000Y-28875000D01*
X36100010Y-28200010D02*
X36100010Y-29625830D01*
X35400000Y-27500000D02*
X36100010Y-28200010D01*
X34875000Y-27500000D02*
X35400000Y-27500000D01*
X36100010Y-29625830D02*
X35402920Y-30322920D01*
D20*
X36576000Y-39796000D02*
X35544000Y-40828000D01*
X28562500Y-24512490D02*
X28562500Y-23850000D01*
X28562500Y-24437500D02*
X29000000Y-24000000D01*
D21*
X31371999Y-33652001D02*
X31371999Y-33652001D01*
X17084000Y-37084000D02*
X17000000Y-37000000D01*
D20*
X36068000Y-30988000D02*
X36068000Y-29657840D01*
X35402920Y-30322920D02*
X36068000Y-30988000D01*
X36068000Y-29657840D02*
X36100010Y-29625830D01*
X36068000Y-30988000D02*
X36576000Y-31496000D01*
X34737840Y-30988000D02*
X34640920Y-31084920D01*
D21*
X34640920Y-31084920D02*
X34225839Y-31500001D01*
X35402920Y-30322920D02*
X34640920Y-31084920D01*
D20*
X36035000Y-34050000D02*
X36576000Y-34591000D01*
X36576000Y-36449000D02*
X36576000Y-39796000D01*
X35560000Y-34050000D02*
X36035000Y-34050000D01*
D21*
X31371999Y-32636001D02*
X32507999Y-31500001D01*
X32507999Y-31500001D02*
X31371999Y-31500001D01*
X31371999Y-31500001D02*
X31371999Y-32636001D01*
X31371999Y-32636001D02*
X31371999Y-33652001D01*
X25019000Y-31369000D02*
X25019000Y-25167500D01*
X30734000Y-37084000D02*
X29325000Y-35675000D01*
X25019000Y-31609002D02*
X25019000Y-31369000D01*
X19710000Y-34290000D02*
X21110000Y-34290000D01*
X21110000Y-34290000D02*
X22338002Y-34290000D01*
D20*
X36576000Y-31576000D02*
X35988000Y-30988000D01*
X36576000Y-32424000D02*
X36576000Y-31576000D01*
X36068000Y-30988000D02*
X35988000Y-30988000D01*
X36576000Y-31496000D02*
X36576000Y-32424000D01*
X36576000Y-32424000D02*
X36576000Y-32076000D01*
X35988000Y-30988000D02*
X35488000Y-30988000D01*
X36576000Y-32924000D02*
X36576000Y-32552000D01*
X35012000Y-30988000D02*
X34737840Y-30988000D01*
X35488000Y-30988000D02*
X35012000Y-30988000D01*
X36576000Y-32424000D02*
X36576000Y-32924000D01*
X36576000Y-32924000D02*
X36576000Y-36449000D01*
X35524001Y-31500001D02*
X36012000Y-31988000D01*
X34225839Y-31500001D02*
X35524001Y-31500001D01*
X36576000Y-32552000D02*
X36012000Y-31988000D01*
X35762000Y-31738000D02*
X33737998Y-31738000D01*
X33737998Y-31738000D02*
X33499999Y-31500001D01*
D21*
X33499999Y-31500001D02*
X32507999Y-31500001D01*
X34225839Y-31500001D02*
X33499999Y-31500001D01*
D20*
X36012000Y-31988000D02*
X35762000Y-31738000D01*
X35762000Y-31738000D02*
X35012000Y-30988000D01*
X31371999Y-32636001D02*
X32020000Y-31988000D01*
D21*
X30000000Y-32280002D02*
X31371999Y-33652001D01*
X30000000Y-30128002D02*
X30000000Y-32280002D01*
X31371999Y-33652001D02*
X31371999Y-32371999D01*
X31371999Y-32371999D02*
X30500000Y-31500000D01*
X26797000Y-33147000D02*
X27075000Y-33425000D01*
D20*
X26797000Y-24751000D02*
X26797000Y-24765000D01*
D21*
X25825000Y-32175000D02*
X25825000Y-26175000D01*
X26797000Y-25203000D02*
X26797000Y-33147000D01*
X25825000Y-26175000D02*
X26797000Y-25203000D01*
X26797000Y-24751000D02*
X26797000Y-25203000D01*
X27075000Y-33425000D02*
X25825000Y-32175000D01*
X25825000Y-32175000D02*
X25019000Y-31369000D01*
X26380500Y-25167500D02*
X26797000Y-24751000D01*
X25019000Y-25167500D02*
X26380500Y-25167500D01*
X35560000Y-33169998D02*
X33890003Y-31500001D01*
X33890003Y-31500001D02*
X33499999Y-31500001D01*
X35560000Y-34050000D02*
X35560000Y-33169998D01*
X36292500Y-33792500D02*
X36292500Y-32792500D01*
X36292500Y-32792500D02*
X35488000Y-31988000D01*
D20*
X32020000Y-31988000D02*
X35488000Y-31988000D01*
X36035000Y-34050000D02*
X36292500Y-33792500D01*
X35488000Y-31988000D02*
X36012000Y-31988000D01*
X36292500Y-33792500D02*
X36576000Y-33509000D01*
D21*
X36068000Y-31432000D02*
X36000000Y-31500000D01*
X36068000Y-29657840D02*
X36068000Y-31432000D01*
D20*
X36000000Y-31500000D02*
X35488000Y-30988000D01*
X36576000Y-32076000D02*
X36000000Y-31500000D01*
D21*
X36292500Y-24066660D02*
X36100010Y-23874170D01*
X36292500Y-32792500D02*
X36292500Y-24066660D01*
X27940000Y-34290000D02*
X28075000Y-34425000D01*
X28075000Y-34425000D02*
X27075000Y-33425000D01*
X29325000Y-35675000D02*
X28075000Y-34425000D01*
X23710000Y-34290000D02*
X25825000Y-32175000D01*
X23290000Y-34290000D02*
X23710000Y-34290000D01*
X22338002Y-34290000D02*
X23290000Y-34290000D01*
X24290000Y-34290000D02*
X24710000Y-34290000D01*
X23290000Y-34290000D02*
X24290000Y-34290000D01*
X24290000Y-34290000D02*
X27940000Y-34290000D01*
X25944000Y-34000000D02*
X26797000Y-33147000D01*
X25000000Y-34000000D02*
X25944000Y-34000000D01*
X24710000Y-34290000D02*
X25000000Y-34000000D01*
X25000000Y-34000000D02*
X26000000Y-33000000D01*
X25019000Y-32561000D02*
X25019000Y-31369000D01*
X23290000Y-34290000D02*
X25019000Y-32561000D01*
X30956918Y-31084920D02*
X34640920Y-31084920D01*
X30000000Y-30128002D02*
X30956918Y-31084920D01*
X30922920Y-30322920D02*
X35402920Y-30322920D01*
X30000000Y-29400000D02*
X30922920Y-30322920D01*
X30000000Y-28875000D02*
X30000000Y-29400000D01*
D19*
X30837500Y-21500000D02*
X30800000Y-21462500D01*
X33125000Y-21500000D02*
X30837500Y-21500000D01*
D22*
X18000000Y-18381000D02*
X18000000Y-18179998D01*
X18000000Y-18900000D02*
X18000000Y-18381000D01*
X19034998Y-17145000D02*
X20066000Y-17145000D01*
X20066000Y-17145000D02*
X18669000Y-17145000D01*
X18669000Y-17145000D02*
X18542000Y-17272000D01*
X19050000Y-16637000D02*
X21209000Y-16637000D01*
X18000000Y-18381000D02*
X18000000Y-17687000D01*
X21750000Y-17700000D02*
X22813000Y-17700000D01*
X21750000Y-16637000D02*
X21209000Y-16637000D01*
X22813000Y-17700000D02*
X21750000Y-16637000D01*
X18669000Y-17018000D02*
X21717000Y-17018000D01*
X18000000Y-17687000D02*
X18669000Y-17018000D01*
X18669000Y-17018000D02*
X19050000Y-16637000D01*
X21504999Y-17454999D02*
X21750000Y-17700000D01*
X18724999Y-17454999D02*
X21504999Y-17454999D01*
X18724999Y-17454999D02*
X19034998Y-17145000D01*
X21677501Y-17772499D02*
X21750000Y-17700000D01*
X18407499Y-17772499D02*
X21677501Y-17772499D01*
X18407499Y-17772499D02*
X18724999Y-17454999D01*
X21487001Y-17962999D02*
X21750000Y-17700000D01*
X18216999Y-17962999D02*
X21487001Y-17962999D01*
X18000000Y-18179998D02*
X18216999Y-17962999D01*
X18216999Y-17962999D02*
X18407499Y-17772499D01*
D19*
X28562500Y-22200000D02*
X28042000Y-22200000D01*
X28042000Y-22200000D02*
X27686000Y-21844000D01*
D20*
X27200000Y-21358000D02*
X27686000Y-21844000D01*
X27200000Y-18750000D02*
X27200000Y-21358000D01*
D19*
X30300000Y-19287500D02*
X31500000Y-18087500D01*
X30300000Y-21462500D02*
X30300000Y-19287500D01*
D20*
X32587500Y-17000000D02*
X31500000Y-18087500D01*
X33125000Y-17000000D02*
X32587500Y-17000000D01*
D19*
X32825000Y-22700000D02*
X31537500Y-22700000D01*
X33125000Y-23000000D02*
X32825000Y-22700000D01*
D20*
X34625000Y-24500000D02*
X33125000Y-23000000D01*
X34875000Y-24500000D02*
X34625000Y-24500000D01*
D19*
X29300000Y-20526978D02*
X29300000Y-18750000D01*
X29800000Y-21026978D02*
X29300000Y-20526978D01*
X29800000Y-21462500D02*
X29800000Y-21026978D01*
D21*
X35400000Y-17000000D02*
X34875000Y-17000000D01*
X36250000Y-17850000D02*
X35400000Y-17000000D01*
X34174990Y-15824990D02*
X30175010Y-15824990D01*
X34875000Y-16525000D02*
X34174990Y-15824990D01*
X34875000Y-17000000D02*
X34875000Y-16525000D01*
X29300000Y-16700000D02*
X29300000Y-18750000D01*
X30175010Y-15824990D02*
X29300000Y-16700000D01*
D20*
X34625000Y-17000000D02*
X33125000Y-18500000D01*
X34875000Y-17000000D02*
X34625000Y-17000000D01*
D21*
X34224990Y-15824990D02*
X34174990Y-15824990D01*
X36250000Y-17850000D02*
X34224990Y-15824990D01*
X36250000Y-21750000D02*
X36250000Y-17850000D01*
D20*
X18000000Y-20360002D02*
X17299990Y-19659992D01*
X18000000Y-21100000D02*
X18000000Y-20360002D01*
X17299990Y-19350000D02*
X17074990Y-19125000D01*
X17299990Y-19659992D02*
X17299990Y-19350000D01*
X17074990Y-19125000D02*
X17299990Y-18900000D01*
X15662500Y-19125000D02*
X15500000Y-18962500D01*
X17074990Y-19125000D02*
X15662500Y-19125000D01*
D19*
X14095000Y-32071998D02*
X14095000Y-31100000D01*
X23250000Y-41226998D02*
X14095000Y-32071998D01*
D20*
X14095000Y-27811000D02*
X14095000Y-31100000D01*
X13049991Y-19970009D02*
X13049991Y-26765991D01*
X14057500Y-18962500D02*
X13049991Y-19970009D01*
X13049991Y-26765991D02*
X14095000Y-27811000D01*
X15500000Y-18962500D02*
X14057500Y-18962500D01*
D19*
X23250000Y-45800000D02*
X23250000Y-41226998D01*
X31925000Y-23200000D02*
X31537500Y-23200000D01*
X33125000Y-24351978D02*
X31973022Y-23200000D01*
X31973022Y-23200000D02*
X31925000Y-23200000D01*
X33125000Y-24500000D02*
X33125000Y-24351978D01*
X34875000Y-26000000D02*
X34625000Y-26000000D01*
X34024990Y-28674990D02*
X34350000Y-29000000D01*
X34350000Y-29000000D02*
X34875000Y-29000000D01*
X34875000Y-26000000D02*
X34350000Y-26000000D01*
X34024990Y-25411010D02*
X34030500Y-25405500D01*
X34030500Y-25405500D02*
X33125000Y-24500000D01*
X34625000Y-26000000D02*
X34030500Y-25405500D01*
X34875000Y-26000000D02*
X34359980Y-26000000D01*
X34359980Y-26000000D02*
X34024990Y-25665010D01*
X34024990Y-25665010D02*
X34024990Y-25411010D01*
X34024990Y-26325010D02*
X34024990Y-25665010D01*
X34024990Y-25896990D02*
X34239000Y-26111000D01*
X34024990Y-25665010D02*
X34024990Y-25896990D01*
X34239000Y-26111000D02*
X34024990Y-26325010D01*
X34350000Y-26000000D02*
X34239000Y-26111000D01*
X34875000Y-26000000D02*
X34875000Y-26062980D01*
X34024990Y-26912990D02*
X34024990Y-28674990D01*
X34875000Y-26062980D02*
X34024990Y-26912990D01*
X34024990Y-26325010D02*
X34024990Y-26658990D01*
X34024990Y-26658990D02*
X34024990Y-26912990D01*
X34683980Y-26000000D02*
X34024990Y-26658990D01*
X34875000Y-26000000D02*
X34683980Y-26000000D01*
X34875000Y-26000000D02*
X34875000Y-25985000D01*
X33390000Y-24500000D02*
X33125000Y-24500000D01*
X34875000Y-25985000D02*
X33390000Y-24500000D01*
D20*
X35544000Y-38928000D02*
X35544000Y-37322000D01*
X35560000Y-37084000D02*
X35560000Y-35800000D01*
D19*
X30099000Y-25908000D02*
X30099000Y-25471408D01*
X29800000Y-25172408D02*
X29800000Y-24437500D01*
X30099000Y-25471408D02*
X29800000Y-25172408D01*
D20*
X23400000Y-30775000D02*
X21000000Y-28375000D01*
X19040000Y-28375000D02*
X21000000Y-28375000D01*
X15365000Y-24700000D02*
X19040000Y-28375000D01*
X15365000Y-23900000D02*
X15365000Y-24700000D01*
X23400000Y-30775000D02*
X23400000Y-31600000D01*
X23400000Y-28775000D02*
X22500000Y-27875000D01*
X23400000Y-29337000D02*
X23400000Y-28775000D01*
D19*
X25730000Y-45792894D02*
X25750000Y-45772894D01*
X25710000Y-45800000D02*
X25710000Y-43050588D01*
X16635000Y-33975588D02*
X16635000Y-31100000D01*
X25710000Y-43050588D02*
X16635000Y-33975588D01*
X26980000Y-45800000D02*
X26980000Y-43684178D01*
X17905000Y-34609178D02*
X17905000Y-31100000D01*
X26980000Y-43684178D02*
X17905000Y-34609178D01*
D20*
X22024990Y-25649990D02*
X22500000Y-26125000D01*
X16635000Y-24700000D02*
X17584990Y-25649990D01*
X17584990Y-25649990D02*
X22024990Y-25649990D01*
X16635000Y-23900000D02*
X16635000Y-24700000D01*
X14095000Y-24419963D02*
X14095000Y-23900000D01*
X14095000Y-23900000D02*
X14095000Y-26287000D01*
X14095000Y-26287000D02*
X15240000Y-27432000D01*
X15240000Y-27432000D02*
X15240000Y-27432000D01*
X13970000Y-39733786D02*
X15979670Y-41743456D01*
X13970000Y-33020000D02*
X13970000Y-39733786D01*
X15365000Y-31602927D02*
X15365000Y-31100000D01*
D19*
X17994768Y-29718000D02*
X15748000Y-29718000D01*
X15748000Y-29718000D02*
X15365000Y-30101000D01*
X18530010Y-30253242D02*
X17994768Y-29718000D01*
X18530010Y-34276750D02*
X18530010Y-30253242D01*
X15365000Y-30101000D02*
X15365000Y-31100000D01*
X29869760Y-45616500D02*
X18530010Y-34276750D01*
X29869760Y-45616500D02*
X31242000Y-45616500D01*
X34290000Y-44727500D02*
X31472500Y-44727500D01*
X31242000Y-44958000D02*
X31242000Y-45616500D01*
X31472500Y-44727500D02*
X31242000Y-44958000D01*
D20*
X31587500Y-20000000D02*
X31500000Y-19912500D01*
X33125000Y-20000000D02*
X31587500Y-20000000D01*
X31500000Y-28875000D02*
X31500000Y-28625000D01*
X31500000Y-28625000D02*
X30000000Y-27125000D01*
D19*
X30179490Y-27125000D02*
X30000000Y-27125000D01*
X30824001Y-26300999D02*
X30000000Y-27125000D01*
X30300000Y-25035998D02*
X30824001Y-25559999D01*
X30824001Y-25559999D02*
X30824001Y-26300999D01*
X30300000Y-24437500D02*
X30300000Y-25035998D01*
D20*
X31500000Y-27375000D02*
X31500000Y-27125000D01*
X33125000Y-29000000D02*
X31500000Y-27375000D01*
D19*
X30800000Y-24437500D02*
X30800000Y-24899588D01*
X31500000Y-25599588D02*
X31500000Y-27125000D01*
X30800000Y-24899588D02*
X31500000Y-25599588D01*
X33125000Y-26000000D02*
X33125000Y-25820510D01*
D20*
X33125000Y-27500000D02*
X33125000Y-26000000D01*
X33125000Y-26000000D02*
X33125000Y-25997288D01*
D19*
X31537500Y-23700000D02*
X31537500Y-24737500D01*
X31537500Y-24737500D02*
X31900000Y-25100000D01*
D20*
X32800000Y-26000000D02*
X31900000Y-25100000D01*
X33125000Y-26000000D02*
X32800000Y-26000000D01*
X32766000Y-43791500D02*
X31242000Y-43791500D01*
D19*
X27098000Y-22700000D02*
X26797000Y-23001000D01*
X28562500Y-22700000D02*
X27098000Y-22700000D01*
D20*
X25110500Y-23001000D02*
X25019000Y-23092500D01*
X26797000Y-23001000D02*
X25110500Y-23001000D01*
X17074990Y-20875000D02*
X17299990Y-21100000D01*
X15800000Y-20875000D02*
X17074990Y-20875000D01*
D19*
X17350000Y-21100000D02*
X17350000Y-21850000D01*
X17905000Y-22405000D02*
X17905000Y-23900000D01*
X17350000Y-21850000D02*
X17905000Y-22405000D01*
D20*
X20875000Y-26500000D02*
X21000000Y-26625000D01*
X19000000Y-26500000D02*
X20875000Y-26500000D01*
X21336000Y-23643500D02*
X21336000Y-23761000D01*
X34450001Y-33688001D02*
X34450001Y-38971999D01*
X33782000Y-33020000D02*
X34450001Y-33688001D01*
X18215796Y-46808010D02*
X17040330Y-45632544D01*
X24740904Y-46808010D02*
X24057990Y-46808010D01*
X24440000Y-45800000D02*
X24440000Y-46426000D01*
X24440000Y-45800000D02*
X24440000Y-46284000D01*
X24440000Y-45800000D02*
X24440000Y-46172000D01*
X23803990Y-46808010D02*
X18215796Y-46808010D01*
X24057990Y-46808010D02*
X23803990Y-46808010D01*
X34186500Y-39266500D02*
X34171000Y-39251000D01*
X34171000Y-39251000D02*
X33544000Y-39878000D01*
X34450001Y-38971999D02*
X34171000Y-39251000D01*
X24139096Y-46808010D02*
X24057990Y-46808010D01*
X24440000Y-46507106D02*
X24139096Y-46808010D01*
X24440000Y-46507106D02*
X24740904Y-46808010D01*
X24440000Y-45800000D02*
X24440000Y-46507106D01*
X35306000Y-42250002D02*
X34450001Y-41394003D01*
X35306000Y-45298288D02*
X35306000Y-42250002D01*
X34186500Y-40520500D02*
X34186500Y-39266500D01*
X33544000Y-39894000D02*
X34450001Y-40800001D01*
X33544000Y-39878000D02*
X33544000Y-39894000D01*
X34450001Y-40800001D02*
X34450001Y-38971999D01*
X34450001Y-41394003D02*
X34450001Y-40800001D01*
X34812278Y-45792010D02*
X35306000Y-45298288D01*
X32941510Y-45792010D02*
X34812278Y-45792010D01*
X32766000Y-45616500D02*
X32941510Y-45792010D01*
X32766000Y-46482000D02*
X32766000Y-45616500D01*
X32439990Y-46808010D02*
X32766000Y-46482000D01*
X24740904Y-46808010D02*
X32439990Y-46808010D01*
D19*
X18897000Y-23900000D02*
X19000000Y-24003000D01*
X17905000Y-23900000D02*
X18897000Y-23900000D01*
D20*
X21103500Y-24003000D02*
X21336000Y-23770500D01*
X19000000Y-24003000D02*
X21103500Y-24003000D01*
D19*
X18650000Y-21100000D02*
X18650000Y-20975000D01*
X18725001Y-18824999D02*
X18650000Y-18900000D01*
D20*
X21500000Y-21462500D02*
X21287500Y-21462500D01*
D21*
X21500000Y-20050000D02*
X21750000Y-19800000D01*
D20*
X23035000Y-21590000D02*
X23000000Y-21625000D01*
D21*
X21336000Y-21568500D02*
X22803500Y-21568500D01*
D19*
X33125000Y-36875000D02*
X33000000Y-37000000D01*
D20*
X33290000Y-37290000D02*
X33000000Y-37000000D01*
X33000000Y-37000000D02*
X28702000Y-32702000D01*
D21*
X22825000Y-21590000D02*
X22803500Y-21568500D01*
D20*
X21336000Y-21568500D02*
X20298500Y-21568500D01*
X20298500Y-21568500D02*
X19830000Y-21100000D01*
X22825000Y-21590000D02*
X22426000Y-21590000D01*
D21*
X21500000Y-20664000D02*
X21500000Y-20050000D01*
D20*
X22426000Y-21590000D02*
X21500000Y-20664000D01*
D21*
X21500000Y-21462500D02*
X21500000Y-20664000D01*
D20*
X21064000Y-21100000D02*
X21500000Y-20664000D01*
X21750000Y-19906000D02*
X20556000Y-21100000D01*
X21750000Y-19800000D02*
X21750000Y-19906000D01*
X20556000Y-21100000D02*
X21064000Y-21100000D01*
X19830000Y-21100000D02*
X20556000Y-21100000D01*
X22086000Y-19800000D02*
X23876000Y-21590000D01*
X21750000Y-19800000D02*
X22086000Y-19800000D01*
D21*
X23876000Y-21590000D02*
X22825000Y-21590000D01*
D20*
X22825000Y-21590000D02*
X22825000Y-21047000D01*
X21750000Y-19972000D02*
X21750000Y-19800000D01*
X22825000Y-21047000D02*
X21750000Y-19972000D01*
X21750000Y-20515000D02*
X22803500Y-21568500D01*
X21750000Y-19800000D02*
X21750000Y-20515000D01*
X21750000Y-19800000D02*
X21348000Y-19800000D01*
X20048000Y-21100000D02*
X19830000Y-21100000D01*
X21348000Y-19800000D02*
X20048000Y-21100000D01*
X28702000Y-32702000D02*
X28702000Y-29210000D01*
D19*
X28126978Y-23200000D02*
X27849990Y-23476988D01*
X28562500Y-23200000D02*
X28126978Y-23200000D01*
D20*
X20713000Y-19800000D02*
X19413000Y-21100000D01*
X21750000Y-19800000D02*
X20713000Y-19800000D01*
X19830000Y-21100000D02*
X19413000Y-21100000D01*
D21*
X22340000Y-19800000D02*
X24130000Y-21590000D01*
X21750000Y-19800000D02*
X22340000Y-19800000D01*
X24130000Y-21590000D02*
X23876000Y-21590000D01*
X26162000Y-21590000D02*
X24130000Y-21590000D01*
D20*
X32643999Y-37356001D02*
X33000000Y-37000000D01*
X32643999Y-41256499D02*
X32643999Y-37356001D01*
X34290000Y-42902500D02*
X32643999Y-41256499D01*
D19*
X27849990Y-23476988D02*
X27849990Y-24220010D01*
D20*
X27849990Y-28357990D02*
X28702000Y-29210000D01*
X27849990Y-24220010D02*
X27849990Y-28357990D01*
X19295510Y-21695500D02*
X18700010Y-21100000D01*
X21336000Y-21695500D02*
X19295510Y-21695500D01*
X19413000Y-21100000D02*
X19413000Y-21191000D01*
X19413000Y-21191000D02*
X19685000Y-21463000D01*
D19*
X18650000Y-18900000D02*
X18650000Y-21100000D01*
D20*
X20368000Y-19800000D02*
X19068000Y-21100000D01*
X21750000Y-19800000D02*
X20368000Y-19800000D01*
X19068000Y-21100000D02*
X18700010Y-21100000D01*
X19413000Y-21100000D02*
X19068000Y-21100000D01*
X19068000Y-21100000D02*
X19068000Y-20810000D01*
X19068000Y-20810000D02*
X19812000Y-20066000D01*
X19068000Y-21100000D02*
X19068000Y-20302000D01*
X19068000Y-20302000D02*
X19431000Y-19939000D01*
X19068000Y-19576000D02*
X18923000Y-19431000D01*
X19068000Y-19794000D02*
X19050000Y-19812000D01*
X19068000Y-19576000D02*
X19068000Y-19794000D01*
X19050000Y-19812000D02*
X18796000Y-19812000D01*
X18796000Y-20447000D02*
X19068000Y-20719000D01*
X18796000Y-19812000D02*
X18796000Y-20447000D01*
X19068000Y-21100000D02*
X19068000Y-20719000D01*
X21526000Y-19576000D02*
X21750000Y-19800000D01*
D22*
X18650000Y-18904000D02*
X19322000Y-19576000D01*
X18650000Y-18900000D02*
X18650000Y-18904000D01*
D20*
X19068000Y-19576000D02*
X19322000Y-19576000D01*
D22*
X19431000Y-19939000D02*
X19812000Y-19939000D01*
X19957000Y-19794000D02*
X19957000Y-19576000D01*
X19812000Y-19939000D02*
X19957000Y-19794000D01*
D20*
X19957000Y-19576000D02*
X21526000Y-19576000D01*
X19322000Y-19576000D02*
X19957000Y-19576000D01*
D22*
X19431000Y-19304000D02*
X19939000Y-19304000D01*
X18650000Y-18900000D02*
X19027000Y-18900000D01*
X19027000Y-18900000D02*
X19431000Y-19304000D01*
X21254000Y-19304000D02*
X21750000Y-19800000D01*
X19939000Y-19304000D02*
X21254000Y-19304000D01*
X19939000Y-19304000D02*
X19685000Y-19304000D01*
X19939000Y-19304000D02*
X19304000Y-18669000D01*
X19304000Y-18669000D02*
X18796000Y-18669000D01*
M02*
