M48
; DRILL file {KiCad (5.1.9)-1} date 12/20/21 21:32:55
; FORMAT={-:-/ absolute / metric / decimal}
; #@! TF.CreationDate,2021-12-20T21:32:55+01:00
; #@! TF.GenerationSoftware,Kicad,Pcbnew,(5.1.9)-1
; #@! TF.FileFunction,Plated,1,2,PTH
FMAT,2
METRIC
T1C0.400
T2C0.650
T3C1.500
T4C2.000
%
G90
G05
T1
X13.97Y-33.02
X15.24Y-27.432
X19.0Y-26.5
X19.3Y-23.7
X23.4Y-29.178
X23.4Y-31.496
X25.3Y-28.2
X26.162Y-21.59
X28.702Y-28.956
X29.972Y-26.035
X30.734Y-37.084
X30.734Y-37.084
X31.372Y-33.652
X33.782Y-33.02
X35.56Y-37.084
X36.25Y-21.75
T2
X23.25Y-45.8
X24.44Y-45.8
X25.71Y-45.8
X26.98Y-45.8
T3
X17.0Y-37.0
X33.0Y-37.0
T4
X25.0Y-14.5
T0
M30
