G04 #@! TF.GenerationSoftware,KiCad,Pcbnew,(5.1.9)-1*
G04 #@! TF.CreationDate,2021-12-18T13:55:14+01:00*
G04 #@! TF.ProjectId,Omamori,4f6d616d-6f72-4692-9e6b-696361645f70,rev?*
G04 #@! TF.SameCoordinates,Original*
G04 #@! TF.FileFunction,Copper,L2,Bot*
G04 #@! TF.FilePolarity,Positive*
%FSLAX46Y46*%
G04 Gerber Fmt 4.6, Leading zero omitted, Abs format (unit mm)*
G04 Created by KiCad (PCBNEW (5.1.9)-1) date 2021-12-18 13:55:14*
%MOMM*%
%LPD*%
G01*
G04 APERTURE LIST*
G04 #@! TA.AperFunction,SMDPad,CuDef*
%ADD10R,0.900000X0.800000*%
G04 #@! TD*
G04 #@! TA.AperFunction,ComponentPad*
%ADD11C,1.000000*%
G04 #@! TD*
G04 #@! TA.AperFunction,ComponentPad*
%ADD12O,1.000000X1.000000*%
G04 #@! TD*
G04 #@! TA.AperFunction,SMDPad,CuDef*
%ADD13R,3.400000X1.300000*%
G04 #@! TD*
G04 #@! TA.AperFunction,SMDPad,CuDef*
%ADD14R,1.300000X3.400000*%
G04 #@! TD*
G04 #@! TA.AperFunction,ComponentPad*
%ADD15C,2.000000*%
G04 #@! TD*
G04 #@! TA.AperFunction,SMDPad,CuDef*
%ADD16R,0.400000X0.900000*%
G04 #@! TD*
G04 #@! TA.AperFunction,ViaPad*
%ADD17C,2.500000*%
G04 #@! TD*
G04 #@! TA.AperFunction,ViaPad*
%ADD18C,0.800000*%
G04 #@! TD*
G04 #@! TA.AperFunction,Conductor*
%ADD19C,0.250000*%
G04 #@! TD*
G04 #@! TA.AperFunction,Conductor*
%ADD20C,0.500000*%
G04 #@! TD*
G04 #@! TA.AperFunction,Conductor*
%ADD21C,1.000000*%
G04 #@! TD*
G04 APERTURE END LIST*
G04 #@! TA.AperFunction,SMDPad,CuDef*
G36*
G01*
X28237500Y-22075000D02*
X28887500Y-22075000D01*
G75*
G02*
X28950000Y-22137500I0J-62500D01*
G01*
X28950000Y-22262500D01*
G75*
G02*
X28887500Y-22325000I-62500J0D01*
G01*
X28237500Y-22325000D01*
G75*
G02*
X28175000Y-22262500I0J62500D01*
G01*
X28175000Y-22137500D01*
G75*
G02*
X28237500Y-22075000I62500J0D01*
G01*
G37*
G04 #@! TD.AperFunction*
G04 #@! TA.AperFunction,SMDPad,CuDef*
G36*
G01*
X28237500Y-22575000D02*
X28887500Y-22575000D01*
G75*
G02*
X28950000Y-22637500I0J-62500D01*
G01*
X28950000Y-22762500D01*
G75*
G02*
X28887500Y-22825000I-62500J0D01*
G01*
X28237500Y-22825000D01*
G75*
G02*
X28175000Y-22762500I0J62500D01*
G01*
X28175000Y-22637500D01*
G75*
G02*
X28237500Y-22575000I62500J0D01*
G01*
G37*
G04 #@! TD.AperFunction*
G04 #@! TA.AperFunction,SMDPad,CuDef*
G36*
G01*
X28237500Y-23075000D02*
X28887500Y-23075000D01*
G75*
G02*
X28950000Y-23137500I0J-62500D01*
G01*
X28950000Y-23262500D01*
G75*
G02*
X28887500Y-23325000I-62500J0D01*
G01*
X28237500Y-23325000D01*
G75*
G02*
X28175000Y-23262500I0J62500D01*
G01*
X28175000Y-23137500D01*
G75*
G02*
X28237500Y-23075000I62500J0D01*
G01*
G37*
G04 #@! TD.AperFunction*
G04 #@! TA.AperFunction,SMDPad,CuDef*
G36*
G01*
X28237500Y-23575000D02*
X28887500Y-23575000D01*
G75*
G02*
X28950000Y-23637500I0J-62500D01*
G01*
X28950000Y-23762500D01*
G75*
G02*
X28887500Y-23825000I-62500J0D01*
G01*
X28237500Y-23825000D01*
G75*
G02*
X28175000Y-23762500I0J62500D01*
G01*
X28175000Y-23637500D01*
G75*
G02*
X28237500Y-23575000I62500J0D01*
G01*
G37*
G04 #@! TD.AperFunction*
G04 #@! TA.AperFunction,SMDPad,CuDef*
G36*
G01*
X29237500Y-24050000D02*
X29362500Y-24050000D01*
G75*
G02*
X29425000Y-24112500I0J-62500D01*
G01*
X29425000Y-24762500D01*
G75*
G02*
X29362500Y-24825000I-62500J0D01*
G01*
X29237500Y-24825000D01*
G75*
G02*
X29175000Y-24762500I0J62500D01*
G01*
X29175000Y-24112500D01*
G75*
G02*
X29237500Y-24050000I62500J0D01*
G01*
G37*
G04 #@! TD.AperFunction*
G04 #@! TA.AperFunction,SMDPad,CuDef*
G36*
G01*
X29737500Y-24050000D02*
X29862500Y-24050000D01*
G75*
G02*
X29925000Y-24112500I0J-62500D01*
G01*
X29925000Y-24762500D01*
G75*
G02*
X29862500Y-24825000I-62500J0D01*
G01*
X29737500Y-24825000D01*
G75*
G02*
X29675000Y-24762500I0J62500D01*
G01*
X29675000Y-24112500D01*
G75*
G02*
X29737500Y-24050000I62500J0D01*
G01*
G37*
G04 #@! TD.AperFunction*
G04 #@! TA.AperFunction,SMDPad,CuDef*
G36*
G01*
X30237500Y-24050000D02*
X30362500Y-24050000D01*
G75*
G02*
X30425000Y-24112500I0J-62500D01*
G01*
X30425000Y-24762500D01*
G75*
G02*
X30362500Y-24825000I-62500J0D01*
G01*
X30237500Y-24825000D01*
G75*
G02*
X30175000Y-24762500I0J62500D01*
G01*
X30175000Y-24112500D01*
G75*
G02*
X30237500Y-24050000I62500J0D01*
G01*
G37*
G04 #@! TD.AperFunction*
G04 #@! TA.AperFunction,SMDPad,CuDef*
G36*
G01*
X30737500Y-24050000D02*
X30862500Y-24050000D01*
G75*
G02*
X30925000Y-24112500I0J-62500D01*
G01*
X30925000Y-24762500D01*
G75*
G02*
X30862500Y-24825000I-62500J0D01*
G01*
X30737500Y-24825000D01*
G75*
G02*
X30675000Y-24762500I0J62500D01*
G01*
X30675000Y-24112500D01*
G75*
G02*
X30737500Y-24050000I62500J0D01*
G01*
G37*
G04 #@! TD.AperFunction*
G04 #@! TA.AperFunction,SMDPad,CuDef*
G36*
G01*
X31212500Y-23575000D02*
X31862500Y-23575000D01*
G75*
G02*
X31925000Y-23637500I0J-62500D01*
G01*
X31925000Y-23762500D01*
G75*
G02*
X31862500Y-23825000I-62500J0D01*
G01*
X31212500Y-23825000D01*
G75*
G02*
X31150000Y-23762500I0J62500D01*
G01*
X31150000Y-23637500D01*
G75*
G02*
X31212500Y-23575000I62500J0D01*
G01*
G37*
G04 #@! TD.AperFunction*
G04 #@! TA.AperFunction,SMDPad,CuDef*
G36*
G01*
X31212500Y-23075000D02*
X31862500Y-23075000D01*
G75*
G02*
X31925000Y-23137500I0J-62500D01*
G01*
X31925000Y-23262500D01*
G75*
G02*
X31862500Y-23325000I-62500J0D01*
G01*
X31212500Y-23325000D01*
G75*
G02*
X31150000Y-23262500I0J62500D01*
G01*
X31150000Y-23137500D01*
G75*
G02*
X31212500Y-23075000I62500J0D01*
G01*
G37*
G04 #@! TD.AperFunction*
G04 #@! TA.AperFunction,SMDPad,CuDef*
G36*
G01*
X31212500Y-22575000D02*
X31862500Y-22575000D01*
G75*
G02*
X31925000Y-22637500I0J-62500D01*
G01*
X31925000Y-22762500D01*
G75*
G02*
X31862500Y-22825000I-62500J0D01*
G01*
X31212500Y-22825000D01*
G75*
G02*
X31150000Y-22762500I0J62500D01*
G01*
X31150000Y-22637500D01*
G75*
G02*
X31212500Y-22575000I62500J0D01*
G01*
G37*
G04 #@! TD.AperFunction*
G04 #@! TA.AperFunction,SMDPad,CuDef*
G36*
G01*
X31212500Y-22075000D02*
X31862500Y-22075000D01*
G75*
G02*
X31925000Y-22137500I0J-62500D01*
G01*
X31925000Y-22262500D01*
G75*
G02*
X31862500Y-22325000I-62500J0D01*
G01*
X31212500Y-22325000D01*
G75*
G02*
X31150000Y-22262500I0J62500D01*
G01*
X31150000Y-22137500D01*
G75*
G02*
X31212500Y-22075000I62500J0D01*
G01*
G37*
G04 #@! TD.AperFunction*
G04 #@! TA.AperFunction,SMDPad,CuDef*
G36*
G01*
X30737500Y-21075000D02*
X30862500Y-21075000D01*
G75*
G02*
X30925000Y-21137500I0J-62500D01*
G01*
X30925000Y-21787500D01*
G75*
G02*
X30862500Y-21850000I-62500J0D01*
G01*
X30737500Y-21850000D01*
G75*
G02*
X30675000Y-21787500I0J62500D01*
G01*
X30675000Y-21137500D01*
G75*
G02*
X30737500Y-21075000I62500J0D01*
G01*
G37*
G04 #@! TD.AperFunction*
G04 #@! TA.AperFunction,SMDPad,CuDef*
G36*
G01*
X30237500Y-21075000D02*
X30362500Y-21075000D01*
G75*
G02*
X30425000Y-21137500I0J-62500D01*
G01*
X30425000Y-21787500D01*
G75*
G02*
X30362500Y-21850000I-62500J0D01*
G01*
X30237500Y-21850000D01*
G75*
G02*
X30175000Y-21787500I0J62500D01*
G01*
X30175000Y-21137500D01*
G75*
G02*
X30237500Y-21075000I62500J0D01*
G01*
G37*
G04 #@! TD.AperFunction*
G04 #@! TA.AperFunction,SMDPad,CuDef*
G36*
G01*
X29737500Y-21075000D02*
X29862500Y-21075000D01*
G75*
G02*
X29925000Y-21137500I0J-62500D01*
G01*
X29925000Y-21787500D01*
G75*
G02*
X29862500Y-21850000I-62500J0D01*
G01*
X29737500Y-21850000D01*
G75*
G02*
X29675000Y-21787500I0J62500D01*
G01*
X29675000Y-21137500D01*
G75*
G02*
X29737500Y-21075000I62500J0D01*
G01*
G37*
G04 #@! TD.AperFunction*
G04 #@! TA.AperFunction,SMDPad,CuDef*
G36*
G01*
X29237500Y-21075000D02*
X29362500Y-21075000D01*
G75*
G02*
X29425000Y-21137500I0J-62500D01*
G01*
X29425000Y-21787500D01*
G75*
G02*
X29362500Y-21850000I-62500J0D01*
G01*
X29237500Y-21850000D01*
G75*
G02*
X29175000Y-21787500I0J62500D01*
G01*
X29175000Y-21137500D01*
G75*
G02*
X29237500Y-21075000I62500J0D01*
G01*
G37*
G04 #@! TD.AperFunction*
G04 #@! TA.AperFunction,SMDPad,CuDef*
G36*
G01*
X31004500Y-44875000D02*
X31479500Y-44875000D01*
G75*
G02*
X31717000Y-45112500I0J-237500D01*
G01*
X31717000Y-45612500D01*
G75*
G02*
X31479500Y-45850000I-237500J0D01*
G01*
X31004500Y-45850000D01*
G75*
G02*
X30767000Y-45612500I0J237500D01*
G01*
X30767000Y-45112500D01*
G75*
G02*
X31004500Y-44875000I237500J0D01*
G01*
G37*
G04 #@! TD.AperFunction*
G04 #@! TA.AperFunction,SMDPad,CuDef*
G36*
G01*
X31004500Y-43050000D02*
X31479500Y-43050000D01*
G75*
G02*
X31717000Y-43287500I0J-237500D01*
G01*
X31717000Y-43787500D01*
G75*
G02*
X31479500Y-44025000I-237500J0D01*
G01*
X31004500Y-44025000D01*
G75*
G02*
X30767000Y-43787500I0J237500D01*
G01*
X30767000Y-43287500D01*
G75*
G02*
X31004500Y-43050000I237500J0D01*
G01*
G37*
G04 #@! TD.AperFunction*
G04 #@! TA.AperFunction,SMDPad,CuDef*
G36*
G01*
X33003500Y-44025000D02*
X32528500Y-44025000D01*
G75*
G02*
X32291000Y-43787500I0J237500D01*
G01*
X32291000Y-43287500D01*
G75*
G02*
X32528500Y-43050000I237500J0D01*
G01*
X33003500Y-43050000D01*
G75*
G02*
X33241000Y-43287500I0J-237500D01*
G01*
X33241000Y-43787500D01*
G75*
G02*
X33003500Y-44025000I-237500J0D01*
G01*
G37*
G04 #@! TD.AperFunction*
G04 #@! TA.AperFunction,SMDPad,CuDef*
G36*
G01*
X33003500Y-45850000D02*
X32528500Y-45850000D01*
G75*
G02*
X32291000Y-45612500I0J237500D01*
G01*
X32291000Y-45112500D01*
G75*
G02*
X32528500Y-44875000I237500J0D01*
G01*
X33003500Y-44875000D01*
G75*
G02*
X33241000Y-45112500I0J-237500D01*
G01*
X33241000Y-45612500D01*
G75*
G02*
X33003500Y-45850000I-237500J0D01*
G01*
G37*
G04 #@! TD.AperFunction*
G04 #@! TA.AperFunction,SMDPad,CuDef*
G36*
G01*
X34527500Y-44025000D02*
X34052500Y-44025000D01*
G75*
G02*
X33815000Y-43787500I0J237500D01*
G01*
X33815000Y-43287500D01*
G75*
G02*
X34052500Y-43050000I237500J0D01*
G01*
X34527500Y-43050000D01*
G75*
G02*
X34765000Y-43287500I0J-237500D01*
G01*
X34765000Y-43787500D01*
G75*
G02*
X34527500Y-44025000I-237500J0D01*
G01*
G37*
G04 #@! TD.AperFunction*
G04 #@! TA.AperFunction,SMDPad,CuDef*
G36*
G01*
X34527500Y-45850000D02*
X34052500Y-45850000D01*
G75*
G02*
X33815000Y-45612500I0J237500D01*
G01*
X33815000Y-45112500D01*
G75*
G02*
X34052500Y-44875000I237500J0D01*
G01*
X34527500Y-44875000D01*
G75*
G02*
X34765000Y-45112500I0J-237500D01*
G01*
X34765000Y-45612500D01*
G75*
G02*
X34527500Y-45850000I-237500J0D01*
G01*
G37*
G04 #@! TD.AperFunction*
D10*
X33544000Y-40894000D03*
X35544000Y-41844000D03*
X35544000Y-39944000D03*
D11*
X23250000Y-45800000D03*
D12*
X26980000Y-45800000D03*
X25710000Y-45800000D03*
X24440000Y-45800000D03*
G04 #@! TA.AperFunction,SMDPad,CuDef*
G36*
G01*
X13945000Y-30300000D02*
X14245000Y-30300000D01*
G75*
G02*
X14395000Y-30450000I0J-150000D01*
G01*
X14395000Y-31750000D01*
G75*
G02*
X14245000Y-31900000I-150000J0D01*
G01*
X13945000Y-31900000D01*
G75*
G02*
X13795000Y-31750000I0J150000D01*
G01*
X13795000Y-30450000D01*
G75*
G02*
X13945000Y-30300000I150000J0D01*
G01*
G37*
G04 #@! TD.AperFunction*
G04 #@! TA.AperFunction,SMDPad,CuDef*
G36*
G01*
X15215000Y-30300000D02*
X15515000Y-30300000D01*
G75*
G02*
X15665000Y-30450000I0J-150000D01*
G01*
X15665000Y-31750000D01*
G75*
G02*
X15515000Y-31900000I-150000J0D01*
G01*
X15215000Y-31900000D01*
G75*
G02*
X15065000Y-31750000I0J150000D01*
G01*
X15065000Y-30450000D01*
G75*
G02*
X15215000Y-30300000I150000J0D01*
G01*
G37*
G04 #@! TD.AperFunction*
G04 #@! TA.AperFunction,SMDPad,CuDef*
G36*
G01*
X16485000Y-30300000D02*
X16785000Y-30300000D01*
G75*
G02*
X16935000Y-30450000I0J-150000D01*
G01*
X16935000Y-31750000D01*
G75*
G02*
X16785000Y-31900000I-150000J0D01*
G01*
X16485000Y-31900000D01*
G75*
G02*
X16335000Y-31750000I0J150000D01*
G01*
X16335000Y-30450000D01*
G75*
G02*
X16485000Y-30300000I150000J0D01*
G01*
G37*
G04 #@! TD.AperFunction*
G04 #@! TA.AperFunction,SMDPad,CuDef*
G36*
G01*
X17755000Y-30300000D02*
X18055000Y-30300000D01*
G75*
G02*
X18205000Y-30450000I0J-150000D01*
G01*
X18205000Y-31750000D01*
G75*
G02*
X18055000Y-31900000I-150000J0D01*
G01*
X17755000Y-31900000D01*
G75*
G02*
X17605000Y-31750000I0J150000D01*
G01*
X17605000Y-30450000D01*
G75*
G02*
X17755000Y-30300000I150000J0D01*
G01*
G37*
G04 #@! TD.AperFunction*
G04 #@! TA.AperFunction,SMDPad,CuDef*
G36*
G01*
X17755000Y-23100000D02*
X18055000Y-23100000D01*
G75*
G02*
X18205000Y-23250000I0J-150000D01*
G01*
X18205000Y-24550000D01*
G75*
G02*
X18055000Y-24700000I-150000J0D01*
G01*
X17755000Y-24700000D01*
G75*
G02*
X17605000Y-24550000I0J150000D01*
G01*
X17605000Y-23250000D01*
G75*
G02*
X17755000Y-23100000I150000J0D01*
G01*
G37*
G04 #@! TD.AperFunction*
G04 #@! TA.AperFunction,SMDPad,CuDef*
G36*
G01*
X16485000Y-23100000D02*
X16785000Y-23100000D01*
G75*
G02*
X16935000Y-23250000I0J-150000D01*
G01*
X16935000Y-24550000D01*
G75*
G02*
X16785000Y-24700000I-150000J0D01*
G01*
X16485000Y-24700000D01*
G75*
G02*
X16335000Y-24550000I0J150000D01*
G01*
X16335000Y-23250000D01*
G75*
G02*
X16485000Y-23100000I150000J0D01*
G01*
G37*
G04 #@! TD.AperFunction*
G04 #@! TA.AperFunction,SMDPad,CuDef*
G36*
G01*
X15215000Y-23100000D02*
X15515000Y-23100000D01*
G75*
G02*
X15665000Y-23250000I0J-150000D01*
G01*
X15665000Y-24550000D01*
G75*
G02*
X15515000Y-24700000I-150000J0D01*
G01*
X15215000Y-24700000D01*
G75*
G02*
X15065000Y-24550000I0J150000D01*
G01*
X15065000Y-23250000D01*
G75*
G02*
X15215000Y-23100000I150000J0D01*
G01*
G37*
G04 #@! TD.AperFunction*
G04 #@! TA.AperFunction,SMDPad,CuDef*
G36*
G01*
X13945000Y-23100000D02*
X14245000Y-23100000D01*
G75*
G02*
X14395000Y-23250000I0J-150000D01*
G01*
X14395000Y-24550000D01*
G75*
G02*
X14245000Y-24700000I-150000J0D01*
G01*
X13945000Y-24700000D01*
G75*
G02*
X13795000Y-24550000I0J150000D01*
G01*
X13795000Y-23250000D01*
G75*
G02*
X13945000Y-23100000I150000J0D01*
G01*
G37*
G04 #@! TD.AperFunction*
G04 #@! TA.AperFunction,SMDPad,CuDef*
G36*
G01*
X20861000Y-23056000D02*
X21811000Y-23056000D01*
G75*
G02*
X22061000Y-23306000I0J-250000D01*
G01*
X22061000Y-23981000D01*
G75*
G02*
X21811000Y-24231000I-250000J0D01*
G01*
X20861000Y-24231000D01*
G75*
G02*
X20611000Y-23981000I0J250000D01*
G01*
X20611000Y-23306000D01*
G75*
G02*
X20861000Y-23056000I250000J0D01*
G01*
G37*
G04 #@! TD.AperFunction*
G04 #@! TA.AperFunction,SMDPad,CuDef*
G36*
G01*
X20861000Y-20981000D02*
X21811000Y-20981000D01*
G75*
G02*
X22061000Y-21231000I0J-250000D01*
G01*
X22061000Y-21906000D01*
G75*
G02*
X21811000Y-22156000I-250000J0D01*
G01*
X20861000Y-22156000D01*
G75*
G02*
X20611000Y-21906000I0J250000D01*
G01*
X20611000Y-21231000D01*
G75*
G02*
X20861000Y-20981000I250000J0D01*
G01*
G37*
G04 #@! TD.AperFunction*
G04 #@! TA.AperFunction,SMDPad,CuDef*
G36*
G01*
X15025000Y-20450000D02*
X15975000Y-20450000D01*
G75*
G02*
X16225000Y-20700000I0J-250000D01*
G01*
X16225000Y-21375000D01*
G75*
G02*
X15975000Y-21625000I-250000J0D01*
G01*
X15025000Y-21625000D01*
G75*
G02*
X14775000Y-21375000I0J250000D01*
G01*
X14775000Y-20700000D01*
G75*
G02*
X15025000Y-20450000I250000J0D01*
G01*
G37*
G04 #@! TD.AperFunction*
G04 #@! TA.AperFunction,SMDPad,CuDef*
G36*
G01*
X15025000Y-18375000D02*
X15975000Y-18375000D01*
G75*
G02*
X16225000Y-18625000I0J-250000D01*
G01*
X16225000Y-19300000D01*
G75*
G02*
X15975000Y-19550000I-250000J0D01*
G01*
X15025000Y-19550000D01*
G75*
G02*
X14775000Y-19300000I0J250000D01*
G01*
X14775000Y-18625000D01*
G75*
G02*
X15025000Y-18375000I250000J0D01*
G01*
G37*
G04 #@! TD.AperFunction*
G04 #@! TA.AperFunction,SMDPad,CuDef*
G36*
G01*
X33650000Y-16762500D02*
X33650000Y-17237500D01*
G75*
G02*
X33412500Y-17475000I-237500J0D01*
G01*
X32837500Y-17475000D01*
G75*
G02*
X32600000Y-17237500I0J237500D01*
G01*
X32600000Y-16762500D01*
G75*
G02*
X32837500Y-16525000I237500J0D01*
G01*
X33412500Y-16525000D01*
G75*
G02*
X33650000Y-16762500I0J-237500D01*
G01*
G37*
G04 #@! TD.AperFunction*
G04 #@! TA.AperFunction,SMDPad,CuDef*
G36*
G01*
X35400000Y-16762500D02*
X35400000Y-17237500D01*
G75*
G02*
X35162500Y-17475000I-237500J0D01*
G01*
X34587500Y-17475000D01*
G75*
G02*
X34350000Y-17237500I0J237500D01*
G01*
X34350000Y-16762500D01*
G75*
G02*
X34587500Y-16525000I237500J0D01*
G01*
X35162500Y-16525000D01*
G75*
G02*
X35400000Y-16762500I0J-237500D01*
G01*
G37*
G04 #@! TD.AperFunction*
G04 #@! TA.AperFunction,SMDPad,CuDef*
G36*
G01*
X31737500Y-18575000D02*
X31262500Y-18575000D01*
G75*
G02*
X31025000Y-18337500I0J237500D01*
G01*
X31025000Y-17837500D01*
G75*
G02*
X31262500Y-17600000I237500J0D01*
G01*
X31737500Y-17600000D01*
G75*
G02*
X31975000Y-17837500I0J-237500D01*
G01*
X31975000Y-18337500D01*
G75*
G02*
X31737500Y-18575000I-237500J0D01*
G01*
G37*
G04 #@! TD.AperFunction*
G04 #@! TA.AperFunction,SMDPad,CuDef*
G36*
G01*
X31737500Y-20400000D02*
X31262500Y-20400000D01*
G75*
G02*
X31025000Y-20162500I0J237500D01*
G01*
X31025000Y-19662500D01*
G75*
G02*
X31262500Y-19425000I237500J0D01*
G01*
X31737500Y-19425000D01*
G75*
G02*
X31975000Y-19662500I0J-237500D01*
G01*
X31975000Y-20162500D01*
G75*
G02*
X31737500Y-20400000I-237500J0D01*
G01*
G37*
G04 #@! TD.AperFunction*
G04 #@! TA.AperFunction,SMDPad,CuDef*
G36*
G01*
X26119000Y-22488000D02*
X26881000Y-22488000D01*
G75*
G02*
X27262000Y-22869000I0J-381000D01*
G01*
X27262000Y-23631000D01*
G75*
G02*
X26881000Y-24012000I-381000J0D01*
G01*
X26119000Y-24012000D01*
G75*
G02*
X25738000Y-23631000I0J381000D01*
G01*
X25738000Y-22869000D01*
G75*
G02*
X26119000Y-22488000I381000J0D01*
G01*
G37*
G04 #@! TD.AperFunction*
G04 #@! TA.AperFunction,SMDPad,CuDef*
G36*
G01*
X24119000Y-22488000D02*
X24881000Y-22488000D01*
G75*
G02*
X25262000Y-22869000I0J-381000D01*
G01*
X25262000Y-23631000D01*
G75*
G02*
X24881000Y-24012000I-381000J0D01*
G01*
X24119000Y-24012000D01*
G75*
G02*
X23738000Y-23631000I0J381000D01*
G01*
X23738000Y-22869000D01*
G75*
G02*
X24119000Y-22488000I381000J0D01*
G01*
G37*
G04 #@! TD.AperFunction*
G04 #@! TA.AperFunction,SMDPad,CuDef*
G36*
G01*
X24119000Y-25988000D02*
X24881000Y-25988000D01*
G75*
G02*
X25262000Y-26369000I0J-381000D01*
G01*
X25262000Y-27131000D01*
G75*
G02*
X24881000Y-27512000I-381000J0D01*
G01*
X24119000Y-27512000D01*
G75*
G02*
X23738000Y-27131000I0J381000D01*
G01*
X23738000Y-26369000D01*
G75*
G02*
X24119000Y-25988000I381000J0D01*
G01*
G37*
G04 #@! TD.AperFunction*
G04 #@! TA.AperFunction,SMDPad,CuDef*
G36*
G01*
X26119000Y-25988000D02*
X26881000Y-25988000D01*
G75*
G02*
X27262000Y-26369000I0J-381000D01*
G01*
X27262000Y-27131000D01*
G75*
G02*
X26881000Y-27512000I-381000J0D01*
G01*
X26119000Y-27512000D01*
G75*
G02*
X25738000Y-27131000I0J381000D01*
G01*
X25738000Y-26369000D01*
G75*
G02*
X26119000Y-25988000I381000J0D01*
G01*
G37*
G04 #@! TD.AperFunction*
D13*
X21750000Y-17700000D03*
X21750000Y-19800000D03*
D14*
X27200000Y-18750000D03*
X29300000Y-18750000D03*
G04 #@! TA.AperFunction,SMDPad,CuDef*
G36*
G01*
X33650000Y-19762500D02*
X33650000Y-20237500D01*
G75*
G02*
X33412500Y-20475000I-237500J0D01*
G01*
X32837500Y-20475000D01*
G75*
G02*
X32600000Y-20237500I0J237500D01*
G01*
X32600000Y-19762500D01*
G75*
G02*
X32837500Y-19525000I237500J0D01*
G01*
X33412500Y-19525000D01*
G75*
G02*
X33650000Y-19762500I0J-237500D01*
G01*
G37*
G04 #@! TD.AperFunction*
G04 #@! TA.AperFunction,SMDPad,CuDef*
G36*
G01*
X35400000Y-19762500D02*
X35400000Y-20237500D01*
G75*
G02*
X35162500Y-20475000I-237500J0D01*
G01*
X34587500Y-20475000D01*
G75*
G02*
X34350000Y-20237500I0J237500D01*
G01*
X34350000Y-19762500D01*
G75*
G02*
X34587500Y-19525000I237500J0D01*
G01*
X35162500Y-19525000D01*
G75*
G02*
X35400000Y-19762500I0J-237500D01*
G01*
G37*
G04 #@! TD.AperFunction*
D15*
X17000000Y-37000000D03*
X33000000Y-37000000D03*
D16*
X18650000Y-18900000D03*
X17350000Y-18900000D03*
X18000000Y-21100000D03*
X18000000Y-18900000D03*
X17350000Y-21100000D03*
X18650000Y-21100000D03*
G04 #@! TA.AperFunction,SMDPad,CuDef*
G36*
G01*
X34350000Y-23237500D02*
X34350000Y-22762500D01*
G75*
G02*
X34587500Y-22525000I237500J0D01*
G01*
X35162500Y-22525000D01*
G75*
G02*
X35400000Y-22762500I0J-237500D01*
G01*
X35400000Y-23237500D01*
G75*
G02*
X35162500Y-23475000I-237500J0D01*
G01*
X34587500Y-23475000D01*
G75*
G02*
X34350000Y-23237500I0J237500D01*
G01*
G37*
G04 #@! TD.AperFunction*
G04 #@! TA.AperFunction,SMDPad,CuDef*
G36*
G01*
X32600000Y-23237500D02*
X32600000Y-22762500D01*
G75*
G02*
X32837500Y-22525000I237500J0D01*
G01*
X33412500Y-22525000D01*
G75*
G02*
X33650000Y-22762500I0J-237500D01*
G01*
X33650000Y-23237500D01*
G75*
G02*
X33412500Y-23475000I-237500J0D01*
G01*
X32837500Y-23475000D01*
G75*
G02*
X32600000Y-23237500I0J237500D01*
G01*
G37*
G04 #@! TD.AperFunction*
G04 #@! TA.AperFunction,SMDPad,CuDef*
G36*
G01*
X34350000Y-27737500D02*
X34350000Y-27262500D01*
G75*
G02*
X34587500Y-27025000I237500J0D01*
G01*
X35162500Y-27025000D01*
G75*
G02*
X35400000Y-27262500I0J-237500D01*
G01*
X35400000Y-27737500D01*
G75*
G02*
X35162500Y-27975000I-237500J0D01*
G01*
X34587500Y-27975000D01*
G75*
G02*
X34350000Y-27737500I0J237500D01*
G01*
G37*
G04 #@! TD.AperFunction*
G04 #@! TA.AperFunction,SMDPad,CuDef*
G36*
G01*
X32600000Y-27737500D02*
X32600000Y-27262500D01*
G75*
G02*
X32837500Y-27025000I237500J0D01*
G01*
X33412500Y-27025000D01*
G75*
G02*
X33650000Y-27262500I0J-237500D01*
G01*
X33650000Y-27737500D01*
G75*
G02*
X33412500Y-27975000I-237500J0D01*
G01*
X32837500Y-27975000D01*
G75*
G02*
X32600000Y-27737500I0J237500D01*
G01*
G37*
G04 #@! TD.AperFunction*
G04 #@! TA.AperFunction,SMDPad,CuDef*
G36*
G01*
X33650000Y-25762500D02*
X33650000Y-26237500D01*
G75*
G02*
X33412500Y-26475000I-237500J0D01*
G01*
X32837500Y-26475000D01*
G75*
G02*
X32600000Y-26237500I0J237500D01*
G01*
X32600000Y-25762500D01*
G75*
G02*
X32837500Y-25525000I237500J0D01*
G01*
X33412500Y-25525000D01*
G75*
G02*
X33650000Y-25762500I0J-237500D01*
G01*
G37*
G04 #@! TD.AperFunction*
G04 #@! TA.AperFunction,SMDPad,CuDef*
G36*
G01*
X35400000Y-25762500D02*
X35400000Y-26237500D01*
G75*
G02*
X35162500Y-26475000I-237500J0D01*
G01*
X34587500Y-26475000D01*
G75*
G02*
X34350000Y-26237500I0J237500D01*
G01*
X34350000Y-25762500D01*
G75*
G02*
X34587500Y-25525000I237500J0D01*
G01*
X35162500Y-25525000D01*
G75*
G02*
X35400000Y-25762500I0J-237500D01*
G01*
G37*
G04 #@! TD.AperFunction*
G04 #@! TA.AperFunction,SMDPad,CuDef*
G36*
G01*
X34350000Y-24737500D02*
X34350000Y-24262500D01*
G75*
G02*
X34587500Y-24025000I237500J0D01*
G01*
X35162500Y-24025000D01*
G75*
G02*
X35400000Y-24262500I0J-237500D01*
G01*
X35400000Y-24737500D01*
G75*
G02*
X35162500Y-24975000I-237500J0D01*
G01*
X34587500Y-24975000D01*
G75*
G02*
X34350000Y-24737500I0J237500D01*
G01*
G37*
G04 #@! TD.AperFunction*
G04 #@! TA.AperFunction,SMDPad,CuDef*
G36*
G01*
X32600000Y-24737500D02*
X32600000Y-24262500D01*
G75*
G02*
X32837500Y-24025000I237500J0D01*
G01*
X33412500Y-24025000D01*
G75*
G02*
X33650000Y-24262500I0J-237500D01*
G01*
X33650000Y-24737500D01*
G75*
G02*
X33412500Y-24975000I-237500J0D01*
G01*
X32837500Y-24975000D01*
G75*
G02*
X32600000Y-24737500I0J237500D01*
G01*
G37*
G04 #@! TD.AperFunction*
G04 #@! TA.AperFunction,SMDPad,CuDef*
G36*
G01*
X29762500Y-28350000D02*
X30237500Y-28350000D01*
G75*
G02*
X30475000Y-28587500I0J-237500D01*
G01*
X30475000Y-29162500D01*
G75*
G02*
X30237500Y-29400000I-237500J0D01*
G01*
X29762500Y-29400000D01*
G75*
G02*
X29525000Y-29162500I0J237500D01*
G01*
X29525000Y-28587500D01*
G75*
G02*
X29762500Y-28350000I237500J0D01*
G01*
G37*
G04 #@! TD.AperFunction*
G04 #@! TA.AperFunction,SMDPad,CuDef*
G36*
G01*
X29762500Y-26600000D02*
X30237500Y-26600000D01*
G75*
G02*
X30475000Y-26837500I0J-237500D01*
G01*
X30475000Y-27412500D01*
G75*
G02*
X30237500Y-27650000I-237500J0D01*
G01*
X29762500Y-27650000D01*
G75*
G02*
X29525000Y-27412500I0J237500D01*
G01*
X29525000Y-26837500D01*
G75*
G02*
X29762500Y-26600000I237500J0D01*
G01*
G37*
G04 #@! TD.AperFunction*
G04 #@! TA.AperFunction,SMDPad,CuDef*
G36*
G01*
X31262500Y-28350000D02*
X31737500Y-28350000D01*
G75*
G02*
X31975000Y-28587500I0J-237500D01*
G01*
X31975000Y-29162500D01*
G75*
G02*
X31737500Y-29400000I-237500J0D01*
G01*
X31262500Y-29400000D01*
G75*
G02*
X31025000Y-29162500I0J237500D01*
G01*
X31025000Y-28587500D01*
G75*
G02*
X31262500Y-28350000I237500J0D01*
G01*
G37*
G04 #@! TD.AperFunction*
G04 #@! TA.AperFunction,SMDPad,CuDef*
G36*
G01*
X31262500Y-26600000D02*
X31737500Y-26600000D01*
G75*
G02*
X31975000Y-26837500I0J-237500D01*
G01*
X31975000Y-27412500D01*
G75*
G02*
X31737500Y-27650000I-237500J0D01*
G01*
X31262500Y-27650000D01*
G75*
G02*
X31025000Y-27412500I0J237500D01*
G01*
X31025000Y-26837500D01*
G75*
G02*
X31262500Y-26600000I237500J0D01*
G01*
G37*
G04 #@! TD.AperFunction*
G04 #@! TA.AperFunction,SMDPad,CuDef*
G36*
G01*
X33650000Y-28762500D02*
X33650000Y-29237500D01*
G75*
G02*
X33412500Y-29475000I-237500J0D01*
G01*
X32837500Y-29475000D01*
G75*
G02*
X32600000Y-29237500I0J237500D01*
G01*
X32600000Y-28762500D01*
G75*
G02*
X32837500Y-28525000I237500J0D01*
G01*
X33412500Y-28525000D01*
G75*
G02*
X33650000Y-28762500I0J-237500D01*
G01*
G37*
G04 #@! TD.AperFunction*
G04 #@! TA.AperFunction,SMDPad,CuDef*
G36*
G01*
X35400000Y-28762500D02*
X35400000Y-29237500D01*
G75*
G02*
X35162500Y-29475000I-237500J0D01*
G01*
X34587500Y-29475000D01*
G75*
G02*
X34350000Y-29237500I0J237500D01*
G01*
X34350000Y-28762500D01*
G75*
G02*
X34587500Y-28525000I237500J0D01*
G01*
X35162500Y-28525000D01*
G75*
G02*
X35400000Y-28762500I0J-237500D01*
G01*
G37*
G04 #@! TD.AperFunction*
G04 #@! TA.AperFunction,SMDPad,CuDef*
G36*
G01*
X22737500Y-26650000D02*
X22262500Y-26650000D01*
G75*
G02*
X22025000Y-26412500I0J237500D01*
G01*
X22025000Y-25837500D01*
G75*
G02*
X22262500Y-25600000I237500J0D01*
G01*
X22737500Y-25600000D01*
G75*
G02*
X22975000Y-25837500I0J-237500D01*
G01*
X22975000Y-26412500D01*
G75*
G02*
X22737500Y-26650000I-237500J0D01*
G01*
G37*
G04 #@! TD.AperFunction*
G04 #@! TA.AperFunction,SMDPad,CuDef*
G36*
G01*
X22737500Y-28400000D02*
X22262500Y-28400000D01*
G75*
G02*
X22025000Y-28162500I0J237500D01*
G01*
X22025000Y-27587500D01*
G75*
G02*
X22262500Y-27350000I237500J0D01*
G01*
X22737500Y-27350000D01*
G75*
G02*
X22975000Y-27587500I0J-237500D01*
G01*
X22975000Y-28162500D01*
G75*
G02*
X22737500Y-28400000I-237500J0D01*
G01*
G37*
G04 #@! TD.AperFunction*
G04 #@! TA.AperFunction,SMDPad,CuDef*
G36*
G01*
X34350000Y-21737500D02*
X34350000Y-21262500D01*
G75*
G02*
X34587500Y-21025000I237500J0D01*
G01*
X35162500Y-21025000D01*
G75*
G02*
X35400000Y-21262500I0J-237500D01*
G01*
X35400000Y-21737500D01*
G75*
G02*
X35162500Y-21975000I-237500J0D01*
G01*
X34587500Y-21975000D01*
G75*
G02*
X34350000Y-21737500I0J237500D01*
G01*
G37*
G04 #@! TD.AperFunction*
G04 #@! TA.AperFunction,SMDPad,CuDef*
G36*
G01*
X32600000Y-21737500D02*
X32600000Y-21262500D01*
G75*
G02*
X32837500Y-21025000I237500J0D01*
G01*
X33412500Y-21025000D01*
G75*
G02*
X33650000Y-21262500I0J-237500D01*
G01*
X33650000Y-21737500D01*
G75*
G02*
X33412500Y-21975000I-237500J0D01*
G01*
X32837500Y-21975000D01*
G75*
G02*
X32600000Y-21737500I0J237500D01*
G01*
G37*
G04 #@! TD.AperFunction*
G04 #@! TA.AperFunction,SMDPad,CuDef*
G36*
G01*
X21237500Y-27150000D02*
X20762500Y-27150000D01*
G75*
G02*
X20525000Y-26912500I0J237500D01*
G01*
X20525000Y-26337500D01*
G75*
G02*
X20762500Y-26100000I237500J0D01*
G01*
X21237500Y-26100000D01*
G75*
G02*
X21475000Y-26337500I0J-237500D01*
G01*
X21475000Y-26912500D01*
G75*
G02*
X21237500Y-27150000I-237500J0D01*
G01*
G37*
G04 #@! TD.AperFunction*
G04 #@! TA.AperFunction,SMDPad,CuDef*
G36*
G01*
X21237500Y-28900000D02*
X20762500Y-28900000D01*
G75*
G02*
X20525000Y-28662500I0J237500D01*
G01*
X20525000Y-28087500D01*
G75*
G02*
X20762500Y-27850000I237500J0D01*
G01*
X21237500Y-27850000D01*
G75*
G02*
X21475000Y-28087500I0J-237500D01*
G01*
X21475000Y-28662500D01*
G75*
G02*
X21237500Y-28900000I-237500J0D01*
G01*
G37*
G04 #@! TD.AperFunction*
G04 #@! TA.AperFunction,SMDPad,CuDef*
G36*
G01*
X34350000Y-18737500D02*
X34350000Y-18262500D01*
G75*
G02*
X34587500Y-18025000I237500J0D01*
G01*
X35162500Y-18025000D01*
G75*
G02*
X35400000Y-18262500I0J-237500D01*
G01*
X35400000Y-18737500D01*
G75*
G02*
X35162500Y-18975000I-237500J0D01*
G01*
X34587500Y-18975000D01*
G75*
G02*
X34350000Y-18737500I0J237500D01*
G01*
G37*
G04 #@! TD.AperFunction*
G04 #@! TA.AperFunction,SMDPad,CuDef*
G36*
G01*
X32600000Y-18737500D02*
X32600000Y-18262500D01*
G75*
G02*
X32837500Y-18025000I237500J0D01*
G01*
X33412500Y-18025000D01*
G75*
G02*
X33650000Y-18262500I0J-237500D01*
G01*
X33650000Y-18737500D01*
G75*
G02*
X33412500Y-18975000I-237500J0D01*
G01*
X32837500Y-18975000D01*
G75*
G02*
X32600000Y-18737500I0J237500D01*
G01*
G37*
G04 #@! TD.AperFunction*
G04 #@! TA.AperFunction,SMDPad,CuDef*
G36*
G01*
X22622500Y-22850000D02*
X23097500Y-22850000D01*
G75*
G02*
X23335000Y-23087500I0J-237500D01*
G01*
X23335000Y-23662500D01*
G75*
G02*
X23097500Y-23900000I-237500J0D01*
G01*
X22622500Y-23900000D01*
G75*
G02*
X22385000Y-23662500I0J237500D01*
G01*
X22385000Y-23087500D01*
G75*
G02*
X22622500Y-22850000I237500J0D01*
G01*
G37*
G04 #@! TD.AperFunction*
G04 #@! TA.AperFunction,SMDPad,CuDef*
G36*
G01*
X22622500Y-21100000D02*
X23097500Y-21100000D01*
G75*
G02*
X23335000Y-21337500I0J-237500D01*
G01*
X23335000Y-21912500D01*
G75*
G02*
X23097500Y-22150000I-237500J0D01*
G01*
X22622500Y-22150000D01*
G75*
G02*
X22385000Y-21912500I0J237500D01*
G01*
X22385000Y-21337500D01*
G75*
G02*
X22622500Y-21100000I237500J0D01*
G01*
G37*
G04 #@! TD.AperFunction*
D17*
X25000000Y-14500000D03*
D18*
X19000000Y-26500000D03*
X19300000Y-23700000D03*
X31900000Y-30400000D03*
X14000000Y-21500000D03*
X36250000Y-21750000D03*
X17500000Y-34500000D03*
X19558000Y-31496000D03*
X29900000Y-25900000D03*
X35306000Y-37084000D03*
X23400000Y-31496000D03*
X25300000Y-28200000D03*
X23400000Y-29178000D03*
X26162000Y-21590000D03*
X28702000Y-28956000D03*
D19*
X29300000Y-22200000D02*
X30050000Y-22950000D01*
X29300000Y-21462500D02*
X29300000Y-22200000D01*
X30800000Y-22200000D02*
X31537500Y-22200000D01*
X30050000Y-22950000D02*
X30800000Y-22200000D01*
X28562500Y-23700000D02*
X29300000Y-23700000D01*
X29300000Y-23700000D02*
X30050000Y-22950000D01*
X29300000Y-24437500D02*
X29300000Y-23700000D01*
X16875000Y-36875000D02*
X17000000Y-37000000D01*
X30000000Y-29065685D02*
X30000000Y-28875000D01*
D20*
X34875000Y-23000000D02*
X34875000Y-21500000D01*
X34875000Y-21500000D02*
X34875000Y-20000000D01*
X34875000Y-20000000D02*
X34875000Y-18500000D01*
X35400000Y-23000000D02*
X35850010Y-23450010D01*
X34875000Y-23000000D02*
X35400000Y-23000000D01*
D19*
X26325000Y-22700000D02*
X26250000Y-22625000D01*
D20*
X19625000Y-23375000D02*
X19300000Y-23700000D01*
X21000000Y-23375000D02*
X19625000Y-23375000D01*
X17074990Y-20875000D02*
X17299990Y-21100000D01*
X15800000Y-20875000D02*
X17074990Y-20875000D01*
X28562500Y-24512490D02*
X28562500Y-23850000D01*
X28562500Y-25437500D02*
X28562500Y-24762500D01*
X28562500Y-24762500D02*
X28562500Y-24437500D01*
X28562500Y-24762500D02*
X28562500Y-24737500D01*
X29224990Y-24512510D02*
X29224990Y-24437500D01*
X28562500Y-25175000D02*
X29224990Y-24512510D01*
X28562500Y-25437500D02*
X28562500Y-25175000D01*
X28562500Y-27437500D02*
X28562500Y-25437500D01*
X29000000Y-24000000D02*
X29000000Y-24400000D01*
X28562500Y-24437500D02*
X29000000Y-24000000D01*
X29000000Y-24000000D02*
X30050000Y-22950000D01*
X28562500Y-27437500D02*
X30000000Y-28875000D01*
X34875000Y-27497288D02*
X34875000Y-27500000D01*
X35850010Y-23450010D02*
X35850010Y-26522278D01*
D19*
X26300000Y-23200000D02*
X26300000Y-23549980D01*
D20*
X35850010Y-29849990D02*
X35300000Y-30400000D01*
X35300000Y-30400000D02*
X31900000Y-30400000D01*
X35850010Y-28475010D02*
X35850010Y-29849990D01*
X34875000Y-27500000D02*
X35850010Y-28475010D01*
X31525000Y-30400000D02*
X30000000Y-28875000D01*
X31900000Y-30400000D02*
X31525000Y-30400000D01*
X26500000Y-24000000D02*
X26500000Y-23250000D01*
X25575000Y-24925000D02*
X26500000Y-24000000D01*
D21*
X21500000Y-23537500D02*
X22837500Y-23537500D01*
X21500000Y-23537500D02*
X22500000Y-24537500D01*
D20*
X23000000Y-24037500D02*
X22500000Y-24537500D01*
X23000000Y-23375000D02*
X23000000Y-24037500D01*
X23000000Y-24500000D02*
X23425000Y-24925000D01*
X23000000Y-23375000D02*
X23000000Y-24500000D01*
X23425000Y-24925000D02*
X25575000Y-24925000D01*
X22500000Y-24925000D02*
X23425000Y-24925000D01*
D21*
X14462500Y-21037500D02*
X14000000Y-21500000D01*
X15500000Y-21037500D02*
X14462500Y-21037500D01*
D20*
X24440000Y-44440000D02*
X17000000Y-37000000D01*
X24440000Y-45800000D02*
X24440000Y-44440000D01*
X19100000Y-23900000D02*
X19300000Y-23700000D01*
X17905000Y-23900000D02*
X19100000Y-23900000D01*
D19*
X17350000Y-21100000D02*
X17350000Y-21850000D01*
X17905000Y-22405000D02*
X17905000Y-23900000D01*
X17350000Y-21850000D02*
X17905000Y-22405000D01*
D20*
X20875000Y-26500000D02*
X21000000Y-26625000D01*
X19000000Y-26500000D02*
X20875000Y-26500000D01*
X24682895Y-46750001D02*
X24440000Y-46507106D01*
X24440000Y-46507106D02*
X24440000Y-45800000D01*
X27436001Y-46750001D02*
X24682895Y-46750001D01*
X30648502Y-43537500D02*
X27436001Y-46750001D01*
X31242000Y-43537500D02*
X30648502Y-43537500D01*
X35850010Y-27468010D02*
X35377144Y-26995144D01*
X35377144Y-26995144D02*
X34875000Y-27497288D01*
X35850010Y-26522278D02*
X35377144Y-26995144D01*
X35850010Y-27468010D02*
X35850010Y-26522278D01*
X35850010Y-28475010D02*
X35850010Y-27903990D01*
X35850010Y-27903990D02*
X35777990Y-27903990D01*
X35850010Y-27903990D02*
X35850010Y-27468010D01*
X35777990Y-27903990D02*
X35306000Y-27432000D01*
X21336000Y-23761000D02*
X22500000Y-24925000D01*
X21336000Y-23643500D02*
X21336000Y-23761000D01*
D19*
X30837500Y-21500000D02*
X30800000Y-21462500D01*
X33125000Y-21500000D02*
X30837500Y-21500000D01*
X18000000Y-18900000D02*
X18000000Y-18322000D01*
X18000000Y-18322000D02*
X18622000Y-17700000D01*
D21*
X21750000Y-17700000D02*
X19384000Y-17700000D01*
D19*
X18622000Y-17700000D02*
X19384000Y-17700000D01*
D20*
X27200000Y-20950000D02*
X28374990Y-22124990D01*
X27200000Y-18750000D02*
X27200000Y-20950000D01*
X28374990Y-22124990D02*
X28699999Y-22124990D01*
D19*
X30300000Y-19287500D02*
X31500000Y-18087500D01*
X30300000Y-21462500D02*
X30300000Y-19287500D01*
D20*
X32587500Y-17000000D02*
X31500000Y-18087500D01*
X33125000Y-17000000D02*
X32587500Y-17000000D01*
D19*
X32825000Y-22700000D02*
X31537500Y-22700000D01*
X33125000Y-23000000D02*
X32825000Y-22700000D01*
D20*
X34625000Y-24500000D02*
X33125000Y-23000000D01*
X34875000Y-24500000D02*
X34625000Y-24500000D01*
D19*
X29300000Y-20526978D02*
X29300000Y-18750000D01*
X29800000Y-21026978D02*
X29300000Y-20526978D01*
X29800000Y-21462500D02*
X29800000Y-21026978D01*
D21*
X35400000Y-17000000D02*
X34875000Y-17000000D01*
X36250000Y-17850000D02*
X35400000Y-17000000D01*
X34174990Y-15824990D02*
X30175010Y-15824990D01*
X34875000Y-16525000D02*
X34174990Y-15824990D01*
X34875000Y-17000000D02*
X34875000Y-16525000D01*
X29300000Y-16700000D02*
X29300000Y-18750000D01*
X30175010Y-15824990D02*
X29300000Y-16700000D01*
D20*
X34625000Y-17000000D02*
X33125000Y-18500000D01*
X34875000Y-17000000D02*
X34625000Y-17000000D01*
D21*
X34224990Y-15824990D02*
X34174990Y-15824990D01*
X36250000Y-17850000D02*
X34224990Y-15824990D01*
X36250000Y-21750000D02*
X36250000Y-17850000D01*
D20*
X18000000Y-20360002D02*
X17299990Y-19659992D01*
X18000000Y-21100000D02*
X18000000Y-20360002D01*
X17299990Y-19350000D02*
X17074990Y-19125000D01*
X17299990Y-19659992D02*
X17299990Y-19350000D01*
X17074990Y-19125000D02*
X17299990Y-18900000D01*
X15662500Y-19125000D02*
X15500000Y-18962500D01*
X17074990Y-19125000D02*
X15662500Y-19125000D01*
X23250000Y-45800000D02*
X21300000Y-45800000D01*
X13795000Y-38295000D02*
X21300000Y-45800000D01*
X13795000Y-31400000D02*
X13795000Y-38295000D01*
X14095000Y-31100000D02*
X13795000Y-31400000D01*
X14775000Y-18962500D02*
X15500000Y-18962500D01*
X13049991Y-20687509D02*
X14775000Y-18962500D01*
X13049991Y-30054991D02*
X13049991Y-20687509D01*
X14095000Y-31100000D02*
X13497500Y-30502500D01*
X13497500Y-30502500D02*
X13049991Y-30054991D01*
X13049991Y-30654991D02*
X13795000Y-31400000D01*
X13049991Y-30054991D02*
X13049991Y-30654991D01*
D19*
X33125000Y-36875000D02*
X33000000Y-37000000D01*
X28126978Y-23200000D02*
X28562500Y-23200000D01*
X27724990Y-23601988D02*
X28126978Y-23200000D01*
X27724990Y-24324990D02*
X27724990Y-23601988D01*
D20*
X27724990Y-31724990D02*
X27724990Y-24324990D01*
X28600000Y-32600000D02*
X27724990Y-31724990D01*
X29000000Y-33000000D02*
X28600000Y-32600000D01*
X27324990Y-32124990D02*
X27624990Y-32124990D01*
X27324990Y-32124990D02*
X26849980Y-32600000D01*
X26849980Y-32600000D02*
X28600000Y-32600000D01*
X27474990Y-31974990D02*
X27800000Y-32300000D01*
X27724990Y-31724990D02*
X27474990Y-31974990D01*
X27474990Y-31974990D02*
X27324990Y-32124990D01*
X26849980Y-32600000D02*
X26374970Y-33075010D01*
X21137010Y-33075010D02*
X19558000Y-31496000D01*
X26374970Y-33075010D02*
X21137010Y-33075010D01*
X33290000Y-37290000D02*
X33000000Y-37000000D01*
X33000000Y-40350000D02*
X33544000Y-40894000D01*
X33000000Y-37000000D02*
X33000000Y-40350000D01*
X29075010Y-33075010D02*
X29115000Y-33115000D01*
X26374970Y-33075010D02*
X29075010Y-33075010D01*
X29115000Y-33115000D02*
X29000000Y-33000000D01*
X33000000Y-37000000D02*
X29115000Y-33115000D01*
D19*
X31925000Y-23200000D02*
X31537500Y-23200000D01*
X33125000Y-24351978D02*
X31973022Y-23200000D01*
X31973022Y-23200000D02*
X31925000Y-23200000D01*
X33125000Y-24500000D02*
X33125000Y-24351978D01*
X34875000Y-26000000D02*
X34625000Y-26000000D01*
X34024990Y-28674990D02*
X34350000Y-29000000D01*
X34350000Y-29000000D02*
X34875000Y-29000000D01*
X34875000Y-26000000D02*
X34350000Y-26000000D01*
X34024990Y-25411010D02*
X34030500Y-25405500D01*
X34030500Y-25405500D02*
X33125000Y-24500000D01*
X34625000Y-26000000D02*
X34030500Y-25405500D01*
X34875000Y-26000000D02*
X34359980Y-26000000D01*
X34359980Y-26000000D02*
X34024990Y-25665010D01*
X34024990Y-25665010D02*
X34024990Y-25411010D01*
X34024990Y-26325010D02*
X34024990Y-25665010D01*
X34024990Y-25896990D02*
X34239000Y-26111000D01*
X34024990Y-25665010D02*
X34024990Y-25896990D01*
X34239000Y-26111000D02*
X34024990Y-26325010D01*
X34350000Y-26000000D02*
X34239000Y-26111000D01*
X34875000Y-26000000D02*
X34875000Y-26062980D01*
X34024990Y-26912990D02*
X34024990Y-28674990D01*
X34875000Y-26062980D02*
X34024990Y-26912990D01*
X34024990Y-26325010D02*
X34024990Y-26658990D01*
X34024990Y-26658990D02*
X34024990Y-26912990D01*
X34683980Y-26000000D02*
X34024990Y-26658990D01*
X34875000Y-26000000D02*
X34683980Y-26000000D01*
X34875000Y-26000000D02*
X34875000Y-25985000D01*
X33390000Y-24500000D02*
X33125000Y-24500000D01*
X34875000Y-25985000D02*
X33390000Y-24500000D01*
X29800000Y-25800000D02*
X29900000Y-25900000D01*
X29800000Y-24437500D02*
X29800000Y-25800000D01*
D20*
X35306000Y-39706000D02*
X35544000Y-39944000D01*
X35306000Y-37084000D02*
X35306000Y-39706000D01*
D19*
X23424990Y-31575010D02*
X23400000Y-31600000D01*
D20*
X23400000Y-30775000D02*
X21000000Y-28375000D01*
X19040000Y-28375000D02*
X21000000Y-28375000D01*
X15365000Y-24700000D02*
X19040000Y-28375000D01*
X15365000Y-23900000D02*
X15365000Y-24700000D01*
X23400000Y-31496000D02*
X23400000Y-30775000D01*
X22500000Y-28278000D02*
X23400000Y-29178000D01*
X22500000Y-27875000D02*
X22500000Y-28278000D01*
D19*
X25730000Y-45792894D02*
X25750000Y-45772894D01*
D20*
X16635000Y-31882964D02*
X16635000Y-31100000D01*
X25710000Y-40957964D02*
X16635000Y-31882964D01*
X25710000Y-45800000D02*
X25710000Y-40957964D01*
X26980000Y-45800000D02*
X26980000Y-41738002D01*
X26980000Y-41238002D02*
X26980000Y-41738002D01*
X17905000Y-32163002D02*
X26980000Y-41238002D01*
X17905000Y-31100000D02*
X17905000Y-32163002D01*
X22024990Y-25649990D02*
X22500000Y-26125000D01*
X16635000Y-24700000D02*
X17584990Y-25649990D01*
X17584990Y-25649990D02*
X22024990Y-25649990D01*
X16635000Y-23900000D02*
X16635000Y-24700000D01*
D19*
X24125001Y-27124999D02*
X24500000Y-26750000D01*
D20*
X14095000Y-24419963D02*
X14095000Y-23900000D01*
X23779002Y-32375000D02*
X22050037Y-32375000D01*
X24449999Y-31704003D02*
X23779002Y-32375000D01*
X24449999Y-26800001D02*
X24449999Y-31704003D01*
X22050037Y-32375000D02*
X14095000Y-24419963D01*
X24500000Y-26750000D02*
X24449999Y-26800001D01*
X15365000Y-31602927D02*
X15365000Y-31100000D01*
X18707999Y-30254455D02*
X18707999Y-31976039D01*
X17917544Y-29464000D02*
X18707999Y-30254455D01*
X16201000Y-29464000D02*
X17917544Y-29464000D01*
X15365000Y-30300000D02*
X16201000Y-29464000D01*
X15365000Y-31100000D02*
X15365000Y-30300000D01*
X34290000Y-43537500D02*
X32766000Y-43537500D01*
X32766000Y-43537500D02*
X30176549Y-40948049D01*
X27680009Y-40948049D02*
X18707999Y-31976039D01*
X30176549Y-40948049D02*
X27680009Y-40948049D01*
X31587500Y-20000000D02*
X31500000Y-19912500D01*
X33125000Y-20000000D02*
X31587500Y-20000000D01*
X31500000Y-28875000D02*
X31500000Y-28625000D01*
X31500000Y-28625000D02*
X30000000Y-27125000D01*
D19*
X30625001Y-26499999D02*
X30000000Y-27125000D01*
X30625001Y-25551999D02*
X30625001Y-26499999D01*
X30300000Y-25226998D02*
X30625001Y-25551999D01*
X30300000Y-24437500D02*
X30300000Y-25226998D01*
X30800000Y-24437500D02*
X30800000Y-25090588D01*
X31500000Y-25790588D02*
X31500000Y-27125000D01*
X30800000Y-25090588D02*
X31500000Y-25790588D01*
D20*
X31500000Y-27375000D02*
X31500000Y-27125000D01*
X33125000Y-29000000D02*
X31500000Y-27375000D01*
D19*
X33125000Y-26000000D02*
X33125000Y-25820510D01*
D20*
X33125000Y-27500000D02*
X33125000Y-26000000D01*
X33125000Y-26000000D02*
X33125000Y-25997288D01*
D19*
X31537500Y-23700000D02*
X31537500Y-24737500D01*
X31537500Y-24737500D02*
X31900000Y-25100000D01*
D20*
X32800000Y-26000000D02*
X31900000Y-25100000D01*
X33125000Y-26000000D02*
X32800000Y-26000000D01*
D19*
X18650000Y-21100000D02*
X18650000Y-20975000D01*
X18725001Y-18824999D02*
X18650000Y-18900000D01*
D20*
X19090001Y-22350001D02*
X18700010Y-21960010D01*
X20399999Y-22350001D02*
X19090001Y-22350001D01*
X21287500Y-21462500D02*
X20399999Y-22350001D01*
X21500000Y-21462500D02*
X21287500Y-21462500D01*
X18700010Y-21389953D02*
X18700010Y-21100000D01*
X18700010Y-21960010D02*
X18700010Y-21389953D01*
X18700010Y-20070049D02*
X18700010Y-21960010D01*
X18650000Y-20020039D02*
X18700010Y-20070049D01*
X18650000Y-18900000D02*
X18650000Y-20020039D01*
D21*
X21500000Y-20050000D02*
X21750000Y-19800000D01*
X21500000Y-21462500D02*
X21500000Y-20050000D01*
D20*
X34450001Y-40510003D02*
X35544000Y-41604002D01*
X34450001Y-36303999D02*
X34450001Y-40510003D01*
X28702000Y-30555998D02*
X34450001Y-36303999D01*
X35544000Y-41604002D02*
X35544000Y-41844000D01*
X28702000Y-28956000D02*
X28702000Y-30555998D01*
X35544000Y-44108500D02*
X34290000Y-45362500D01*
X35544000Y-41844000D02*
X35544000Y-44108500D01*
X23035000Y-21590000D02*
X23000000Y-21625000D01*
X26162000Y-21590000D02*
X23035000Y-21590000D01*
D21*
X22803500Y-21568500D02*
X22860000Y-21625000D01*
X21336000Y-21568500D02*
X22803500Y-21568500D01*
D20*
X32766000Y-45362500D02*
X31242000Y-45362500D01*
M02*
