G04 #@! TF.GenerationSoftware,KiCad,Pcbnew,(5.1.9)-1*
G04 #@! TF.CreationDate,2021-12-22T17:42:01+01:00*
G04 #@! TF.ProjectId,Omamori,4f6d616d-6f72-4692-9e6b-696361645f70,rev?*
G04 #@! TF.SameCoordinates,Original*
G04 #@! TF.FileFunction,Soldermask,Top*
G04 #@! TF.FilePolarity,Negative*
%FSLAX46Y46*%
G04 Gerber Fmt 4.6, Leading zero omitted, Abs format (unit mm)*
G04 Created by KiCad (PCBNEW (5.1.9)-1) date 2021-12-22 17:42:01*
%MOMM*%
%LPD*%
G01*
G04 APERTURE LIST*
%ADD10C,2.102000*%
%ADD11C,1.102000*%
%ADD12O,1.102000X1.102000*%
%ADD13C,0.100000*%
G04 APERTURE END LIST*
G36*
G01*
X13050000Y-17699000D02*
X20450000Y-17699000D01*
G75*
G02*
X20501000Y-17750000I0J-51000D01*
G01*
X20501000Y-21250000D01*
G75*
G02*
X20450000Y-21301000I-51000J0D01*
G01*
X13050000Y-21301000D01*
G75*
G02*
X12999000Y-21250000I0J51000D01*
G01*
X12999000Y-17750000D01*
G75*
G02*
X13050000Y-17699000I51000J0D01*
G01*
G37*
G36*
G01*
X13050000Y-38699000D02*
X20450000Y-38699000D01*
G75*
G02*
X20501000Y-38750000I0J-51000D01*
G01*
X20501000Y-42250000D01*
G75*
G02*
X20450000Y-42301000I-51000J0D01*
G01*
X13050000Y-42301000D01*
G75*
G02*
X12999000Y-42250000I0J51000D01*
G01*
X12999000Y-38750000D01*
G75*
G02*
X13050000Y-38699000I51000J0D01*
G01*
G37*
G36*
G01*
X29550000Y-17699000D02*
X36950000Y-17699000D01*
G75*
G02*
X37001000Y-17750000I0J-51000D01*
G01*
X37001000Y-21250000D01*
G75*
G02*
X36950000Y-21301000I-51000J0D01*
G01*
X29550000Y-21301000D01*
G75*
G02*
X29499000Y-21250000I0J51000D01*
G01*
X29499000Y-17750000D01*
G75*
G02*
X29550000Y-17699000I51000J0D01*
G01*
G37*
G36*
G01*
X29550000Y-38699000D02*
X36950000Y-38699000D01*
G75*
G02*
X37001000Y-38750000I0J-51000D01*
G01*
X37001000Y-42250000D01*
G75*
G02*
X36950000Y-42301000I-51000J0D01*
G01*
X29550000Y-42301000D01*
G75*
G02*
X29499000Y-42250000I0J51000D01*
G01*
X29499000Y-38750000D01*
G75*
G02*
X29550000Y-38699000I51000J0D01*
G01*
G37*
D10*
X17000000Y-37000000D03*
X33000000Y-37000000D03*
D11*
X23250000Y-45800000D03*
D12*
X26980000Y-45800000D03*
X25710000Y-45800000D03*
X24440000Y-45800000D03*
G36*
G01*
X27100000Y-28851000D02*
X26100000Y-28851000D01*
G75*
G02*
X26049000Y-28800000I0J51000D01*
G01*
X26049000Y-27300000D01*
G75*
G02*
X26100000Y-27249000I51000J0D01*
G01*
X27100000Y-27249000D01*
G75*
G02*
X27151000Y-27300000I0J-51000D01*
G01*
X27151000Y-28800000D01*
G75*
G02*
X27100000Y-28851000I-51000J0D01*
G01*
G37*
G36*
G01*
X23900000Y-28851000D02*
X22900000Y-28851000D01*
G75*
G02*
X22849000Y-28800000I0J51000D01*
G01*
X22849000Y-27300000D01*
G75*
G02*
X22900000Y-27249000I51000J0D01*
G01*
X23900000Y-27249000D01*
G75*
G02*
X23951000Y-27300000I0J-51000D01*
G01*
X23951000Y-28800000D01*
G75*
G02*
X23900000Y-28851000I-51000J0D01*
G01*
G37*
G36*
G01*
X27100000Y-33751000D02*
X26100000Y-33751000D01*
G75*
G02*
X26049000Y-33700000I0J51000D01*
G01*
X26049000Y-32200000D01*
G75*
G02*
X26100000Y-32149000I51000J0D01*
G01*
X27100000Y-32149000D01*
G75*
G02*
X27151000Y-32200000I0J-51000D01*
G01*
X27151000Y-33700000D01*
G75*
G02*
X27100000Y-33751000I-51000J0D01*
G01*
G37*
G36*
G01*
X23900000Y-33751000D02*
X22900000Y-33751000D01*
G75*
G02*
X22849000Y-33700000I0J51000D01*
G01*
X22849000Y-32200000D01*
G75*
G02*
X22900000Y-32149000I51000J0D01*
G01*
X23900000Y-32149000D01*
G75*
G02*
X23951000Y-32200000I0J-51000D01*
G01*
X23951000Y-33700000D01*
G75*
G02*
X23900000Y-33751000I-51000J0D01*
G01*
G37*
D13*
G36*
X23954673Y-45542228D02*
G01*
X23954727Y-45543878D01*
X23914650Y-45640635D01*
X23893653Y-45746192D01*
X23893653Y-45853808D01*
X23914650Y-45959365D01*
X23954727Y-46056122D01*
X23954466Y-46058105D01*
X23952618Y-46058870D01*
X23951216Y-46057998D01*
X23947325Y-46052175D01*
X23931966Y-46033460D01*
X23913329Y-46018165D01*
X23892066Y-46006800D01*
X23868991Y-45999800D01*
X23844999Y-45997437D01*
X23821008Y-45999800D01*
X23797933Y-46006800D01*
X23776670Y-46018165D01*
X23758033Y-46033461D01*
X23742675Y-46052175D01*
X23738784Y-46057998D01*
X23736990Y-46058883D01*
X23735327Y-46057772D01*
X23735273Y-46056122D01*
X23775350Y-45959365D01*
X23796347Y-45853808D01*
X23796347Y-45746192D01*
X23775350Y-45640635D01*
X23735273Y-45543878D01*
X23735534Y-45541895D01*
X23737382Y-45541130D01*
X23738784Y-45542002D01*
X23742675Y-45547825D01*
X23758034Y-45566540D01*
X23776671Y-45581835D01*
X23797934Y-45593200D01*
X23821009Y-45600200D01*
X23845001Y-45602563D01*
X23868992Y-45600200D01*
X23892067Y-45593200D01*
X23913330Y-45581835D01*
X23931967Y-45566539D01*
X23947325Y-45547825D01*
X23951216Y-45542002D01*
X23953010Y-45541117D01*
X23954673Y-45542228D01*
G37*
G36*
X26459287Y-45627256D02*
G01*
X26459437Y-45629077D01*
X26454650Y-45640635D01*
X26433653Y-45746192D01*
X26433653Y-45853808D01*
X26454650Y-45959365D01*
X26459437Y-45970923D01*
X26459176Y-45972906D01*
X26457328Y-45973671D01*
X26455825Y-45972631D01*
X26447262Y-45956609D01*
X26431967Y-45937972D01*
X26413330Y-45922677D01*
X26392066Y-45911312D01*
X26368991Y-45904312D01*
X26345000Y-45901949D01*
X26321009Y-45904312D01*
X26297934Y-45911312D01*
X26276670Y-45922677D01*
X26258033Y-45937972D01*
X26242738Y-45956609D01*
X26234175Y-45972631D01*
X26232476Y-45973687D01*
X26230713Y-45972744D01*
X26230563Y-45970923D01*
X26235350Y-45959365D01*
X26256347Y-45853808D01*
X26256347Y-45746192D01*
X26235350Y-45640635D01*
X26230563Y-45629077D01*
X26230824Y-45627094D01*
X26232672Y-45626329D01*
X26234175Y-45627369D01*
X26242738Y-45643391D01*
X26258033Y-45662028D01*
X26276670Y-45677323D01*
X26297934Y-45688688D01*
X26321009Y-45695688D01*
X26345000Y-45698051D01*
X26368991Y-45695688D01*
X26392066Y-45688688D01*
X26413330Y-45677323D01*
X26431967Y-45662028D01*
X26447262Y-45643391D01*
X26455825Y-45627369D01*
X26457524Y-45626313D01*
X26459287Y-45627256D01*
G37*
G36*
X25189287Y-45627256D02*
G01*
X25189437Y-45629077D01*
X25184650Y-45640635D01*
X25163653Y-45746192D01*
X25163653Y-45853808D01*
X25184650Y-45959365D01*
X25189437Y-45970923D01*
X25189176Y-45972906D01*
X25187328Y-45973671D01*
X25185825Y-45972631D01*
X25177262Y-45956609D01*
X25161967Y-45937972D01*
X25143330Y-45922677D01*
X25122066Y-45911312D01*
X25098991Y-45904312D01*
X25075000Y-45901949D01*
X25051009Y-45904312D01*
X25027934Y-45911312D01*
X25006670Y-45922677D01*
X24988033Y-45937972D01*
X24972738Y-45956609D01*
X24964175Y-45972631D01*
X24962476Y-45973687D01*
X24960713Y-45972744D01*
X24960563Y-45970923D01*
X24965350Y-45959365D01*
X24986347Y-45853808D01*
X24986347Y-45746192D01*
X24965350Y-45640635D01*
X24960563Y-45629077D01*
X24960824Y-45627094D01*
X24962672Y-45626329D01*
X24964175Y-45627369D01*
X24972738Y-45643391D01*
X24988033Y-45662028D01*
X25006670Y-45677323D01*
X25027934Y-45688688D01*
X25051009Y-45695688D01*
X25075000Y-45698051D01*
X25098991Y-45695688D01*
X25122066Y-45688688D01*
X25143330Y-45677323D01*
X25161967Y-45662028D01*
X25177262Y-45643391D01*
X25185825Y-45627369D01*
X25187524Y-45626313D01*
X25189287Y-45627256D01*
G37*
M02*
