G04 #@! TF.GenerationSoftware,KiCad,Pcbnew,(5.1.9)-1*
G04 #@! TF.CreationDate,2021-12-18T15:16:19+01:00*
G04 #@! TF.ProjectId,Omamori,4f6d616d-6f72-4692-9e6b-696361645f70,rev?*
G04 #@! TF.SameCoordinates,Original*
G04 #@! TF.FileFunction,Copper,L1,Top*
G04 #@! TF.FilePolarity,Positive*
%FSLAX46Y46*%
G04 Gerber Fmt 4.6, Leading zero omitted, Abs format (unit mm)*
G04 Created by KiCad (PCBNEW (5.1.9)-1) date 2021-12-18 15:16:19*
%MOMM*%
%LPD*%
G01*
G04 APERTURE LIST*
G04 #@! TA.AperFunction,ComponentPad*
%ADD10C,1.000000*%
G04 #@! TD*
G04 #@! TA.AperFunction,ComponentPad*
%ADD11O,1.000000X1.000000*%
G04 #@! TD*
G04 #@! TA.AperFunction,SMDPad,CuDef*
%ADD12R,7.400000X2.500000*%
G04 #@! TD*
G04 #@! TA.AperFunction,ComponentPad*
%ADD13C,2.000000*%
G04 #@! TD*
G04 #@! TA.AperFunction,SMDPad,CuDef*
%ADD14R,1.000000X1.500000*%
G04 #@! TD*
G04 #@! TA.AperFunction,ViaPad*
%ADD15C,2.500000*%
G04 #@! TD*
G04 #@! TA.AperFunction,ViaPad*
%ADD16C,0.800000*%
G04 #@! TD*
G04 #@! TA.AperFunction,Conductor*
%ADD17C,1.000000*%
G04 #@! TD*
G04 #@! TA.AperFunction,Conductor*
%ADD18C,0.500000*%
G04 #@! TD*
G04 #@! TA.AperFunction,Conductor*
%ADD19C,0.250000*%
G04 #@! TD*
G04 #@! TA.AperFunction,Conductor*
%ADD20C,0.100000*%
G04 #@! TD*
G04 APERTURE END LIST*
D10*
X23250000Y-45800000D03*
D11*
X26980000Y-45800000D03*
X25710000Y-45800000D03*
X24440000Y-45800000D03*
D12*
X16750000Y-19500000D03*
X16750000Y-40500000D03*
X33250000Y-19500000D03*
X33250000Y-40500000D03*
D13*
X17000000Y-37000000D03*
X33000000Y-37000000D03*
D14*
X26600000Y-28050000D03*
X23400000Y-28050000D03*
X26600000Y-32950000D03*
X23400000Y-32950000D03*
D15*
X25000000Y-14500000D03*
D16*
X19000000Y-26500000D03*
X19300000Y-23700000D03*
X31900000Y-30400000D03*
X14000000Y-21500000D03*
X26670000Y-30226000D03*
X36250000Y-21750000D03*
X29900000Y-25900000D03*
X35306000Y-37084000D03*
X23400000Y-31496000D03*
X25300000Y-28200000D03*
X23400000Y-29178000D03*
X26162000Y-21590000D03*
X28702000Y-28956000D03*
D17*
X19250000Y-30000000D02*
X16500000Y-30000000D01*
X19250000Y-30000000D02*
X19250000Y-23750000D01*
X17000000Y-37000000D02*
X17000000Y-40500000D01*
X16500000Y-30000000D02*
X16500000Y-26500000D01*
X19300000Y-23700000D02*
X16500000Y-26500000D01*
X26600000Y-30200000D02*
X26799990Y-30399990D01*
X26600000Y-28050000D02*
X26600000Y-30200000D01*
X31899990Y-30399990D02*
X26799990Y-30399990D01*
X16899990Y-30399990D02*
X16500000Y-30000000D01*
X19300000Y-29800000D02*
X19899990Y-30399990D01*
X19300000Y-23700000D02*
X19300000Y-29800000D01*
X19899990Y-30399990D02*
X16899990Y-30399990D01*
X26799990Y-30399990D02*
X19899990Y-30399990D01*
X13750000Y-21750000D02*
X14000000Y-21500000D01*
X13750000Y-33750000D02*
X13750000Y-21750000D01*
X17000000Y-37000000D02*
X13750000Y-33750000D01*
X17000000Y-19500000D02*
X17000000Y-23500000D01*
X17000000Y-23500000D02*
X15250000Y-25250000D01*
X33250000Y-40500000D02*
X24000000Y-40500000D01*
D18*
X17241998Y-35500000D02*
X19000000Y-35500000D01*
X15250000Y-32978002D02*
X15250000Y-33030000D01*
X15381999Y-33161999D02*
X15381999Y-33640001D01*
X15250000Y-33030000D02*
X15381999Y-33161999D01*
D17*
X15250000Y-31994000D02*
X15250000Y-32978002D01*
X15250000Y-25250000D02*
X15250000Y-31994000D01*
D18*
X15748000Y-34006002D02*
X15889999Y-34148001D01*
X15889999Y-34148001D02*
X17241998Y-35500000D01*
X15250000Y-31994000D02*
X15250000Y-32522000D01*
X15381999Y-33640001D02*
X15889999Y-34148001D01*
D17*
X15250000Y-33508002D02*
X15635999Y-33894001D01*
X15250000Y-31994000D02*
X15250000Y-33508002D01*
D18*
X15635999Y-33894001D02*
X15381999Y-33640001D01*
X15748000Y-34006002D02*
X15635999Y-33894001D01*
D17*
X24000000Y-40500000D02*
X23990000Y-40500000D01*
X23990000Y-40500000D02*
X19812000Y-36322000D01*
D18*
X19812000Y-36312000D02*
X19000000Y-35500000D01*
X19812000Y-36322000D02*
X19812000Y-36312000D01*
D17*
X32750000Y-19500000D02*
X35750000Y-19500000D01*
X35750000Y-21250000D02*
X36250000Y-21750000D01*
X35750000Y-19500000D02*
X35750000Y-21250000D01*
D18*
X29900000Y-25900000D02*
X35306000Y-31306000D01*
X35306000Y-31306000D02*
X35306000Y-37084000D01*
X35306000Y-37084000D02*
X35306000Y-37084000D01*
D19*
X23350000Y-33000000D02*
X23400000Y-32950000D01*
X23400000Y-32950000D02*
X23200000Y-32950000D01*
D18*
X23400000Y-31496000D02*
X23400000Y-32950000D01*
D19*
X23400000Y-28100000D02*
X23400000Y-28050000D01*
D17*
X23550000Y-28200000D02*
X23400000Y-28050000D01*
X25300000Y-28200000D02*
X23550000Y-28200000D01*
D19*
X23400000Y-28050000D02*
X23400000Y-29178000D01*
X23400000Y-29178000D02*
X23400000Y-29178000D01*
D18*
X28702000Y-28956000D02*
X28702000Y-28956000D01*
X28702000Y-24130000D02*
X28702000Y-28956000D01*
X28702000Y-24130000D02*
X26162000Y-21590000D01*
D20*
X19200000Y-29950000D02*
X16550000Y-29950000D01*
X16550000Y-26270710D01*
X19200000Y-23620710D01*
X19200000Y-29950000D01*
G04 #@! TA.AperFunction,Conductor*
G36*
X19200000Y-29950000D02*
G01*
X16550000Y-29950000D01*
X16550000Y-26270710D01*
X19200000Y-23620710D01*
X19200000Y-29950000D01*
G37*
G04 #@! TD.AperFunction*
X27579290Y-30250000D02*
X25620710Y-30250000D01*
X26600000Y-29270710D01*
X27579290Y-30250000D01*
G04 #@! TA.AperFunction,Conductor*
G36*
X27579290Y-30250000D02*
G01*
X25620710Y-30250000D01*
X26600000Y-29270710D01*
X27579290Y-30250000D01*
G37*
G04 #@! TD.AperFunction*
M02*
