G04 #@! TF.GenerationSoftware,KiCad,Pcbnew,(5.1.9)-1*
G04 #@! TF.CreationDate,2021-12-22T17:42:01+01:00*
G04 #@! TF.ProjectId,Omamori,4f6d616d-6f72-4692-9e6b-696361645f70,rev?*
G04 #@! TF.SameCoordinates,Original*
G04 #@! TF.FileFunction,Paste,Bot*
G04 #@! TF.FilePolarity,Positive*
%FSLAX46Y46*%
G04 Gerber Fmt 4.6, Leading zero omitted, Abs format (unit mm)*
G04 Created by KiCad (PCBNEW (5.1.9)-1) date 2021-12-22 17:42:01*
%MOMM*%
%LPD*%
G01*
G04 APERTURE LIST*
%ADD10R,0.900000X0.800000*%
%ADD11R,3.400000X1.300000*%
%ADD12R,1.300000X3.400000*%
%ADD13R,0.400000X0.900000*%
G04 APERTURE END LIST*
G36*
G01*
X35322500Y-35275000D02*
X35797500Y-35275000D01*
G75*
G02*
X36035000Y-35512500I0J-237500D01*
G01*
X36035000Y-36087500D01*
G75*
G02*
X35797500Y-36325000I-237500J0D01*
G01*
X35322500Y-36325000D01*
G75*
G02*
X35085000Y-36087500I0J237500D01*
G01*
X35085000Y-35512500D01*
G75*
G02*
X35322500Y-35275000I237500J0D01*
G01*
G37*
G36*
G01*
X35322500Y-33525000D02*
X35797500Y-33525000D01*
G75*
G02*
X36035000Y-33762500I0J-237500D01*
G01*
X36035000Y-34337500D01*
G75*
G02*
X35797500Y-34575000I-237500J0D01*
G01*
X35322500Y-34575000D01*
G75*
G02*
X35085000Y-34337500I0J237500D01*
G01*
X35085000Y-33762500D01*
G75*
G02*
X35322500Y-33525000I237500J0D01*
G01*
G37*
G36*
G01*
X31004500Y-45129000D02*
X31479500Y-45129000D01*
G75*
G02*
X31717000Y-45366500I0J-237500D01*
G01*
X31717000Y-45866500D01*
G75*
G02*
X31479500Y-46104000I-237500J0D01*
G01*
X31004500Y-46104000D01*
G75*
G02*
X30767000Y-45866500I0J237500D01*
G01*
X30767000Y-45366500D01*
G75*
G02*
X31004500Y-45129000I237500J0D01*
G01*
G37*
G36*
G01*
X31004500Y-43304000D02*
X31479500Y-43304000D01*
G75*
G02*
X31717000Y-43541500I0J-237500D01*
G01*
X31717000Y-44041500D01*
G75*
G02*
X31479500Y-44279000I-237500J0D01*
G01*
X31004500Y-44279000D01*
G75*
G02*
X30767000Y-44041500I0J237500D01*
G01*
X30767000Y-43541500D01*
G75*
G02*
X31004500Y-43304000I237500J0D01*
G01*
G37*
G36*
G01*
X24544000Y-24580000D02*
X25494000Y-24580000D01*
G75*
G02*
X25744000Y-24830000I0J-250000D01*
G01*
X25744000Y-25505000D01*
G75*
G02*
X25494000Y-25755000I-250000J0D01*
G01*
X24544000Y-25755000D01*
G75*
G02*
X24294000Y-25505000I0J250000D01*
G01*
X24294000Y-24830000D01*
G75*
G02*
X24544000Y-24580000I250000J0D01*
G01*
G37*
G36*
G01*
X24544000Y-22505000D02*
X25494000Y-22505000D01*
G75*
G02*
X25744000Y-22755000I0J-250000D01*
G01*
X25744000Y-23430000D01*
G75*
G02*
X25494000Y-23680000I-250000J0D01*
G01*
X24544000Y-23680000D01*
G75*
G02*
X24294000Y-23430000I0J250000D01*
G01*
X24294000Y-22755000D01*
G75*
G02*
X24544000Y-22505000I250000J0D01*
G01*
G37*
G36*
G01*
X30317500Y-23035000D02*
X30682500Y-23035000D01*
G75*
G02*
X30865000Y-23217500I0J-182500D01*
G01*
X30865000Y-23582500D01*
G75*
G02*
X30682500Y-23765000I-182500J0D01*
G01*
X30317500Y-23765000D01*
G75*
G02*
X30135000Y-23582500I0J182500D01*
G01*
X30135000Y-23217500D01*
G75*
G02*
X30317500Y-23035000I182500J0D01*
G01*
G37*
G36*
G01*
X29417500Y-23035000D02*
X29782500Y-23035000D01*
G75*
G02*
X29965000Y-23217500I0J-182500D01*
G01*
X29965000Y-23582500D01*
G75*
G02*
X29782500Y-23765000I-182500J0D01*
G01*
X29417500Y-23765000D01*
G75*
G02*
X29235000Y-23582500I0J182500D01*
G01*
X29235000Y-23217500D01*
G75*
G02*
X29417500Y-23035000I182500J0D01*
G01*
G37*
G36*
G01*
X30317500Y-22135000D02*
X30682500Y-22135000D01*
G75*
G02*
X30865000Y-22317500I0J-182500D01*
G01*
X30865000Y-22682500D01*
G75*
G02*
X30682500Y-22865000I-182500J0D01*
G01*
X30317500Y-22865000D01*
G75*
G02*
X30135000Y-22682500I0J182500D01*
G01*
X30135000Y-22317500D01*
G75*
G02*
X30317500Y-22135000I182500J0D01*
G01*
G37*
G36*
G01*
X29417500Y-22135000D02*
X29782500Y-22135000D01*
G75*
G02*
X29965000Y-22317500I0J-182500D01*
G01*
X29965000Y-22682500D01*
G75*
G02*
X29782500Y-22865000I-182500J0D01*
G01*
X29417500Y-22865000D01*
G75*
G02*
X29235000Y-22682500I0J182500D01*
G01*
X29235000Y-22317500D01*
G75*
G02*
X29417500Y-22135000I182500J0D01*
G01*
G37*
G36*
G01*
X28237500Y-22075000D02*
X28887500Y-22075000D01*
G75*
G02*
X28950000Y-22137500I0J-62500D01*
G01*
X28950000Y-22262500D01*
G75*
G02*
X28887500Y-22325000I-62500J0D01*
G01*
X28237500Y-22325000D01*
G75*
G02*
X28175000Y-22262500I0J62500D01*
G01*
X28175000Y-22137500D01*
G75*
G02*
X28237500Y-22075000I62500J0D01*
G01*
G37*
G36*
G01*
X28237500Y-22575000D02*
X28887500Y-22575000D01*
G75*
G02*
X28950000Y-22637500I0J-62500D01*
G01*
X28950000Y-22762500D01*
G75*
G02*
X28887500Y-22825000I-62500J0D01*
G01*
X28237500Y-22825000D01*
G75*
G02*
X28175000Y-22762500I0J62500D01*
G01*
X28175000Y-22637500D01*
G75*
G02*
X28237500Y-22575000I62500J0D01*
G01*
G37*
G36*
G01*
X28237500Y-23075000D02*
X28887500Y-23075000D01*
G75*
G02*
X28950000Y-23137500I0J-62500D01*
G01*
X28950000Y-23262500D01*
G75*
G02*
X28887500Y-23325000I-62500J0D01*
G01*
X28237500Y-23325000D01*
G75*
G02*
X28175000Y-23262500I0J62500D01*
G01*
X28175000Y-23137500D01*
G75*
G02*
X28237500Y-23075000I62500J0D01*
G01*
G37*
G36*
G01*
X28237500Y-23575000D02*
X28887500Y-23575000D01*
G75*
G02*
X28950000Y-23637500I0J-62500D01*
G01*
X28950000Y-23762500D01*
G75*
G02*
X28887500Y-23825000I-62500J0D01*
G01*
X28237500Y-23825000D01*
G75*
G02*
X28175000Y-23762500I0J62500D01*
G01*
X28175000Y-23637500D01*
G75*
G02*
X28237500Y-23575000I62500J0D01*
G01*
G37*
G36*
G01*
X29237500Y-24050000D02*
X29362500Y-24050000D01*
G75*
G02*
X29425000Y-24112500I0J-62500D01*
G01*
X29425000Y-24762500D01*
G75*
G02*
X29362500Y-24825000I-62500J0D01*
G01*
X29237500Y-24825000D01*
G75*
G02*
X29175000Y-24762500I0J62500D01*
G01*
X29175000Y-24112500D01*
G75*
G02*
X29237500Y-24050000I62500J0D01*
G01*
G37*
G36*
G01*
X29737500Y-24050000D02*
X29862500Y-24050000D01*
G75*
G02*
X29925000Y-24112500I0J-62500D01*
G01*
X29925000Y-24762500D01*
G75*
G02*
X29862500Y-24825000I-62500J0D01*
G01*
X29737500Y-24825000D01*
G75*
G02*
X29675000Y-24762500I0J62500D01*
G01*
X29675000Y-24112500D01*
G75*
G02*
X29737500Y-24050000I62500J0D01*
G01*
G37*
G36*
G01*
X30237500Y-24050000D02*
X30362500Y-24050000D01*
G75*
G02*
X30425000Y-24112500I0J-62500D01*
G01*
X30425000Y-24762500D01*
G75*
G02*
X30362500Y-24825000I-62500J0D01*
G01*
X30237500Y-24825000D01*
G75*
G02*
X30175000Y-24762500I0J62500D01*
G01*
X30175000Y-24112500D01*
G75*
G02*
X30237500Y-24050000I62500J0D01*
G01*
G37*
G36*
G01*
X30737500Y-24050000D02*
X30862500Y-24050000D01*
G75*
G02*
X30925000Y-24112500I0J-62500D01*
G01*
X30925000Y-24762500D01*
G75*
G02*
X30862500Y-24825000I-62500J0D01*
G01*
X30737500Y-24825000D01*
G75*
G02*
X30675000Y-24762500I0J62500D01*
G01*
X30675000Y-24112500D01*
G75*
G02*
X30737500Y-24050000I62500J0D01*
G01*
G37*
G36*
G01*
X31212500Y-23575000D02*
X31862500Y-23575000D01*
G75*
G02*
X31925000Y-23637500I0J-62500D01*
G01*
X31925000Y-23762500D01*
G75*
G02*
X31862500Y-23825000I-62500J0D01*
G01*
X31212500Y-23825000D01*
G75*
G02*
X31150000Y-23762500I0J62500D01*
G01*
X31150000Y-23637500D01*
G75*
G02*
X31212500Y-23575000I62500J0D01*
G01*
G37*
G36*
G01*
X31212500Y-23075000D02*
X31862500Y-23075000D01*
G75*
G02*
X31925000Y-23137500I0J-62500D01*
G01*
X31925000Y-23262500D01*
G75*
G02*
X31862500Y-23325000I-62500J0D01*
G01*
X31212500Y-23325000D01*
G75*
G02*
X31150000Y-23262500I0J62500D01*
G01*
X31150000Y-23137500D01*
G75*
G02*
X31212500Y-23075000I62500J0D01*
G01*
G37*
G36*
G01*
X31212500Y-22575000D02*
X31862500Y-22575000D01*
G75*
G02*
X31925000Y-22637500I0J-62500D01*
G01*
X31925000Y-22762500D01*
G75*
G02*
X31862500Y-22825000I-62500J0D01*
G01*
X31212500Y-22825000D01*
G75*
G02*
X31150000Y-22762500I0J62500D01*
G01*
X31150000Y-22637500D01*
G75*
G02*
X31212500Y-22575000I62500J0D01*
G01*
G37*
G36*
G01*
X31212500Y-22075000D02*
X31862500Y-22075000D01*
G75*
G02*
X31925000Y-22137500I0J-62500D01*
G01*
X31925000Y-22262500D01*
G75*
G02*
X31862500Y-22325000I-62500J0D01*
G01*
X31212500Y-22325000D01*
G75*
G02*
X31150000Y-22262500I0J62500D01*
G01*
X31150000Y-22137500D01*
G75*
G02*
X31212500Y-22075000I62500J0D01*
G01*
G37*
G36*
G01*
X30737500Y-21075000D02*
X30862500Y-21075000D01*
G75*
G02*
X30925000Y-21137500I0J-62500D01*
G01*
X30925000Y-21787500D01*
G75*
G02*
X30862500Y-21850000I-62500J0D01*
G01*
X30737500Y-21850000D01*
G75*
G02*
X30675000Y-21787500I0J62500D01*
G01*
X30675000Y-21137500D01*
G75*
G02*
X30737500Y-21075000I62500J0D01*
G01*
G37*
G36*
G01*
X30237500Y-21075000D02*
X30362500Y-21075000D01*
G75*
G02*
X30425000Y-21137500I0J-62500D01*
G01*
X30425000Y-21787500D01*
G75*
G02*
X30362500Y-21850000I-62500J0D01*
G01*
X30237500Y-21850000D01*
G75*
G02*
X30175000Y-21787500I0J62500D01*
G01*
X30175000Y-21137500D01*
G75*
G02*
X30237500Y-21075000I62500J0D01*
G01*
G37*
G36*
G01*
X29737500Y-21075000D02*
X29862500Y-21075000D01*
G75*
G02*
X29925000Y-21137500I0J-62500D01*
G01*
X29925000Y-21787500D01*
G75*
G02*
X29862500Y-21850000I-62500J0D01*
G01*
X29737500Y-21850000D01*
G75*
G02*
X29675000Y-21787500I0J62500D01*
G01*
X29675000Y-21137500D01*
G75*
G02*
X29737500Y-21075000I62500J0D01*
G01*
G37*
G36*
G01*
X29237500Y-21075000D02*
X29362500Y-21075000D01*
G75*
G02*
X29425000Y-21137500I0J-62500D01*
G01*
X29425000Y-21787500D01*
G75*
G02*
X29362500Y-21850000I-62500J0D01*
G01*
X29237500Y-21850000D01*
G75*
G02*
X29175000Y-21787500I0J62500D01*
G01*
X29175000Y-21137500D01*
G75*
G02*
X29237500Y-21075000I62500J0D01*
G01*
G37*
G36*
G01*
X33003500Y-44279000D02*
X32528500Y-44279000D01*
G75*
G02*
X32291000Y-44041500I0J237500D01*
G01*
X32291000Y-43541500D01*
G75*
G02*
X32528500Y-43304000I237500J0D01*
G01*
X33003500Y-43304000D01*
G75*
G02*
X33241000Y-43541500I0J-237500D01*
G01*
X33241000Y-44041500D01*
G75*
G02*
X33003500Y-44279000I-237500J0D01*
G01*
G37*
G36*
G01*
X33003500Y-46104000D02*
X32528500Y-46104000D01*
G75*
G02*
X32291000Y-45866500I0J237500D01*
G01*
X32291000Y-45366500D01*
G75*
G02*
X32528500Y-45129000I237500J0D01*
G01*
X33003500Y-45129000D01*
G75*
G02*
X33241000Y-45366500I0J-237500D01*
G01*
X33241000Y-45866500D01*
G75*
G02*
X33003500Y-46104000I-237500J0D01*
G01*
G37*
G36*
G01*
X34052500Y-44240000D02*
X34527500Y-44240000D01*
G75*
G02*
X34765000Y-44477500I0J-237500D01*
G01*
X34765000Y-44977500D01*
G75*
G02*
X34527500Y-45215000I-237500J0D01*
G01*
X34052500Y-45215000D01*
G75*
G02*
X33815000Y-44977500I0J237500D01*
G01*
X33815000Y-44477500D01*
G75*
G02*
X34052500Y-44240000I237500J0D01*
G01*
G37*
G36*
G01*
X34052500Y-42415000D02*
X34527500Y-42415000D01*
G75*
G02*
X34765000Y-42652500I0J-237500D01*
G01*
X34765000Y-43152500D01*
G75*
G02*
X34527500Y-43390000I-237500J0D01*
G01*
X34052500Y-43390000D01*
G75*
G02*
X33815000Y-43152500I0J237500D01*
G01*
X33815000Y-42652500D01*
G75*
G02*
X34052500Y-42415000I237500J0D01*
G01*
G37*
D10*
X33544000Y-39878000D03*
X35544000Y-40828000D03*
X35544000Y-38928000D03*
G36*
G01*
X13945000Y-30300000D02*
X14245000Y-30300000D01*
G75*
G02*
X14395000Y-30450000I0J-150000D01*
G01*
X14395000Y-31750000D01*
G75*
G02*
X14245000Y-31900000I-150000J0D01*
G01*
X13945000Y-31900000D01*
G75*
G02*
X13795000Y-31750000I0J150000D01*
G01*
X13795000Y-30450000D01*
G75*
G02*
X13945000Y-30300000I150000J0D01*
G01*
G37*
G36*
G01*
X15215000Y-30300000D02*
X15515000Y-30300000D01*
G75*
G02*
X15665000Y-30450000I0J-150000D01*
G01*
X15665000Y-31750000D01*
G75*
G02*
X15515000Y-31900000I-150000J0D01*
G01*
X15215000Y-31900000D01*
G75*
G02*
X15065000Y-31750000I0J150000D01*
G01*
X15065000Y-30450000D01*
G75*
G02*
X15215000Y-30300000I150000J0D01*
G01*
G37*
G36*
G01*
X16485000Y-30300000D02*
X16785000Y-30300000D01*
G75*
G02*
X16935000Y-30450000I0J-150000D01*
G01*
X16935000Y-31750000D01*
G75*
G02*
X16785000Y-31900000I-150000J0D01*
G01*
X16485000Y-31900000D01*
G75*
G02*
X16335000Y-31750000I0J150000D01*
G01*
X16335000Y-30450000D01*
G75*
G02*
X16485000Y-30300000I150000J0D01*
G01*
G37*
G36*
G01*
X17755000Y-30300000D02*
X18055000Y-30300000D01*
G75*
G02*
X18205000Y-30450000I0J-150000D01*
G01*
X18205000Y-31750000D01*
G75*
G02*
X18055000Y-31900000I-150000J0D01*
G01*
X17755000Y-31900000D01*
G75*
G02*
X17605000Y-31750000I0J150000D01*
G01*
X17605000Y-30450000D01*
G75*
G02*
X17755000Y-30300000I150000J0D01*
G01*
G37*
G36*
G01*
X17755000Y-23100000D02*
X18055000Y-23100000D01*
G75*
G02*
X18205000Y-23250000I0J-150000D01*
G01*
X18205000Y-24550000D01*
G75*
G02*
X18055000Y-24700000I-150000J0D01*
G01*
X17755000Y-24700000D01*
G75*
G02*
X17605000Y-24550000I0J150000D01*
G01*
X17605000Y-23250000D01*
G75*
G02*
X17755000Y-23100000I150000J0D01*
G01*
G37*
G36*
G01*
X16485000Y-23100000D02*
X16785000Y-23100000D01*
G75*
G02*
X16935000Y-23250000I0J-150000D01*
G01*
X16935000Y-24550000D01*
G75*
G02*
X16785000Y-24700000I-150000J0D01*
G01*
X16485000Y-24700000D01*
G75*
G02*
X16335000Y-24550000I0J150000D01*
G01*
X16335000Y-23250000D01*
G75*
G02*
X16485000Y-23100000I150000J0D01*
G01*
G37*
G36*
G01*
X15215000Y-23100000D02*
X15515000Y-23100000D01*
G75*
G02*
X15665000Y-23250000I0J-150000D01*
G01*
X15665000Y-24550000D01*
G75*
G02*
X15515000Y-24700000I-150000J0D01*
G01*
X15215000Y-24700000D01*
G75*
G02*
X15065000Y-24550000I0J150000D01*
G01*
X15065000Y-23250000D01*
G75*
G02*
X15215000Y-23100000I150000J0D01*
G01*
G37*
G36*
G01*
X13945000Y-23100000D02*
X14245000Y-23100000D01*
G75*
G02*
X14395000Y-23250000I0J-150000D01*
G01*
X14395000Y-24550000D01*
G75*
G02*
X14245000Y-24700000I-150000J0D01*
G01*
X13945000Y-24700000D01*
G75*
G02*
X13795000Y-24550000I0J150000D01*
G01*
X13795000Y-23250000D01*
G75*
G02*
X13945000Y-23100000I150000J0D01*
G01*
G37*
G36*
G01*
X20861000Y-23183000D02*
X21811000Y-23183000D01*
G75*
G02*
X22061000Y-23433000I0J-250000D01*
G01*
X22061000Y-24108000D01*
G75*
G02*
X21811000Y-24358000I-250000J0D01*
G01*
X20861000Y-24358000D01*
G75*
G02*
X20611000Y-24108000I0J250000D01*
G01*
X20611000Y-23433000D01*
G75*
G02*
X20861000Y-23183000I250000J0D01*
G01*
G37*
G36*
G01*
X20861000Y-21108000D02*
X21811000Y-21108000D01*
G75*
G02*
X22061000Y-21358000I0J-250000D01*
G01*
X22061000Y-22033000D01*
G75*
G02*
X21811000Y-22283000I-250000J0D01*
G01*
X20861000Y-22283000D01*
G75*
G02*
X20611000Y-22033000I0J250000D01*
G01*
X20611000Y-21358000D01*
G75*
G02*
X20861000Y-21108000I250000J0D01*
G01*
G37*
G36*
G01*
X15025000Y-20450000D02*
X15975000Y-20450000D01*
G75*
G02*
X16225000Y-20700000I0J-250000D01*
G01*
X16225000Y-21375000D01*
G75*
G02*
X15975000Y-21625000I-250000J0D01*
G01*
X15025000Y-21625000D01*
G75*
G02*
X14775000Y-21375000I0J250000D01*
G01*
X14775000Y-20700000D01*
G75*
G02*
X15025000Y-20450000I250000J0D01*
G01*
G37*
G36*
G01*
X15025000Y-18375000D02*
X15975000Y-18375000D01*
G75*
G02*
X16225000Y-18625000I0J-250000D01*
G01*
X16225000Y-19300000D01*
G75*
G02*
X15975000Y-19550000I-250000J0D01*
G01*
X15025000Y-19550000D01*
G75*
G02*
X14775000Y-19300000I0J250000D01*
G01*
X14775000Y-18625000D01*
G75*
G02*
X15025000Y-18375000I250000J0D01*
G01*
G37*
G36*
G01*
X33650000Y-16762500D02*
X33650000Y-17237500D01*
G75*
G02*
X33412500Y-17475000I-237500J0D01*
G01*
X32837500Y-17475000D01*
G75*
G02*
X32600000Y-17237500I0J237500D01*
G01*
X32600000Y-16762500D01*
G75*
G02*
X32837500Y-16525000I237500J0D01*
G01*
X33412500Y-16525000D01*
G75*
G02*
X33650000Y-16762500I0J-237500D01*
G01*
G37*
G36*
G01*
X35400000Y-16762500D02*
X35400000Y-17237500D01*
G75*
G02*
X35162500Y-17475000I-237500J0D01*
G01*
X34587500Y-17475000D01*
G75*
G02*
X34350000Y-17237500I0J237500D01*
G01*
X34350000Y-16762500D01*
G75*
G02*
X34587500Y-16525000I237500J0D01*
G01*
X35162500Y-16525000D01*
G75*
G02*
X35400000Y-16762500I0J-237500D01*
G01*
G37*
G36*
G01*
X31737500Y-18575000D02*
X31262500Y-18575000D01*
G75*
G02*
X31025000Y-18337500I0J237500D01*
G01*
X31025000Y-17837500D01*
G75*
G02*
X31262500Y-17600000I237500J0D01*
G01*
X31737500Y-17600000D01*
G75*
G02*
X31975000Y-17837500I0J-237500D01*
G01*
X31975000Y-18337500D01*
G75*
G02*
X31737500Y-18575000I-237500J0D01*
G01*
G37*
G36*
G01*
X31737500Y-20400000D02*
X31262500Y-20400000D01*
G75*
G02*
X31025000Y-20162500I0J237500D01*
G01*
X31025000Y-19662500D01*
G75*
G02*
X31262500Y-19425000I237500J0D01*
G01*
X31737500Y-19425000D01*
G75*
G02*
X31975000Y-19662500I0J-237500D01*
G01*
X31975000Y-20162500D01*
G75*
G02*
X31737500Y-20400000I-237500J0D01*
G01*
G37*
G36*
G01*
X17848553Y-45901952D02*
X17309738Y-46440767D01*
G75*
G02*
X16770922Y-46440767I-269408J269408D01*
G01*
X16232107Y-45901952D01*
G75*
G02*
X16232107Y-45363136I269408J269408D01*
G01*
X16770922Y-44824321D01*
G75*
G02*
X17309738Y-44824321I269408J-269408D01*
G01*
X17848553Y-45363136D01*
G75*
G02*
X17848553Y-45901952I-269408J-269408D01*
G01*
G37*
G36*
G01*
X19262767Y-44487738D02*
X18723952Y-45026553D01*
G75*
G02*
X18185136Y-45026553I-269408J269408D01*
G01*
X17646321Y-44487738D01*
G75*
G02*
X17646321Y-43948922I269408J269408D01*
G01*
X18185136Y-43410107D01*
G75*
G02*
X18723952Y-43410107I269408J-269408D01*
G01*
X19262767Y-43948922D01*
G75*
G02*
X19262767Y-44487738I-269408J-269408D01*
G01*
G37*
G36*
G01*
X16787893Y-42012864D02*
X16249078Y-42551679D01*
G75*
G02*
X15710262Y-42551679I-269408J269408D01*
G01*
X15171447Y-42012864D01*
G75*
G02*
X15171447Y-41474048I269408J269408D01*
G01*
X15710262Y-40935233D01*
G75*
G02*
X16249078Y-40935233I269408J-269408D01*
G01*
X16787893Y-41474048D01*
G75*
G02*
X16787893Y-42012864I-269408J-269408D01*
G01*
G37*
G36*
G01*
X15373679Y-43427078D02*
X14834864Y-43965893D01*
G75*
G02*
X14296048Y-43965893I-269408J269408D01*
G01*
X13757233Y-43427078D01*
G75*
G02*
X13757233Y-42888262I269408J269408D01*
G01*
X14296048Y-42349447D01*
G75*
G02*
X14834864Y-42349447I269408J-269408D01*
G01*
X15373679Y-42888262D01*
G75*
G02*
X15373679Y-43427078I-269408J-269408D01*
G01*
G37*
D11*
X21750000Y-17700000D03*
X21750000Y-19800000D03*
D12*
X27200000Y-18750000D03*
X29300000Y-18750000D03*
G36*
G01*
X33650000Y-19762500D02*
X33650000Y-20237500D01*
G75*
G02*
X33412500Y-20475000I-237500J0D01*
G01*
X32837500Y-20475000D01*
G75*
G02*
X32600000Y-20237500I0J237500D01*
G01*
X32600000Y-19762500D01*
G75*
G02*
X32837500Y-19525000I237500J0D01*
G01*
X33412500Y-19525000D01*
G75*
G02*
X33650000Y-19762500I0J-237500D01*
G01*
G37*
G36*
G01*
X35400000Y-19762500D02*
X35400000Y-20237500D01*
G75*
G02*
X35162500Y-20475000I-237500J0D01*
G01*
X34587500Y-20475000D01*
G75*
G02*
X34350000Y-20237500I0J237500D01*
G01*
X34350000Y-19762500D01*
G75*
G02*
X34587500Y-19525000I237500J0D01*
G01*
X35162500Y-19525000D01*
G75*
G02*
X35400000Y-19762500I0J-237500D01*
G01*
G37*
D13*
X18650000Y-18900000D03*
X17350000Y-18900000D03*
X18000000Y-21100000D03*
X18000000Y-18900000D03*
X17350000Y-21100000D03*
X18650000Y-21100000D03*
G36*
G01*
X34350000Y-23237500D02*
X34350000Y-22762500D01*
G75*
G02*
X34587500Y-22525000I237500J0D01*
G01*
X35162500Y-22525000D01*
G75*
G02*
X35400000Y-22762500I0J-237500D01*
G01*
X35400000Y-23237500D01*
G75*
G02*
X35162500Y-23475000I-237500J0D01*
G01*
X34587500Y-23475000D01*
G75*
G02*
X34350000Y-23237500I0J237500D01*
G01*
G37*
G36*
G01*
X32600000Y-23237500D02*
X32600000Y-22762500D01*
G75*
G02*
X32837500Y-22525000I237500J0D01*
G01*
X33412500Y-22525000D01*
G75*
G02*
X33650000Y-22762500I0J-237500D01*
G01*
X33650000Y-23237500D01*
G75*
G02*
X33412500Y-23475000I-237500J0D01*
G01*
X32837500Y-23475000D01*
G75*
G02*
X32600000Y-23237500I0J237500D01*
G01*
G37*
G36*
G01*
X34350000Y-27737500D02*
X34350000Y-27262500D01*
G75*
G02*
X34587500Y-27025000I237500J0D01*
G01*
X35162500Y-27025000D01*
G75*
G02*
X35400000Y-27262500I0J-237500D01*
G01*
X35400000Y-27737500D01*
G75*
G02*
X35162500Y-27975000I-237500J0D01*
G01*
X34587500Y-27975000D01*
G75*
G02*
X34350000Y-27737500I0J237500D01*
G01*
G37*
G36*
G01*
X32600000Y-27737500D02*
X32600000Y-27262500D01*
G75*
G02*
X32837500Y-27025000I237500J0D01*
G01*
X33412500Y-27025000D01*
G75*
G02*
X33650000Y-27262500I0J-237500D01*
G01*
X33650000Y-27737500D01*
G75*
G02*
X33412500Y-27975000I-237500J0D01*
G01*
X32837500Y-27975000D01*
G75*
G02*
X32600000Y-27737500I0J237500D01*
G01*
G37*
G36*
G01*
X33650000Y-25762500D02*
X33650000Y-26237500D01*
G75*
G02*
X33412500Y-26475000I-237500J0D01*
G01*
X32837500Y-26475000D01*
G75*
G02*
X32600000Y-26237500I0J237500D01*
G01*
X32600000Y-25762500D01*
G75*
G02*
X32837500Y-25525000I237500J0D01*
G01*
X33412500Y-25525000D01*
G75*
G02*
X33650000Y-25762500I0J-237500D01*
G01*
G37*
G36*
G01*
X35400000Y-25762500D02*
X35400000Y-26237500D01*
G75*
G02*
X35162500Y-26475000I-237500J0D01*
G01*
X34587500Y-26475000D01*
G75*
G02*
X34350000Y-26237500I0J237500D01*
G01*
X34350000Y-25762500D01*
G75*
G02*
X34587500Y-25525000I237500J0D01*
G01*
X35162500Y-25525000D01*
G75*
G02*
X35400000Y-25762500I0J-237500D01*
G01*
G37*
G36*
G01*
X34350000Y-24737500D02*
X34350000Y-24262500D01*
G75*
G02*
X34587500Y-24025000I237500J0D01*
G01*
X35162500Y-24025000D01*
G75*
G02*
X35400000Y-24262500I0J-237500D01*
G01*
X35400000Y-24737500D01*
G75*
G02*
X35162500Y-24975000I-237500J0D01*
G01*
X34587500Y-24975000D01*
G75*
G02*
X34350000Y-24737500I0J237500D01*
G01*
G37*
G36*
G01*
X32600000Y-24737500D02*
X32600000Y-24262500D01*
G75*
G02*
X32837500Y-24025000I237500J0D01*
G01*
X33412500Y-24025000D01*
G75*
G02*
X33650000Y-24262500I0J-237500D01*
G01*
X33650000Y-24737500D01*
G75*
G02*
X33412500Y-24975000I-237500J0D01*
G01*
X32837500Y-24975000D01*
G75*
G02*
X32600000Y-24737500I0J237500D01*
G01*
G37*
G36*
G01*
X29762500Y-28350000D02*
X30237500Y-28350000D01*
G75*
G02*
X30475000Y-28587500I0J-237500D01*
G01*
X30475000Y-29162500D01*
G75*
G02*
X30237500Y-29400000I-237500J0D01*
G01*
X29762500Y-29400000D01*
G75*
G02*
X29525000Y-29162500I0J237500D01*
G01*
X29525000Y-28587500D01*
G75*
G02*
X29762500Y-28350000I237500J0D01*
G01*
G37*
G36*
G01*
X29762500Y-26600000D02*
X30237500Y-26600000D01*
G75*
G02*
X30475000Y-26837500I0J-237500D01*
G01*
X30475000Y-27412500D01*
G75*
G02*
X30237500Y-27650000I-237500J0D01*
G01*
X29762500Y-27650000D01*
G75*
G02*
X29525000Y-27412500I0J237500D01*
G01*
X29525000Y-26837500D01*
G75*
G02*
X29762500Y-26600000I237500J0D01*
G01*
G37*
G36*
G01*
X31262500Y-28350000D02*
X31737500Y-28350000D01*
G75*
G02*
X31975000Y-28587500I0J-237500D01*
G01*
X31975000Y-29162500D01*
G75*
G02*
X31737500Y-29400000I-237500J0D01*
G01*
X31262500Y-29400000D01*
G75*
G02*
X31025000Y-29162500I0J237500D01*
G01*
X31025000Y-28587500D01*
G75*
G02*
X31262500Y-28350000I237500J0D01*
G01*
G37*
G36*
G01*
X31262500Y-26600000D02*
X31737500Y-26600000D01*
G75*
G02*
X31975000Y-26837500I0J-237500D01*
G01*
X31975000Y-27412500D01*
G75*
G02*
X31737500Y-27650000I-237500J0D01*
G01*
X31262500Y-27650000D01*
G75*
G02*
X31025000Y-27412500I0J237500D01*
G01*
X31025000Y-26837500D01*
G75*
G02*
X31262500Y-26600000I237500J0D01*
G01*
G37*
G36*
G01*
X33650000Y-28762500D02*
X33650000Y-29237500D01*
G75*
G02*
X33412500Y-29475000I-237500J0D01*
G01*
X32837500Y-29475000D01*
G75*
G02*
X32600000Y-29237500I0J237500D01*
G01*
X32600000Y-28762500D01*
G75*
G02*
X32837500Y-28525000I237500J0D01*
G01*
X33412500Y-28525000D01*
G75*
G02*
X33650000Y-28762500I0J-237500D01*
G01*
G37*
G36*
G01*
X35400000Y-28762500D02*
X35400000Y-29237500D01*
G75*
G02*
X35162500Y-29475000I-237500J0D01*
G01*
X34587500Y-29475000D01*
G75*
G02*
X34350000Y-29237500I0J237500D01*
G01*
X34350000Y-28762500D01*
G75*
G02*
X34587500Y-28525000I237500J0D01*
G01*
X35162500Y-28525000D01*
G75*
G02*
X35400000Y-28762500I0J-237500D01*
G01*
G37*
G36*
G01*
X22737500Y-26650000D02*
X22262500Y-26650000D01*
G75*
G02*
X22025000Y-26412500I0J237500D01*
G01*
X22025000Y-25837500D01*
G75*
G02*
X22262500Y-25600000I237500J0D01*
G01*
X22737500Y-25600000D01*
G75*
G02*
X22975000Y-25837500I0J-237500D01*
G01*
X22975000Y-26412500D01*
G75*
G02*
X22737500Y-26650000I-237500J0D01*
G01*
G37*
G36*
G01*
X22737500Y-28400000D02*
X22262500Y-28400000D01*
G75*
G02*
X22025000Y-28162500I0J237500D01*
G01*
X22025000Y-27587500D01*
G75*
G02*
X22262500Y-27350000I237500J0D01*
G01*
X22737500Y-27350000D01*
G75*
G02*
X22975000Y-27587500I0J-237500D01*
G01*
X22975000Y-28162500D01*
G75*
G02*
X22737500Y-28400000I-237500J0D01*
G01*
G37*
G36*
G01*
X34350000Y-21737500D02*
X34350000Y-21262500D01*
G75*
G02*
X34587500Y-21025000I237500J0D01*
G01*
X35162500Y-21025000D01*
G75*
G02*
X35400000Y-21262500I0J-237500D01*
G01*
X35400000Y-21737500D01*
G75*
G02*
X35162500Y-21975000I-237500J0D01*
G01*
X34587500Y-21975000D01*
G75*
G02*
X34350000Y-21737500I0J237500D01*
G01*
G37*
G36*
G01*
X32600000Y-21737500D02*
X32600000Y-21262500D01*
G75*
G02*
X32837500Y-21025000I237500J0D01*
G01*
X33412500Y-21025000D01*
G75*
G02*
X33650000Y-21262500I0J-237500D01*
G01*
X33650000Y-21737500D01*
G75*
G02*
X33412500Y-21975000I-237500J0D01*
G01*
X32837500Y-21975000D01*
G75*
G02*
X32600000Y-21737500I0J237500D01*
G01*
G37*
G36*
G01*
X21237500Y-27150000D02*
X20762500Y-27150000D01*
G75*
G02*
X20525000Y-26912500I0J237500D01*
G01*
X20525000Y-26337500D01*
G75*
G02*
X20762500Y-26100000I237500J0D01*
G01*
X21237500Y-26100000D01*
G75*
G02*
X21475000Y-26337500I0J-237500D01*
G01*
X21475000Y-26912500D01*
G75*
G02*
X21237500Y-27150000I-237500J0D01*
G01*
G37*
G36*
G01*
X21237500Y-28900000D02*
X20762500Y-28900000D01*
G75*
G02*
X20525000Y-28662500I0J237500D01*
G01*
X20525000Y-28087500D01*
G75*
G02*
X20762500Y-27850000I237500J0D01*
G01*
X21237500Y-27850000D01*
G75*
G02*
X21475000Y-28087500I0J-237500D01*
G01*
X21475000Y-28662500D01*
G75*
G02*
X21237500Y-28900000I-237500J0D01*
G01*
G37*
G36*
G01*
X34350000Y-18737500D02*
X34350000Y-18262500D01*
G75*
G02*
X34587500Y-18025000I237500J0D01*
G01*
X35162500Y-18025000D01*
G75*
G02*
X35400000Y-18262500I0J-237500D01*
G01*
X35400000Y-18737500D01*
G75*
G02*
X35162500Y-18975000I-237500J0D01*
G01*
X34587500Y-18975000D01*
G75*
G02*
X34350000Y-18737500I0J237500D01*
G01*
G37*
G36*
G01*
X32600000Y-18737500D02*
X32600000Y-18262500D01*
G75*
G02*
X32837500Y-18025000I237500J0D01*
G01*
X33412500Y-18025000D01*
G75*
G02*
X33650000Y-18262500I0J-237500D01*
G01*
X33650000Y-18737500D01*
G75*
G02*
X33412500Y-18975000I-237500J0D01*
G01*
X32837500Y-18975000D01*
G75*
G02*
X32600000Y-18737500I0J237500D01*
G01*
G37*
G36*
G01*
X26559500Y-22476000D02*
X27034500Y-22476000D01*
G75*
G02*
X27272000Y-22713500I0J-237500D01*
G01*
X27272000Y-23288500D01*
G75*
G02*
X27034500Y-23526000I-237500J0D01*
G01*
X26559500Y-23526000D01*
G75*
G02*
X26322000Y-23288500I0J237500D01*
G01*
X26322000Y-22713500D01*
G75*
G02*
X26559500Y-22476000I237500J0D01*
G01*
G37*
G36*
G01*
X26559500Y-24226000D02*
X27034500Y-24226000D01*
G75*
G02*
X27272000Y-24463500I0J-237500D01*
G01*
X27272000Y-25038500D01*
G75*
G02*
X27034500Y-25276000I-237500J0D01*
G01*
X26559500Y-25276000D01*
G75*
G02*
X26322000Y-25038500I0J237500D01*
G01*
X26322000Y-24463500D01*
G75*
G02*
X26559500Y-24226000I237500J0D01*
G01*
G37*
M02*
