G04 #@! TF.GenerationSoftware,KiCad,Pcbnew,(5.1.9)-1*
G04 #@! TF.CreationDate,2021-12-22T17:42:01+01:00*
G04 #@! TF.ProjectId,Omamori,4f6d616d-6f72-4692-9e6b-696361645f70,rev?*
G04 #@! TF.SameCoordinates,Original*
G04 #@! TF.FileFunction,Copper,L1,Top*
G04 #@! TF.FilePolarity,Positive*
%FSLAX46Y46*%
G04 Gerber Fmt 4.6, Leading zero omitted, Abs format (unit mm)*
G04 Created by KiCad (PCBNEW (5.1.9)-1) date 2021-12-22 17:42:01*
%MOMM*%
%LPD*%
G01*
G04 APERTURE LIST*
G04 #@! TA.AperFunction,SMDPad,CuDef*
%ADD10R,7.400000X3.500000*%
G04 #@! TD*
G04 #@! TA.AperFunction,ComponentPad*
%ADD11C,2.000000*%
G04 #@! TD*
G04 #@! TA.AperFunction,ComponentPad*
%ADD12C,1.000000*%
G04 #@! TD*
G04 #@! TA.AperFunction,ComponentPad*
%ADD13O,1.000000X1.000000*%
G04 #@! TD*
G04 #@! TA.AperFunction,SMDPad,CuDef*
%ADD14R,1.000000X1.500000*%
G04 #@! TD*
G04 #@! TA.AperFunction,ViaPad*
%ADD15C,2.500000*%
G04 #@! TD*
G04 #@! TA.AperFunction,ViaPad*
%ADD16C,0.800000*%
G04 #@! TD*
G04 #@! TA.AperFunction,Conductor*
%ADD17C,1.000000*%
G04 #@! TD*
G04 #@! TA.AperFunction,Conductor*
%ADD18C,0.500000*%
G04 #@! TD*
G04 #@! TA.AperFunction,Conductor*
%ADD19C,0.250000*%
G04 #@! TD*
G04 APERTURE END LIST*
D10*
X16750000Y-19500000D03*
X16750000Y-40500000D03*
X33250000Y-19500000D03*
X33250000Y-40500000D03*
D11*
X17000000Y-37000000D03*
X33000000Y-37000000D03*
D12*
X23250000Y-45800000D03*
D13*
X26980000Y-45800000D03*
X25710000Y-45800000D03*
X24440000Y-45800000D03*
D14*
X26600000Y-28050000D03*
X23400000Y-28050000D03*
X26600000Y-32950000D03*
X23400000Y-32950000D03*
D15*
X25000000Y-14500000D03*
D16*
X31371999Y-33652001D03*
X30734000Y-37084000D03*
X30734000Y-37084000D03*
X19710000Y-34290000D03*
X36250000Y-21750000D03*
X30099000Y-25908000D03*
X35560000Y-37084000D03*
X23400000Y-31600000D03*
X23400000Y-29337000D03*
X15240000Y-27432000D03*
X13970000Y-33020000D03*
X19000000Y-26500000D03*
X19000000Y-24003000D03*
X33782000Y-33020000D03*
X26162000Y-21590000D03*
X28702000Y-29210000D03*
D17*
X17000000Y-37000000D02*
X17000000Y-40500000D01*
X31371999Y-33652001D02*
X30734000Y-34290000D01*
X30734000Y-34290000D02*
X30734000Y-37084000D01*
X30734000Y-37084000D02*
X30734000Y-37084000D01*
X30734000Y-37084000D02*
X30734000Y-37084000D01*
X17000000Y-37000000D02*
X19710000Y-34290000D01*
X19710000Y-34290000D02*
X19710000Y-34290000D01*
X17000000Y-19500000D02*
X17000000Y-23500000D01*
X17000000Y-23500000D02*
X17000000Y-23576500D01*
X17000000Y-23500000D02*
X17000000Y-24302930D01*
X28302930Y-40500000D02*
X17000000Y-29197070D01*
X17000000Y-29197070D02*
X17000000Y-24302930D01*
X33250000Y-40500000D02*
X28302930Y-40500000D01*
X32750000Y-19500000D02*
X35750000Y-19500000D01*
X35750000Y-21250000D02*
X36250000Y-21750000D01*
X35750000Y-19500000D02*
X35750000Y-21250000D01*
X36250000Y-21750000D02*
X36250000Y-19320990D01*
X35500000Y-21750000D02*
X33250000Y-19500000D01*
X36250000Y-21750000D02*
X35500000Y-21750000D01*
D18*
X35560000Y-37084000D02*
X35560000Y-31623000D01*
X35560000Y-31369000D02*
X35560000Y-31623000D01*
X30099000Y-25908000D02*
X35560000Y-31369000D01*
D19*
X23350000Y-33000000D02*
X23400000Y-32950000D01*
X23400000Y-32950000D02*
X23200000Y-32950000D01*
D18*
X23400000Y-31600000D02*
X23400000Y-32950000D01*
D19*
X23400000Y-28100000D02*
X23400000Y-28050000D01*
X23400000Y-29178000D02*
X23400000Y-29178000D01*
D18*
X23400000Y-28050000D02*
X23400000Y-29337000D01*
X15240000Y-31750000D02*
X13970000Y-33020000D01*
X15240000Y-27432000D02*
X15240000Y-31750000D01*
D17*
X26600000Y-30200000D02*
X26799990Y-30399990D01*
X26600000Y-28050000D02*
X26600000Y-30200000D01*
X19899990Y-30399990D02*
X19899990Y-30377490D01*
X19000000Y-29477500D02*
X19000000Y-26500000D01*
X19899990Y-30377490D02*
X19000000Y-29477500D01*
X31161990Y-30399990D02*
X33782000Y-33020000D01*
X26600000Y-28050000D02*
X26600000Y-29614980D01*
X26799990Y-30399990D02*
X27385010Y-30399990D01*
X26600000Y-29373980D02*
X25573990Y-30399990D01*
X26600000Y-28050000D02*
X26600000Y-29373980D01*
X25573990Y-30399990D02*
X19899990Y-30399990D01*
X26799990Y-30399990D02*
X25573990Y-30399990D01*
X26600000Y-29360980D02*
X27639010Y-30399990D01*
X26600000Y-28050000D02*
X26600000Y-29360980D01*
X27639010Y-30399990D02*
X31161990Y-30399990D01*
X27385010Y-30399990D02*
X27639010Y-30399990D01*
X19000000Y-26500000D02*
X19000000Y-24003000D01*
X28702000Y-24130000D02*
X26162000Y-21590000D01*
X28702000Y-24130000D02*
X28702000Y-29199980D01*
M02*
