G04 #@! TF.GenerationSoftware,KiCad,Pcbnew,(6.0.5)*
G04 #@! TF.CreationDate,2022-11-13T23:19:37+01:00*
G04 #@! TF.ProjectId,Omamori,4f6d616d-6f72-4692-9e6b-696361645f70,rev?*
G04 #@! TF.SameCoordinates,Original*
G04 #@! TF.FileFunction,Copper,L1,Top*
G04 #@! TF.FilePolarity,Positive*
%FSLAX46Y46*%
G04 Gerber Fmt 4.6, Leading zero omitted, Abs format (unit mm)*
G04 Created by KiCad (PCBNEW (6.0.5)) date 2022-11-13 23:19:37*
%MOMM*%
%LPD*%
G01*
G04 APERTURE LIST*
G04 Aperture macros list*
%AMRoundRect*
0 Rectangle with rounded corners*
0 $1 Rounding radius*
0 $2 $3 $4 $5 $6 $7 $8 $9 X,Y pos of 4 corners*
0 Add a 4 corners polygon primitive as box body*
4,1,4,$2,$3,$4,$5,$6,$7,$8,$9,$2,$3,0*
0 Add four circle primitives for the rounded corners*
1,1,$1+$1,$2,$3*
1,1,$1+$1,$4,$5*
1,1,$1+$1,$6,$7*
1,1,$1+$1,$8,$9*
0 Add four rect primitives between the rounded corners*
20,1,$1+$1,$2,$3,$4,$5,0*
20,1,$1+$1,$4,$5,$6,$7,0*
20,1,$1+$1,$6,$7,$8,$9,0*
20,1,$1+$1,$8,$9,$2,$3,0*%
G04 Aperture macros list end*
G04 #@! TA.AperFunction,SMDPad,CuDef*
%ADD10R,7.400000X3.500000*%
G04 #@! TD*
G04 #@! TA.AperFunction,SMDPad,CuDef*
%ADD11RoundRect,0.243750X0.243750X0.456250X-0.243750X0.456250X-0.243750X-0.456250X0.243750X-0.456250X0*%
G04 #@! TD*
G04 #@! TA.AperFunction,ComponentPad*
%ADD12C,1.700000*%
G04 #@! TD*
G04 #@! TA.AperFunction,ComponentPad*
%ADD13O,1.700000X1.700000*%
G04 #@! TD*
G04 #@! TA.AperFunction,ComponentPad*
%ADD14C,2.500000*%
G04 #@! TD*
G04 #@! TA.AperFunction,ViaPad*
%ADD15C,0.800000*%
G04 #@! TD*
G04 #@! TA.AperFunction,Conductor*
%ADD16C,1.000000*%
G04 #@! TD*
G04 #@! TA.AperFunction,Conductor*
%ADD17C,0.500000*%
G04 #@! TD*
G04 #@! TA.AperFunction,Conductor*
%ADD18C,0.250000*%
G04 #@! TD*
G04 APERTURE END LIST*
D10*
X33250000Y-19500000D03*
X33250000Y-40500000D03*
X16750000Y-19500000D03*
X16750000Y-40500000D03*
D11*
X25937500Y-30000000D03*
X24062500Y-30000000D03*
X25937500Y-25200000D03*
X24062500Y-25200000D03*
X25937500Y-34800000D03*
X24062500Y-34800000D03*
D12*
X17375000Y-45000000D03*
D13*
X19915000Y-45000000D03*
X22455000Y-45000000D03*
X24995000Y-45000000D03*
X27535000Y-45000000D03*
X30075000Y-45000000D03*
X32615000Y-45000000D03*
D14*
X25000000Y-15000000D03*
X15500000Y-37100000D03*
X34500000Y-37100000D03*
D12*
X15200000Y-30425000D03*
D13*
X15200000Y-27885000D03*
X15200000Y-25345000D03*
D15*
X23175000Y-27725000D03*
X20500000Y-22250000D03*
X27793750Y-28693750D03*
X26500000Y-31950000D03*
X26800000Y-16900000D03*
X21300000Y-16850000D03*
X32750000Y-23950000D03*
X34550000Y-26600000D03*
X13500000Y-23300000D03*
X15400000Y-43300000D03*
X34250000Y-17100000D03*
X19750000Y-24250000D03*
X22250000Y-23362500D03*
X31600000Y-23950000D03*
X27000000Y-22100000D03*
X29500000Y-15050000D03*
X21600000Y-25200000D03*
X21600000Y-30000000D03*
X21600000Y-34800000D03*
X31400000Y-15200000D03*
X34250000Y-22150000D03*
D16*
X25450000Y-27725000D02*
X26487500Y-28762500D01*
X25425000Y-27725000D02*
X25450000Y-27725000D01*
X25937500Y-27212500D02*
X25937500Y-25200000D01*
X25425000Y-27725000D02*
X25937500Y-27212500D01*
X25425000Y-27725000D02*
X26825000Y-27725000D01*
X23175000Y-27725000D02*
X25425000Y-27725000D01*
X26825000Y-27725000D02*
X27793750Y-28693750D01*
X18655000Y-25345000D02*
X19750000Y-24250000D01*
X15200000Y-25345000D02*
X18655000Y-25345000D01*
X20637500Y-23362500D02*
X19750000Y-24250000D01*
X22250000Y-23362500D02*
X20637500Y-23362500D01*
X22624040Y-20650000D02*
X24237020Y-22262980D01*
X26487500Y-29486480D02*
X26487500Y-28762500D01*
X32750000Y-24515685D02*
X32015685Y-25250000D01*
X28032748Y-26000000D02*
X28141374Y-25891374D01*
X13750489Y-24649511D02*
X15875000Y-22525000D01*
X25510563Y-18189437D02*
X24310563Y-18189437D01*
X21300000Y-16850000D02*
X21387020Y-16937020D01*
X16137020Y-22262980D02*
X16050000Y-22350000D01*
X13750489Y-24649511D02*
X13750489Y-28975489D01*
X21387020Y-16937020D02*
X21387020Y-17987020D01*
X29500000Y-25750000D02*
X33700000Y-25750000D01*
X14500000Y-40500000D02*
X13600000Y-41400000D01*
X18012980Y-22262980D02*
X24962980Y-22262980D01*
X13600000Y-41400000D02*
X13600000Y-43800000D01*
X22300000Y-17850000D02*
X21300000Y-16850000D01*
X15500000Y-39250000D02*
X16750000Y-40500000D01*
X32015685Y-25250000D02*
X30750000Y-25250000D01*
X22200000Y-40500000D02*
X16750000Y-40500000D01*
X23339437Y-18189437D02*
X25400000Y-20250000D01*
X15500000Y-37250000D02*
X15500000Y-39250000D01*
X15875000Y-22525000D02*
X16137020Y-22262980D01*
X21300000Y-16850000D02*
X21300000Y-21450000D01*
X27793750Y-28693750D02*
X26487500Y-30000000D01*
X26487500Y-27250000D02*
X26487500Y-29486480D01*
X23062980Y-22262980D02*
X20587020Y-22262980D01*
X26487500Y-27545247D02*
X27766373Y-26266373D01*
X25400000Y-19278874D02*
X25400000Y-18300000D01*
X21387020Y-17987020D02*
X24600000Y-21200000D01*
X27766373Y-26266373D02*
X28141374Y-25891374D01*
X22639437Y-18189437D02*
X22300000Y-17850000D01*
X15240000Y-30480000D02*
X15240000Y-36990000D01*
X15875000Y-22525000D02*
X16050000Y-22350000D01*
X25400000Y-19278874D02*
X24310563Y-18189437D01*
X29887500Y-26600000D02*
X27793750Y-28693750D01*
X25400000Y-21100000D02*
X24600000Y-21900000D01*
X14800000Y-45000000D02*
X17375000Y-45000000D01*
X33700000Y-25750000D02*
X34550000Y-26600000D01*
X23062980Y-22262980D02*
X21387020Y-22262980D01*
X25400000Y-22700000D02*
X25400000Y-19278874D01*
X32015685Y-25250000D02*
X33200000Y-25250000D01*
X13750489Y-28975489D02*
X15200000Y-30425000D01*
X25850000Y-23150000D02*
X25400000Y-22700000D01*
X23339437Y-18189437D02*
X22639437Y-18189437D01*
X24310563Y-18189437D02*
X23339437Y-18189437D01*
X21387020Y-18687020D02*
X21387020Y-22262980D01*
X24600000Y-21900000D02*
X24237020Y-22262980D01*
X24237020Y-22262980D02*
X23062980Y-22262980D01*
X22200000Y-19500000D02*
X22200000Y-20650000D01*
X34550000Y-26600000D02*
X29887500Y-26600000D01*
X26487500Y-28762500D02*
X26487500Y-29502480D01*
X16750000Y-40500000D02*
X14500000Y-40500000D01*
X26487500Y-36212500D02*
X22200000Y-40500000D01*
X26487500Y-36212500D02*
X26487500Y-23787500D01*
X30750000Y-25250000D02*
X28782747Y-25250000D01*
X25400000Y-19278874D02*
X25400000Y-21100000D01*
X25400000Y-20950000D02*
X22300000Y-17850000D01*
X26800000Y-16900000D02*
X25510563Y-18189437D01*
X28141374Y-25891374D02*
X28782747Y-25250000D01*
X21387020Y-22262980D02*
X18012980Y-22262980D01*
X32750000Y-23950000D02*
X32750000Y-24800000D01*
X25400000Y-18300000D02*
X26800000Y-16900000D01*
X22200000Y-21600000D02*
X24300000Y-21600000D01*
X24962980Y-22262980D02*
X25400000Y-22700000D01*
X24300000Y-21600000D02*
X24600000Y-21900000D01*
X24962980Y-22262980D02*
X25850000Y-23150000D01*
X16137020Y-22262980D02*
X24962980Y-22262980D01*
X13600000Y-43800000D02*
X14800000Y-45000000D01*
X26487500Y-26000000D02*
X26487500Y-23787500D01*
X24600000Y-21200000D02*
X24600000Y-21900000D01*
X26487500Y-28762500D02*
X29500000Y-25750000D01*
X26487500Y-23787500D02*
X25850000Y-23150000D01*
X22200000Y-20650000D02*
X22200000Y-21600000D01*
X18012980Y-22262980D02*
X16137020Y-22262980D01*
X22025000Y-19325000D02*
X21387020Y-18687020D01*
X26487500Y-30000000D02*
X26487500Y-27545247D01*
X15240000Y-36990000D02*
X15500000Y-37250000D01*
X32750000Y-24800000D02*
X33700000Y-25750000D01*
X24600000Y-21900000D02*
X25400000Y-22700000D01*
X30750000Y-25250000D02*
X26625000Y-25250000D01*
X27950000Y-25250000D02*
X28782747Y-25250000D01*
X32750000Y-23950000D02*
X32750000Y-24515685D01*
X26487500Y-26000000D02*
X28032748Y-26000000D01*
X22025000Y-19325000D02*
X22200000Y-19500000D01*
X26487500Y-32750000D02*
X26487500Y-27250000D01*
X21387020Y-17987020D02*
X21387020Y-18687020D01*
X26487500Y-23787500D02*
X27950000Y-25250000D01*
X21300000Y-21450000D02*
X20500000Y-22250000D01*
X25400000Y-21100000D02*
X25400000Y-20950000D01*
X24600000Y-21900000D02*
X22025000Y-19325000D01*
X22200000Y-20650000D02*
X22624040Y-20650000D01*
X25400000Y-20250000D02*
X25400000Y-21100000D01*
X33200000Y-25250000D02*
X33700000Y-25750000D01*
X33250000Y-40500000D02*
X33850000Y-40500000D01*
X13500000Y-23300000D02*
X13500000Y-21250000D01*
X22800000Y-43300000D02*
X15400000Y-43300000D01*
X13500000Y-21250000D02*
X15250000Y-19500000D01*
X15250000Y-19500000D02*
X16750000Y-19500000D01*
X25600000Y-40500000D02*
X22800000Y-43300000D01*
X33250000Y-40500000D02*
X25600000Y-40500000D01*
X34250000Y-18500000D02*
X33250000Y-19500000D01*
X34250000Y-17100000D02*
X34250000Y-18500000D01*
X27000000Y-22100000D02*
X28850000Y-23950000D01*
X28850000Y-23950000D02*
X31600000Y-23950000D01*
X35749999Y-25395043D02*
X33004956Y-22650000D01*
X29104956Y-22650000D02*
X27950000Y-21495044D01*
X33004956Y-22650000D02*
X29104956Y-22650000D01*
X27950000Y-21495044D02*
X27950000Y-16600000D01*
X27950000Y-16600000D02*
X29500000Y-15050000D01*
X35749999Y-25395043D02*
X35749999Y-35850001D01*
X35749999Y-35850001D02*
X34500000Y-37100000D01*
X21600000Y-25200000D02*
X24062500Y-25200000D01*
X21600000Y-30000000D02*
X24062500Y-30000000D01*
X21600000Y-34800000D02*
X24062500Y-34800000D01*
D17*
X28950000Y-21200000D02*
X28950000Y-18750000D01*
X28950000Y-17650000D02*
X29600000Y-17000000D01*
X29450000Y-21700000D02*
X28950000Y-21200000D01*
D18*
X31350000Y-15250000D02*
X31400000Y-15200000D01*
D17*
X34250000Y-22150000D02*
X33800000Y-21700000D01*
X29600000Y-17000000D02*
X31350000Y-15250000D01*
X28950000Y-18750000D02*
X28950000Y-17650000D01*
X33800000Y-21700000D02*
X29450000Y-21700000D01*
M02*
