G04 #@! TF.GenerationSoftware,KiCad,Pcbnew,(6.0.5)*
G04 #@! TF.CreationDate,2022-11-13T23:19:37+01:00*
G04 #@! TF.ProjectId,Omamori,4f6d616d-6f72-4692-9e6b-696361645f70,rev?*
G04 #@! TF.SameCoordinates,Original*
G04 #@! TF.FileFunction,Soldermask,Bot*
G04 #@! TF.FilePolarity,Negative*
%FSLAX46Y46*%
G04 Gerber Fmt 4.6, Leading zero omitted, Abs format (unit mm)*
G04 Created by KiCad (PCBNEW (6.0.5)) date 2022-11-13 23:19:37*
%MOMM*%
%LPD*%
G01*
G04 APERTURE LIST*
G04 Aperture macros list*
%AMRoundRect*
0 Rectangle with rounded corners*
0 $1 Rounding radius*
0 $2 $3 $4 $5 $6 $7 $8 $9 X,Y pos of 4 corners*
0 Add a 4 corners polygon primitive as box body*
4,1,4,$2,$3,$4,$5,$6,$7,$8,$9,$2,$3,0*
0 Add four circle primitives for the rounded corners*
1,1,$1+$1,$2,$3*
1,1,$1+$1,$4,$5*
1,1,$1+$1,$6,$7*
1,1,$1+$1,$8,$9*
0 Add four rect primitives between the rounded corners*
20,1,$1+$1,$2,$3,$4,$5,0*
20,1,$1+$1,$4,$5,$6,$7,0*
20,1,$1+$1,$6,$7,$8,$9,0*
20,1,$1+$1,$8,$9,$2,$3,0*%
%AMFreePoly0*
4,1,21,1.051062,1.981062,1.066000,1.945000,1.066000,1.170000,1.051520,1.134401,0.486000,0.554255,0.486000,-0.554255,1.051520,-1.134401,1.066000,-1.170000,1.066000,-1.945000,1.051062,-1.981062,1.015000,-1.996000,0.125000,-1.996000,0.089264,-1.981386,-0.470736,-1.431386,-0.486000,-1.395000,-0.486000,1.395000,-0.470736,1.431386,0.089264,1.981386,0.125000,1.996000,1.015000,1.996000,
1.051062,1.981062,1.051062,1.981062,$1*%
%AMFreePoly1*
4,1,21,-0.089264,1.981386,0.470736,1.431386,0.486000,1.395000,0.486000,-1.395000,0.470736,-1.431386,-0.089264,-1.981386,-0.125000,-1.996000,-1.015000,-1.996000,-1.051062,-1.981062,-1.066000,-1.945000,-1.066000,-1.170000,-1.051520,-1.134401,-0.486000,-0.554255,-0.486000,0.554255,-1.051520,1.134401,-1.066000,1.170000,-1.066000,1.945000,-1.051062,1.981062,-1.015000,1.996000,-0.125000,1.996000,
-0.089264,1.981386,-0.089264,1.981386,$1*%
%AMFreePoly2*
4,1,28,0.369517,0.147118,0.404872,0.132473,0.432473,0.104872,0.447118,0.069517,0.451000,0.050000,0.451000,0.000711,0.447106,-0.018834,0.446811,-0.019545,0.432473,-0.054161,0.421417,-0.070706,0.370706,-0.121417,0.354161,-0.132473,0.318806,-0.147118,0.299289,-0.151000,-0.350000,-0.151000,-0.369517,-0.147118,-0.404872,-0.132473,-0.432473,-0.104872,-0.447118,-0.069517,-0.451000,-0.050000,
-0.451000,0.050000,-0.447118,0.069517,-0.432473,0.104872,-0.404872,0.132473,-0.369517,0.147118,-0.350000,0.151000,0.350000,0.151000,0.369517,0.147118,0.369517,0.147118,$1*%
%AMFreePoly3*
4,1,27,0.318806,0.147118,0.354161,0.132473,0.370706,0.121417,0.421417,0.070706,0.432473,0.054161,0.447118,0.018806,0.451000,-0.000711,0.451000,-0.050000,0.447118,-0.069517,0.432473,-0.104872,0.404872,-0.132473,0.369517,-0.147118,0.350000,-0.151000,-0.350000,-0.151000,-0.369517,-0.147118,-0.404872,-0.132473,-0.432473,-0.104872,-0.447118,-0.069517,-0.451000,-0.050000,-0.451000,0.050000,
-0.447118,0.069517,-0.432473,0.104872,-0.404872,0.132473,-0.369517,0.147118,-0.350000,0.151000,0.299289,0.151000,0.318806,0.147118,0.318806,0.147118,$1*%
%AMFreePoly4*
4,1,27,0.069517,0.447118,0.104872,0.432473,0.132473,0.404872,0.147118,0.369517,0.151000,0.350000,0.151000,-0.350000,0.147118,-0.369517,0.132473,-0.404872,0.104872,-0.432473,0.069517,-0.447118,0.050000,-0.451000,0.000711,-0.451000,-0.018806,-0.447118,-0.054161,-0.432473,-0.070706,-0.421417,-0.121417,-0.370706,-0.132473,-0.354161,-0.147118,-0.318806,-0.151000,-0.299289,-0.151000,0.350000,
-0.147118,0.369517,-0.132473,0.404872,-0.104872,0.432473,-0.069517,0.447118,-0.050000,0.451000,0.050000,0.451000,0.069517,0.447118,0.069517,0.447118,$1*%
%AMFreePoly5*
4,1,28,0.069517,0.447118,0.104872,0.432473,0.132473,0.404872,0.147118,0.369517,0.151000,0.350000,0.151000,-0.299289,0.147106,-0.318834,0.146811,-0.319545,0.132473,-0.354161,0.121417,-0.370706,0.070706,-0.421417,0.054161,-0.432473,0.018806,-0.447118,-0.000711,-0.451000,-0.050000,-0.451000,-0.069517,-0.447118,-0.104872,-0.432473,-0.132473,-0.404872,-0.147118,-0.369517,-0.151000,-0.350000,
-0.151000,0.350000,-0.147118,0.369517,-0.132473,0.404872,-0.104872,0.432473,-0.069517,0.447118,-0.050000,0.451000,0.050000,0.451000,0.069517,0.447118,0.069517,0.447118,$1*%
%AMFreePoly6*
4,1,27,0.369517,0.147118,0.404872,0.132473,0.432473,0.104872,0.447118,0.069517,0.451000,0.050000,0.451000,-0.050000,0.447118,-0.069517,0.432473,-0.104872,0.404872,-0.132473,0.369517,-0.147118,0.350000,-0.151000,-0.350000,-0.151000,-0.369517,-0.147118,-0.404872,-0.132473,-0.432473,-0.104872,-0.447118,-0.069517,-0.451000,-0.050000,-0.451000,-0.000711,-0.447118,0.018806,-0.432473,0.054161,
-0.421417,0.070706,-0.370706,0.121417,-0.354161,0.132473,-0.318806,0.147118,-0.299289,0.151000,0.350000,0.151000,0.369517,0.147118,0.369517,0.147118,$1*%
%AMFreePoly7*
4,1,27,0.369517,0.147118,0.404872,0.132473,0.432473,0.104872,0.447118,0.069517,0.451000,0.050000,0.451000,-0.050000,0.447118,-0.069517,0.432473,-0.104872,0.404872,-0.132473,0.369517,-0.147118,0.350000,-0.151000,-0.299289,-0.151000,-0.318806,-0.147118,-0.354161,-0.132473,-0.370706,-0.121417,-0.421417,-0.070706,-0.432473,-0.054161,-0.447118,-0.018806,-0.451000,0.000711,-0.451000,0.050000,
-0.447118,0.069517,-0.432473,0.104872,-0.404872,0.132473,-0.369517,0.147118,-0.350000,0.151000,0.350000,0.151000,0.369517,0.147118,0.369517,0.147118,$1*%
%AMFreePoly8*
4,1,27,0.018806,0.447118,0.054161,0.432473,0.070706,0.421417,0.121417,0.370706,0.132473,0.354161,0.147118,0.318806,0.151000,0.299289,0.151000,-0.350000,0.147118,-0.369517,0.132473,-0.404872,0.104872,-0.432473,0.069517,-0.447118,0.050000,-0.451000,-0.050000,-0.451000,-0.069517,-0.447118,-0.104872,-0.432473,-0.132473,-0.404872,-0.147118,-0.369517,-0.151000,-0.350000,-0.151000,0.350000,
-0.147118,0.369517,-0.132473,0.404872,-0.104872,0.432473,-0.069517,0.447118,-0.050000,0.451000,-0.000711,0.451000,0.018806,0.447118,0.018806,0.447118,$1*%
%AMFreePoly9*
4,1,27,0.069517,0.447118,0.104872,0.432473,0.132473,0.404872,0.147118,0.369517,0.151000,0.350000,0.151000,-0.350000,0.147118,-0.369517,0.132473,-0.404872,0.104872,-0.432473,0.069517,-0.447118,0.050000,-0.451000,-0.050000,-0.451000,-0.069517,-0.447118,-0.104872,-0.432473,-0.132473,-0.404872,-0.147118,-0.369517,-0.151000,-0.350000,-0.151000,0.299289,-0.147118,0.318806,-0.132473,0.354161,
-0.121417,0.370706,-0.070706,0.421417,-0.054161,0.432473,-0.018806,0.447118,0.000711,0.451000,0.050000,0.451000,0.069517,0.447118,0.069517,0.447118,$1*%
G04 Aperture macros list end*
%ADD10C,1.802000*%
%ADD11O,1.802000X1.802000*%
%ADD12C,2.602000*%
%ADD13RoundRect,0.288500X0.287500X0.237500X-0.287500X0.237500X-0.287500X-0.237500X0.287500X-0.237500X0*%
%ADD14RoundRect,0.301000X-0.337500X-0.475000X0.337500X-0.475000X0.337500X0.475000X-0.337500X0.475000X0*%
%ADD15RoundRect,0.288500X-0.237500X0.300000X-0.237500X-0.300000X0.237500X-0.300000X0.237500X0.300000X0*%
%ADD16FreePoly0,180.000000*%
%ADD17FreePoly1,180.000000*%
%ADD18RoundRect,0.288500X-0.237500X0.287500X-0.237500X-0.287500X0.237500X-0.287500X0.237500X0.287500X0*%
%ADD19RoundRect,0.288500X-0.287500X-0.237500X0.287500X-0.237500X0.287500X0.237500X-0.287500X0.237500X0*%
%ADD20RoundRect,0.401000X0.350000X0.350000X-0.350000X0.350000X-0.350000X-0.350000X0.350000X-0.350000X0*%
%ADD21RoundRect,0.301000X0.337500X0.475000X-0.337500X0.475000X-0.337500X-0.475000X0.337500X-0.475000X0*%
%ADD22RoundRect,0.301000X-0.650000X0.412500X-0.650000X-0.412500X0.650000X-0.412500X0.650000X0.412500X0*%
%ADD23FreePoly0,270.000000*%
%ADD24FreePoly1,270.000000*%
%ADD25RoundRect,0.113500X0.375000X0.062500X-0.375000X0.062500X-0.375000X-0.062500X0.375000X-0.062500X0*%
%ADD26RoundRect,0.113500X0.062500X0.375000X-0.062500X0.375000X-0.062500X-0.375000X0.062500X-0.375000X0*%
%ADD27RoundRect,0.051000X1.000000X1.000000X-1.000000X1.000000X-1.000000X-1.000000X1.000000X-1.000000X0*%
%ADD28RoundRect,0.288500X-0.250000X-0.237500X0.250000X-0.237500X0.250000X0.237500X-0.250000X0.237500X0*%
%ADD29RoundRect,0.288500X0.237500X-0.300000X0.237500X0.300000X-0.237500X0.300000X-0.237500X-0.300000X0*%
%ADD30RoundRect,0.288500X0.300000X0.237500X-0.300000X0.237500X-0.300000X-0.237500X0.300000X-0.237500X0*%
%ADD31FreePoly2,180.000000*%
%ADD32RoundRect,0.101000X0.350000X0.050000X-0.350000X0.050000X-0.350000X-0.050000X0.350000X-0.050000X0*%
%ADD33FreePoly3,180.000000*%
%ADD34FreePoly4,180.000000*%
%ADD35RoundRect,0.101000X0.050000X0.350000X-0.050000X0.350000X-0.050000X-0.350000X0.050000X-0.350000X0*%
%ADD36FreePoly5,180.000000*%
%ADD37FreePoly6,180.000000*%
%ADD38FreePoly7,180.000000*%
%ADD39FreePoly8,180.000000*%
%ADD40FreePoly9,180.000000*%
%ADD41RoundRect,0.051000X0.850000X0.850000X-0.850000X0.850000X-0.850000X-0.850000X0.850000X-0.850000X0*%
%ADD42RoundRect,0.288500X-0.237500X0.250000X-0.237500X-0.250000X0.237500X-0.250000X0.237500X0.250000X0*%
G04 APERTURE END LIST*
D10*
X17375000Y-45000000D03*
D11*
X19915000Y-45000000D03*
X22455000Y-45000000D03*
X24995000Y-45000000D03*
X27535000Y-45000000D03*
X30075000Y-45000000D03*
X32615000Y-45000000D03*
D12*
X25000000Y-15000000D03*
X15500000Y-37100000D03*
X34500000Y-37100000D03*
D13*
X30375000Y-18950000D03*
X28625000Y-18950000D03*
D14*
X33462500Y-21000000D03*
X35537500Y-21000000D03*
D15*
X34400000Y-23637500D03*
X34400000Y-25362500D03*
D16*
X35365000Y-17500000D03*
D17*
X31835000Y-17500000D03*
D13*
X29875000Y-25550000D03*
X28125000Y-25550000D03*
X29875000Y-27050000D03*
X28125000Y-27050000D03*
D18*
X26600000Y-25025000D03*
X26600000Y-26775000D03*
X31400000Y-25575000D03*
X31400000Y-27325000D03*
X32900000Y-25575000D03*
X32900000Y-27325000D03*
D19*
X31375000Y-28850000D03*
X33125000Y-28850000D03*
X33025000Y-30400000D03*
X34775000Y-30400000D03*
D20*
X19800000Y-14350000D03*
X16300000Y-16350000D03*
X16300000Y-14350000D03*
X19800000Y-16350000D03*
D21*
X30437500Y-16250000D03*
X28362500Y-16250000D03*
D22*
X24100000Y-23437500D03*
X24100000Y-26562500D03*
D23*
X24550000Y-18085000D03*
D24*
X24550000Y-21615000D03*
D25*
X31537500Y-21150000D03*
X31537500Y-21650000D03*
X31537500Y-22150000D03*
X31537500Y-22650000D03*
X31537500Y-23150000D03*
D26*
X30850000Y-23837500D03*
X30350000Y-23837500D03*
X29850000Y-23837500D03*
X29350000Y-23837500D03*
X28850000Y-23837500D03*
D25*
X28162500Y-23150000D03*
X28162500Y-22650000D03*
X28162500Y-22150000D03*
X28162500Y-21650000D03*
X28162500Y-21150000D03*
D26*
X28850000Y-20462500D03*
X29350000Y-20462500D03*
X29850000Y-20462500D03*
X30350000Y-20462500D03*
X30850000Y-20462500D03*
D27*
X29850000Y-22150000D03*
D10*
X15200000Y-30425000D03*
D11*
X15200000Y-27885000D03*
X15200000Y-25345000D03*
D15*
X22350000Y-24337500D03*
X22350000Y-26062500D03*
D28*
X17537500Y-17950000D03*
X19362500Y-17950000D03*
D29*
X21600000Y-20062500D03*
X21600000Y-18337500D03*
D30*
X30362500Y-17750000D03*
X28637500Y-17750000D03*
D28*
X31387500Y-13950000D03*
X33212500Y-13950000D03*
X28287500Y-13950000D03*
X30112500Y-13950000D03*
D15*
X35150000Y-42037500D03*
X35150000Y-43762500D03*
D31*
X19100000Y-20600000D03*
D32*
X19100000Y-21000000D03*
X19100000Y-21400000D03*
X19100000Y-21800000D03*
D33*
X19100000Y-22200000D03*
D34*
X18450000Y-22850000D03*
D35*
X18050000Y-22850000D03*
X17650000Y-22850000D03*
X17250000Y-22850000D03*
D36*
X16850000Y-22850000D03*
D37*
X16200000Y-22200000D03*
D32*
X16200000Y-21800000D03*
X16200000Y-21400000D03*
X16200000Y-21000000D03*
D38*
X16200000Y-20600000D03*
D39*
X16850000Y-19950000D03*
D35*
X17250000Y-19950000D03*
X17650000Y-19950000D03*
X18050000Y-19950000D03*
D40*
X18450000Y-19950000D03*
D41*
X17650000Y-21400000D03*
D42*
X22150000Y-14287500D03*
X22150000Y-16112500D03*
D29*
X20500000Y-25112500D03*
X20500000Y-23387500D03*
G36*
X30503894Y-20020456D02*
G01*
X30550945Y-20059777D01*
X30619661Y-20068408D01*
X30682291Y-20038444D01*
X30689798Y-20029781D01*
X30691688Y-20029127D01*
X30693199Y-20030437D01*
X30692972Y-20032202D01*
X30684525Y-20044844D01*
X30676000Y-20087699D01*
X30676000Y-20837301D01*
X30684525Y-20880156D01*
X30708685Y-20916315D01*
X30744844Y-20940475D01*
X30787699Y-20949000D01*
X30912301Y-20949000D01*
X30955156Y-20940475D01*
X30991315Y-20916315D01*
X31015475Y-20880156D01*
X31024038Y-20837110D01*
X31025357Y-20835606D01*
X31026000Y-20835500D01*
X31026443Y-20835500D01*
X31028175Y-20836500D01*
X31028435Y-20837322D01*
X31033764Y-20896861D01*
X31076251Y-20951555D01*
X31141724Y-20974653D01*
X31153154Y-20973836D01*
X31154953Y-20974710D01*
X31155096Y-20976705D01*
X31153687Y-20977793D01*
X31119844Y-20984525D01*
X31083685Y-21008685D01*
X31059525Y-21044844D01*
X31051000Y-21087699D01*
X31051000Y-21212301D01*
X31059525Y-21255156D01*
X31083685Y-21291315D01*
X31119844Y-21315475D01*
X31162699Y-21324000D01*
X31912301Y-21324000D01*
X31955156Y-21315475D01*
X31976898Y-21300948D01*
X31978894Y-21300817D01*
X31980005Y-21302480D01*
X31979544Y-21303894D01*
X31940223Y-21350945D01*
X31931592Y-21419661D01*
X31961556Y-21482291D01*
X31970219Y-21489798D01*
X31970873Y-21491688D01*
X31969563Y-21493199D01*
X31967798Y-21492972D01*
X31955156Y-21484525D01*
X31912301Y-21476000D01*
X31162699Y-21476000D01*
X31119844Y-21484525D01*
X31083685Y-21508685D01*
X31059525Y-21544844D01*
X31051000Y-21587699D01*
X31051000Y-21712301D01*
X31059525Y-21755156D01*
X31083685Y-21791315D01*
X31119844Y-21815475D01*
X31162699Y-21824000D01*
X31912301Y-21824000D01*
X31955156Y-21815475D01*
X31976898Y-21800948D01*
X31978894Y-21800817D01*
X31980005Y-21802480D01*
X31979544Y-21803894D01*
X31940223Y-21850945D01*
X31931592Y-21919661D01*
X31961556Y-21982291D01*
X31970219Y-21989798D01*
X31970873Y-21991688D01*
X31969563Y-21993199D01*
X31967798Y-21992972D01*
X31955156Y-21984525D01*
X31912301Y-21976000D01*
X31162699Y-21976000D01*
X31119844Y-21984525D01*
X31083685Y-22008685D01*
X31059525Y-22044844D01*
X31051000Y-22087699D01*
X31051000Y-22212301D01*
X31059525Y-22255156D01*
X31083685Y-22291315D01*
X31119844Y-22315475D01*
X31162699Y-22324000D01*
X31912301Y-22324000D01*
X31955156Y-22315475D01*
X31976898Y-22300948D01*
X31978894Y-22300817D01*
X31980005Y-22302480D01*
X31979544Y-22303894D01*
X31940223Y-22350945D01*
X31931592Y-22419661D01*
X31961556Y-22482291D01*
X31970219Y-22489798D01*
X31970873Y-22491688D01*
X31969563Y-22493199D01*
X31967798Y-22492972D01*
X31955156Y-22484525D01*
X31912301Y-22476000D01*
X31162699Y-22476000D01*
X31119844Y-22484525D01*
X31083685Y-22508685D01*
X31059525Y-22544844D01*
X31051000Y-22587699D01*
X31051000Y-22712301D01*
X31059525Y-22755156D01*
X31083685Y-22791315D01*
X31119844Y-22815475D01*
X31162699Y-22824000D01*
X31912301Y-22824000D01*
X31955156Y-22815475D01*
X31976898Y-22800948D01*
X31978894Y-22800817D01*
X31980005Y-22802480D01*
X31979544Y-22803894D01*
X31940223Y-22850945D01*
X31931592Y-22919661D01*
X31961556Y-22982291D01*
X31970219Y-22989798D01*
X31970873Y-22991688D01*
X31969563Y-22993199D01*
X31967798Y-22992972D01*
X31955156Y-22984525D01*
X31912301Y-22976000D01*
X31162699Y-22976000D01*
X31119844Y-22984525D01*
X31083685Y-23008685D01*
X31059525Y-23044844D01*
X31051000Y-23087699D01*
X31051000Y-23212301D01*
X31059525Y-23255156D01*
X31083685Y-23291315D01*
X31119844Y-23315475D01*
X31162890Y-23324038D01*
X31164394Y-23325357D01*
X31164500Y-23326000D01*
X31164500Y-23326443D01*
X31163500Y-23328175D01*
X31162678Y-23328435D01*
X31103139Y-23333764D01*
X31048445Y-23376251D01*
X31025347Y-23441724D01*
X31026164Y-23453154D01*
X31025290Y-23454953D01*
X31023295Y-23455096D01*
X31022207Y-23453687D01*
X31015475Y-23419844D01*
X30991315Y-23383685D01*
X30955156Y-23359525D01*
X30912301Y-23351000D01*
X30787699Y-23351000D01*
X30744844Y-23359525D01*
X30708685Y-23383685D01*
X30684525Y-23419844D01*
X30676000Y-23462699D01*
X30676000Y-24212301D01*
X30684525Y-24255156D01*
X30699052Y-24276898D01*
X30699183Y-24278894D01*
X30697520Y-24280005D01*
X30696106Y-24279544D01*
X30649055Y-24240223D01*
X30580339Y-24231592D01*
X30517709Y-24261556D01*
X30510202Y-24270219D01*
X30508312Y-24270873D01*
X30506801Y-24269563D01*
X30507028Y-24267798D01*
X30515475Y-24255156D01*
X30524000Y-24212301D01*
X30524000Y-23462699D01*
X30515475Y-23419844D01*
X30491315Y-23383685D01*
X30455156Y-23359525D01*
X30412301Y-23351000D01*
X30287699Y-23351000D01*
X30244844Y-23359525D01*
X30208685Y-23383685D01*
X30184525Y-23419844D01*
X30176000Y-23462699D01*
X30176000Y-24212301D01*
X30184525Y-24255156D01*
X30199052Y-24276898D01*
X30199183Y-24278894D01*
X30197520Y-24280005D01*
X30196106Y-24279544D01*
X30149055Y-24240223D01*
X30080339Y-24231592D01*
X30017709Y-24261556D01*
X30010202Y-24270219D01*
X30008312Y-24270873D01*
X30006801Y-24269563D01*
X30007028Y-24267798D01*
X30015475Y-24255156D01*
X30024000Y-24212301D01*
X30024000Y-23462699D01*
X30015475Y-23419844D01*
X29991315Y-23383685D01*
X29955156Y-23359525D01*
X29912301Y-23351000D01*
X29787699Y-23351000D01*
X29744844Y-23359525D01*
X29708685Y-23383685D01*
X29684525Y-23419844D01*
X29676000Y-23462699D01*
X29676000Y-24212301D01*
X29684525Y-24255156D01*
X29699052Y-24276898D01*
X29699183Y-24278894D01*
X29697520Y-24280005D01*
X29696106Y-24279544D01*
X29649055Y-24240223D01*
X29580339Y-24231592D01*
X29517709Y-24261556D01*
X29510202Y-24270219D01*
X29508312Y-24270873D01*
X29506801Y-24269563D01*
X29507028Y-24267798D01*
X29515475Y-24255156D01*
X29524000Y-24212301D01*
X29524000Y-23462699D01*
X29515475Y-23419844D01*
X29491315Y-23383685D01*
X29455156Y-23359525D01*
X29412301Y-23351000D01*
X29287699Y-23351000D01*
X29244844Y-23359525D01*
X29208685Y-23383685D01*
X29184525Y-23419844D01*
X29176000Y-23462699D01*
X29176000Y-24212301D01*
X29184525Y-24255156D01*
X29199052Y-24276898D01*
X29199183Y-24278894D01*
X29197520Y-24280005D01*
X29196106Y-24279544D01*
X29149055Y-24240223D01*
X29080339Y-24231592D01*
X29017709Y-24261556D01*
X29010202Y-24270219D01*
X29008312Y-24270873D01*
X29006801Y-24269563D01*
X29007028Y-24267798D01*
X29015475Y-24255156D01*
X29024000Y-24212301D01*
X29024000Y-23462699D01*
X29015475Y-23419844D01*
X28991315Y-23383685D01*
X28955156Y-23359525D01*
X28912301Y-23351000D01*
X28787699Y-23351000D01*
X28744844Y-23359525D01*
X28708685Y-23383685D01*
X28684525Y-23419844D01*
X28675962Y-23462890D01*
X28674643Y-23464394D01*
X28674000Y-23464500D01*
X28673557Y-23464500D01*
X28671825Y-23463500D01*
X28671565Y-23462678D01*
X28666236Y-23403139D01*
X28623749Y-23348445D01*
X28558276Y-23325347D01*
X28546846Y-23326164D01*
X28545047Y-23325290D01*
X28544904Y-23323295D01*
X28546313Y-23322207D01*
X28580156Y-23315475D01*
X28616315Y-23291315D01*
X28640475Y-23255156D01*
X28649000Y-23212301D01*
X28649000Y-23149801D01*
X28801000Y-23149801D01*
X28804767Y-23168738D01*
X28815380Y-23184620D01*
X28831262Y-23195233D01*
X28850199Y-23199000D01*
X30849801Y-23199000D01*
X30868738Y-23195233D01*
X30884620Y-23184620D01*
X30895233Y-23168738D01*
X30899000Y-23149801D01*
X30899000Y-21150199D01*
X30895233Y-21131262D01*
X30884620Y-21115380D01*
X30868738Y-21104767D01*
X30849801Y-21101000D01*
X28850199Y-21101000D01*
X28831262Y-21104767D01*
X28815380Y-21115380D01*
X28804767Y-21131262D01*
X28801000Y-21150199D01*
X28801000Y-23149801D01*
X28649000Y-23149801D01*
X28649000Y-23087699D01*
X28640475Y-23044844D01*
X28616315Y-23008685D01*
X28580156Y-22984525D01*
X28537301Y-22976000D01*
X27787699Y-22976000D01*
X27744844Y-22984525D01*
X27723102Y-22999052D01*
X27721106Y-22999183D01*
X27719995Y-22997520D01*
X27720456Y-22996106D01*
X27759777Y-22949055D01*
X27768408Y-22880339D01*
X27738444Y-22817709D01*
X27729781Y-22810202D01*
X27729127Y-22808312D01*
X27730437Y-22806801D01*
X27732202Y-22807028D01*
X27744844Y-22815475D01*
X27787699Y-22824000D01*
X28537301Y-22824000D01*
X28580156Y-22815475D01*
X28616315Y-22791315D01*
X28640475Y-22755156D01*
X28649000Y-22712301D01*
X28649000Y-22587699D01*
X28640475Y-22544844D01*
X28616315Y-22508685D01*
X28580156Y-22484525D01*
X28537301Y-22476000D01*
X27787699Y-22476000D01*
X27744844Y-22484525D01*
X27723102Y-22499052D01*
X27721106Y-22499183D01*
X27719995Y-22497520D01*
X27720456Y-22496106D01*
X27759777Y-22449055D01*
X27768408Y-22380339D01*
X27738444Y-22317709D01*
X27729781Y-22310202D01*
X27729127Y-22308312D01*
X27730437Y-22306801D01*
X27732202Y-22307028D01*
X27744844Y-22315475D01*
X27787699Y-22324000D01*
X28537301Y-22324000D01*
X28580156Y-22315475D01*
X28616315Y-22291315D01*
X28640475Y-22255156D01*
X28649000Y-22212301D01*
X28649000Y-22087699D01*
X28640475Y-22044844D01*
X28616315Y-22008685D01*
X28580156Y-21984525D01*
X28537301Y-21976000D01*
X27787699Y-21976000D01*
X27744844Y-21984525D01*
X27723102Y-21999052D01*
X27721106Y-21999183D01*
X27719995Y-21997520D01*
X27720456Y-21996106D01*
X27759777Y-21949055D01*
X27768408Y-21880339D01*
X27738444Y-21817709D01*
X27729781Y-21810202D01*
X27729127Y-21808312D01*
X27730437Y-21806801D01*
X27732202Y-21807028D01*
X27744844Y-21815475D01*
X27787699Y-21824000D01*
X28537301Y-21824000D01*
X28580156Y-21815475D01*
X28616315Y-21791315D01*
X28640475Y-21755156D01*
X28649000Y-21712301D01*
X28649000Y-21587699D01*
X28640475Y-21544844D01*
X28616315Y-21508685D01*
X28580156Y-21484525D01*
X28537301Y-21476000D01*
X27787699Y-21476000D01*
X27744844Y-21484525D01*
X27723102Y-21499052D01*
X27721106Y-21499183D01*
X27719995Y-21497520D01*
X27720456Y-21496106D01*
X27759777Y-21449055D01*
X27768408Y-21380339D01*
X27738444Y-21317709D01*
X27729781Y-21310202D01*
X27729127Y-21308312D01*
X27730437Y-21306801D01*
X27732202Y-21307028D01*
X27744844Y-21315475D01*
X27787699Y-21324000D01*
X28537301Y-21324000D01*
X28580156Y-21315475D01*
X28616315Y-21291315D01*
X28640475Y-21255156D01*
X28649000Y-21212301D01*
X28649000Y-21087699D01*
X28640475Y-21044844D01*
X28616315Y-21008685D01*
X28580156Y-20984525D01*
X28537110Y-20975962D01*
X28535606Y-20974643D01*
X28535500Y-20974000D01*
X28535500Y-20973557D01*
X28536500Y-20971825D01*
X28537322Y-20971565D01*
X28596861Y-20966236D01*
X28651555Y-20923749D01*
X28674653Y-20858276D01*
X28673836Y-20846846D01*
X28674710Y-20845047D01*
X28676705Y-20844904D01*
X28677793Y-20846313D01*
X28684525Y-20880156D01*
X28708685Y-20916315D01*
X28744844Y-20940475D01*
X28787699Y-20949000D01*
X28912301Y-20949000D01*
X28955156Y-20940475D01*
X28991315Y-20916315D01*
X29015475Y-20880156D01*
X29024000Y-20837301D01*
X29024000Y-20087699D01*
X29015475Y-20044844D01*
X29000948Y-20023102D01*
X29000817Y-20021106D01*
X29002480Y-20019995D01*
X29003894Y-20020456D01*
X29050945Y-20059777D01*
X29119661Y-20068408D01*
X29182291Y-20038444D01*
X29189798Y-20029781D01*
X29191688Y-20029127D01*
X29193199Y-20030437D01*
X29192972Y-20032202D01*
X29184525Y-20044844D01*
X29176000Y-20087699D01*
X29176000Y-20837301D01*
X29184525Y-20880156D01*
X29208685Y-20916315D01*
X29244844Y-20940475D01*
X29287699Y-20949000D01*
X29412301Y-20949000D01*
X29455156Y-20940475D01*
X29491315Y-20916315D01*
X29515475Y-20880156D01*
X29524000Y-20837301D01*
X29524000Y-20087699D01*
X29515475Y-20044844D01*
X29500948Y-20023102D01*
X29500817Y-20021106D01*
X29502480Y-20019995D01*
X29503894Y-20020456D01*
X29550945Y-20059777D01*
X29619661Y-20068408D01*
X29682291Y-20038444D01*
X29689798Y-20029781D01*
X29691688Y-20029127D01*
X29693199Y-20030437D01*
X29692972Y-20032202D01*
X29684525Y-20044844D01*
X29676000Y-20087699D01*
X29676000Y-20837301D01*
X29684525Y-20880156D01*
X29708685Y-20916315D01*
X29744844Y-20940475D01*
X29787699Y-20949000D01*
X29912301Y-20949000D01*
X29955156Y-20940475D01*
X29991315Y-20916315D01*
X30015475Y-20880156D01*
X30024000Y-20837301D01*
X30024000Y-20087699D01*
X30015475Y-20044844D01*
X30000948Y-20023102D01*
X30000817Y-20021106D01*
X30002480Y-20019995D01*
X30003894Y-20020456D01*
X30050945Y-20059777D01*
X30119661Y-20068408D01*
X30182291Y-20038444D01*
X30189798Y-20029781D01*
X30191688Y-20029127D01*
X30193199Y-20030437D01*
X30192972Y-20032202D01*
X30184525Y-20044844D01*
X30176000Y-20087699D01*
X30176000Y-20837301D01*
X30184525Y-20880156D01*
X30208685Y-20916315D01*
X30244844Y-20940475D01*
X30287699Y-20949000D01*
X30412301Y-20949000D01*
X30455156Y-20940475D01*
X30491315Y-20916315D01*
X30515475Y-20880156D01*
X30524000Y-20837301D01*
X30524000Y-20087699D01*
X30515475Y-20044844D01*
X30500948Y-20023102D01*
X30500817Y-20021106D01*
X30502480Y-20019995D01*
X30503894Y-20020456D01*
G37*
G36*
X16976016Y-19532138D02*
G01*
X16981425Y-19535752D01*
X17047789Y-19556532D01*
X17118589Y-19535743D01*
X17123983Y-19532139D01*
X17125979Y-19532008D01*
X17127090Y-19533671D01*
X17126757Y-19534913D01*
X17108573Y-19562128D01*
X17101000Y-19600199D01*
X17101000Y-20299801D01*
X17108573Y-20337872D01*
X17130024Y-20369976D01*
X17162128Y-20391427D01*
X17200199Y-20399000D01*
X17299801Y-20399000D01*
X17337872Y-20391427D01*
X17369976Y-20369976D01*
X17391427Y-20337872D01*
X17399000Y-20299801D01*
X17399000Y-19600199D01*
X17391427Y-19562128D01*
X17373243Y-19534913D01*
X17373112Y-19532917D01*
X17374775Y-19531806D01*
X17376017Y-19532139D01*
X17381425Y-19535752D01*
X17447788Y-19556532D01*
X17518589Y-19535743D01*
X17523983Y-19532139D01*
X17525979Y-19532008D01*
X17527090Y-19533671D01*
X17526757Y-19534913D01*
X17508573Y-19562128D01*
X17501000Y-19600199D01*
X17501000Y-20299801D01*
X17508573Y-20337872D01*
X17530024Y-20369976D01*
X17562128Y-20391427D01*
X17600199Y-20399000D01*
X17699801Y-20399000D01*
X17737872Y-20391427D01*
X17769976Y-20369976D01*
X17791427Y-20337872D01*
X17799000Y-20299801D01*
X17799000Y-19600199D01*
X17791427Y-19562128D01*
X17773243Y-19534913D01*
X17773112Y-19532917D01*
X17774775Y-19531806D01*
X17776017Y-19532139D01*
X17781425Y-19535752D01*
X17847788Y-19556532D01*
X17918589Y-19535743D01*
X17923983Y-19532139D01*
X17925979Y-19532008D01*
X17927090Y-19533671D01*
X17926757Y-19534913D01*
X17908573Y-19562128D01*
X17901000Y-19600199D01*
X17901000Y-20299801D01*
X17908573Y-20337872D01*
X17930024Y-20369976D01*
X17962128Y-20391427D01*
X18000199Y-20399000D01*
X18099801Y-20399000D01*
X18137872Y-20391427D01*
X18169976Y-20369976D01*
X18191427Y-20337872D01*
X18199000Y-20299801D01*
X18199000Y-19600199D01*
X18191427Y-19562128D01*
X18173243Y-19534913D01*
X18173112Y-19532917D01*
X18174775Y-19531806D01*
X18176017Y-19532139D01*
X18181423Y-19535751D01*
X18247787Y-19556532D01*
X18318587Y-19535743D01*
X18323986Y-19532136D01*
X18325982Y-19532005D01*
X18327093Y-19533668D01*
X18326760Y-19534910D01*
X18319300Y-19546075D01*
X18304806Y-19581065D01*
X18301000Y-19600199D01*
X18301000Y-20299801D01*
X18304806Y-20318935D01*
X18319300Y-20353925D01*
X18330024Y-20369975D01*
X18346075Y-20380700D01*
X18381065Y-20395194D01*
X18400199Y-20399000D01*
X18449090Y-20399000D01*
X18468224Y-20395194D01*
X18503214Y-20380700D01*
X18519432Y-20369863D01*
X18569863Y-20319432D01*
X18580810Y-20303050D01*
X18582604Y-20302165D01*
X18583149Y-20302529D01*
X18583238Y-20302314D01*
X18587435Y-20304052D01*
X18588653Y-20305639D01*
X18588578Y-20306499D01*
X18574969Y-20349867D01*
X18593251Y-20416670D01*
X18644746Y-20462982D01*
X18713162Y-20474112D01*
X18743895Y-20462649D01*
X18745867Y-20462981D01*
X18746442Y-20463758D01*
X18746921Y-20464914D01*
X18756449Y-20460967D01*
X18758432Y-20461228D01*
X18759197Y-20463076D01*
X18757979Y-20464663D01*
X18746786Y-20469300D01*
X18730568Y-20480137D01*
X18680137Y-20530568D01*
X18669300Y-20546786D01*
X18655037Y-20581220D01*
X18655036Y-20581221D01*
X18654817Y-20581750D01*
X18651000Y-20600906D01*
X18651000Y-20649801D01*
X18654806Y-20668935D01*
X18669300Y-20703925D01*
X18680024Y-20719975D01*
X18696075Y-20730700D01*
X18731065Y-20745194D01*
X18750199Y-20749000D01*
X19449801Y-20749000D01*
X19468935Y-20745194D01*
X19503925Y-20730700D01*
X19515088Y-20723242D01*
X19517084Y-20723111D01*
X19518195Y-20724774D01*
X19517862Y-20726016D01*
X19514248Y-20731425D01*
X19493468Y-20797789D01*
X19514257Y-20868589D01*
X19517861Y-20873983D01*
X19517992Y-20875979D01*
X19516329Y-20877090D01*
X19515087Y-20876757D01*
X19487872Y-20858573D01*
X19449801Y-20851000D01*
X18750199Y-20851000D01*
X18712128Y-20858573D01*
X18680024Y-20880024D01*
X18658573Y-20912128D01*
X18651000Y-20950199D01*
X18651000Y-21049801D01*
X18658573Y-21087872D01*
X18680024Y-21119976D01*
X18712128Y-21141427D01*
X18750199Y-21149000D01*
X19449801Y-21149000D01*
X19487872Y-21141427D01*
X19515087Y-21123243D01*
X19517083Y-21123112D01*
X19518194Y-21124775D01*
X19517861Y-21126017D01*
X19514248Y-21131425D01*
X19493468Y-21197788D01*
X19514257Y-21268589D01*
X19517861Y-21273983D01*
X19517992Y-21275979D01*
X19516329Y-21277090D01*
X19515087Y-21276757D01*
X19487872Y-21258573D01*
X19449801Y-21251000D01*
X18750199Y-21251000D01*
X18712128Y-21258573D01*
X18680024Y-21280024D01*
X18658573Y-21312128D01*
X18651000Y-21350199D01*
X18651000Y-21449801D01*
X18658573Y-21487872D01*
X18680024Y-21519976D01*
X18712128Y-21541427D01*
X18750199Y-21549000D01*
X19449801Y-21549000D01*
X19487872Y-21541427D01*
X19515087Y-21523243D01*
X19517083Y-21523112D01*
X19518194Y-21524775D01*
X19517861Y-21526017D01*
X19514248Y-21531425D01*
X19493468Y-21597788D01*
X19514257Y-21668589D01*
X19517861Y-21673983D01*
X19517992Y-21675979D01*
X19516329Y-21677090D01*
X19515087Y-21676757D01*
X19487872Y-21658573D01*
X19449801Y-21651000D01*
X18750199Y-21651000D01*
X18712128Y-21658573D01*
X18680024Y-21680024D01*
X18658573Y-21712128D01*
X18651000Y-21750199D01*
X18651000Y-21849801D01*
X18658573Y-21887872D01*
X18680024Y-21919976D01*
X18712128Y-21941427D01*
X18750199Y-21949000D01*
X19449801Y-21949000D01*
X19487872Y-21941427D01*
X19515087Y-21923243D01*
X19517083Y-21923112D01*
X19518194Y-21924775D01*
X19517861Y-21926017D01*
X19514249Y-21931423D01*
X19493468Y-21997787D01*
X19514257Y-22068587D01*
X19517864Y-22073986D01*
X19517995Y-22075982D01*
X19516332Y-22077093D01*
X19515090Y-22076760D01*
X19503925Y-22069300D01*
X19468935Y-22054806D01*
X19449801Y-22051000D01*
X18750199Y-22051000D01*
X18731065Y-22054806D01*
X18696075Y-22069300D01*
X18680025Y-22080024D01*
X18669300Y-22096075D01*
X18654806Y-22131065D01*
X18651000Y-22150199D01*
X18651000Y-22199090D01*
X18654806Y-22218224D01*
X18669300Y-22253214D01*
X18680137Y-22269432D01*
X18730568Y-22319863D01*
X18746786Y-22330700D01*
X18752820Y-22333200D01*
X18754038Y-22334787D01*
X18753272Y-22336635D01*
X18751290Y-22336896D01*
X18746921Y-22335086D01*
X18745948Y-22337435D01*
X18744361Y-22338653D01*
X18743501Y-22338578D01*
X18700133Y-22324969D01*
X18633330Y-22343251D01*
X18587018Y-22394746D01*
X18575888Y-22463162D01*
X18587351Y-22493895D01*
X18587019Y-22495867D01*
X18586242Y-22496442D01*
X18583238Y-22497686D01*
X18583190Y-22497571D01*
X18581473Y-22497571D01*
X18580810Y-22496950D01*
X18569863Y-22480568D01*
X18519432Y-22430137D01*
X18503214Y-22419300D01*
X18468224Y-22404806D01*
X18449090Y-22401000D01*
X18400199Y-22401000D01*
X18381065Y-22404806D01*
X18346075Y-22419300D01*
X18330025Y-22430024D01*
X18319300Y-22446075D01*
X18304806Y-22481065D01*
X18301000Y-22500199D01*
X18301000Y-23199801D01*
X18304806Y-23218935D01*
X18319300Y-23253925D01*
X18326758Y-23265088D01*
X18326889Y-23267084D01*
X18325226Y-23268195D01*
X18323984Y-23267862D01*
X18318575Y-23264248D01*
X18252211Y-23243468D01*
X18181411Y-23264257D01*
X18176017Y-23267861D01*
X18174021Y-23267992D01*
X18172910Y-23266329D01*
X18173243Y-23265087D01*
X18191427Y-23237872D01*
X18199000Y-23199801D01*
X18199000Y-22500199D01*
X18191427Y-22462128D01*
X18169976Y-22430024D01*
X18137872Y-22408573D01*
X18099801Y-22401000D01*
X18000199Y-22401000D01*
X17962128Y-22408573D01*
X17930024Y-22430024D01*
X17908573Y-22462128D01*
X17901000Y-22500199D01*
X17901000Y-23199801D01*
X17908573Y-23237872D01*
X17926757Y-23265087D01*
X17926888Y-23267083D01*
X17925225Y-23268194D01*
X17923983Y-23267861D01*
X17918575Y-23264248D01*
X17852212Y-23243468D01*
X17781411Y-23264257D01*
X17776017Y-23267861D01*
X17774021Y-23267992D01*
X17772910Y-23266329D01*
X17773243Y-23265087D01*
X17791427Y-23237872D01*
X17799000Y-23199801D01*
X17799000Y-22500199D01*
X17791427Y-22462128D01*
X17769976Y-22430024D01*
X17737872Y-22408573D01*
X17699801Y-22401000D01*
X17600199Y-22401000D01*
X17562128Y-22408573D01*
X17530024Y-22430024D01*
X17508573Y-22462128D01*
X17501000Y-22500199D01*
X17501000Y-23199801D01*
X17508573Y-23237872D01*
X17526757Y-23265087D01*
X17526888Y-23267083D01*
X17525225Y-23268194D01*
X17523983Y-23267861D01*
X17518575Y-23264248D01*
X17452212Y-23243468D01*
X17381411Y-23264257D01*
X17376017Y-23267861D01*
X17374021Y-23267992D01*
X17372910Y-23266329D01*
X17373243Y-23265087D01*
X17391427Y-23237872D01*
X17399000Y-23199801D01*
X17399000Y-22500199D01*
X17391427Y-22462128D01*
X17369976Y-22430024D01*
X17337872Y-22408573D01*
X17299801Y-22401000D01*
X17200199Y-22401000D01*
X17162128Y-22408573D01*
X17130024Y-22430024D01*
X17108573Y-22462128D01*
X17101000Y-22500199D01*
X17101000Y-23199801D01*
X17108573Y-23237872D01*
X17126757Y-23265087D01*
X17126888Y-23267083D01*
X17125225Y-23268194D01*
X17123983Y-23267861D01*
X17118577Y-23264249D01*
X17052213Y-23243468D01*
X16981413Y-23264257D01*
X16976014Y-23267864D01*
X16974018Y-23267995D01*
X16972907Y-23266332D01*
X16973240Y-23265090D01*
X16980700Y-23253925D01*
X16995194Y-23218935D01*
X16999000Y-23199801D01*
X16999000Y-22500199D01*
X16995194Y-22481065D01*
X16980700Y-22446075D01*
X16969976Y-22430025D01*
X16953925Y-22419300D01*
X16918935Y-22404806D01*
X16899801Y-22401000D01*
X16850910Y-22401000D01*
X16831776Y-22404806D01*
X16796786Y-22419300D01*
X16780568Y-22430137D01*
X16730137Y-22480568D01*
X16719190Y-22496950D01*
X16717396Y-22497835D01*
X16716850Y-22497470D01*
X16716761Y-22497686D01*
X16712581Y-22495954D01*
X16711364Y-22494367D01*
X16711438Y-22493510D01*
X16725034Y-22449928D01*
X16706642Y-22383157D01*
X16655070Y-22336930D01*
X16586632Y-22325914D01*
X16556099Y-22337331D01*
X16554127Y-22337001D01*
X16553551Y-22336224D01*
X16553079Y-22335086D01*
X16548710Y-22336896D01*
X16546727Y-22336635D01*
X16545962Y-22334787D01*
X16547180Y-22333200D01*
X16553214Y-22330700D01*
X16569432Y-22319863D01*
X16619863Y-22269432D01*
X16630700Y-22253214D01*
X16632114Y-22249801D01*
X16751000Y-22249801D01*
X16754767Y-22268738D01*
X16765380Y-22284620D01*
X16781262Y-22295233D01*
X16800199Y-22299000D01*
X18499801Y-22299000D01*
X18518738Y-22295233D01*
X18534620Y-22284620D01*
X18545233Y-22268738D01*
X18549000Y-22249801D01*
X18549000Y-20550199D01*
X18545233Y-20531262D01*
X18534620Y-20515380D01*
X18518738Y-20504767D01*
X18499801Y-20501000D01*
X16800199Y-20501000D01*
X16781262Y-20504767D01*
X16765380Y-20515380D01*
X16754767Y-20531262D01*
X16751000Y-20550199D01*
X16751000Y-22249801D01*
X16632114Y-22249801D01*
X16645194Y-22218224D01*
X16649000Y-22199090D01*
X16649000Y-22150199D01*
X16645194Y-22131065D01*
X16630700Y-22096075D01*
X16619976Y-22080025D01*
X16603925Y-22069300D01*
X16568935Y-22054806D01*
X16549801Y-22051000D01*
X15850199Y-22051000D01*
X15831065Y-22054806D01*
X15796075Y-22069300D01*
X15784912Y-22076758D01*
X15782916Y-22076889D01*
X15781805Y-22075226D01*
X15782138Y-22073984D01*
X15785752Y-22068575D01*
X15806532Y-22002211D01*
X15785743Y-21931411D01*
X15782139Y-21926017D01*
X15782008Y-21924021D01*
X15783671Y-21922910D01*
X15784913Y-21923243D01*
X15812128Y-21941427D01*
X15850199Y-21949000D01*
X16549801Y-21949000D01*
X16587872Y-21941427D01*
X16619976Y-21919976D01*
X16641427Y-21887872D01*
X16649000Y-21849801D01*
X16649000Y-21750199D01*
X16641427Y-21712128D01*
X16619976Y-21680024D01*
X16587872Y-21658573D01*
X16549801Y-21651000D01*
X15850199Y-21651000D01*
X15812128Y-21658573D01*
X15784913Y-21676757D01*
X15782917Y-21676888D01*
X15781806Y-21675225D01*
X15782139Y-21673983D01*
X15785752Y-21668575D01*
X15806532Y-21602212D01*
X15785743Y-21531411D01*
X15782139Y-21526017D01*
X15782008Y-21524021D01*
X15783671Y-21522910D01*
X15784913Y-21523243D01*
X15812128Y-21541427D01*
X15850199Y-21549000D01*
X16549801Y-21549000D01*
X16587872Y-21541427D01*
X16619976Y-21519976D01*
X16641427Y-21487872D01*
X16649000Y-21449801D01*
X16649000Y-21350199D01*
X16641427Y-21312128D01*
X16619976Y-21280024D01*
X16587872Y-21258573D01*
X16549801Y-21251000D01*
X15850199Y-21251000D01*
X15812128Y-21258573D01*
X15784913Y-21276757D01*
X15782917Y-21276888D01*
X15781806Y-21275225D01*
X15782139Y-21273983D01*
X15785752Y-21268575D01*
X15806532Y-21202212D01*
X15785743Y-21131411D01*
X15782139Y-21126017D01*
X15782008Y-21124021D01*
X15783671Y-21122910D01*
X15784913Y-21123243D01*
X15812128Y-21141427D01*
X15850199Y-21149000D01*
X16549801Y-21149000D01*
X16587872Y-21141427D01*
X16619976Y-21119976D01*
X16641427Y-21087872D01*
X16649000Y-21049801D01*
X16649000Y-20950199D01*
X16641427Y-20912128D01*
X16619976Y-20880024D01*
X16587872Y-20858573D01*
X16549801Y-20851000D01*
X15850199Y-20851000D01*
X15812128Y-20858573D01*
X15784913Y-20876757D01*
X15782917Y-20876888D01*
X15781806Y-20875225D01*
X15782139Y-20873983D01*
X15785751Y-20868577D01*
X15806532Y-20802213D01*
X15785743Y-20731413D01*
X15782136Y-20726014D01*
X15782005Y-20724018D01*
X15783668Y-20722907D01*
X15784910Y-20723240D01*
X15796075Y-20730700D01*
X15831065Y-20745194D01*
X15850199Y-20749000D01*
X16549801Y-20749000D01*
X16568935Y-20745194D01*
X16603925Y-20730700D01*
X16619975Y-20719976D01*
X16630700Y-20703925D01*
X16645194Y-20668935D01*
X16649000Y-20649801D01*
X16649000Y-20600910D01*
X16645194Y-20581776D01*
X16630700Y-20546786D01*
X16619863Y-20530568D01*
X16569432Y-20480137D01*
X16553214Y-20469300D01*
X16542021Y-20464663D01*
X16540803Y-20463076D01*
X16541569Y-20461228D01*
X16543551Y-20460967D01*
X16553079Y-20464914D01*
X16554052Y-20462565D01*
X16555639Y-20461347D01*
X16556499Y-20461422D01*
X16599867Y-20475031D01*
X16666670Y-20456749D01*
X16712982Y-20405254D01*
X16724112Y-20336838D01*
X16712649Y-20306105D01*
X16712981Y-20304133D01*
X16713758Y-20303558D01*
X16716762Y-20302314D01*
X16716810Y-20302429D01*
X16718527Y-20302429D01*
X16719190Y-20303050D01*
X16730137Y-20319432D01*
X16780568Y-20369863D01*
X16796786Y-20380700D01*
X16831776Y-20395194D01*
X16850910Y-20399000D01*
X16899801Y-20399000D01*
X16918935Y-20395194D01*
X16953925Y-20380700D01*
X16969975Y-20369976D01*
X16980700Y-20353925D01*
X16995194Y-20318935D01*
X16999000Y-20299801D01*
X16999000Y-19600199D01*
X16995194Y-19581065D01*
X16980700Y-19546075D01*
X16973242Y-19534912D01*
X16973111Y-19532916D01*
X16974774Y-19531805D01*
X16976016Y-19532138D01*
G37*
G36*
X30793376Y-18238616D02*
G01*
X30794188Y-18240444D01*
X30793572Y-18241687D01*
X30744497Y-18288036D01*
X30727848Y-18355263D01*
X30750203Y-18420863D01*
X30793124Y-18458055D01*
X30793778Y-18459945D01*
X30792468Y-18461456D01*
X30791005Y-18461395D01*
X30728339Y-18433690D01*
X30662380Y-18426000D01*
X30087614Y-18426000D01*
X30021178Y-18433804D01*
X29947745Y-18466422D01*
X29945756Y-18466211D01*
X29944944Y-18464383D01*
X29945560Y-18463140D01*
X29993003Y-18418333D01*
X30009652Y-18351107D01*
X29987298Y-18285507D01*
X29942390Y-18246595D01*
X29941736Y-18244705D01*
X29943046Y-18243193D01*
X29944509Y-18243254D01*
X29996661Y-18266310D01*
X30062620Y-18274000D01*
X30662386Y-18274000D01*
X30728822Y-18266196D01*
X30791387Y-18238405D01*
X30793376Y-18238616D01*
G37*
G36*
X28208995Y-18238605D02*
G01*
X28271661Y-18266310D01*
X28337620Y-18274000D01*
X28937386Y-18274000D01*
X29003822Y-18266196D01*
X29055520Y-18243232D01*
X29057509Y-18243443D01*
X29058321Y-18245271D01*
X29057705Y-18246514D01*
X29006997Y-18294405D01*
X28990348Y-18361632D01*
X29012703Y-18427232D01*
X29053638Y-18462703D01*
X29054292Y-18464593D01*
X29052982Y-18466104D01*
X29051519Y-18466043D01*
X28978339Y-18433690D01*
X28912380Y-18426000D01*
X28337614Y-18426000D01*
X28271178Y-18433804D01*
X28208613Y-18461595D01*
X28206624Y-18461384D01*
X28205812Y-18459556D01*
X28206428Y-18458313D01*
X28255503Y-18411964D01*
X28272152Y-18344737D01*
X28249797Y-18279137D01*
X28206876Y-18241945D01*
X28206222Y-18240055D01*
X28207532Y-18238544D01*
X28208995Y-18238605D01*
G37*
G36*
X28835711Y-16987415D02*
G01*
X28836523Y-16989243D01*
X28835907Y-16990486D01*
X28786618Y-17037038D01*
X28769970Y-17104264D01*
X28792310Y-17169821D01*
X28846625Y-17212954D01*
X28893155Y-17222037D01*
X28894664Y-17223350D01*
X28894280Y-17225313D01*
X28892772Y-17226000D01*
X28337614Y-17226000D01*
X28271178Y-17233804D01*
X28206907Y-17262353D01*
X28204918Y-17262142D01*
X28204106Y-17260314D01*
X28204722Y-17259071D01*
X28253542Y-17212962D01*
X28270191Y-17145736D01*
X28247851Y-17080179D01*
X28193537Y-17037047D01*
X28147006Y-17027963D01*
X28145497Y-17026650D01*
X28145881Y-17024687D01*
X28147389Y-17024000D01*
X28699886Y-17024000D01*
X28769219Y-17015856D01*
X28833722Y-16987204D01*
X28835711Y-16987415D01*
G37*
G36*
X30031285Y-17015975D02*
G01*
X30100120Y-17024000D01*
X30774886Y-17024000D01*
X30805499Y-17020404D01*
X30807336Y-17021195D01*
X30807569Y-17023181D01*
X30806589Y-17024197D01*
X30752397Y-17049886D01*
X30715788Y-17108679D01*
X30716777Y-17177930D01*
X30755149Y-17235805D01*
X30778468Y-17251266D01*
X30781673Y-17252899D01*
X30782762Y-17254576D01*
X30781854Y-17256358D01*
X30779956Y-17256510D01*
X30728339Y-17233690D01*
X30662380Y-17226000D01*
X30062614Y-17226000D01*
X29996178Y-17233804D01*
X29944943Y-17256562D01*
X29942954Y-17256351D01*
X29942142Y-17254523D01*
X29943223Y-17252952D01*
X29988780Y-17229740D01*
X29988620Y-17229425D01*
X29988725Y-17227427D01*
X29989545Y-17226710D01*
X30025857Y-17209497D01*
X30062466Y-17150704D01*
X30061477Y-17081453D01*
X30023106Y-17023579D01*
X29999787Y-17008117D01*
X29974613Y-16995290D01*
X29973524Y-16993613D01*
X29974432Y-16991831D01*
X29976330Y-16991679D01*
X30031285Y-17015975D01*
G37*
G36*
X30622047Y-13593222D02*
G01*
X30640277Y-13628999D01*
X30688037Y-13679568D01*
X30755263Y-13696217D01*
X30820863Y-13673862D01*
X30859705Y-13629036D01*
X30877898Y-13593329D01*
X30879575Y-13592240D01*
X30881357Y-13593148D01*
X30881509Y-13595046D01*
X30858690Y-13646661D01*
X30851000Y-13712620D01*
X30851000Y-14187386D01*
X30858804Y-14253822D01*
X30881563Y-14305058D01*
X30881352Y-14307047D01*
X30879524Y-14307859D01*
X30877953Y-14306778D01*
X30859723Y-14271001D01*
X30811963Y-14220432D01*
X30744737Y-14203783D01*
X30679137Y-14226138D01*
X30640295Y-14270964D01*
X30622102Y-14306671D01*
X30620425Y-14307760D01*
X30618643Y-14306852D01*
X30618491Y-14304954D01*
X30641310Y-14253339D01*
X30649000Y-14187380D01*
X30649000Y-13712614D01*
X30641196Y-13646178D01*
X30618437Y-13594942D01*
X30618648Y-13592953D01*
X30620476Y-13592141D01*
X30622047Y-13593222D01*
G37*
M02*
