G04 #@! TF.GenerationSoftware,KiCad,Pcbnew,(6.0.5)*
G04 #@! TF.CreationDate,2022-10-09T15:08:16+02:00*
G04 #@! TF.ProjectId,Omamori,4f6d616d-6f72-4692-9e6b-696361645f70,rev?*
G04 #@! TF.SameCoordinates,Original*
G04 #@! TF.FileFunction,Copper,L2,Bot*
G04 #@! TF.FilePolarity,Positive*
%FSLAX46Y46*%
G04 Gerber Fmt 4.6, Leading zero omitted, Abs format (unit mm)*
G04 Created by KiCad (PCBNEW (6.0.5)) date 2022-10-09 15:08:16*
%MOMM*%
%LPD*%
G01*
G04 APERTURE LIST*
G04 Aperture macros list*
%AMRoundRect*
0 Rectangle with rounded corners*
0 $1 Rounding radius*
0 $2 $3 $4 $5 $6 $7 $8 $9 X,Y pos of 4 corners*
0 Add a 4 corners polygon primitive as box body*
4,1,4,$2,$3,$4,$5,$6,$7,$8,$9,$2,$3,0*
0 Add four circle primitives for the rounded corners*
1,1,$1+$1,$2,$3*
1,1,$1+$1,$4,$5*
1,1,$1+$1,$6,$7*
1,1,$1+$1,$8,$9*
0 Add four rect primitives between the rounded corners*
20,1,$1+$1,$2,$3,$4,$5,0*
20,1,$1+$1,$4,$5,$6,$7,0*
20,1,$1+$1,$6,$7,$8,$9,0*
20,1,$1+$1,$8,$9,$2,$3,0*%
%AMFreePoly0*
4,1,15,0.385355,0.085355,0.400000,0.050000,0.400000,0.000711,0.399705,0.000000,0.385355,-0.034644,0.334644,-0.085355,0.299289,-0.100000,-0.350000,-0.100000,-0.385355,-0.085355,-0.400000,-0.050000,-0.400000,0.050000,-0.385355,0.085355,-0.350000,0.100000,0.350000,0.100000,0.385355,0.085355,0.385355,0.085355,$1*%
%AMFreePoly1*
4,1,14,0.334644,0.085355,0.385355,0.034644,0.400000,-0.000711,0.400000,-0.050000,0.385355,-0.085355,0.350000,-0.100000,-0.350000,-0.100000,-0.385355,-0.085355,-0.400000,-0.050000,-0.400000,0.050000,-0.385355,0.085355,-0.350000,0.100000,0.299289,0.100000,0.334644,0.085355,0.334644,0.085355,$1*%
%AMFreePoly2*
4,1,14,0.085355,0.385355,0.100000,0.350000,0.100000,-0.350000,0.085355,-0.385355,0.050000,-0.400000,0.000711,-0.400000,-0.034644,-0.385355,-0.085355,-0.334644,-0.100000,-0.299289,-0.100000,0.350000,-0.085355,0.385355,-0.050000,0.400000,0.050000,0.400000,0.085355,0.385355,0.085355,0.385355,$1*%
%AMFreePoly3*
4,1,15,0.085355,0.385355,0.100000,0.350000,0.100000,-0.299289,0.099705,-0.300000,0.085355,-0.334644,0.034644,-0.385355,-0.000711,-0.400000,-0.050000,-0.400000,-0.085355,-0.385355,-0.100000,-0.350000,-0.100000,0.350000,-0.085355,0.385355,-0.050000,0.400000,0.050000,0.400000,0.085355,0.385355,0.085355,0.385355,$1*%
%AMFreePoly4*
4,1,14,0.385355,0.085355,0.400000,0.050000,0.400000,-0.050000,0.385355,-0.085355,0.350000,-0.100000,-0.350000,-0.100000,-0.385355,-0.085355,-0.400000,-0.050000,-0.400000,-0.000711,-0.385355,0.034644,-0.334644,0.085355,-0.299289,0.100000,0.350000,0.100000,0.385355,0.085355,0.385355,0.085355,$1*%
%AMFreePoly5*
4,1,14,0.385355,0.085355,0.400000,0.050000,0.400000,-0.050000,0.385355,-0.085355,0.350000,-0.100000,-0.299289,-0.100000,-0.334644,-0.085355,-0.385355,-0.034644,-0.400000,0.000711,-0.400000,0.050000,-0.385355,0.085355,-0.350000,0.100000,0.350000,0.100000,0.385355,0.085355,0.385355,0.085355,$1*%
%AMFreePoly6*
4,1,14,0.034644,0.385355,0.085355,0.334644,0.100000,0.299289,0.100000,-0.350000,0.085355,-0.385355,0.050000,-0.400000,-0.050000,-0.400000,-0.085355,-0.385355,-0.100000,-0.350000,-0.100000,0.350000,-0.085355,0.385355,-0.050000,0.400000,-0.000711,0.400000,0.034644,0.385355,0.034644,0.385355,$1*%
%AMFreePoly7*
4,1,14,0.085355,0.385355,0.100000,0.350000,0.100000,-0.350000,0.085355,-0.385355,0.050000,-0.400000,-0.050000,-0.400000,-0.085355,-0.385355,-0.100000,-0.350000,-0.100000,0.299289,-0.085355,0.334644,-0.034644,0.385355,0.000711,0.400000,0.050000,0.400000,0.085355,0.385355,0.085355,0.385355,$1*%
G04 Aperture macros list end*
G04 #@! TA.AperFunction,ComponentPad*
%ADD10C,1.700000*%
G04 #@! TD*
G04 #@! TA.AperFunction,ComponentPad*
%ADD11O,1.700000X1.700000*%
G04 #@! TD*
G04 #@! TA.AperFunction,ComponentPad*
%ADD12C,2.500000*%
G04 #@! TD*
G04 #@! TA.AperFunction,SMDPad,CuDef*
%ADD13RoundRect,0.237500X0.237500X-0.287500X0.237500X0.287500X-0.237500X0.287500X-0.237500X-0.287500X0*%
G04 #@! TD*
G04 #@! TA.AperFunction,SMDPad,CuDef*
%ADD14RoundRect,0.250000X-0.337500X-0.475000X0.337500X-0.475000X0.337500X0.475000X-0.337500X0.475000X0*%
G04 #@! TD*
G04 #@! TA.AperFunction,SMDPad,CuDef*
%ADD15RoundRect,0.237500X-0.300000X-0.237500X0.300000X-0.237500X0.300000X0.237500X-0.300000X0.237500X0*%
G04 #@! TD*
G04 #@! TA.AperFunction,SMDPad,CuDef*
%ADD16R,1.800000X2.900000*%
G04 #@! TD*
G04 #@! TA.AperFunction,SMDPad,CuDef*
%ADD17RoundRect,0.237500X0.287500X0.237500X-0.287500X0.237500X-0.287500X-0.237500X0.287500X-0.237500X0*%
G04 #@! TD*
G04 #@! TA.AperFunction,SMDPad,CuDef*
%ADD18RoundRect,0.237500X-0.237500X0.287500X-0.237500X-0.287500X0.237500X-0.287500X0.237500X0.287500X0*%
G04 #@! TD*
G04 #@! TA.AperFunction,SMDPad,CuDef*
%ADD19RoundRect,0.237500X-0.287500X-0.237500X0.287500X-0.237500X0.287500X0.237500X-0.287500X0.237500X0*%
G04 #@! TD*
G04 #@! TA.AperFunction,SMDPad,CuDef*
%ADD20RoundRect,0.350000X0.350000X0.350000X-0.350000X0.350000X-0.350000X-0.350000X0.350000X-0.350000X0*%
G04 #@! TD*
G04 #@! TA.AperFunction,SMDPad,CuDef*
%ADD21RoundRect,0.250000X-0.475000X0.337500X-0.475000X-0.337500X0.475000X-0.337500X0.475000X0.337500X0*%
G04 #@! TD*
G04 #@! TA.AperFunction,SMDPad,CuDef*
%ADD22R,2.900000X1.800000*%
G04 #@! TD*
G04 #@! TA.AperFunction,SMDPad,CuDef*
%ADD23RoundRect,0.062500X0.375000X0.062500X-0.375000X0.062500X-0.375000X-0.062500X0.375000X-0.062500X0*%
G04 #@! TD*
G04 #@! TA.AperFunction,SMDPad,CuDef*
%ADD24RoundRect,0.062500X0.062500X0.375000X-0.062500X0.375000X-0.062500X-0.375000X0.062500X-0.375000X0*%
G04 #@! TD*
G04 #@! TA.AperFunction,SMDPad,CuDef*
%ADD25R,2.000000X2.000000*%
G04 #@! TD*
G04 #@! TA.AperFunction,SMDPad,CuDef*
%ADD26RoundRect,0.237500X-0.250000X-0.237500X0.250000X-0.237500X0.250000X0.237500X-0.250000X0.237500X0*%
G04 #@! TD*
G04 #@! TA.AperFunction,SMDPad,CuDef*
%ADD27RoundRect,0.237500X0.237500X-0.300000X0.237500X0.300000X-0.237500X0.300000X-0.237500X-0.300000X0*%
G04 #@! TD*
G04 #@! TA.AperFunction,SMDPad,CuDef*
%ADD28RoundRect,0.237500X-0.237500X0.250000X-0.237500X-0.250000X0.237500X-0.250000X0.237500X0.250000X0*%
G04 #@! TD*
G04 #@! TA.AperFunction,SMDPad,CuDef*
%ADD29FreePoly0,180.000000*%
G04 #@! TD*
G04 #@! TA.AperFunction,SMDPad,CuDef*
%ADD30RoundRect,0.050000X0.350000X0.050000X-0.350000X0.050000X-0.350000X-0.050000X0.350000X-0.050000X0*%
G04 #@! TD*
G04 #@! TA.AperFunction,SMDPad,CuDef*
%ADD31FreePoly1,180.000000*%
G04 #@! TD*
G04 #@! TA.AperFunction,SMDPad,CuDef*
%ADD32FreePoly2,180.000000*%
G04 #@! TD*
G04 #@! TA.AperFunction,SMDPad,CuDef*
%ADD33RoundRect,0.050000X0.050000X0.350000X-0.050000X0.350000X-0.050000X-0.350000X0.050000X-0.350000X0*%
G04 #@! TD*
G04 #@! TA.AperFunction,SMDPad,CuDef*
%ADD34FreePoly3,180.000000*%
G04 #@! TD*
G04 #@! TA.AperFunction,SMDPad,CuDef*
%ADD35FreePoly4,180.000000*%
G04 #@! TD*
G04 #@! TA.AperFunction,SMDPad,CuDef*
%ADD36FreePoly5,180.000000*%
G04 #@! TD*
G04 #@! TA.AperFunction,SMDPad,CuDef*
%ADD37FreePoly6,180.000000*%
G04 #@! TD*
G04 #@! TA.AperFunction,SMDPad,CuDef*
%ADD38FreePoly7,180.000000*%
G04 #@! TD*
G04 #@! TA.AperFunction,SMDPad,CuDef*
%ADD39R,1.700000X1.700000*%
G04 #@! TD*
G04 #@! TA.AperFunction,ViaPad*
%ADD40C,0.800000*%
G04 #@! TD*
G04 #@! TA.AperFunction,Conductor*
%ADD41C,1.000000*%
G04 #@! TD*
G04 #@! TA.AperFunction,Conductor*
%ADD42C,0.500000*%
G04 #@! TD*
G04 #@! TA.AperFunction,Conductor*
%ADD43C,0.250000*%
G04 #@! TD*
G04 #@! TA.AperFunction,Conductor*
%ADD44C,0.400000*%
G04 #@! TD*
G04 APERTURE END LIST*
D10*
X17375000Y-45000000D03*
D11*
X19915000Y-45000000D03*
X22455000Y-45000000D03*
X24995000Y-45000000D03*
X27535000Y-45000000D03*
X30075000Y-45000000D03*
X32615000Y-45000000D03*
D12*
X25000000Y-15000000D03*
X15500000Y-37250000D03*
X34500000Y-37250000D03*
D13*
X30500000Y-17075000D03*
X30500000Y-15325000D03*
D14*
X33462500Y-21000000D03*
X35537500Y-21000000D03*
D15*
X33887500Y-23250000D03*
X35612500Y-23250000D03*
D16*
X35700000Y-17900000D03*
X32500000Y-17900000D03*
D17*
X29875000Y-25550000D03*
X28125000Y-25550000D03*
X29875000Y-27050000D03*
X28125000Y-27050000D03*
D18*
X26600000Y-25025000D03*
X26600000Y-26775000D03*
X31400000Y-25575000D03*
X31400000Y-27325000D03*
X32900000Y-25575000D03*
X32900000Y-27325000D03*
D19*
X31375000Y-28850000D03*
X33125000Y-28850000D03*
X33025000Y-30400000D03*
X34775000Y-30400000D03*
D20*
X20100000Y-15700000D03*
X16600000Y-17700000D03*
X16600000Y-15700000D03*
X20100000Y-17700000D03*
D14*
X32162500Y-15000000D03*
X34237500Y-15000000D03*
D21*
X23800000Y-23362500D03*
X23800000Y-25437500D03*
D22*
X24700000Y-17900000D03*
X24700000Y-21100000D03*
D23*
X31537500Y-21150000D03*
X31537500Y-21650000D03*
X31537500Y-22150000D03*
X31537500Y-22650000D03*
X31537500Y-23150000D03*
D24*
X30850000Y-23837500D03*
X30350000Y-23837500D03*
X29850000Y-23837500D03*
X29350000Y-23837500D03*
X28850000Y-23837500D03*
D23*
X28162500Y-23150000D03*
X28162500Y-22650000D03*
X28162500Y-22150000D03*
X28162500Y-21650000D03*
X28162500Y-21150000D03*
D24*
X28850000Y-20462500D03*
X29350000Y-20462500D03*
X29850000Y-20462500D03*
X30350000Y-20462500D03*
X30850000Y-20462500D03*
D25*
X29850000Y-22150000D03*
D10*
X15200000Y-30425000D03*
D11*
X15200000Y-27885000D03*
X15200000Y-25345000D03*
D15*
X20237500Y-27350000D03*
X21962500Y-27350000D03*
D26*
X17587500Y-14100000D03*
X19412500Y-14100000D03*
D27*
X22150000Y-19412500D03*
X22150000Y-17687500D03*
D28*
X27700000Y-16087500D03*
X27700000Y-17912500D03*
D26*
X27987500Y-13800000D03*
X29812500Y-13800000D03*
D29*
X19100000Y-20600000D03*
D30*
X19100000Y-21000000D03*
X19100000Y-21400000D03*
X19100000Y-21800000D03*
D31*
X19100000Y-22200000D03*
D32*
X18450000Y-22850000D03*
D33*
X18050000Y-22850000D03*
X17650000Y-22850000D03*
X17250000Y-22850000D03*
D34*
X16850000Y-22850000D03*
D35*
X16200000Y-22200000D03*
D30*
X16200000Y-21800000D03*
X16200000Y-21400000D03*
X16200000Y-21000000D03*
D36*
X16200000Y-20600000D03*
D37*
X16850000Y-19950000D03*
D33*
X17250000Y-19950000D03*
X17650000Y-19950000D03*
X18050000Y-19950000D03*
D38*
X18450000Y-19950000D03*
D39*
X17650000Y-21400000D03*
D28*
X22150000Y-14287500D03*
X22150000Y-16112500D03*
D15*
X20237500Y-26200000D03*
X21962500Y-26200000D03*
D40*
X20500000Y-22250000D03*
X27793750Y-28693750D03*
X26500000Y-31950000D03*
X29100000Y-15600000D03*
X21300000Y-16850000D03*
X32750000Y-23950000D03*
X34550000Y-26600000D03*
X13500000Y-23300000D03*
X15400000Y-43300000D03*
X34250000Y-17100000D03*
X19750000Y-24800000D03*
X22250000Y-23362500D03*
X31600000Y-23950000D03*
X27000000Y-22100000D03*
X28750000Y-18000000D03*
X21600000Y-25200000D03*
X21600000Y-30000000D03*
X21600000Y-34800000D03*
D41*
X23800000Y-27400000D02*
X23750000Y-27400000D01*
X34775000Y-30400000D02*
X34775000Y-31275000D01*
D42*
X26600000Y-26775000D02*
X26600000Y-27500000D01*
D41*
X15500000Y-37350000D02*
X15500000Y-37250000D01*
X35537500Y-25612500D02*
X34775000Y-26375000D01*
X34775000Y-28275000D02*
X33825000Y-27325000D01*
D42*
X31900000Y-13700000D02*
X32937500Y-13700000D01*
D41*
X20100000Y-15700000D02*
X21737500Y-15700000D01*
X34775000Y-26375000D02*
X34550000Y-26600000D01*
X22831250Y-26481250D02*
X21962500Y-27350000D01*
X21962500Y-27350000D02*
X21962500Y-27412500D01*
X15500000Y-37250000D02*
X14950000Y-36700000D01*
X21962500Y-26200000D02*
X23037500Y-26200000D01*
X23800000Y-25512500D02*
X22831250Y-26481250D01*
X34775000Y-28275000D02*
X34775000Y-26375000D01*
X23800000Y-25437500D02*
X23800000Y-25512500D01*
X23750000Y-27400000D02*
X22831250Y-26481250D01*
X33850000Y-27325000D02*
X32900000Y-27325000D01*
D43*
X31537500Y-23150000D02*
X30850000Y-23150000D01*
D42*
X30500000Y-15325000D02*
X30325000Y-15325000D01*
X32750000Y-23950000D02*
X34550000Y-25750000D01*
D41*
X21737500Y-15700000D02*
X22150000Y-16112500D01*
D42*
X26600000Y-27500000D02*
X27793750Y-28693750D01*
X32937500Y-13700000D02*
X34237500Y-15000000D01*
X30500000Y-15325000D02*
X30500000Y-14600000D01*
D41*
X23800000Y-29250000D02*
X23800000Y-28750000D01*
X34775000Y-30400000D02*
X34775000Y-28275000D01*
X23800000Y-27400000D02*
X23800000Y-28750000D01*
X20150000Y-15700000D02*
X20100000Y-15700000D01*
D42*
X30500000Y-15325000D02*
X29375000Y-15325000D01*
D43*
X31950000Y-23150000D02*
X31537500Y-23150000D01*
D41*
X21962500Y-27412500D02*
X23800000Y-29250000D01*
X23800000Y-25437500D02*
X23800000Y-27400000D01*
X34775000Y-31275000D02*
X34100000Y-31950000D01*
X21962500Y-27350000D02*
X21962500Y-26200000D01*
X32900000Y-27325000D02*
X33825000Y-27325000D01*
D43*
X19230000Y-21400000D02*
X17780000Y-21400000D01*
X29350000Y-20462500D02*
X29350000Y-21650000D01*
X29350000Y-23837500D02*
X29350000Y-22650000D01*
D41*
X34500000Y-26650000D02*
X34550000Y-26600000D01*
D42*
X29375000Y-15325000D02*
X29100000Y-15600000D01*
D41*
X21300000Y-16850000D02*
X20150000Y-15700000D01*
X22400000Y-27350000D02*
X21962500Y-27350000D01*
X21300000Y-16850000D02*
X21312500Y-16850000D01*
D42*
X30500000Y-14600000D02*
X31400000Y-13700000D01*
D41*
X21300000Y-16850000D02*
X21412500Y-16850000D01*
D43*
X28850000Y-21150000D02*
X29850000Y-22150000D01*
D42*
X34550000Y-25750000D02*
X35400000Y-25750000D01*
D41*
X23037500Y-26200000D02*
X23800000Y-25437500D01*
X21312500Y-16850000D02*
X22150000Y-17687500D01*
D42*
X35400000Y-25750000D02*
X35537500Y-25612500D01*
D41*
X33825000Y-27325000D02*
X34550000Y-26600000D01*
D43*
X31537500Y-21150000D02*
X30850000Y-21150000D01*
X30850000Y-23150000D02*
X29850000Y-22150000D01*
D41*
X23800000Y-28750000D02*
X22400000Y-27350000D01*
D43*
X28162500Y-21150000D02*
X28850000Y-21150000D01*
X20300000Y-21400000D02*
X20500000Y-21600000D01*
D42*
X31400000Y-13700000D02*
X31900000Y-13700000D01*
D41*
X34100000Y-31950000D02*
X26500000Y-31950000D01*
X35537500Y-21000000D02*
X35537500Y-25612500D01*
D43*
X30850000Y-21150000D02*
X29850000Y-22150000D01*
D41*
X21412500Y-16850000D02*
X22150000Y-16112500D01*
D43*
X19100000Y-21400000D02*
X20300000Y-21400000D01*
D41*
X26500000Y-31950000D02*
X23800000Y-29250000D01*
D43*
X32750000Y-23950000D02*
X31950000Y-23150000D01*
D42*
X26625000Y-27050000D02*
X26575000Y-27000000D01*
D43*
X29350000Y-22650000D02*
X29850000Y-22150000D01*
X20500000Y-21600000D02*
X20500000Y-22250000D01*
D41*
X22150000Y-16112500D02*
X22150000Y-17687500D01*
D43*
X29350000Y-21650000D02*
X29850000Y-22150000D01*
D42*
X34550000Y-25750000D02*
X34550000Y-26600000D01*
D43*
X33275000Y-22650000D02*
X33875000Y-23250000D01*
X31537500Y-22650000D02*
X33275000Y-22650000D01*
X30850000Y-18650000D02*
X31100000Y-18400000D01*
D42*
X32500000Y-17200000D02*
X32000000Y-17200000D01*
X31400000Y-18400000D02*
X31400000Y-17800000D01*
D43*
X30850000Y-18650000D02*
X31750000Y-18650000D01*
D42*
X32500000Y-17900000D02*
X32000000Y-18400000D01*
D43*
X31750000Y-18650000D02*
X32500000Y-17900000D01*
D42*
X30850000Y-18350000D02*
X30850000Y-18650000D01*
X31400000Y-17800000D02*
X31450000Y-17750000D01*
X32500000Y-17900000D02*
X32500000Y-17200000D01*
X31400000Y-18400000D02*
X31100000Y-18400000D01*
X31450000Y-17750000D02*
X30850000Y-18350000D01*
D43*
X30850000Y-20462500D02*
X30850000Y-18650000D01*
D42*
X32000000Y-18400000D02*
X31400000Y-18400000D01*
X32000000Y-17200000D02*
X31450000Y-17750000D01*
D43*
X16850000Y-23350000D02*
X17350960Y-23850960D01*
X17350960Y-23850960D02*
X17350961Y-34815961D01*
X16850000Y-22850000D02*
X16850000Y-23350000D01*
X17350961Y-34815961D02*
X27535000Y-45000000D01*
D42*
X13024520Y-40924520D02*
X13024520Y-23775480D01*
X13024520Y-23775480D02*
X13500000Y-23300000D01*
X15400000Y-43300000D02*
X13024520Y-40924520D01*
D41*
X34250000Y-17100000D02*
X34900000Y-17100000D01*
X33462500Y-21000000D02*
X33462500Y-20787500D01*
D43*
X35700000Y-18762500D02*
X35700000Y-17900000D01*
D41*
X35700000Y-18200000D02*
X35700000Y-17900000D01*
X33600000Y-20300000D02*
X35700000Y-18200000D01*
D43*
X32812500Y-21650000D02*
X33462500Y-21000000D01*
X31537500Y-21650000D02*
X32812500Y-21650000D01*
D41*
X34900000Y-17100000D02*
X35700000Y-17900000D01*
D42*
X24000000Y-21462500D02*
X23750000Y-21712500D01*
D43*
X28162500Y-21650000D02*
X27675002Y-21650000D01*
D42*
X20237500Y-25287500D02*
X19750000Y-24800000D01*
D41*
X26849992Y-20824990D02*
X24675010Y-20824990D01*
D42*
X13800000Y-26745000D02*
X15200000Y-25345000D01*
D43*
X19724520Y-21999040D02*
X19724520Y-24774520D01*
D41*
X23800000Y-23362500D02*
X22250000Y-23362500D01*
D42*
X23742500Y-21705000D02*
X23750000Y-21712500D01*
D43*
X24675010Y-20824990D02*
X24075010Y-20824990D01*
D42*
X13800000Y-38885000D02*
X13800000Y-26745000D01*
D41*
X23800000Y-22000000D02*
X24700000Y-21100000D01*
X23800000Y-23362500D02*
X23800000Y-22000000D01*
D43*
X19724520Y-24774520D02*
X19750000Y-24800000D01*
X27675002Y-21650000D02*
X26849992Y-20824990D01*
X19100000Y-21800000D02*
X19525480Y-21800000D01*
D42*
X19915000Y-45000000D02*
X13800000Y-38885000D01*
X20237500Y-26200000D02*
X20237500Y-25287500D01*
X20237500Y-27350000D02*
X20237500Y-26200000D01*
X24637510Y-20824990D02*
X23750000Y-21712500D01*
X24675010Y-20824990D02*
X24637510Y-20824990D01*
D43*
X19525480Y-21800000D02*
X19724520Y-21999040D01*
D42*
X29900000Y-25575000D02*
X29875000Y-25550000D01*
D43*
X29875000Y-25600960D02*
X30624520Y-26350480D01*
X30837500Y-26137500D02*
X31400000Y-25575000D01*
X29850000Y-23837500D02*
X29850000Y-25525000D01*
X30624520Y-26350480D02*
X30837500Y-26137500D01*
X31075000Y-25900000D02*
X30400000Y-25900000D01*
X30624520Y-26350480D02*
X30624520Y-28099520D01*
X29850000Y-25525000D02*
X29875000Y-25550000D01*
X30600000Y-25900000D02*
X30400000Y-25900000D01*
D42*
X31400000Y-25575000D02*
X29900000Y-25575000D01*
D43*
X30837500Y-26137500D02*
X30600000Y-25900000D01*
X31400000Y-25575000D02*
X31075000Y-25900000D01*
X30624520Y-28099520D02*
X31375000Y-28850000D01*
X30400000Y-25900000D02*
X30600000Y-26100000D01*
X29875000Y-25550000D02*
X29875000Y-25600960D01*
X28162500Y-22150000D02*
X27050000Y-22150000D01*
X30850000Y-23837500D02*
X31487500Y-23837500D01*
X27050000Y-22150000D02*
X27000000Y-22100000D01*
X31487500Y-23837500D02*
X31600000Y-23950000D01*
X28320223Y-41199519D02*
X30075000Y-42954296D01*
X17250000Y-22850000D02*
X17250000Y-23238229D01*
X25599519Y-41199519D02*
X28320223Y-41199519D01*
X17700480Y-23688709D02*
X17700480Y-33300480D01*
X17700480Y-33300480D02*
X25599519Y-41199519D01*
X30075000Y-42954296D02*
X30075000Y-45000000D01*
X17250000Y-23238229D02*
X17700480Y-23688709D01*
D42*
X32975000Y-29625000D02*
X32250000Y-29625000D01*
X31400000Y-30000000D02*
X27500000Y-30000000D01*
D43*
X25700000Y-24404090D02*
X25700000Y-24800000D01*
X28162500Y-22650000D02*
X27454090Y-22650000D01*
D42*
X32250000Y-29625000D02*
X31875000Y-30000000D01*
X32975000Y-28900000D02*
X31875000Y-30000000D01*
X32975000Y-30350000D02*
X33025000Y-30400000D01*
X31875000Y-30000000D02*
X31400000Y-30000000D01*
X32625000Y-30000000D02*
X31400000Y-30000000D01*
X25700000Y-28200000D02*
X25700000Y-24800000D01*
X32975000Y-29625000D02*
X32975000Y-30350000D01*
X27500000Y-30000000D02*
X25700000Y-28200000D01*
D43*
X27454090Y-22650000D02*
X25700000Y-24404090D01*
D42*
X32975000Y-28900000D02*
X32975000Y-29625000D01*
X33025000Y-30400000D02*
X32625000Y-30000000D01*
D43*
X27300000Y-25900000D02*
X27300000Y-26225000D01*
X26600000Y-24100000D02*
X26600000Y-25025000D01*
X28162500Y-23150000D02*
X27550000Y-23150000D01*
X27300000Y-26225000D02*
X28125000Y-27050000D01*
X27550000Y-23150000D02*
X26600000Y-24100000D01*
X26600000Y-25200000D02*
X27300000Y-25900000D01*
X26600000Y-25025000D02*
X26600000Y-25200000D01*
X28850000Y-23837500D02*
X28850000Y-24825000D01*
X28850000Y-24825000D02*
X28125000Y-25550000D01*
D42*
X29625000Y-27050000D02*
X28125000Y-25550000D01*
X29875000Y-27050000D02*
X29625000Y-27050000D01*
D43*
X28750000Y-18000000D02*
X29850000Y-19100000D01*
D42*
X28662500Y-17912500D02*
X28750000Y-18000000D01*
X27700000Y-17912500D02*
X28662500Y-17912500D01*
D43*
X29850000Y-19100000D02*
X29850000Y-20462500D01*
X19100000Y-21000000D02*
X20900000Y-21000000D01*
X20900000Y-21000000D02*
X21250000Y-21350000D01*
X21250000Y-24850000D02*
X21600000Y-25200000D01*
X21250000Y-21350000D02*
X21250000Y-24850000D01*
X19100000Y-22200000D02*
X19100000Y-27500000D01*
X19100000Y-27500000D02*
X21600000Y-30000000D01*
D42*
X25300000Y-17900000D02*
X27400000Y-20000000D01*
D43*
X27862500Y-20462500D02*
X27400000Y-20000000D01*
D42*
X24700000Y-17900000D02*
X25300000Y-17900000D01*
D43*
X28850000Y-20462500D02*
X27862500Y-20462500D01*
X30350000Y-24275000D02*
X30350000Y-23837500D01*
D42*
X31400000Y-27075000D02*
X32900000Y-25575000D01*
D43*
X32025000Y-24700000D02*
X32900000Y-25575000D01*
D42*
X31400000Y-27325000D02*
X31400000Y-27075000D01*
D43*
X32900000Y-25575000D02*
X32900000Y-25550000D01*
X30775000Y-24700000D02*
X32025000Y-24700000D01*
X30775000Y-24700000D02*
X30350000Y-24275000D01*
X18450000Y-31650000D02*
X21600000Y-34800000D01*
X18450000Y-22850000D02*
X18450000Y-31650000D01*
D44*
X30500000Y-16900000D02*
X31200000Y-16200000D01*
D43*
X31400000Y-16000000D02*
X31200000Y-16200000D01*
X31537500Y-22150000D02*
X34250000Y-22150000D01*
X34250000Y-22150000D02*
X34500000Y-21900000D01*
X30350000Y-17225000D02*
X30500000Y-17075000D01*
X35124626Y-19800000D02*
X36700000Y-19800000D01*
X37000000Y-16200000D02*
X36800000Y-16000000D01*
X36800000Y-16000000D02*
X33162500Y-16000000D01*
X34500000Y-21900000D02*
X34500000Y-20424626D01*
D44*
X32162500Y-15237500D02*
X32162500Y-15000000D01*
X31650000Y-15750000D02*
X31700000Y-15800000D01*
D43*
X37000000Y-19500000D02*
X37000000Y-16200000D01*
D44*
X30500000Y-17075000D02*
X30500000Y-16900000D01*
D43*
X34500000Y-20424626D02*
X35124626Y-19800000D01*
D44*
X31200000Y-16200000D02*
X31650000Y-15750000D01*
D43*
X33162500Y-16000000D02*
X31400000Y-16000000D01*
X36700000Y-19800000D02*
X37000000Y-19500000D01*
X30350000Y-20462500D02*
X30350000Y-17225000D01*
D44*
X31700000Y-15800000D02*
X32700000Y-15800000D01*
X31650000Y-15750000D02*
X32162500Y-15237500D01*
D43*
X33162500Y-16000000D02*
X32162500Y-15000000D01*
D42*
X27700000Y-16087500D02*
X27700000Y-15912500D01*
X27700000Y-15912500D02*
X29812500Y-13800000D01*
X29700000Y-13800000D02*
X29812500Y-13800000D01*
D43*
X21112500Y-20600000D02*
X21950000Y-19762500D01*
X19100000Y-20600000D02*
X21112500Y-20600000D01*
X19712500Y-19412500D02*
X22200000Y-19412500D01*
X18950000Y-14562500D02*
X18950000Y-18650000D01*
X18950000Y-18650000D02*
X19712500Y-19412500D01*
X19412500Y-14100000D02*
X18950000Y-14562500D01*
X28465000Y-40850000D02*
X32615000Y-45000000D01*
X18050000Y-33150000D02*
X25750000Y-40850000D01*
X25750000Y-40850000D02*
X28465000Y-40850000D01*
X18050000Y-22850000D02*
X18050000Y-33150000D01*
X16651922Y-35105513D02*
X22455000Y-40908592D01*
X22455000Y-40908592D02*
X22455000Y-45000000D01*
X15225961Y-22714552D02*
X16651922Y-24140513D01*
X15225961Y-21491514D02*
X15225961Y-22714552D01*
X16651922Y-24140513D02*
X16651922Y-35105513D01*
X16200000Y-21000000D02*
X15717475Y-21000000D01*
X15717475Y-21000000D02*
X15225961Y-21491514D01*
X24995000Y-42954296D02*
X24995000Y-45000000D01*
X15811771Y-21400000D02*
X15575480Y-21636291D01*
X17001442Y-34960738D02*
X24995000Y-42954296D01*
X15575480Y-21636291D02*
X15575480Y-22569775D01*
X15575480Y-22569775D02*
X17001440Y-23995735D01*
X16200000Y-21400000D02*
X15811771Y-21400000D01*
X17001440Y-23995735D02*
X17001442Y-34960738D01*
X18762500Y-13287500D02*
X21812500Y-13287500D01*
X27987500Y-13800000D02*
X27475000Y-13287500D01*
X22150000Y-14287500D02*
X22150000Y-13625000D01*
X22150000Y-14287500D02*
X22150000Y-13337500D01*
X22150000Y-13650000D02*
X22512500Y-13287500D01*
X22150000Y-13337500D02*
X22200000Y-13287500D01*
X22150000Y-14287500D02*
X22150000Y-13650000D01*
X27475000Y-13287500D02*
X22512500Y-13287500D01*
X18450000Y-19950000D02*
X18450000Y-13600000D01*
X18450000Y-13600000D02*
X18762500Y-13287500D01*
X22150000Y-13625000D02*
X21812500Y-13287500D01*
X21812500Y-13287500D02*
X22200000Y-13287500D01*
X22512500Y-13287500D02*
X22200000Y-13287500D01*
X16274511Y-24257398D02*
X16274511Y-26810489D01*
X14876441Y-22859328D02*
X16274511Y-24257398D01*
X16274511Y-26810489D02*
X15200000Y-27885000D01*
X15900000Y-19100000D02*
X17850000Y-19100000D01*
X14876442Y-20123558D02*
X15900000Y-19100000D01*
X17850000Y-19100000D02*
X18050000Y-19300000D01*
X14876442Y-20123558D02*
X14876441Y-22859328D01*
X18050000Y-19300000D02*
X18050000Y-19950000D01*
X17587500Y-16712500D02*
X16600000Y-17700000D01*
X17587500Y-14100000D02*
X17587500Y-16712500D01*
M02*
