G04 #@! TF.GenerationSoftware,KiCad,Pcbnew,(5.1.9)-1*
G04 #@! TF.CreationDate,2021-05-26T02:25:09+02:00*
G04 #@! TF.ProjectId,Omamori,4f6d616d-6f72-4692-9e6b-696361645f70,rev?*
G04 #@! TF.SameCoordinates,Original*
G04 #@! TF.FileFunction,Legend,Bot*
G04 #@! TF.FilePolarity,Positive*
%FSLAX46Y46*%
G04 Gerber Fmt 4.6, Leading zero omitted, Abs format (unit mm)*
G04 Created by KiCad (PCBNEW (5.1.9)-1) date 2021-05-26 02:25:09*
%MOMM*%
%LPD*%
G01*
G04 APERTURE LIST*
%ADD10C,0.120000*%
%ADD11C,0.125000*%
G04 APERTURE END LIST*
D10*
X34171267Y-17510000D02*
X33828733Y-17510000D01*
X34171267Y-16490000D02*
X33828733Y-16490000D01*
X30977500Y-19254724D02*
X30977500Y-18745276D01*
X32022500Y-19254724D02*
X32022500Y-18745276D01*
X26201388Y-24700000D02*
G75*
G03*
X26201388Y-24700000I-901388J0D01*
G01*
X23800000Y-23950000D02*
X23800000Y-25450000D01*
X26800000Y-23950000D02*
X26800000Y-25450000D01*
X23500000Y-47050000D02*
X23000000Y-47050000D01*
X23250000Y-47050000D02*
X23250000Y-46550000D01*
X20150000Y-18950000D02*
X20150000Y-18550000D01*
X23350000Y-18950000D02*
X23350000Y-18550000D01*
X28450000Y-20350000D02*
X28050000Y-20350000D01*
X28450000Y-17150000D02*
X28050000Y-17150000D01*
X21510000Y-22328733D02*
X21510000Y-22671267D01*
X20490000Y-22328733D02*
X20490000Y-22671267D01*
X34171267Y-20510000D02*
X33828733Y-20510000D01*
X34171267Y-19490000D02*
X33828733Y-19490000D01*
X18000000Y-29310000D02*
X16050000Y-29310000D01*
X18000000Y-29310000D02*
X19950000Y-29310000D01*
X18000000Y-24190000D02*
X16050000Y-24190000D01*
X18000000Y-24190000D02*
X21450000Y-24190000D01*
X17000001Y-38000001D02*
G75*
G03*
X32999999Y-37999999I7999999J1000001D01*
G01*
X32999999Y-35999999D02*
G75*
G03*
X17000001Y-36000001I-7999999J-1000001D01*
G01*
X16840000Y-20700000D02*
X16840000Y-19300000D01*
X19160000Y-19300000D02*
X19160000Y-21200000D01*
X33828733Y-22490000D02*
X34171267Y-22490000D01*
X33828733Y-23510000D02*
X34171267Y-23510000D01*
X33828733Y-26990000D02*
X34171267Y-26990000D01*
X33828733Y-28010000D02*
X34171267Y-28010000D01*
X34171267Y-26510000D02*
X33828733Y-26510000D01*
X34171267Y-25490000D02*
X33828733Y-25490000D01*
X33828733Y-23990000D02*
X34171267Y-23990000D01*
X33828733Y-25010000D02*
X34171267Y-25010000D01*
X30510000Y-27828733D02*
X30510000Y-28171267D01*
X29490000Y-27828733D02*
X29490000Y-28171267D01*
X32010000Y-27828733D02*
X32010000Y-28171267D01*
X30990000Y-27828733D02*
X30990000Y-28171267D01*
X34171267Y-29510000D02*
X33828733Y-29510000D01*
X34171267Y-28490000D02*
X33828733Y-28490000D01*
X23571267Y-28710000D02*
X23228733Y-28710000D01*
X23571267Y-27690000D02*
X23228733Y-27690000D01*
X33828733Y-20990000D02*
X34171267Y-20990000D01*
X33828733Y-22010000D02*
X34171267Y-22010000D01*
X16310000Y-19828733D02*
X16310000Y-20171267D01*
X15290000Y-19828733D02*
X15290000Y-20171267D01*
X21990000Y-25971267D02*
X21990000Y-25628733D01*
X23010000Y-25971267D02*
X23010000Y-25628733D01*
X33828733Y-17990000D02*
X34171267Y-17990000D01*
X33828733Y-19010000D02*
X34171267Y-19010000D01*
X23010000Y-22328733D02*
X23010000Y-22671267D01*
X21990000Y-22328733D02*
X21990000Y-22671267D01*
X28440000Y-24085000D02*
X28440000Y-24560000D01*
X28440000Y-24560000D02*
X28915000Y-24560000D01*
X31660000Y-21815000D02*
X31660000Y-21340000D01*
X31660000Y-21340000D02*
X31185000Y-21340000D01*
X31660000Y-24085000D02*
X31660000Y-24560000D01*
X31660000Y-24560000D02*
X31185000Y-24560000D01*
X28440000Y-21815000D02*
X28440000Y-21340000D01*
D11*
X27095238Y-46526190D02*
X27333333Y-46526190D01*
X27357142Y-46764285D01*
X27333333Y-46740476D01*
X27285714Y-46716666D01*
X27166666Y-46716666D01*
X27119047Y-46740476D01*
X27095238Y-46764285D01*
X27071428Y-46811904D01*
X27071428Y-46930952D01*
X27095238Y-46978571D01*
X27119047Y-47002380D01*
X27166666Y-47026190D01*
X27285714Y-47026190D01*
X27333333Y-47002380D01*
X27357142Y-46978571D01*
X26928571Y-46526190D02*
X26761904Y-47026190D01*
X26595238Y-46526190D01*
X24845238Y-46526190D02*
X24559523Y-46526190D01*
X24702380Y-47026190D02*
X24702380Y-46526190D01*
X24440476Y-47026190D02*
X24178571Y-46692857D01*
X24440476Y-46692857D02*
X24178571Y-47026190D01*
X25797619Y-47026190D02*
X25964285Y-46788095D01*
X26083333Y-47026190D02*
X26083333Y-46526190D01*
X25892857Y-46526190D01*
X25845238Y-46550000D01*
X25821428Y-46573809D01*
X25797619Y-46621428D01*
X25797619Y-46692857D01*
X25821428Y-46740476D01*
X25845238Y-46764285D01*
X25892857Y-46788095D01*
X26083333Y-46788095D01*
X25630952Y-47026190D02*
X25369047Y-46692857D01*
X25630952Y-46692857D02*
X25369047Y-47026190D01*
M02*
