G04 #@! TF.GenerationSoftware,KiCad,Pcbnew,(5.1.9)-1*
G04 #@! TF.CreationDate,2021-05-17T23:45:00+02:00*
G04 #@! TF.ProjectId,Omamori,4f6d616d-6f72-4692-9e6b-696361645f70,rev?*
G04 #@! TF.SameCoordinates,Original*
G04 #@! TF.FileFunction,Copper,L2,Bot*
G04 #@! TF.FilePolarity,Positive*
%FSLAX46Y46*%
G04 Gerber Fmt 4.6, Leading zero omitted, Abs format (unit mm)*
G04 Created by KiCad (PCBNEW (5.1.9)-1) date 2021-05-17 23:45:00*
%MOMM*%
%LPD*%
G01*
G04 APERTURE LIST*
G04 #@! TA.AperFunction,SMDPad,CuDef*
%ADD10R,1.000000X1.000000*%
G04 #@! TD*
G04 #@! TA.AperFunction,ComponentPad*
%ADD11C,1.000000*%
G04 #@! TD*
G04 #@! TA.AperFunction,ComponentPad*
%ADD12O,1.000000X1.000000*%
G04 #@! TD*
G04 #@! TA.AperFunction,ComponentPad*
%ADD13C,2.000000*%
G04 #@! TD*
G04 #@! TA.AperFunction,SMDPad,CuDef*
%ADD14R,0.400000X0.900000*%
G04 #@! TD*
G04 #@! TA.AperFunction,SMDPad,CuDef*
%ADD15R,3.400000X1.300000*%
G04 #@! TD*
G04 #@! TA.AperFunction,SMDPad,CuDef*
%ADD16R,1.800000X1.800000*%
G04 #@! TD*
G04 #@! TA.AperFunction,ViaPad*
%ADD17C,2.500000*%
G04 #@! TD*
G04 #@! TA.AperFunction,ViaPad*
%ADD18C,0.800000*%
G04 #@! TD*
G04 #@! TA.AperFunction,Conductor*
%ADD19C,0.250000*%
G04 #@! TD*
G04 #@! TA.AperFunction,Conductor*
%ADD20C,0.500000*%
G04 #@! TD*
G04 #@! TA.AperFunction,Conductor*
%ADD21C,1.000000*%
G04 #@! TD*
G04 APERTURE END LIST*
G04 #@! TA.AperFunction,SMDPad,CuDef*
G36*
G01*
X20762500Y-22850000D02*
X21237500Y-22850000D01*
G75*
G02*
X21475000Y-23087500I0J-237500D01*
G01*
X21475000Y-23662500D01*
G75*
G02*
X21237500Y-23900000I-237500J0D01*
G01*
X20762500Y-23900000D01*
G75*
G02*
X20525000Y-23662500I0J237500D01*
G01*
X20525000Y-23087500D01*
G75*
G02*
X20762500Y-22850000I237500J0D01*
G01*
G37*
G04 #@! TD.AperFunction*
G04 #@! TA.AperFunction,SMDPad,CuDef*
G36*
G01*
X20762500Y-21100000D02*
X21237500Y-21100000D01*
G75*
G02*
X21475000Y-21337500I0J-237500D01*
G01*
X21475000Y-21912500D01*
G75*
G02*
X21237500Y-22150000I-237500J0D01*
G01*
X20762500Y-22150000D01*
G75*
G02*
X20525000Y-21912500I0J237500D01*
G01*
X20525000Y-21337500D01*
G75*
G02*
X20762500Y-21100000I237500J0D01*
G01*
G37*
G04 #@! TD.AperFunction*
D10*
X16750000Y-17000000D03*
X14250000Y-17000000D03*
D11*
X27000000Y-46500000D03*
D12*
X25730000Y-46500000D03*
X24460000Y-46500000D03*
X23190000Y-46500000D03*
G04 #@! TA.AperFunction,SMDPad,CuDef*
G36*
G01*
X31650000Y-19512500D02*
X31650000Y-19987500D01*
G75*
G02*
X31412500Y-20225000I-237500J0D01*
G01*
X30837500Y-20225000D01*
G75*
G02*
X30600000Y-19987500I0J237500D01*
G01*
X30600000Y-19512500D01*
G75*
G02*
X30837500Y-19275000I237500J0D01*
G01*
X31412500Y-19275000D01*
G75*
G02*
X31650000Y-19512500I0J-237500D01*
G01*
G37*
G04 #@! TD.AperFunction*
G04 #@! TA.AperFunction,SMDPad,CuDef*
G36*
G01*
X33400000Y-19512500D02*
X33400000Y-19987500D01*
G75*
G02*
X33162500Y-20225000I-237500J0D01*
G01*
X32587500Y-20225000D01*
G75*
G02*
X32350000Y-19987500I0J237500D01*
G01*
X32350000Y-19512500D01*
G75*
G02*
X32587500Y-19275000I237500J0D01*
G01*
X33162500Y-19275000D01*
G75*
G02*
X33400000Y-19512500I0J-237500D01*
G01*
G37*
G04 #@! TD.AperFunction*
G04 #@! TA.AperFunction,SMDPad,CuDef*
G36*
G01*
X16500000Y-24695000D02*
X16500000Y-24995000D01*
G75*
G02*
X16350000Y-25145000I-150000J0D01*
G01*
X14700000Y-25145000D01*
G75*
G02*
X14550000Y-24995000I0J150000D01*
G01*
X14550000Y-24695000D01*
G75*
G02*
X14700000Y-24545000I150000J0D01*
G01*
X16350000Y-24545000D01*
G75*
G02*
X16500000Y-24695000I0J-150000D01*
G01*
G37*
G04 #@! TD.AperFunction*
G04 #@! TA.AperFunction,SMDPad,CuDef*
G36*
G01*
X16500000Y-25965000D02*
X16500000Y-26265000D01*
G75*
G02*
X16350000Y-26415000I-150000J0D01*
G01*
X14700000Y-26415000D01*
G75*
G02*
X14550000Y-26265000I0J150000D01*
G01*
X14550000Y-25965000D01*
G75*
G02*
X14700000Y-25815000I150000J0D01*
G01*
X16350000Y-25815000D01*
G75*
G02*
X16500000Y-25965000I0J-150000D01*
G01*
G37*
G04 #@! TD.AperFunction*
G04 #@! TA.AperFunction,SMDPad,CuDef*
G36*
G01*
X16500000Y-27235000D02*
X16500000Y-27535000D01*
G75*
G02*
X16350000Y-27685000I-150000J0D01*
G01*
X14700000Y-27685000D01*
G75*
G02*
X14550000Y-27535000I0J150000D01*
G01*
X14550000Y-27235000D01*
G75*
G02*
X14700000Y-27085000I150000J0D01*
G01*
X16350000Y-27085000D01*
G75*
G02*
X16500000Y-27235000I0J-150000D01*
G01*
G37*
G04 #@! TD.AperFunction*
G04 #@! TA.AperFunction,SMDPad,CuDef*
G36*
G01*
X16500000Y-28505000D02*
X16500000Y-28805000D01*
G75*
G02*
X16350000Y-28955000I-150000J0D01*
G01*
X14700000Y-28955000D01*
G75*
G02*
X14550000Y-28805000I0J150000D01*
G01*
X14550000Y-28505000D01*
G75*
G02*
X14700000Y-28355000I150000J0D01*
G01*
X16350000Y-28355000D01*
G75*
G02*
X16500000Y-28505000I0J-150000D01*
G01*
G37*
G04 #@! TD.AperFunction*
G04 #@! TA.AperFunction,SMDPad,CuDef*
G36*
G01*
X21450000Y-28505000D02*
X21450000Y-28805000D01*
G75*
G02*
X21300000Y-28955000I-150000J0D01*
G01*
X19650000Y-28955000D01*
G75*
G02*
X19500000Y-28805000I0J150000D01*
G01*
X19500000Y-28505000D01*
G75*
G02*
X19650000Y-28355000I150000J0D01*
G01*
X21300000Y-28355000D01*
G75*
G02*
X21450000Y-28505000I0J-150000D01*
G01*
G37*
G04 #@! TD.AperFunction*
G04 #@! TA.AperFunction,SMDPad,CuDef*
G36*
G01*
X21450000Y-27235000D02*
X21450000Y-27535000D01*
G75*
G02*
X21300000Y-27685000I-150000J0D01*
G01*
X19650000Y-27685000D01*
G75*
G02*
X19500000Y-27535000I0J150000D01*
G01*
X19500000Y-27235000D01*
G75*
G02*
X19650000Y-27085000I150000J0D01*
G01*
X21300000Y-27085000D01*
G75*
G02*
X21450000Y-27235000I0J-150000D01*
G01*
G37*
G04 #@! TD.AperFunction*
G04 #@! TA.AperFunction,SMDPad,CuDef*
G36*
G01*
X21450000Y-25965000D02*
X21450000Y-26265000D01*
G75*
G02*
X21300000Y-26415000I-150000J0D01*
G01*
X19650000Y-26415000D01*
G75*
G02*
X19500000Y-26265000I0J150000D01*
G01*
X19500000Y-25965000D01*
G75*
G02*
X19650000Y-25815000I150000J0D01*
G01*
X21300000Y-25815000D01*
G75*
G02*
X21450000Y-25965000I0J-150000D01*
G01*
G37*
G04 #@! TD.AperFunction*
G04 #@! TA.AperFunction,SMDPad,CuDef*
G36*
G01*
X21450000Y-24695000D02*
X21450000Y-24995000D01*
G75*
G02*
X21300000Y-25145000I-150000J0D01*
G01*
X19650000Y-25145000D01*
G75*
G02*
X19500000Y-24995000I0J150000D01*
G01*
X19500000Y-24695000D01*
G75*
G02*
X19650000Y-24545000I150000J0D01*
G01*
X21300000Y-24545000D01*
G75*
G02*
X21450000Y-24695000I0J-150000D01*
G01*
G37*
G04 #@! TD.AperFunction*
D13*
X17000000Y-37000000D03*
X33000000Y-37000000D03*
D14*
X18650000Y-18900000D03*
X17350000Y-18900000D03*
X18000000Y-21100000D03*
X18000000Y-18900000D03*
X17350000Y-21100000D03*
X18650000Y-21100000D03*
G04 #@! TA.AperFunction,SMDPad,CuDef*
G36*
G01*
X34350000Y-23237500D02*
X34350000Y-22762500D01*
G75*
G02*
X34587500Y-22525000I237500J0D01*
G01*
X35162500Y-22525000D01*
G75*
G02*
X35400000Y-22762500I0J-237500D01*
G01*
X35400000Y-23237500D01*
G75*
G02*
X35162500Y-23475000I-237500J0D01*
G01*
X34587500Y-23475000D01*
G75*
G02*
X34350000Y-23237500I0J237500D01*
G01*
G37*
G04 #@! TD.AperFunction*
G04 #@! TA.AperFunction,SMDPad,CuDef*
G36*
G01*
X32600000Y-23237500D02*
X32600000Y-22762500D01*
G75*
G02*
X32837500Y-22525000I237500J0D01*
G01*
X33412500Y-22525000D01*
G75*
G02*
X33650000Y-22762500I0J-237500D01*
G01*
X33650000Y-23237500D01*
G75*
G02*
X33412500Y-23475000I-237500J0D01*
G01*
X32837500Y-23475000D01*
G75*
G02*
X32600000Y-23237500I0J237500D01*
G01*
G37*
G04 #@! TD.AperFunction*
G04 #@! TA.AperFunction,SMDPad,CuDef*
G36*
G01*
X34350000Y-27737500D02*
X34350000Y-27262500D01*
G75*
G02*
X34587500Y-27025000I237500J0D01*
G01*
X35162500Y-27025000D01*
G75*
G02*
X35400000Y-27262500I0J-237500D01*
G01*
X35400000Y-27737500D01*
G75*
G02*
X35162500Y-27975000I-237500J0D01*
G01*
X34587500Y-27975000D01*
G75*
G02*
X34350000Y-27737500I0J237500D01*
G01*
G37*
G04 #@! TD.AperFunction*
G04 #@! TA.AperFunction,SMDPad,CuDef*
G36*
G01*
X32600000Y-27737500D02*
X32600000Y-27262500D01*
G75*
G02*
X32837500Y-27025000I237500J0D01*
G01*
X33412500Y-27025000D01*
G75*
G02*
X33650000Y-27262500I0J-237500D01*
G01*
X33650000Y-27737500D01*
G75*
G02*
X33412500Y-27975000I-237500J0D01*
G01*
X32837500Y-27975000D01*
G75*
G02*
X32600000Y-27737500I0J237500D01*
G01*
G37*
G04 #@! TD.AperFunction*
G04 #@! TA.AperFunction,SMDPad,CuDef*
G36*
G01*
X33650000Y-25762500D02*
X33650000Y-26237500D01*
G75*
G02*
X33412500Y-26475000I-237500J0D01*
G01*
X32837500Y-26475000D01*
G75*
G02*
X32600000Y-26237500I0J237500D01*
G01*
X32600000Y-25762500D01*
G75*
G02*
X32837500Y-25525000I237500J0D01*
G01*
X33412500Y-25525000D01*
G75*
G02*
X33650000Y-25762500I0J-237500D01*
G01*
G37*
G04 #@! TD.AperFunction*
G04 #@! TA.AperFunction,SMDPad,CuDef*
G36*
G01*
X35400000Y-25762500D02*
X35400000Y-26237500D01*
G75*
G02*
X35162500Y-26475000I-237500J0D01*
G01*
X34587500Y-26475000D01*
G75*
G02*
X34350000Y-26237500I0J237500D01*
G01*
X34350000Y-25762500D01*
G75*
G02*
X34587500Y-25525000I237500J0D01*
G01*
X35162500Y-25525000D01*
G75*
G02*
X35400000Y-25762500I0J-237500D01*
G01*
G37*
G04 #@! TD.AperFunction*
G04 #@! TA.AperFunction,SMDPad,CuDef*
G36*
G01*
X34350000Y-24737500D02*
X34350000Y-24262500D01*
G75*
G02*
X34587500Y-24025000I237500J0D01*
G01*
X35162500Y-24025000D01*
G75*
G02*
X35400000Y-24262500I0J-237500D01*
G01*
X35400000Y-24737500D01*
G75*
G02*
X35162500Y-24975000I-237500J0D01*
G01*
X34587500Y-24975000D01*
G75*
G02*
X34350000Y-24737500I0J237500D01*
G01*
G37*
G04 #@! TD.AperFunction*
G04 #@! TA.AperFunction,SMDPad,CuDef*
G36*
G01*
X32600000Y-24737500D02*
X32600000Y-24262500D01*
G75*
G02*
X32837500Y-24025000I237500J0D01*
G01*
X33412500Y-24025000D01*
G75*
G02*
X33650000Y-24262500I0J-237500D01*
G01*
X33650000Y-24737500D01*
G75*
G02*
X33412500Y-24975000I-237500J0D01*
G01*
X32837500Y-24975000D01*
G75*
G02*
X32600000Y-24737500I0J237500D01*
G01*
G37*
G04 #@! TD.AperFunction*
G04 #@! TA.AperFunction,SMDPad,CuDef*
G36*
G01*
X29762500Y-28350000D02*
X30237500Y-28350000D01*
G75*
G02*
X30475000Y-28587500I0J-237500D01*
G01*
X30475000Y-29162500D01*
G75*
G02*
X30237500Y-29400000I-237500J0D01*
G01*
X29762500Y-29400000D01*
G75*
G02*
X29525000Y-29162500I0J237500D01*
G01*
X29525000Y-28587500D01*
G75*
G02*
X29762500Y-28350000I237500J0D01*
G01*
G37*
G04 #@! TD.AperFunction*
G04 #@! TA.AperFunction,SMDPad,CuDef*
G36*
G01*
X29762500Y-26600000D02*
X30237500Y-26600000D01*
G75*
G02*
X30475000Y-26837500I0J-237500D01*
G01*
X30475000Y-27412500D01*
G75*
G02*
X30237500Y-27650000I-237500J0D01*
G01*
X29762500Y-27650000D01*
G75*
G02*
X29525000Y-27412500I0J237500D01*
G01*
X29525000Y-26837500D01*
G75*
G02*
X29762500Y-26600000I237500J0D01*
G01*
G37*
G04 #@! TD.AperFunction*
G04 #@! TA.AperFunction,SMDPad,CuDef*
G36*
G01*
X31262500Y-28350000D02*
X31737500Y-28350000D01*
G75*
G02*
X31975000Y-28587500I0J-237500D01*
G01*
X31975000Y-29162500D01*
G75*
G02*
X31737500Y-29400000I-237500J0D01*
G01*
X31262500Y-29400000D01*
G75*
G02*
X31025000Y-29162500I0J237500D01*
G01*
X31025000Y-28587500D01*
G75*
G02*
X31262500Y-28350000I237500J0D01*
G01*
G37*
G04 #@! TD.AperFunction*
G04 #@! TA.AperFunction,SMDPad,CuDef*
G36*
G01*
X31262500Y-26600000D02*
X31737500Y-26600000D01*
G75*
G02*
X31975000Y-26837500I0J-237500D01*
G01*
X31975000Y-27412500D01*
G75*
G02*
X31737500Y-27650000I-237500J0D01*
G01*
X31262500Y-27650000D01*
G75*
G02*
X31025000Y-27412500I0J237500D01*
G01*
X31025000Y-26837500D01*
G75*
G02*
X31262500Y-26600000I237500J0D01*
G01*
G37*
G04 #@! TD.AperFunction*
G04 #@! TA.AperFunction,SMDPad,CuDef*
G36*
G01*
X33650000Y-28762500D02*
X33650000Y-29237500D01*
G75*
G02*
X33412500Y-29475000I-237500J0D01*
G01*
X32837500Y-29475000D01*
G75*
G02*
X32600000Y-29237500I0J237500D01*
G01*
X32600000Y-28762500D01*
G75*
G02*
X32837500Y-28525000I237500J0D01*
G01*
X33412500Y-28525000D01*
G75*
G02*
X33650000Y-28762500I0J-237500D01*
G01*
G37*
G04 #@! TD.AperFunction*
G04 #@! TA.AperFunction,SMDPad,CuDef*
G36*
G01*
X35400000Y-28762500D02*
X35400000Y-29237500D01*
G75*
G02*
X35162500Y-29475000I-237500J0D01*
G01*
X34587500Y-29475000D01*
G75*
G02*
X34350000Y-29237500I0J237500D01*
G01*
X34350000Y-28762500D01*
G75*
G02*
X34587500Y-28525000I237500J0D01*
G01*
X35162500Y-28525000D01*
G75*
G02*
X35400000Y-28762500I0J-237500D01*
G01*
G37*
G04 #@! TD.AperFunction*
G04 #@! TA.AperFunction,SMDPad,CuDef*
G36*
G01*
X32350000Y-18237500D02*
X32350000Y-17762500D01*
G75*
G02*
X32587500Y-17525000I237500J0D01*
G01*
X33162500Y-17525000D01*
G75*
G02*
X33400000Y-17762500I0J-237500D01*
G01*
X33400000Y-18237500D01*
G75*
G02*
X33162500Y-18475000I-237500J0D01*
G01*
X32587500Y-18475000D01*
G75*
G02*
X32350000Y-18237500I0J237500D01*
G01*
G37*
G04 #@! TD.AperFunction*
G04 #@! TA.AperFunction,SMDPad,CuDef*
G36*
G01*
X30600000Y-18237500D02*
X30600000Y-17762500D01*
G75*
G02*
X30837500Y-17525000I237500J0D01*
G01*
X31412500Y-17525000D01*
G75*
G02*
X31650000Y-17762500I0J-237500D01*
G01*
X31650000Y-18237500D01*
G75*
G02*
X31412500Y-18475000I-237500J0D01*
G01*
X30837500Y-18475000D01*
G75*
G02*
X30600000Y-18237500I0J237500D01*
G01*
G37*
G04 #@! TD.AperFunction*
G04 #@! TA.AperFunction,SMDPad,CuDef*
G36*
G01*
X22900000Y-27262500D02*
X22900000Y-27737500D01*
G75*
G02*
X22662500Y-27975000I-237500J0D01*
G01*
X22087500Y-27975000D01*
G75*
G02*
X21850000Y-27737500I0J237500D01*
G01*
X21850000Y-27262500D01*
G75*
G02*
X22087500Y-27025000I237500J0D01*
G01*
X22662500Y-27025000D01*
G75*
G02*
X22900000Y-27262500I0J-237500D01*
G01*
G37*
G04 #@! TD.AperFunction*
G04 #@! TA.AperFunction,SMDPad,CuDef*
G36*
G01*
X24650000Y-27262500D02*
X24650000Y-27737500D01*
G75*
G02*
X24412500Y-27975000I-237500J0D01*
G01*
X23837500Y-27975000D01*
G75*
G02*
X23600000Y-27737500I0J237500D01*
G01*
X23600000Y-27262500D01*
G75*
G02*
X23837500Y-27025000I237500J0D01*
G01*
X24412500Y-27025000D01*
G75*
G02*
X24650000Y-27262500I0J-237500D01*
G01*
G37*
G04 #@! TD.AperFunction*
D15*
X27500000Y-19800000D03*
X27500000Y-17700000D03*
X21750000Y-17700000D03*
X21750000Y-19800000D03*
G04 #@! TA.AperFunction,SMDPad,CuDef*
G36*
G01*
X35350000Y-21737500D02*
X35350000Y-21262500D01*
G75*
G02*
X35587500Y-21025000I237500J0D01*
G01*
X36162500Y-21025000D01*
G75*
G02*
X36400000Y-21262500I0J-237500D01*
G01*
X36400000Y-21737500D01*
G75*
G02*
X36162500Y-21975000I-237500J0D01*
G01*
X35587500Y-21975000D01*
G75*
G02*
X35350000Y-21737500I0J237500D01*
G01*
G37*
G04 #@! TD.AperFunction*
G04 #@! TA.AperFunction,SMDPad,CuDef*
G36*
G01*
X33600000Y-21737500D02*
X33600000Y-21262500D01*
G75*
G02*
X33837500Y-21025000I237500J0D01*
G01*
X34412500Y-21025000D01*
G75*
G02*
X34650000Y-21262500I0J-237500D01*
G01*
X34650000Y-21737500D01*
G75*
G02*
X34412500Y-21975000I-237500J0D01*
G01*
X33837500Y-21975000D01*
G75*
G02*
X33600000Y-21737500I0J237500D01*
G01*
G37*
G04 #@! TD.AperFunction*
G04 #@! TA.AperFunction,SMDPad,CuDef*
G36*
G01*
X15762500Y-20350000D02*
X16237500Y-20350000D01*
G75*
G02*
X16475000Y-20587500I0J-237500D01*
G01*
X16475000Y-21162500D01*
G75*
G02*
X16237500Y-21400000I-237500J0D01*
G01*
X15762500Y-21400000D01*
G75*
G02*
X15525000Y-21162500I0J237500D01*
G01*
X15525000Y-20587500D01*
G75*
G02*
X15762500Y-20350000I237500J0D01*
G01*
G37*
G04 #@! TD.AperFunction*
G04 #@! TA.AperFunction,SMDPad,CuDef*
G36*
G01*
X15762500Y-18600000D02*
X16237500Y-18600000D01*
G75*
G02*
X16475000Y-18837500I0J-237500D01*
G01*
X16475000Y-19412500D01*
G75*
G02*
X16237500Y-19650000I-237500J0D01*
G01*
X15762500Y-19650000D01*
G75*
G02*
X15525000Y-19412500I0J237500D01*
G01*
X15525000Y-18837500D01*
G75*
G02*
X15762500Y-18600000I237500J0D01*
G01*
G37*
G04 #@! TD.AperFunction*
G04 #@! TA.AperFunction,SMDPad,CuDef*
G36*
G01*
X24100000Y-26237500D02*
X24100000Y-25762500D01*
G75*
G02*
X24337500Y-25525000I237500J0D01*
G01*
X24912500Y-25525000D01*
G75*
G02*
X25150000Y-25762500I0J-237500D01*
G01*
X25150000Y-26237500D01*
G75*
G02*
X24912500Y-26475000I-237500J0D01*
G01*
X24337500Y-26475000D01*
G75*
G02*
X24100000Y-26237500I0J237500D01*
G01*
G37*
G04 #@! TD.AperFunction*
G04 #@! TA.AperFunction,SMDPad,CuDef*
G36*
G01*
X22350000Y-26237500D02*
X22350000Y-25762500D01*
G75*
G02*
X22587500Y-25525000I237500J0D01*
G01*
X23162500Y-25525000D01*
G75*
G02*
X23400000Y-25762500I0J-237500D01*
G01*
X23400000Y-26237500D01*
G75*
G02*
X23162500Y-26475000I-237500J0D01*
G01*
X22587500Y-26475000D01*
G75*
G02*
X22350000Y-26237500I0J237500D01*
G01*
G37*
G04 #@! TD.AperFunction*
G04 #@! TA.AperFunction,SMDPad,CuDef*
G36*
G01*
X32350000Y-16737500D02*
X32350000Y-16262500D01*
G75*
G02*
X32587500Y-16025000I237500J0D01*
G01*
X33162500Y-16025000D01*
G75*
G02*
X33400000Y-16262500I0J-237500D01*
G01*
X33400000Y-16737500D01*
G75*
G02*
X33162500Y-16975000I-237500J0D01*
G01*
X32587500Y-16975000D01*
G75*
G02*
X32350000Y-16737500I0J237500D01*
G01*
G37*
G04 #@! TD.AperFunction*
G04 #@! TA.AperFunction,SMDPad,CuDef*
G36*
G01*
X30600000Y-16737500D02*
X30600000Y-16262500D01*
G75*
G02*
X30837500Y-16025000I237500J0D01*
G01*
X31412500Y-16025000D01*
G75*
G02*
X31650000Y-16262500I0J-237500D01*
G01*
X31650000Y-16737500D01*
G75*
G02*
X31412500Y-16975000I-237500J0D01*
G01*
X30837500Y-16975000D01*
G75*
G02*
X30600000Y-16737500I0J237500D01*
G01*
G37*
G04 #@! TD.AperFunction*
G04 #@! TA.AperFunction,SMDPad,CuDef*
G36*
G01*
X26012500Y-23850000D02*
X26487500Y-23850000D01*
G75*
G02*
X26725000Y-24087500I0J-237500D01*
G01*
X26725000Y-24662500D01*
G75*
G02*
X26487500Y-24900000I-237500J0D01*
G01*
X26012500Y-24900000D01*
G75*
G02*
X25775000Y-24662500I0J237500D01*
G01*
X25775000Y-24087500D01*
G75*
G02*
X26012500Y-23850000I237500J0D01*
G01*
G37*
G04 #@! TD.AperFunction*
G04 #@! TA.AperFunction,SMDPad,CuDef*
G36*
G01*
X26012500Y-22100000D02*
X26487500Y-22100000D01*
G75*
G02*
X26725000Y-22337500I0J-237500D01*
G01*
X26725000Y-22912500D01*
G75*
G02*
X26487500Y-23150000I-237500J0D01*
G01*
X26012500Y-23150000D01*
G75*
G02*
X25775000Y-22912500I0J237500D01*
G01*
X25775000Y-22337500D01*
G75*
G02*
X26012500Y-22100000I237500J0D01*
G01*
G37*
G04 #@! TD.AperFunction*
G04 #@! TA.AperFunction,SMDPad,CuDef*
G36*
G01*
X29237500Y-21075000D02*
X29362500Y-21075000D01*
G75*
G02*
X29425000Y-21137500I0J-62500D01*
G01*
X29425000Y-21787500D01*
G75*
G02*
X29362500Y-21850000I-62500J0D01*
G01*
X29237500Y-21850000D01*
G75*
G02*
X29175000Y-21787500I0J62500D01*
G01*
X29175000Y-21137500D01*
G75*
G02*
X29237500Y-21075000I62500J0D01*
G01*
G37*
G04 #@! TD.AperFunction*
G04 #@! TA.AperFunction,SMDPad,CuDef*
G36*
G01*
X29737500Y-21075000D02*
X29862500Y-21075000D01*
G75*
G02*
X29925000Y-21137500I0J-62500D01*
G01*
X29925000Y-21787500D01*
G75*
G02*
X29862500Y-21850000I-62500J0D01*
G01*
X29737500Y-21850000D01*
G75*
G02*
X29675000Y-21787500I0J62500D01*
G01*
X29675000Y-21137500D01*
G75*
G02*
X29737500Y-21075000I62500J0D01*
G01*
G37*
G04 #@! TD.AperFunction*
G04 #@! TA.AperFunction,SMDPad,CuDef*
G36*
G01*
X30237500Y-21075000D02*
X30362500Y-21075000D01*
G75*
G02*
X30425000Y-21137500I0J-62500D01*
G01*
X30425000Y-21787500D01*
G75*
G02*
X30362500Y-21850000I-62500J0D01*
G01*
X30237500Y-21850000D01*
G75*
G02*
X30175000Y-21787500I0J62500D01*
G01*
X30175000Y-21137500D01*
G75*
G02*
X30237500Y-21075000I62500J0D01*
G01*
G37*
G04 #@! TD.AperFunction*
G04 #@! TA.AperFunction,SMDPad,CuDef*
G36*
G01*
X30737500Y-21075000D02*
X30862500Y-21075000D01*
G75*
G02*
X30925000Y-21137500I0J-62500D01*
G01*
X30925000Y-21787500D01*
G75*
G02*
X30862500Y-21850000I-62500J0D01*
G01*
X30737500Y-21850000D01*
G75*
G02*
X30675000Y-21787500I0J62500D01*
G01*
X30675000Y-21137500D01*
G75*
G02*
X30737500Y-21075000I62500J0D01*
G01*
G37*
G04 #@! TD.AperFunction*
G04 #@! TA.AperFunction,SMDPad,CuDef*
G36*
G01*
X31212500Y-22075000D02*
X31862500Y-22075000D01*
G75*
G02*
X31925000Y-22137500I0J-62500D01*
G01*
X31925000Y-22262500D01*
G75*
G02*
X31862500Y-22325000I-62500J0D01*
G01*
X31212500Y-22325000D01*
G75*
G02*
X31150000Y-22262500I0J62500D01*
G01*
X31150000Y-22137500D01*
G75*
G02*
X31212500Y-22075000I62500J0D01*
G01*
G37*
G04 #@! TD.AperFunction*
G04 #@! TA.AperFunction,SMDPad,CuDef*
G36*
G01*
X31212500Y-22575000D02*
X31862500Y-22575000D01*
G75*
G02*
X31925000Y-22637500I0J-62500D01*
G01*
X31925000Y-22762500D01*
G75*
G02*
X31862500Y-22825000I-62500J0D01*
G01*
X31212500Y-22825000D01*
G75*
G02*
X31150000Y-22762500I0J62500D01*
G01*
X31150000Y-22637500D01*
G75*
G02*
X31212500Y-22575000I62500J0D01*
G01*
G37*
G04 #@! TD.AperFunction*
G04 #@! TA.AperFunction,SMDPad,CuDef*
G36*
G01*
X31212500Y-23075000D02*
X31862500Y-23075000D01*
G75*
G02*
X31925000Y-23137500I0J-62500D01*
G01*
X31925000Y-23262500D01*
G75*
G02*
X31862500Y-23325000I-62500J0D01*
G01*
X31212500Y-23325000D01*
G75*
G02*
X31150000Y-23262500I0J62500D01*
G01*
X31150000Y-23137500D01*
G75*
G02*
X31212500Y-23075000I62500J0D01*
G01*
G37*
G04 #@! TD.AperFunction*
G04 #@! TA.AperFunction,SMDPad,CuDef*
G36*
G01*
X31212500Y-23575000D02*
X31862500Y-23575000D01*
G75*
G02*
X31925000Y-23637500I0J-62500D01*
G01*
X31925000Y-23762500D01*
G75*
G02*
X31862500Y-23825000I-62500J0D01*
G01*
X31212500Y-23825000D01*
G75*
G02*
X31150000Y-23762500I0J62500D01*
G01*
X31150000Y-23637500D01*
G75*
G02*
X31212500Y-23575000I62500J0D01*
G01*
G37*
G04 #@! TD.AperFunction*
G04 #@! TA.AperFunction,SMDPad,CuDef*
G36*
G01*
X30737500Y-24050000D02*
X30862500Y-24050000D01*
G75*
G02*
X30925000Y-24112500I0J-62500D01*
G01*
X30925000Y-24762500D01*
G75*
G02*
X30862500Y-24825000I-62500J0D01*
G01*
X30737500Y-24825000D01*
G75*
G02*
X30675000Y-24762500I0J62500D01*
G01*
X30675000Y-24112500D01*
G75*
G02*
X30737500Y-24050000I62500J0D01*
G01*
G37*
G04 #@! TD.AperFunction*
G04 #@! TA.AperFunction,SMDPad,CuDef*
G36*
G01*
X30237500Y-24050000D02*
X30362500Y-24050000D01*
G75*
G02*
X30425000Y-24112500I0J-62500D01*
G01*
X30425000Y-24762500D01*
G75*
G02*
X30362500Y-24825000I-62500J0D01*
G01*
X30237500Y-24825000D01*
G75*
G02*
X30175000Y-24762500I0J62500D01*
G01*
X30175000Y-24112500D01*
G75*
G02*
X30237500Y-24050000I62500J0D01*
G01*
G37*
G04 #@! TD.AperFunction*
G04 #@! TA.AperFunction,SMDPad,CuDef*
G36*
G01*
X29737500Y-24050000D02*
X29862500Y-24050000D01*
G75*
G02*
X29925000Y-24112500I0J-62500D01*
G01*
X29925000Y-24762500D01*
G75*
G02*
X29862500Y-24825000I-62500J0D01*
G01*
X29737500Y-24825000D01*
G75*
G02*
X29675000Y-24762500I0J62500D01*
G01*
X29675000Y-24112500D01*
G75*
G02*
X29737500Y-24050000I62500J0D01*
G01*
G37*
G04 #@! TD.AperFunction*
G04 #@! TA.AperFunction,SMDPad,CuDef*
G36*
G01*
X29237500Y-24050000D02*
X29362500Y-24050000D01*
G75*
G02*
X29425000Y-24112500I0J-62500D01*
G01*
X29425000Y-24762500D01*
G75*
G02*
X29362500Y-24825000I-62500J0D01*
G01*
X29237500Y-24825000D01*
G75*
G02*
X29175000Y-24762500I0J62500D01*
G01*
X29175000Y-24112500D01*
G75*
G02*
X29237500Y-24050000I62500J0D01*
G01*
G37*
G04 #@! TD.AperFunction*
G04 #@! TA.AperFunction,SMDPad,CuDef*
G36*
G01*
X28237500Y-23575000D02*
X28887500Y-23575000D01*
G75*
G02*
X28950000Y-23637500I0J-62500D01*
G01*
X28950000Y-23762500D01*
G75*
G02*
X28887500Y-23825000I-62500J0D01*
G01*
X28237500Y-23825000D01*
G75*
G02*
X28175000Y-23762500I0J62500D01*
G01*
X28175000Y-23637500D01*
G75*
G02*
X28237500Y-23575000I62500J0D01*
G01*
G37*
G04 #@! TD.AperFunction*
G04 #@! TA.AperFunction,SMDPad,CuDef*
G36*
G01*
X28237500Y-23075000D02*
X28887500Y-23075000D01*
G75*
G02*
X28950000Y-23137500I0J-62500D01*
G01*
X28950000Y-23262500D01*
G75*
G02*
X28887500Y-23325000I-62500J0D01*
G01*
X28237500Y-23325000D01*
G75*
G02*
X28175000Y-23262500I0J62500D01*
G01*
X28175000Y-23137500D01*
G75*
G02*
X28237500Y-23075000I62500J0D01*
G01*
G37*
G04 #@! TD.AperFunction*
G04 #@! TA.AperFunction,SMDPad,CuDef*
G36*
G01*
X28237500Y-22575000D02*
X28887500Y-22575000D01*
G75*
G02*
X28950000Y-22637500I0J-62500D01*
G01*
X28950000Y-22762500D01*
G75*
G02*
X28887500Y-22825000I-62500J0D01*
G01*
X28237500Y-22825000D01*
G75*
G02*
X28175000Y-22762500I0J62500D01*
G01*
X28175000Y-22637500D01*
G75*
G02*
X28237500Y-22575000I62500J0D01*
G01*
G37*
G04 #@! TD.AperFunction*
G04 #@! TA.AperFunction,SMDPad,CuDef*
G36*
G01*
X28237500Y-22075000D02*
X28887500Y-22075000D01*
G75*
G02*
X28950000Y-22137500I0J-62500D01*
G01*
X28950000Y-22262500D01*
G75*
G02*
X28887500Y-22325000I-62500J0D01*
G01*
X28237500Y-22325000D01*
G75*
G02*
X28175000Y-22262500I0J62500D01*
G01*
X28175000Y-22137500D01*
G75*
G02*
X28237500Y-22075000I62500J0D01*
G01*
G37*
G04 #@! TD.AperFunction*
D16*
X30050000Y-22950000D03*
D17*
X25000000Y-13750000D03*
D18*
X16500000Y-30000000D03*
X14500000Y-30000000D03*
X16000000Y-22000000D03*
X20000000Y-23000000D03*
X32500000Y-31000000D03*
X19250000Y-30000000D03*
X32750000Y-21250000D03*
X19750000Y-21500000D03*
X29750000Y-25750000D03*
X19500000Y-33000000D03*
X24750000Y-28750000D03*
D19*
X29300000Y-22200000D02*
X30050000Y-22950000D01*
X29300000Y-21462500D02*
X29300000Y-22200000D01*
X30800000Y-22200000D02*
X31537500Y-22200000D01*
X30050000Y-22950000D02*
X30800000Y-22200000D01*
X28562500Y-23700000D02*
X29300000Y-23700000D01*
X29300000Y-23700000D02*
X30050000Y-22950000D01*
X29300000Y-24437500D02*
X29300000Y-23700000D01*
X23190000Y-43190000D02*
X17000000Y-37000000D01*
X23190000Y-46500000D02*
X23190000Y-43190000D01*
X16875000Y-36875000D02*
X17000000Y-37000000D01*
X30000000Y-29065685D02*
X30000000Y-28875000D01*
D20*
X31934315Y-31000000D02*
X30000000Y-29065685D01*
X32500000Y-31000000D02*
X31934315Y-31000000D01*
D19*
X35400000Y-27500000D02*
X34875000Y-27500000D01*
X35875000Y-21025000D02*
X35875000Y-21500000D01*
X28562500Y-27437500D02*
X30000000Y-28875000D01*
X28562500Y-23700000D02*
X28562500Y-27437500D01*
D20*
X20475000Y-28775000D02*
X19250000Y-30000000D01*
D19*
X20475000Y-28655000D02*
X20475000Y-28775000D01*
D20*
X35500000Y-27500000D02*
X34875000Y-27500000D01*
X36000000Y-28000000D02*
X35500000Y-27500000D01*
X36000000Y-24125000D02*
X34875000Y-23000000D01*
X36000000Y-28000000D02*
X36000000Y-24125000D01*
X36000000Y-21625000D02*
X35875000Y-21500000D01*
X36000000Y-24125000D02*
X36000000Y-21625000D01*
X35875000Y-21000000D02*
X32875000Y-18000000D01*
X35875000Y-21500000D02*
X35875000Y-21000000D01*
X32875000Y-18000000D02*
X32875000Y-16500000D01*
X14500000Y-30000000D02*
X16500000Y-30000000D01*
X34372288Y-31000000D02*
X32500000Y-31000000D01*
X36000000Y-29372288D02*
X34372288Y-31000000D01*
X36000000Y-28000000D02*
X36000000Y-29372288D01*
X16000000Y-22000000D02*
X16000000Y-20875000D01*
D19*
X16225000Y-21100000D02*
X16000000Y-20875000D01*
X17350000Y-21100000D02*
X16225000Y-21100000D01*
D20*
X26250000Y-24375000D02*
X24625000Y-26000000D01*
X22000000Y-23375000D02*
X21000000Y-23375000D01*
X24625000Y-26000000D02*
X22000000Y-23375000D01*
X20375000Y-23375000D02*
X20000000Y-23000000D01*
X21000000Y-23375000D02*
X20375000Y-23375000D01*
D19*
X34087500Y-21462500D02*
X34125000Y-21500000D01*
X30925000Y-21462500D02*
X30800000Y-21462500D01*
X31735522Y-21462500D02*
X30925000Y-21462500D01*
X32248023Y-21975001D02*
X31735522Y-21462500D01*
X33124999Y-21975001D02*
X32248023Y-21975001D01*
X34125000Y-21500000D02*
X33600000Y-21500000D01*
X33600000Y-21500000D02*
X33124999Y-21975001D01*
X18000000Y-18314998D02*
X18000000Y-18900000D01*
X18614998Y-17700000D02*
X18000000Y-18314998D01*
X18614998Y-17700000D02*
X21750000Y-17700000D01*
X28562500Y-22200000D02*
X27950000Y-22200000D01*
X27500000Y-21750000D02*
X27500000Y-19800000D01*
X27950000Y-22200000D02*
X27500000Y-21750000D01*
X31125000Y-18000000D02*
X31375000Y-18000000D01*
X31125000Y-18250000D02*
X31125000Y-18000000D01*
X31125000Y-18475000D02*
X31125000Y-18000000D01*
X30300000Y-21462500D02*
X30300000Y-20821412D01*
X30300000Y-20821412D02*
X31125000Y-19996412D01*
X31125000Y-19996412D02*
X31125000Y-18475000D01*
X31500000Y-27375000D02*
X31500000Y-27125000D01*
X33125000Y-29000000D02*
X31500000Y-27375000D01*
X31500000Y-25137500D02*
X30800000Y-24437500D01*
X31500000Y-27125000D02*
X31500000Y-25137500D01*
X31500000Y-28625000D02*
X30000000Y-27125000D01*
X31500000Y-28875000D02*
X31500000Y-28625000D01*
X30300000Y-24825000D02*
X30300000Y-24437500D01*
X30475001Y-26649999D02*
X30000000Y-27125000D01*
X30475001Y-25401999D02*
X30475001Y-26649999D01*
X30300000Y-25226998D02*
X30475001Y-25401999D01*
X30300000Y-24437500D02*
X30300000Y-25226998D01*
X34625000Y-24500000D02*
X33125000Y-23000000D01*
X34875000Y-24500000D02*
X34625000Y-24500000D01*
X32825000Y-22700000D02*
X31537500Y-22700000D01*
X33125000Y-23000000D02*
X32825000Y-22700000D01*
X31537500Y-23825000D02*
X31537500Y-23700000D01*
X31537500Y-24233010D02*
X31537500Y-23825000D01*
X33125000Y-25820510D02*
X31537500Y-24233010D01*
X33125000Y-26000000D02*
X33125000Y-25820510D01*
X33125000Y-27500000D02*
X33125000Y-26000000D01*
X18650000Y-21100000D02*
X18650000Y-20975000D01*
X28562500Y-22700000D02*
X28126978Y-22700000D01*
X18650000Y-21473002D02*
X18650000Y-21100000D01*
X19401999Y-22225001D02*
X18650000Y-21473002D01*
X20399999Y-22225001D02*
X21000000Y-21625000D01*
X19401999Y-22225001D02*
X20399999Y-22225001D01*
D20*
X21000000Y-20550000D02*
X21750000Y-19800000D01*
X21000000Y-21625000D02*
X21000000Y-20550000D01*
X25250000Y-21625000D02*
X26250000Y-22625000D01*
X21000000Y-21625000D02*
X25250000Y-21625000D01*
D19*
X26325000Y-22700000D02*
X26250000Y-22625000D01*
X28562500Y-22700000D02*
X26325000Y-22700000D01*
X31125000Y-16500000D02*
X31125000Y-16679490D01*
X31650000Y-16500000D02*
X31125000Y-16500000D01*
X31975010Y-16825010D02*
X31650000Y-16500000D01*
X31975010Y-18975010D02*
X31975010Y-16825010D01*
X32750000Y-19750000D02*
X31975010Y-18975010D01*
X31000000Y-16375000D02*
X31125000Y-16500000D01*
D20*
X29925000Y-17700000D02*
X31125000Y-16500000D01*
X27500000Y-17700000D02*
X29925000Y-17700000D01*
D19*
X29800000Y-20685002D02*
X29800000Y-21462500D01*
X29925000Y-20560002D02*
X29800000Y-20685002D01*
X29925000Y-17700000D02*
X29925000Y-20560002D01*
D20*
X27500000Y-17700000D02*
X25800000Y-16000000D01*
X17750000Y-16000000D02*
X16750000Y-17000000D01*
X25800000Y-16000000D02*
X17750000Y-16000000D01*
X32750000Y-19875000D02*
X32875000Y-19750000D01*
X32750000Y-21250000D02*
X32750000Y-19875000D01*
D19*
X17350000Y-19923002D02*
X17350000Y-18900000D01*
X18000000Y-20573002D02*
X17350000Y-19923002D01*
X18000000Y-21100000D02*
X18000000Y-20573002D01*
X15525000Y-24275000D02*
X15525000Y-24845000D01*
X18000000Y-21800000D02*
X15525000Y-24275000D01*
X18000000Y-21100000D02*
X18000000Y-21800000D01*
X16845000Y-24845000D02*
X15525000Y-24845000D01*
X18125021Y-26125021D02*
X16845000Y-24845000D01*
X18125021Y-33875021D02*
X18125021Y-26125021D01*
X27000000Y-42750000D02*
X18125021Y-33875021D01*
X27000000Y-46500000D02*
X27000000Y-42750000D01*
X16225000Y-18900000D02*
X16000000Y-19125000D01*
X17350000Y-18900000D02*
X16225000Y-18900000D01*
X33125000Y-36875000D02*
X33000000Y-37000000D01*
X27800000Y-23200000D02*
X28562500Y-23200000D01*
D21*
X33000000Y-37000000D02*
X33000000Y-34250000D01*
X33000000Y-34250000D02*
X27500000Y-28750000D01*
D19*
X27500000Y-23500000D02*
X27800000Y-23200000D01*
D21*
X27500000Y-28750000D02*
X27500000Y-23500000D01*
D19*
X31925000Y-23200000D02*
X31537500Y-23200000D01*
X33125000Y-24351978D02*
X31973022Y-23200000D01*
X31973022Y-23200000D02*
X31925000Y-23200000D01*
X33125000Y-24500000D02*
X33125000Y-24351978D01*
X34625000Y-26000000D02*
X33125000Y-24500000D01*
X34875000Y-26000000D02*
X34625000Y-26000000D01*
X34024990Y-28674990D02*
X34350000Y-29000000D01*
X34024990Y-26325010D02*
X34024990Y-28674990D01*
X34350000Y-26000000D02*
X34024990Y-26325010D01*
X34350000Y-29000000D02*
X34875000Y-29000000D01*
X34875000Y-26000000D02*
X34350000Y-26000000D01*
X29800000Y-25700000D02*
X29750000Y-25750000D01*
X29800000Y-24437500D02*
X29800000Y-25700000D01*
X18650000Y-19834315D02*
X18650000Y-18900000D01*
X19750000Y-20934315D02*
X18650000Y-19834315D01*
X19750000Y-21500000D02*
X19750000Y-20934315D01*
X18725001Y-18824999D02*
X18650000Y-18900000D01*
X20475000Y-26115000D02*
X20098232Y-26115000D01*
X22760000Y-26115000D02*
X22875000Y-26000000D01*
D20*
X20590000Y-26000000D02*
X20475000Y-26115000D01*
X22875000Y-26000000D02*
X20590000Y-26000000D01*
D19*
X23225010Y-29274990D02*
X19500000Y-33000000D01*
X23225010Y-26350010D02*
X23225010Y-29274990D01*
X22875000Y-26000000D02*
X23225010Y-26350010D01*
D20*
X24125000Y-28125000D02*
X24750000Y-28750000D01*
X24125000Y-27500000D02*
X24125000Y-28125000D01*
D19*
X14199990Y-17050010D02*
X14250000Y-17000000D01*
D20*
X14250000Y-17000000D02*
X13500000Y-17750000D01*
X14550000Y-28655000D02*
X15525000Y-28655000D01*
X13500000Y-27605000D02*
X14550000Y-28655000D01*
X13500000Y-17750000D02*
X13500000Y-27605000D01*
D19*
X25730000Y-45792894D02*
X25750000Y-45772894D01*
X25730000Y-46500000D02*
X25730000Y-45792894D01*
X25730000Y-45792894D02*
X25730000Y-42230000D01*
X16500000Y-26115000D02*
X15525000Y-26115000D01*
X17675011Y-27290011D02*
X16500000Y-26115000D01*
X17675011Y-34175011D02*
X17675011Y-27290011D01*
X25730000Y-42230000D02*
X17675011Y-34175011D01*
X24460000Y-46500000D02*
X24460000Y-41710000D01*
X16500000Y-27385000D02*
X15525000Y-27385000D01*
X17225001Y-34475001D02*
X17225001Y-28110001D01*
X17225001Y-28110001D02*
X16500000Y-27385000D01*
X24460000Y-41710000D02*
X17225001Y-34475001D01*
D20*
X22260000Y-27385000D02*
X22375000Y-27500000D01*
X20475000Y-27385000D02*
X22260000Y-27385000D01*
M02*
