G04 #@! TF.GenerationSoftware,KiCad,Pcbnew,(5.1.9)-1*
G04 #@! TF.CreationDate,2021-05-25T21:01:34+02:00*
G04 #@! TF.ProjectId,Omamori,4f6d616d-6f72-4692-9e6b-696361645f70,rev?*
G04 #@! TF.SameCoordinates,Original*
G04 #@! TF.FileFunction,Copper,L2,Bot*
G04 #@! TF.FilePolarity,Positive*
%FSLAX46Y46*%
G04 Gerber Fmt 4.6, Leading zero omitted, Abs format (unit mm)*
G04 Created by KiCad (PCBNEW (5.1.9)-1) date 2021-05-25 21:01:34*
%MOMM*%
%LPD*%
G01*
G04 APERTURE LIST*
G04 #@! TA.AperFunction,SMDPad,CuDef*
%ADD10R,1.000000X1.000000*%
G04 #@! TD*
G04 #@! TA.AperFunction,ComponentPad*
%ADD11C,1.000000*%
G04 #@! TD*
G04 #@! TA.AperFunction,ComponentPad*
%ADD12O,1.000000X1.000000*%
G04 #@! TD*
G04 #@! TA.AperFunction,SMDPad,CuDef*
%ADD13R,3.400000X1.300000*%
G04 #@! TD*
G04 #@! TA.AperFunction,SMDPad,CuDef*
%ADD14R,1.300000X3.400000*%
G04 #@! TD*
G04 #@! TA.AperFunction,ComponentPad*
%ADD15C,2.000000*%
G04 #@! TD*
G04 #@! TA.AperFunction,SMDPad,CuDef*
%ADD16R,0.400000X0.900000*%
G04 #@! TD*
G04 #@! TA.AperFunction,SMDPad,CuDef*
%ADD17R,1.800000X1.800000*%
G04 #@! TD*
G04 #@! TA.AperFunction,ViaPad*
%ADD18C,2.500000*%
G04 #@! TD*
G04 #@! TA.AperFunction,ViaPad*
%ADD19C,0.800000*%
G04 #@! TD*
G04 #@! TA.AperFunction,Conductor*
%ADD20C,0.250000*%
G04 #@! TD*
G04 #@! TA.AperFunction,Conductor*
%ADD21C,0.500000*%
G04 #@! TD*
G04 #@! TA.AperFunction,Conductor*
%ADD22C,1.000000*%
G04 #@! TD*
G04 APERTURE END LIST*
G04 #@! TA.AperFunction,SMDPad,CuDef*
G36*
G01*
X25919000Y-22188000D02*
X26681000Y-22188000D01*
G75*
G02*
X27062000Y-22569000I0J-381000D01*
G01*
X27062000Y-23331000D01*
G75*
G02*
X26681000Y-23712000I-381000J0D01*
G01*
X25919000Y-23712000D01*
G75*
G02*
X25538000Y-23331000I0J381000D01*
G01*
X25538000Y-22569000D01*
G75*
G02*
X25919000Y-22188000I381000J0D01*
G01*
G37*
G04 #@! TD.AperFunction*
G04 #@! TA.AperFunction,SMDPad,CuDef*
G36*
G01*
X23919000Y-22188000D02*
X24681000Y-22188000D01*
G75*
G02*
X25062000Y-22569000I0J-381000D01*
G01*
X25062000Y-23331000D01*
G75*
G02*
X24681000Y-23712000I-381000J0D01*
G01*
X23919000Y-23712000D01*
G75*
G02*
X23538000Y-23331000I0J381000D01*
G01*
X23538000Y-22569000D01*
G75*
G02*
X23919000Y-22188000I381000J0D01*
G01*
G37*
G04 #@! TD.AperFunction*
G04 #@! TA.AperFunction,SMDPad,CuDef*
G36*
G01*
X23919000Y-25688000D02*
X24681000Y-25688000D01*
G75*
G02*
X25062000Y-26069000I0J-381000D01*
G01*
X25062000Y-26831000D01*
G75*
G02*
X24681000Y-27212000I-381000J0D01*
G01*
X23919000Y-27212000D01*
G75*
G02*
X23538000Y-26831000I0J381000D01*
G01*
X23538000Y-26069000D01*
G75*
G02*
X23919000Y-25688000I381000J0D01*
G01*
G37*
G04 #@! TD.AperFunction*
G04 #@! TA.AperFunction,SMDPad,CuDef*
G36*
G01*
X25919000Y-25688000D02*
X26681000Y-25688000D01*
G75*
G02*
X27062000Y-26069000I0J-381000D01*
G01*
X27062000Y-26831000D01*
G75*
G02*
X26681000Y-27212000I-381000J0D01*
G01*
X25919000Y-27212000D01*
G75*
G02*
X25538000Y-26831000I0J381000D01*
G01*
X25538000Y-26069000D01*
G75*
G02*
X25919000Y-25688000I381000J0D01*
G01*
G37*
G04 #@! TD.AperFunction*
D10*
X15300000Y-30450000D03*
X15300000Y-32950000D03*
D11*
X27000000Y-45800000D03*
D12*
X25730000Y-45800000D03*
X24460000Y-45800000D03*
X23190000Y-45800000D03*
D13*
X21750000Y-17700000D03*
X21750000Y-19800000D03*
D14*
X27200000Y-18750000D03*
X29300000Y-18750000D03*
G04 #@! TA.AperFunction,SMDPad,CuDef*
G36*
G01*
X20762500Y-22850000D02*
X21237500Y-22850000D01*
G75*
G02*
X21475000Y-23087500I0J-237500D01*
G01*
X21475000Y-23662500D01*
G75*
G02*
X21237500Y-23900000I-237500J0D01*
G01*
X20762500Y-23900000D01*
G75*
G02*
X20525000Y-23662500I0J237500D01*
G01*
X20525000Y-23087500D01*
G75*
G02*
X20762500Y-22850000I237500J0D01*
G01*
G37*
G04 #@! TD.AperFunction*
G04 #@! TA.AperFunction,SMDPad,CuDef*
G36*
G01*
X20762500Y-21100000D02*
X21237500Y-21100000D01*
G75*
G02*
X21475000Y-21337500I0J-237500D01*
G01*
X21475000Y-21912500D01*
G75*
G02*
X21237500Y-22150000I-237500J0D01*
G01*
X20762500Y-22150000D01*
G75*
G02*
X20525000Y-21912500I0J237500D01*
G01*
X20525000Y-21337500D01*
G75*
G02*
X20762500Y-21100000I237500J0D01*
G01*
G37*
G04 #@! TD.AperFunction*
G04 #@! TA.AperFunction,SMDPad,CuDef*
G36*
G01*
X30762500Y-19100000D02*
X31237500Y-19100000D01*
G75*
G02*
X31475000Y-19337500I0J-237500D01*
G01*
X31475000Y-19912500D01*
G75*
G02*
X31237500Y-20150000I-237500J0D01*
G01*
X30762500Y-20150000D01*
G75*
G02*
X30525000Y-19912500I0J237500D01*
G01*
X30525000Y-19337500D01*
G75*
G02*
X30762500Y-19100000I237500J0D01*
G01*
G37*
G04 #@! TD.AperFunction*
G04 #@! TA.AperFunction,SMDPad,CuDef*
G36*
G01*
X30762500Y-17350000D02*
X31237500Y-17350000D01*
G75*
G02*
X31475000Y-17587500I0J-237500D01*
G01*
X31475000Y-18162500D01*
G75*
G02*
X31237500Y-18400000I-237500J0D01*
G01*
X30762500Y-18400000D01*
G75*
G02*
X30525000Y-18162500I0J237500D01*
G01*
X30525000Y-17587500D01*
G75*
G02*
X30762500Y-17350000I237500J0D01*
G01*
G37*
G04 #@! TD.AperFunction*
G04 #@! TA.AperFunction,SMDPad,CuDef*
G36*
G01*
X16500000Y-24695000D02*
X16500000Y-24995000D01*
G75*
G02*
X16350000Y-25145000I-150000J0D01*
G01*
X14700000Y-25145000D01*
G75*
G02*
X14550000Y-24995000I0J150000D01*
G01*
X14550000Y-24695000D01*
G75*
G02*
X14700000Y-24545000I150000J0D01*
G01*
X16350000Y-24545000D01*
G75*
G02*
X16500000Y-24695000I0J-150000D01*
G01*
G37*
G04 #@! TD.AperFunction*
G04 #@! TA.AperFunction,SMDPad,CuDef*
G36*
G01*
X16500000Y-25965000D02*
X16500000Y-26265000D01*
G75*
G02*
X16350000Y-26415000I-150000J0D01*
G01*
X14700000Y-26415000D01*
G75*
G02*
X14550000Y-26265000I0J150000D01*
G01*
X14550000Y-25965000D01*
G75*
G02*
X14700000Y-25815000I150000J0D01*
G01*
X16350000Y-25815000D01*
G75*
G02*
X16500000Y-25965000I0J-150000D01*
G01*
G37*
G04 #@! TD.AperFunction*
G04 #@! TA.AperFunction,SMDPad,CuDef*
G36*
G01*
X16500000Y-27235000D02*
X16500000Y-27535000D01*
G75*
G02*
X16350000Y-27685000I-150000J0D01*
G01*
X14700000Y-27685000D01*
G75*
G02*
X14550000Y-27535000I0J150000D01*
G01*
X14550000Y-27235000D01*
G75*
G02*
X14700000Y-27085000I150000J0D01*
G01*
X16350000Y-27085000D01*
G75*
G02*
X16500000Y-27235000I0J-150000D01*
G01*
G37*
G04 #@! TD.AperFunction*
G04 #@! TA.AperFunction,SMDPad,CuDef*
G36*
G01*
X16500000Y-28505000D02*
X16500000Y-28805000D01*
G75*
G02*
X16350000Y-28955000I-150000J0D01*
G01*
X14700000Y-28955000D01*
G75*
G02*
X14550000Y-28805000I0J150000D01*
G01*
X14550000Y-28505000D01*
G75*
G02*
X14700000Y-28355000I150000J0D01*
G01*
X16350000Y-28355000D01*
G75*
G02*
X16500000Y-28505000I0J-150000D01*
G01*
G37*
G04 #@! TD.AperFunction*
G04 #@! TA.AperFunction,SMDPad,CuDef*
G36*
G01*
X21450000Y-28505000D02*
X21450000Y-28805000D01*
G75*
G02*
X21300000Y-28955000I-150000J0D01*
G01*
X19650000Y-28955000D01*
G75*
G02*
X19500000Y-28805000I0J150000D01*
G01*
X19500000Y-28505000D01*
G75*
G02*
X19650000Y-28355000I150000J0D01*
G01*
X21300000Y-28355000D01*
G75*
G02*
X21450000Y-28505000I0J-150000D01*
G01*
G37*
G04 #@! TD.AperFunction*
G04 #@! TA.AperFunction,SMDPad,CuDef*
G36*
G01*
X21450000Y-27235000D02*
X21450000Y-27535000D01*
G75*
G02*
X21300000Y-27685000I-150000J0D01*
G01*
X19650000Y-27685000D01*
G75*
G02*
X19500000Y-27535000I0J150000D01*
G01*
X19500000Y-27235000D01*
G75*
G02*
X19650000Y-27085000I150000J0D01*
G01*
X21300000Y-27085000D01*
G75*
G02*
X21450000Y-27235000I0J-150000D01*
G01*
G37*
G04 #@! TD.AperFunction*
G04 #@! TA.AperFunction,SMDPad,CuDef*
G36*
G01*
X21450000Y-25965000D02*
X21450000Y-26265000D01*
G75*
G02*
X21300000Y-26415000I-150000J0D01*
G01*
X19650000Y-26415000D01*
G75*
G02*
X19500000Y-26265000I0J150000D01*
G01*
X19500000Y-25965000D01*
G75*
G02*
X19650000Y-25815000I150000J0D01*
G01*
X21300000Y-25815000D01*
G75*
G02*
X21450000Y-25965000I0J-150000D01*
G01*
G37*
G04 #@! TD.AperFunction*
G04 #@! TA.AperFunction,SMDPad,CuDef*
G36*
G01*
X21450000Y-24695000D02*
X21450000Y-24995000D01*
G75*
G02*
X21300000Y-25145000I-150000J0D01*
G01*
X19650000Y-25145000D01*
G75*
G02*
X19500000Y-24995000I0J150000D01*
G01*
X19500000Y-24695000D01*
G75*
G02*
X19650000Y-24545000I150000J0D01*
G01*
X21300000Y-24545000D01*
G75*
G02*
X21450000Y-24695000I0J-150000D01*
G01*
G37*
G04 #@! TD.AperFunction*
D15*
X17000000Y-37000000D03*
X33000000Y-37000000D03*
D16*
X18650000Y-18900000D03*
X17350000Y-18900000D03*
X18000000Y-21100000D03*
X18000000Y-18900000D03*
X17350000Y-21100000D03*
X18650000Y-21100000D03*
G04 #@! TA.AperFunction,SMDPad,CuDef*
G36*
G01*
X34350000Y-23237500D02*
X34350000Y-22762500D01*
G75*
G02*
X34587500Y-22525000I237500J0D01*
G01*
X35162500Y-22525000D01*
G75*
G02*
X35400000Y-22762500I0J-237500D01*
G01*
X35400000Y-23237500D01*
G75*
G02*
X35162500Y-23475000I-237500J0D01*
G01*
X34587500Y-23475000D01*
G75*
G02*
X34350000Y-23237500I0J237500D01*
G01*
G37*
G04 #@! TD.AperFunction*
G04 #@! TA.AperFunction,SMDPad,CuDef*
G36*
G01*
X32600000Y-23237500D02*
X32600000Y-22762500D01*
G75*
G02*
X32837500Y-22525000I237500J0D01*
G01*
X33412500Y-22525000D01*
G75*
G02*
X33650000Y-22762500I0J-237500D01*
G01*
X33650000Y-23237500D01*
G75*
G02*
X33412500Y-23475000I-237500J0D01*
G01*
X32837500Y-23475000D01*
G75*
G02*
X32600000Y-23237500I0J237500D01*
G01*
G37*
G04 #@! TD.AperFunction*
G04 #@! TA.AperFunction,SMDPad,CuDef*
G36*
G01*
X34350000Y-27737500D02*
X34350000Y-27262500D01*
G75*
G02*
X34587500Y-27025000I237500J0D01*
G01*
X35162500Y-27025000D01*
G75*
G02*
X35400000Y-27262500I0J-237500D01*
G01*
X35400000Y-27737500D01*
G75*
G02*
X35162500Y-27975000I-237500J0D01*
G01*
X34587500Y-27975000D01*
G75*
G02*
X34350000Y-27737500I0J237500D01*
G01*
G37*
G04 #@! TD.AperFunction*
G04 #@! TA.AperFunction,SMDPad,CuDef*
G36*
G01*
X32600000Y-27737500D02*
X32600000Y-27262500D01*
G75*
G02*
X32837500Y-27025000I237500J0D01*
G01*
X33412500Y-27025000D01*
G75*
G02*
X33650000Y-27262500I0J-237500D01*
G01*
X33650000Y-27737500D01*
G75*
G02*
X33412500Y-27975000I-237500J0D01*
G01*
X32837500Y-27975000D01*
G75*
G02*
X32600000Y-27737500I0J237500D01*
G01*
G37*
G04 #@! TD.AperFunction*
G04 #@! TA.AperFunction,SMDPad,CuDef*
G36*
G01*
X33650000Y-25762500D02*
X33650000Y-26237500D01*
G75*
G02*
X33412500Y-26475000I-237500J0D01*
G01*
X32837500Y-26475000D01*
G75*
G02*
X32600000Y-26237500I0J237500D01*
G01*
X32600000Y-25762500D01*
G75*
G02*
X32837500Y-25525000I237500J0D01*
G01*
X33412500Y-25525000D01*
G75*
G02*
X33650000Y-25762500I0J-237500D01*
G01*
G37*
G04 #@! TD.AperFunction*
G04 #@! TA.AperFunction,SMDPad,CuDef*
G36*
G01*
X35400000Y-25762500D02*
X35400000Y-26237500D01*
G75*
G02*
X35162500Y-26475000I-237500J0D01*
G01*
X34587500Y-26475000D01*
G75*
G02*
X34350000Y-26237500I0J237500D01*
G01*
X34350000Y-25762500D01*
G75*
G02*
X34587500Y-25525000I237500J0D01*
G01*
X35162500Y-25525000D01*
G75*
G02*
X35400000Y-25762500I0J-237500D01*
G01*
G37*
G04 #@! TD.AperFunction*
G04 #@! TA.AperFunction,SMDPad,CuDef*
G36*
G01*
X34350000Y-24737500D02*
X34350000Y-24262500D01*
G75*
G02*
X34587500Y-24025000I237500J0D01*
G01*
X35162500Y-24025000D01*
G75*
G02*
X35400000Y-24262500I0J-237500D01*
G01*
X35400000Y-24737500D01*
G75*
G02*
X35162500Y-24975000I-237500J0D01*
G01*
X34587500Y-24975000D01*
G75*
G02*
X34350000Y-24737500I0J237500D01*
G01*
G37*
G04 #@! TD.AperFunction*
G04 #@! TA.AperFunction,SMDPad,CuDef*
G36*
G01*
X32600000Y-24737500D02*
X32600000Y-24262500D01*
G75*
G02*
X32837500Y-24025000I237500J0D01*
G01*
X33412500Y-24025000D01*
G75*
G02*
X33650000Y-24262500I0J-237500D01*
G01*
X33650000Y-24737500D01*
G75*
G02*
X33412500Y-24975000I-237500J0D01*
G01*
X32837500Y-24975000D01*
G75*
G02*
X32600000Y-24737500I0J237500D01*
G01*
G37*
G04 #@! TD.AperFunction*
G04 #@! TA.AperFunction,SMDPad,CuDef*
G36*
G01*
X29762500Y-28350000D02*
X30237500Y-28350000D01*
G75*
G02*
X30475000Y-28587500I0J-237500D01*
G01*
X30475000Y-29162500D01*
G75*
G02*
X30237500Y-29400000I-237500J0D01*
G01*
X29762500Y-29400000D01*
G75*
G02*
X29525000Y-29162500I0J237500D01*
G01*
X29525000Y-28587500D01*
G75*
G02*
X29762500Y-28350000I237500J0D01*
G01*
G37*
G04 #@! TD.AperFunction*
G04 #@! TA.AperFunction,SMDPad,CuDef*
G36*
G01*
X29762500Y-26600000D02*
X30237500Y-26600000D01*
G75*
G02*
X30475000Y-26837500I0J-237500D01*
G01*
X30475000Y-27412500D01*
G75*
G02*
X30237500Y-27650000I-237500J0D01*
G01*
X29762500Y-27650000D01*
G75*
G02*
X29525000Y-27412500I0J237500D01*
G01*
X29525000Y-26837500D01*
G75*
G02*
X29762500Y-26600000I237500J0D01*
G01*
G37*
G04 #@! TD.AperFunction*
G04 #@! TA.AperFunction,SMDPad,CuDef*
G36*
G01*
X31262500Y-28350000D02*
X31737500Y-28350000D01*
G75*
G02*
X31975000Y-28587500I0J-237500D01*
G01*
X31975000Y-29162500D01*
G75*
G02*
X31737500Y-29400000I-237500J0D01*
G01*
X31262500Y-29400000D01*
G75*
G02*
X31025000Y-29162500I0J237500D01*
G01*
X31025000Y-28587500D01*
G75*
G02*
X31262500Y-28350000I237500J0D01*
G01*
G37*
G04 #@! TD.AperFunction*
G04 #@! TA.AperFunction,SMDPad,CuDef*
G36*
G01*
X31262500Y-26600000D02*
X31737500Y-26600000D01*
G75*
G02*
X31975000Y-26837500I0J-237500D01*
G01*
X31975000Y-27412500D01*
G75*
G02*
X31737500Y-27650000I-237500J0D01*
G01*
X31262500Y-27650000D01*
G75*
G02*
X31025000Y-27412500I0J237500D01*
G01*
X31025000Y-26837500D01*
G75*
G02*
X31262500Y-26600000I237500J0D01*
G01*
G37*
G04 #@! TD.AperFunction*
G04 #@! TA.AperFunction,SMDPad,CuDef*
G36*
G01*
X33650000Y-28762500D02*
X33650000Y-29237500D01*
G75*
G02*
X33412500Y-29475000I-237500J0D01*
G01*
X32837500Y-29475000D01*
G75*
G02*
X32600000Y-29237500I0J237500D01*
G01*
X32600000Y-28762500D01*
G75*
G02*
X32837500Y-28525000I237500J0D01*
G01*
X33412500Y-28525000D01*
G75*
G02*
X33650000Y-28762500I0J-237500D01*
G01*
G37*
G04 #@! TD.AperFunction*
G04 #@! TA.AperFunction,SMDPad,CuDef*
G36*
G01*
X35400000Y-28762500D02*
X35400000Y-29237500D01*
G75*
G02*
X35162500Y-29475000I-237500J0D01*
G01*
X34587500Y-29475000D01*
G75*
G02*
X34350000Y-29237500I0J237500D01*
G01*
X34350000Y-28762500D01*
G75*
G02*
X34587500Y-28525000I237500J0D01*
G01*
X35162500Y-28525000D01*
G75*
G02*
X35400000Y-28762500I0J-237500D01*
G01*
G37*
G04 #@! TD.AperFunction*
G04 #@! TA.AperFunction,SMDPad,CuDef*
G36*
G01*
X34350000Y-20237500D02*
X34350000Y-19762500D01*
G75*
G02*
X34587500Y-19525000I237500J0D01*
G01*
X35162500Y-19525000D01*
G75*
G02*
X35400000Y-19762500I0J-237500D01*
G01*
X35400000Y-20237500D01*
G75*
G02*
X35162500Y-20475000I-237500J0D01*
G01*
X34587500Y-20475000D01*
G75*
G02*
X34350000Y-20237500I0J237500D01*
G01*
G37*
G04 #@! TD.AperFunction*
G04 #@! TA.AperFunction,SMDPad,CuDef*
G36*
G01*
X32600000Y-20237500D02*
X32600000Y-19762500D01*
G75*
G02*
X32837500Y-19525000I237500J0D01*
G01*
X33412500Y-19525000D01*
G75*
G02*
X33650000Y-19762500I0J-237500D01*
G01*
X33650000Y-20237500D01*
G75*
G02*
X33412500Y-20475000I-237500J0D01*
G01*
X32837500Y-20475000D01*
G75*
G02*
X32600000Y-20237500I0J237500D01*
G01*
G37*
G04 #@! TD.AperFunction*
G04 #@! TA.AperFunction,SMDPad,CuDef*
G36*
G01*
X23050000Y-27962500D02*
X23050000Y-28437500D01*
G75*
G02*
X22812500Y-28675000I-237500J0D01*
G01*
X22237500Y-28675000D01*
G75*
G02*
X22000000Y-28437500I0J237500D01*
G01*
X22000000Y-27962500D01*
G75*
G02*
X22237500Y-27725000I237500J0D01*
G01*
X22812500Y-27725000D01*
G75*
G02*
X23050000Y-27962500I0J-237500D01*
G01*
G37*
G04 #@! TD.AperFunction*
G04 #@! TA.AperFunction,SMDPad,CuDef*
G36*
G01*
X24800000Y-27962500D02*
X24800000Y-28437500D01*
G75*
G02*
X24562500Y-28675000I-237500J0D01*
G01*
X23987500Y-28675000D01*
G75*
G02*
X23750000Y-28437500I0J237500D01*
G01*
X23750000Y-27962500D01*
G75*
G02*
X23987500Y-27725000I237500J0D01*
G01*
X24562500Y-27725000D01*
G75*
G02*
X24800000Y-27962500I0J-237500D01*
G01*
G37*
G04 #@! TD.AperFunction*
G04 #@! TA.AperFunction,SMDPad,CuDef*
G36*
G01*
X34350000Y-21737500D02*
X34350000Y-21262500D01*
G75*
G02*
X34587500Y-21025000I237500J0D01*
G01*
X35162500Y-21025000D01*
G75*
G02*
X35400000Y-21262500I0J-237500D01*
G01*
X35400000Y-21737500D01*
G75*
G02*
X35162500Y-21975000I-237500J0D01*
G01*
X34587500Y-21975000D01*
G75*
G02*
X34350000Y-21737500I0J237500D01*
G01*
G37*
G04 #@! TD.AperFunction*
G04 #@! TA.AperFunction,SMDPad,CuDef*
G36*
G01*
X32600000Y-21737500D02*
X32600000Y-21262500D01*
G75*
G02*
X32837500Y-21025000I237500J0D01*
G01*
X33412500Y-21025000D01*
G75*
G02*
X33650000Y-21262500I0J-237500D01*
G01*
X33650000Y-21737500D01*
G75*
G02*
X33412500Y-21975000I-237500J0D01*
G01*
X32837500Y-21975000D01*
G75*
G02*
X32600000Y-21737500I0J237500D01*
G01*
G37*
G04 #@! TD.AperFunction*
G04 #@! TA.AperFunction,SMDPad,CuDef*
G36*
G01*
X15562500Y-20350000D02*
X16037500Y-20350000D01*
G75*
G02*
X16275000Y-20587500I0J-237500D01*
G01*
X16275000Y-21162500D01*
G75*
G02*
X16037500Y-21400000I-237500J0D01*
G01*
X15562500Y-21400000D01*
G75*
G02*
X15325000Y-21162500I0J237500D01*
G01*
X15325000Y-20587500D01*
G75*
G02*
X15562500Y-20350000I237500J0D01*
G01*
G37*
G04 #@! TD.AperFunction*
G04 #@! TA.AperFunction,SMDPad,CuDef*
G36*
G01*
X15562500Y-18600000D02*
X16037500Y-18600000D01*
G75*
G02*
X16275000Y-18837500I0J-237500D01*
G01*
X16275000Y-19412500D01*
G75*
G02*
X16037500Y-19650000I-237500J0D01*
G01*
X15562500Y-19650000D01*
G75*
G02*
X15325000Y-19412500I0J237500D01*
G01*
X15325000Y-18837500D01*
G75*
G02*
X15562500Y-18600000I237500J0D01*
G01*
G37*
G04 #@! TD.AperFunction*
G04 #@! TA.AperFunction,SMDPad,CuDef*
G36*
G01*
X22737500Y-25450000D02*
X22262500Y-25450000D01*
G75*
G02*
X22025000Y-25212500I0J237500D01*
G01*
X22025000Y-24637500D01*
G75*
G02*
X22262500Y-24400000I237500J0D01*
G01*
X22737500Y-24400000D01*
G75*
G02*
X22975000Y-24637500I0J-237500D01*
G01*
X22975000Y-25212500D01*
G75*
G02*
X22737500Y-25450000I-237500J0D01*
G01*
G37*
G04 #@! TD.AperFunction*
G04 #@! TA.AperFunction,SMDPad,CuDef*
G36*
G01*
X22737500Y-27200000D02*
X22262500Y-27200000D01*
G75*
G02*
X22025000Y-26962500I0J237500D01*
G01*
X22025000Y-26387500D01*
G75*
G02*
X22262500Y-26150000I237500J0D01*
G01*
X22737500Y-26150000D01*
G75*
G02*
X22975000Y-26387500I0J-237500D01*
G01*
X22975000Y-26962500D01*
G75*
G02*
X22737500Y-27200000I-237500J0D01*
G01*
G37*
G04 #@! TD.AperFunction*
G04 #@! TA.AperFunction,SMDPad,CuDef*
G36*
G01*
X34350000Y-18737500D02*
X34350000Y-18262500D01*
G75*
G02*
X34587500Y-18025000I237500J0D01*
G01*
X35162500Y-18025000D01*
G75*
G02*
X35400000Y-18262500I0J-237500D01*
G01*
X35400000Y-18737500D01*
G75*
G02*
X35162500Y-18975000I-237500J0D01*
G01*
X34587500Y-18975000D01*
G75*
G02*
X34350000Y-18737500I0J237500D01*
G01*
G37*
G04 #@! TD.AperFunction*
G04 #@! TA.AperFunction,SMDPad,CuDef*
G36*
G01*
X32600000Y-18737500D02*
X32600000Y-18262500D01*
G75*
G02*
X32837500Y-18025000I237500J0D01*
G01*
X33412500Y-18025000D01*
G75*
G02*
X33650000Y-18262500I0J-237500D01*
G01*
X33650000Y-18737500D01*
G75*
G02*
X33412500Y-18975000I-237500J0D01*
G01*
X32837500Y-18975000D01*
G75*
G02*
X32600000Y-18737500I0J237500D01*
G01*
G37*
G04 #@! TD.AperFunction*
G04 #@! TA.AperFunction,SMDPad,CuDef*
G36*
G01*
X22262500Y-22850000D02*
X22737500Y-22850000D01*
G75*
G02*
X22975000Y-23087500I0J-237500D01*
G01*
X22975000Y-23662500D01*
G75*
G02*
X22737500Y-23900000I-237500J0D01*
G01*
X22262500Y-23900000D01*
G75*
G02*
X22025000Y-23662500I0J237500D01*
G01*
X22025000Y-23087500D01*
G75*
G02*
X22262500Y-22850000I237500J0D01*
G01*
G37*
G04 #@! TD.AperFunction*
G04 #@! TA.AperFunction,SMDPad,CuDef*
G36*
G01*
X22262500Y-21100000D02*
X22737500Y-21100000D01*
G75*
G02*
X22975000Y-21337500I0J-237500D01*
G01*
X22975000Y-21912500D01*
G75*
G02*
X22737500Y-22150000I-237500J0D01*
G01*
X22262500Y-22150000D01*
G75*
G02*
X22025000Y-21912500I0J237500D01*
G01*
X22025000Y-21337500D01*
G75*
G02*
X22262500Y-21100000I237500J0D01*
G01*
G37*
G04 #@! TD.AperFunction*
D17*
X30050000Y-22950000D03*
G04 #@! TA.AperFunction,SMDPad,CuDef*
G36*
G01*
X28237500Y-22075000D02*
X28887500Y-22075000D01*
G75*
G02*
X28950000Y-22137500I0J-62500D01*
G01*
X28950000Y-22262500D01*
G75*
G02*
X28887500Y-22325000I-62500J0D01*
G01*
X28237500Y-22325000D01*
G75*
G02*
X28175000Y-22262500I0J62500D01*
G01*
X28175000Y-22137500D01*
G75*
G02*
X28237500Y-22075000I62500J0D01*
G01*
G37*
G04 #@! TD.AperFunction*
G04 #@! TA.AperFunction,SMDPad,CuDef*
G36*
G01*
X28237500Y-22575000D02*
X28887500Y-22575000D01*
G75*
G02*
X28950000Y-22637500I0J-62500D01*
G01*
X28950000Y-22762500D01*
G75*
G02*
X28887500Y-22825000I-62500J0D01*
G01*
X28237500Y-22825000D01*
G75*
G02*
X28175000Y-22762500I0J62500D01*
G01*
X28175000Y-22637500D01*
G75*
G02*
X28237500Y-22575000I62500J0D01*
G01*
G37*
G04 #@! TD.AperFunction*
G04 #@! TA.AperFunction,SMDPad,CuDef*
G36*
G01*
X28237500Y-23075000D02*
X28887500Y-23075000D01*
G75*
G02*
X28950000Y-23137500I0J-62500D01*
G01*
X28950000Y-23262500D01*
G75*
G02*
X28887500Y-23325000I-62500J0D01*
G01*
X28237500Y-23325000D01*
G75*
G02*
X28175000Y-23262500I0J62500D01*
G01*
X28175000Y-23137500D01*
G75*
G02*
X28237500Y-23075000I62500J0D01*
G01*
G37*
G04 #@! TD.AperFunction*
G04 #@! TA.AperFunction,SMDPad,CuDef*
G36*
G01*
X28237500Y-23575000D02*
X28887500Y-23575000D01*
G75*
G02*
X28950000Y-23637500I0J-62500D01*
G01*
X28950000Y-23762500D01*
G75*
G02*
X28887500Y-23825000I-62500J0D01*
G01*
X28237500Y-23825000D01*
G75*
G02*
X28175000Y-23762500I0J62500D01*
G01*
X28175000Y-23637500D01*
G75*
G02*
X28237500Y-23575000I62500J0D01*
G01*
G37*
G04 #@! TD.AperFunction*
G04 #@! TA.AperFunction,SMDPad,CuDef*
G36*
G01*
X29237500Y-24050000D02*
X29362500Y-24050000D01*
G75*
G02*
X29425000Y-24112500I0J-62500D01*
G01*
X29425000Y-24762500D01*
G75*
G02*
X29362500Y-24825000I-62500J0D01*
G01*
X29237500Y-24825000D01*
G75*
G02*
X29175000Y-24762500I0J62500D01*
G01*
X29175000Y-24112500D01*
G75*
G02*
X29237500Y-24050000I62500J0D01*
G01*
G37*
G04 #@! TD.AperFunction*
G04 #@! TA.AperFunction,SMDPad,CuDef*
G36*
G01*
X29737500Y-24050000D02*
X29862500Y-24050000D01*
G75*
G02*
X29925000Y-24112500I0J-62500D01*
G01*
X29925000Y-24762500D01*
G75*
G02*
X29862500Y-24825000I-62500J0D01*
G01*
X29737500Y-24825000D01*
G75*
G02*
X29675000Y-24762500I0J62500D01*
G01*
X29675000Y-24112500D01*
G75*
G02*
X29737500Y-24050000I62500J0D01*
G01*
G37*
G04 #@! TD.AperFunction*
G04 #@! TA.AperFunction,SMDPad,CuDef*
G36*
G01*
X30237500Y-24050000D02*
X30362500Y-24050000D01*
G75*
G02*
X30425000Y-24112500I0J-62500D01*
G01*
X30425000Y-24762500D01*
G75*
G02*
X30362500Y-24825000I-62500J0D01*
G01*
X30237500Y-24825000D01*
G75*
G02*
X30175000Y-24762500I0J62500D01*
G01*
X30175000Y-24112500D01*
G75*
G02*
X30237500Y-24050000I62500J0D01*
G01*
G37*
G04 #@! TD.AperFunction*
G04 #@! TA.AperFunction,SMDPad,CuDef*
G36*
G01*
X30737500Y-24050000D02*
X30862500Y-24050000D01*
G75*
G02*
X30925000Y-24112500I0J-62500D01*
G01*
X30925000Y-24762500D01*
G75*
G02*
X30862500Y-24825000I-62500J0D01*
G01*
X30737500Y-24825000D01*
G75*
G02*
X30675000Y-24762500I0J62500D01*
G01*
X30675000Y-24112500D01*
G75*
G02*
X30737500Y-24050000I62500J0D01*
G01*
G37*
G04 #@! TD.AperFunction*
G04 #@! TA.AperFunction,SMDPad,CuDef*
G36*
G01*
X31212500Y-23575000D02*
X31862500Y-23575000D01*
G75*
G02*
X31925000Y-23637500I0J-62500D01*
G01*
X31925000Y-23762500D01*
G75*
G02*
X31862500Y-23825000I-62500J0D01*
G01*
X31212500Y-23825000D01*
G75*
G02*
X31150000Y-23762500I0J62500D01*
G01*
X31150000Y-23637500D01*
G75*
G02*
X31212500Y-23575000I62500J0D01*
G01*
G37*
G04 #@! TD.AperFunction*
G04 #@! TA.AperFunction,SMDPad,CuDef*
G36*
G01*
X31212500Y-23075000D02*
X31862500Y-23075000D01*
G75*
G02*
X31925000Y-23137500I0J-62500D01*
G01*
X31925000Y-23262500D01*
G75*
G02*
X31862500Y-23325000I-62500J0D01*
G01*
X31212500Y-23325000D01*
G75*
G02*
X31150000Y-23262500I0J62500D01*
G01*
X31150000Y-23137500D01*
G75*
G02*
X31212500Y-23075000I62500J0D01*
G01*
G37*
G04 #@! TD.AperFunction*
G04 #@! TA.AperFunction,SMDPad,CuDef*
G36*
G01*
X31212500Y-22575000D02*
X31862500Y-22575000D01*
G75*
G02*
X31925000Y-22637500I0J-62500D01*
G01*
X31925000Y-22762500D01*
G75*
G02*
X31862500Y-22825000I-62500J0D01*
G01*
X31212500Y-22825000D01*
G75*
G02*
X31150000Y-22762500I0J62500D01*
G01*
X31150000Y-22637500D01*
G75*
G02*
X31212500Y-22575000I62500J0D01*
G01*
G37*
G04 #@! TD.AperFunction*
G04 #@! TA.AperFunction,SMDPad,CuDef*
G36*
G01*
X31212500Y-22075000D02*
X31862500Y-22075000D01*
G75*
G02*
X31925000Y-22137500I0J-62500D01*
G01*
X31925000Y-22262500D01*
G75*
G02*
X31862500Y-22325000I-62500J0D01*
G01*
X31212500Y-22325000D01*
G75*
G02*
X31150000Y-22262500I0J62500D01*
G01*
X31150000Y-22137500D01*
G75*
G02*
X31212500Y-22075000I62500J0D01*
G01*
G37*
G04 #@! TD.AperFunction*
G04 #@! TA.AperFunction,SMDPad,CuDef*
G36*
G01*
X30737500Y-21075000D02*
X30862500Y-21075000D01*
G75*
G02*
X30925000Y-21137500I0J-62500D01*
G01*
X30925000Y-21787500D01*
G75*
G02*
X30862500Y-21850000I-62500J0D01*
G01*
X30737500Y-21850000D01*
G75*
G02*
X30675000Y-21787500I0J62500D01*
G01*
X30675000Y-21137500D01*
G75*
G02*
X30737500Y-21075000I62500J0D01*
G01*
G37*
G04 #@! TD.AperFunction*
G04 #@! TA.AperFunction,SMDPad,CuDef*
G36*
G01*
X30237500Y-21075000D02*
X30362500Y-21075000D01*
G75*
G02*
X30425000Y-21137500I0J-62500D01*
G01*
X30425000Y-21787500D01*
G75*
G02*
X30362500Y-21850000I-62500J0D01*
G01*
X30237500Y-21850000D01*
G75*
G02*
X30175000Y-21787500I0J62500D01*
G01*
X30175000Y-21137500D01*
G75*
G02*
X30237500Y-21075000I62500J0D01*
G01*
G37*
G04 #@! TD.AperFunction*
G04 #@! TA.AperFunction,SMDPad,CuDef*
G36*
G01*
X29737500Y-21075000D02*
X29862500Y-21075000D01*
G75*
G02*
X29925000Y-21137500I0J-62500D01*
G01*
X29925000Y-21787500D01*
G75*
G02*
X29862500Y-21850000I-62500J0D01*
G01*
X29737500Y-21850000D01*
G75*
G02*
X29675000Y-21787500I0J62500D01*
G01*
X29675000Y-21137500D01*
G75*
G02*
X29737500Y-21075000I62500J0D01*
G01*
G37*
G04 #@! TD.AperFunction*
G04 #@! TA.AperFunction,SMDPad,CuDef*
G36*
G01*
X29237500Y-21075000D02*
X29362500Y-21075000D01*
G75*
G02*
X29425000Y-21137500I0J-62500D01*
G01*
X29425000Y-21787500D01*
G75*
G02*
X29362500Y-21850000I-62500J0D01*
G01*
X29237500Y-21850000D01*
G75*
G02*
X29175000Y-21787500I0J62500D01*
G01*
X29175000Y-21137500D01*
G75*
G02*
X29237500Y-21075000I62500J0D01*
G01*
G37*
G04 #@! TD.AperFunction*
D18*
X25000000Y-14500000D03*
D19*
X16500000Y-30000000D03*
X13750000Y-31700000D03*
X15000000Y-22000000D03*
X19300000Y-23700000D03*
X31900000Y-30400000D03*
X19600000Y-30300000D03*
X36250000Y-21750000D03*
X16500000Y-32600000D03*
X19100000Y-32600000D03*
X19600000Y-21500000D03*
X29900000Y-25900000D03*
X23400000Y-31600000D03*
X25300000Y-28200000D03*
D20*
X29300000Y-22200000D02*
X30050000Y-22950000D01*
X29300000Y-21462500D02*
X29300000Y-22200000D01*
X30800000Y-22200000D02*
X31537500Y-22200000D01*
X30050000Y-22950000D02*
X30800000Y-22200000D01*
X28562500Y-23700000D02*
X29300000Y-23700000D01*
X29300000Y-23700000D02*
X30050000Y-22950000D01*
X29300000Y-24437500D02*
X29300000Y-23700000D01*
X23190000Y-43190000D02*
X17000000Y-37000000D01*
X16875000Y-36875000D02*
X17000000Y-37000000D01*
X30000000Y-29065685D02*
X30000000Y-28875000D01*
X20475000Y-28655000D02*
X20475000Y-28775000D01*
D21*
X34875000Y-23000000D02*
X34875000Y-21500000D01*
X34875000Y-21500000D02*
X34875000Y-20000000D01*
X34875000Y-20000000D02*
X34875000Y-18500000D01*
X35400000Y-23000000D02*
X35850010Y-23450010D01*
X34875000Y-23000000D02*
X35400000Y-23000000D01*
D20*
X23190000Y-43190000D02*
X23190000Y-45800000D01*
X26325000Y-22700000D02*
X26250000Y-22625000D01*
D21*
X22500000Y-24925000D02*
X22500000Y-23375000D01*
X22500000Y-23375000D02*
X21000000Y-23375000D01*
X19625000Y-23375000D02*
X19300000Y-23700000D01*
X21000000Y-23375000D02*
X19625000Y-23375000D01*
X20475000Y-29425000D02*
X19600000Y-30300000D01*
X20475000Y-28655000D02*
X20475000Y-29425000D01*
X17074990Y-20875000D02*
X17299990Y-21100000D01*
X15800000Y-20875000D02*
X17074990Y-20875000D01*
D22*
X15800000Y-21200000D02*
X15000000Y-22000000D01*
X15800000Y-20875000D02*
X15800000Y-21200000D01*
D21*
X28562500Y-24437500D02*
X28562500Y-23775010D01*
X28562500Y-25437500D02*
X28562500Y-24762500D01*
X28562500Y-24762500D02*
X28562500Y-24437500D01*
X28562500Y-24762500D02*
X28562500Y-24737500D01*
X29224990Y-24512510D02*
X29224990Y-24437500D01*
X28562500Y-25175000D02*
X29224990Y-24512510D01*
X28562500Y-25437500D02*
X28562500Y-25175000D01*
X28562500Y-27437500D02*
X28562500Y-25437500D01*
X29000000Y-24000000D02*
X29000000Y-24400000D01*
X28562500Y-24437500D02*
X29000000Y-24000000D01*
X29000000Y-24000000D02*
X30050000Y-22950000D01*
X28562500Y-27437500D02*
X30000000Y-28875000D01*
X34875000Y-27497288D02*
X34875000Y-27500000D01*
X35850010Y-26522278D02*
X34875000Y-27497288D01*
X35850010Y-23450010D02*
X35850010Y-26522278D01*
D20*
X22550010Y-24874990D02*
X22500000Y-24925000D01*
X26300000Y-23200000D02*
X26300000Y-23549980D01*
D21*
X26300000Y-22950000D02*
X26300000Y-24000000D01*
X25375000Y-24925000D02*
X22500000Y-24925000D01*
X26300000Y-24000000D02*
X25375000Y-24925000D01*
X16500000Y-30000000D02*
X16500000Y-31300000D01*
X16100000Y-31700000D02*
X13750000Y-31700000D01*
X16500000Y-31300000D02*
X16100000Y-31700000D01*
X35850010Y-29849990D02*
X35300000Y-30400000D01*
X35300000Y-30400000D02*
X31900000Y-30400000D01*
X35850010Y-28475010D02*
X35850010Y-29849990D01*
X34875000Y-27500000D02*
X35850010Y-28475010D01*
X31525000Y-30400000D02*
X30000000Y-28875000D01*
X31900000Y-30400000D02*
X31525000Y-30400000D01*
D20*
X30837500Y-21500000D02*
X30800000Y-21462500D01*
X33125000Y-21500000D02*
X30837500Y-21500000D01*
D21*
X18000000Y-18314998D02*
X18000000Y-18900000D01*
X18000000Y-18089998D02*
X18000000Y-18314998D01*
X18389998Y-17700000D02*
X18000000Y-18089998D01*
X21750000Y-17700000D02*
X18389998Y-17700000D01*
X27200000Y-20950000D02*
X28374990Y-22124990D01*
X27200000Y-18750000D02*
X27200000Y-20950000D01*
X28374990Y-22124990D02*
X28699999Y-22124990D01*
D20*
X31000000Y-20326978D02*
X31000000Y-19625000D01*
X30300000Y-21026978D02*
X31000000Y-20326978D01*
X30300000Y-21462500D02*
X30300000Y-21026978D01*
D21*
X33125000Y-20000000D02*
X32250000Y-20000000D01*
X31875000Y-19625000D02*
X31000000Y-19625000D01*
X32250000Y-20000000D02*
X31875000Y-19625000D01*
D20*
X30800000Y-24437500D02*
X30800000Y-25090588D01*
X31500000Y-25790588D02*
X31500000Y-27125000D01*
X30800000Y-25090588D02*
X31500000Y-25790588D01*
D21*
X31500000Y-27375000D02*
X31500000Y-27125000D01*
X33125000Y-29000000D02*
X31500000Y-27375000D01*
X31500000Y-28875000D02*
X31500000Y-28625000D01*
X31500000Y-28625000D02*
X30000000Y-27125000D01*
D20*
X30625001Y-26499999D02*
X30000000Y-27125000D01*
X30625001Y-25551999D02*
X30625001Y-26499999D01*
X30300000Y-25226998D02*
X30625001Y-25551999D01*
X30300000Y-24437500D02*
X30300000Y-25226998D01*
X34625000Y-24500000D02*
X33125000Y-23000000D01*
X34875000Y-24500000D02*
X34625000Y-24500000D01*
X32825000Y-22700000D02*
X31537500Y-22700000D01*
X33125000Y-23000000D02*
X32825000Y-22700000D01*
X33125000Y-26000000D02*
X33125000Y-25820510D01*
D21*
X33125000Y-27500000D02*
X33125000Y-26000000D01*
X33125000Y-26000000D02*
X33125000Y-25997288D01*
D20*
X31537500Y-23700000D02*
X31537500Y-24737500D01*
X31537500Y-24737500D02*
X31900000Y-25100000D01*
D21*
X32800000Y-26000000D02*
X31900000Y-25100000D01*
X33125000Y-26000000D02*
X32800000Y-26000000D01*
D20*
X18650000Y-21100000D02*
X18650000Y-20975000D01*
D21*
X22500000Y-21625000D02*
X26325000Y-21625000D01*
X19050001Y-22350001D02*
X18700010Y-22000010D01*
X18700010Y-22000010D02*
X18700010Y-21100000D01*
X20274999Y-22350001D02*
X19050001Y-22350001D01*
X21000000Y-21625000D02*
X20274999Y-22350001D01*
D22*
X21750000Y-21600000D02*
X21775000Y-21625000D01*
X21750000Y-19800000D02*
X21750000Y-21600000D01*
X21775000Y-21625000D02*
X22500000Y-21625000D01*
X21000000Y-21625000D02*
X21775000Y-21625000D01*
X21750000Y-20875000D02*
X21000000Y-21625000D01*
X21750000Y-20875000D02*
X22500000Y-21625000D01*
X21750000Y-19800000D02*
X21750000Y-20875000D01*
X21000000Y-20550000D02*
X21750000Y-19800000D01*
X21000000Y-21625000D02*
X21000000Y-20550000D01*
X22500000Y-20550000D02*
X21750000Y-19800000D01*
X22500000Y-21625000D02*
X22500000Y-20550000D01*
D20*
X27900000Y-22700000D02*
X28562500Y-22700000D01*
X26825000Y-21625000D02*
X27900000Y-22700000D01*
X26325000Y-21625000D02*
X26825000Y-21625000D01*
X29300000Y-20526978D02*
X29300000Y-18750000D01*
X29800000Y-21026978D02*
X29300000Y-20526978D01*
X29800000Y-21462500D02*
X29800000Y-21026978D01*
D22*
X31000000Y-17875000D02*
X29625000Y-17875000D01*
X33125000Y-18025000D02*
X33125000Y-18500000D01*
X33825010Y-17324990D02*
X33125000Y-18025000D01*
X35550830Y-17324990D02*
X33825010Y-17324990D01*
X36250000Y-18024160D02*
X35550830Y-17324990D01*
X36250000Y-21750000D02*
X36250000Y-18024160D01*
X32500000Y-17875000D02*
X31000000Y-17875000D01*
X33125000Y-18500000D02*
X32500000Y-17875000D01*
D21*
X29300000Y-18750000D02*
X29300000Y-17689998D01*
D22*
X32975000Y-17875000D02*
X33125000Y-18025000D01*
X32500000Y-17875000D02*
X32975000Y-17875000D01*
X33275000Y-17875000D02*
X33825010Y-17324990D01*
X32500000Y-17875000D02*
X33275000Y-17875000D01*
D21*
X15525000Y-24275000D02*
X15525000Y-24845000D01*
X18000000Y-21800000D02*
X15525000Y-24275000D01*
X18000000Y-21100000D02*
X18000000Y-21800000D01*
D20*
X16845000Y-24845000D02*
X15525000Y-24845000D01*
X18125021Y-26125021D02*
X16845000Y-24845000D01*
X18125021Y-33875021D02*
X18125021Y-26125021D01*
X27000000Y-42750000D02*
X18125021Y-33875021D01*
X27000000Y-42750000D02*
X27000000Y-45800000D01*
D21*
X18000000Y-20360002D02*
X17299990Y-19659992D01*
X18000000Y-21100000D02*
X18000000Y-20360002D01*
X15800000Y-19125000D02*
X17074990Y-19125000D01*
X17299990Y-19350000D02*
X17074990Y-19125000D01*
X17299990Y-19659992D02*
X17299990Y-19350000D01*
X17074990Y-19125000D02*
X17299990Y-18900000D01*
D20*
X33125000Y-36875000D02*
X33000000Y-37000000D01*
X28126978Y-23200000D02*
X28562500Y-23200000D01*
X27724990Y-23601988D02*
X28126978Y-23200000D01*
X27724990Y-24324990D02*
X27724990Y-23601988D01*
D21*
X27724990Y-31724990D02*
X27724990Y-24324990D01*
X16150000Y-32950000D02*
X16500000Y-32600000D01*
X15300000Y-32950000D02*
X16150000Y-32950000D01*
X33000000Y-37000000D02*
X29000000Y-33000000D01*
X26849980Y-32600000D02*
X19100000Y-32600000D01*
X28600000Y-32600000D02*
X27724990Y-31724990D01*
X29000000Y-33000000D02*
X28600000Y-32600000D01*
X27324990Y-32124990D02*
X27624990Y-32124990D01*
X27324990Y-32124990D02*
X26849980Y-32600000D01*
X26849980Y-32600000D02*
X28600000Y-32600000D01*
X27474990Y-31974990D02*
X27800000Y-32300000D01*
X27724990Y-31724990D02*
X27474990Y-31974990D01*
X27474990Y-31974990D02*
X27324990Y-32124990D01*
D20*
X31925000Y-23200000D02*
X31537500Y-23200000D01*
X33125000Y-24351978D02*
X31973022Y-23200000D01*
X31973022Y-23200000D02*
X31925000Y-23200000D01*
X33125000Y-24500000D02*
X33125000Y-24351978D01*
X34625000Y-26000000D02*
X33125000Y-24500000D01*
X34875000Y-26000000D02*
X34625000Y-26000000D01*
X34024990Y-28674990D02*
X34350000Y-29000000D01*
X34024990Y-26325010D02*
X34024990Y-28674990D01*
X34350000Y-26000000D02*
X34024990Y-26325010D01*
X34350000Y-29000000D02*
X34875000Y-29000000D01*
X34875000Y-26000000D02*
X34350000Y-26000000D01*
X18725001Y-18824999D02*
X18650000Y-18900000D01*
D21*
X18700010Y-19690008D02*
X18700010Y-18900000D01*
X19600000Y-20589998D02*
X18700010Y-19690008D01*
X19600000Y-21500000D02*
X19600000Y-20589998D01*
D20*
X29800000Y-25800000D02*
X29900000Y-25900000D01*
X29800000Y-24437500D02*
X29800000Y-25800000D01*
X20475000Y-26115000D02*
X20098232Y-26115000D01*
X23424990Y-31575010D02*
X23400000Y-31600000D01*
D21*
X19500000Y-26115000D02*
X20475000Y-26115000D01*
X18749999Y-26865001D02*
X19500000Y-26115000D01*
X18749999Y-30708001D02*
X18749999Y-26865001D01*
X19641998Y-31600000D02*
X18749999Y-30708001D01*
X23400000Y-31600000D02*
X19641998Y-31600000D01*
X21465000Y-26115000D02*
X20475000Y-26115000D01*
X22025000Y-26675000D02*
X21465000Y-26115000D01*
X22500000Y-26675000D02*
X22025000Y-26675000D01*
D22*
X24275000Y-28200000D02*
X25300000Y-28200000D01*
D20*
X25730000Y-45792894D02*
X25750000Y-45772894D01*
X25730000Y-42230000D02*
X17675011Y-34175011D01*
X25730000Y-42230000D02*
X25730000Y-45800000D01*
X16500000Y-27385000D02*
X15525000Y-27385000D01*
X17675011Y-28560011D02*
X16500000Y-27385000D01*
X17675011Y-34175011D02*
X17675011Y-28560011D01*
X24460000Y-41710000D02*
X17225001Y-34475001D01*
X24460000Y-41710000D02*
X24460000Y-45800000D01*
X16500000Y-28655000D02*
X15525000Y-28655000D01*
X17225001Y-29380001D02*
X16500000Y-28655000D01*
X17225001Y-34475001D02*
X17225001Y-29380001D01*
D21*
X21710000Y-27385000D02*
X20475000Y-27385000D01*
X22525000Y-28200000D02*
X21710000Y-27385000D01*
D20*
X21099490Y-24845000D02*
X22079480Y-25824990D01*
X20475000Y-24845000D02*
X21099490Y-24845000D01*
X23674990Y-25824990D02*
X22079480Y-25824990D01*
X24300000Y-26450000D02*
X23674990Y-25824990D01*
D21*
X14550000Y-26115000D02*
X13900000Y-26765000D01*
X15525000Y-26115000D02*
X14550000Y-26115000D01*
X13900000Y-29050000D02*
X15300000Y-30450000D01*
X13900000Y-26765000D02*
X13900000Y-29050000D01*
M02*
