M48
; DRILL file {KiCad (5.1.9)-1} date 05/26/21 00:16:26
; FORMAT={-:-/ absolute / metric / decimal}
; #@! TF.CreationDate,2021-05-26T00:16:26+02:00
; #@! TF.GenerationSoftware,Kicad,Pcbnew,(5.1.9)-1
; #@! TF.FileFunction,Plated,1,2,PTH
FMAT,2
METRIC
T1C0.400
T2C0.650
T3C1.000
T4C2.000
%
G90
G05
T1
X13.75Y-31.7
X15.0Y-22.0
X16.5Y-30.0
X16.5Y-32.6
X19.1Y-32.6
X19.3Y-23.7
X19.6Y-21.5
X19.6Y-30.3
X23.4Y-31.6
X25.3Y-28.2
X29.9Y-25.9
X31.9Y-30.4
X36.25Y-21.75
T2
X23.19Y-45.8
X24.46Y-45.8
X25.73Y-45.8
X27.0Y-45.8
T3
X17.0Y-37.0
X33.0Y-37.0
T4
X25.0Y-14.5
T0
M30
