G04 #@! TF.GenerationSoftware,KiCad,Pcbnew,(6.0.5)*
G04 #@! TF.CreationDate,2022-10-09T15:08:16+02:00*
G04 #@! TF.ProjectId,Omamori,4f6d616d-6f72-4692-9e6b-696361645f70,rev?*
G04 #@! TF.SameCoordinates,Original*
G04 #@! TF.FileFunction,Legend,Bot*
G04 #@! TF.FilePolarity,Positive*
%FSLAX46Y46*%
G04 Gerber Fmt 4.6, Leading zero omitted, Abs format (unit mm)*
G04 Created by KiCad (PCBNEW (6.0.5)) date 2022-10-09 15:08:16*
%MOMM*%
%LPD*%
G01*
G04 APERTURE LIST*
G04 Aperture macros list*
%AMRoundRect*
0 Rectangle with rounded corners*
0 $1 Rounding radius*
0 $2 $3 $4 $5 $6 $7 $8 $9 X,Y pos of 4 corners*
0 Add a 4 corners polygon primitive as box body*
4,1,4,$2,$3,$4,$5,$6,$7,$8,$9,$2,$3,0*
0 Add four circle primitives for the rounded corners*
1,1,$1+$1,$2,$3*
1,1,$1+$1,$4,$5*
1,1,$1+$1,$6,$7*
1,1,$1+$1,$8,$9*
0 Add four rect primitives between the rounded corners*
20,1,$1+$1,$2,$3,$4,$5,0*
20,1,$1+$1,$4,$5,$6,$7,0*
20,1,$1+$1,$6,$7,$8,$9,0*
20,1,$1+$1,$8,$9,$2,$3,0*%
%AMFreePoly0*
4,1,28,0.369517,0.147118,0.404872,0.132473,0.432473,0.104872,0.447118,0.069517,0.451000,0.050000,0.451000,0.000711,0.447106,-0.018834,0.446811,-0.019545,0.432473,-0.054161,0.421417,-0.070706,0.370706,-0.121417,0.354161,-0.132473,0.318806,-0.147118,0.299289,-0.151000,-0.350000,-0.151000,-0.369517,-0.147118,-0.404872,-0.132473,-0.432473,-0.104872,-0.447118,-0.069517,-0.451000,-0.050000,
-0.451000,0.050000,-0.447118,0.069517,-0.432473,0.104872,-0.404872,0.132473,-0.369517,0.147118,-0.350000,0.151000,0.350000,0.151000,0.369517,0.147118,0.369517,0.147118,$1*%
%AMFreePoly1*
4,1,27,0.318806,0.147118,0.354161,0.132473,0.370706,0.121417,0.421417,0.070706,0.432473,0.054161,0.447118,0.018806,0.451000,-0.000711,0.451000,-0.050000,0.447118,-0.069517,0.432473,-0.104872,0.404872,-0.132473,0.369517,-0.147118,0.350000,-0.151000,-0.350000,-0.151000,-0.369517,-0.147118,-0.404872,-0.132473,-0.432473,-0.104872,-0.447118,-0.069517,-0.451000,-0.050000,-0.451000,0.050000,
-0.447118,0.069517,-0.432473,0.104872,-0.404872,0.132473,-0.369517,0.147118,-0.350000,0.151000,0.299289,0.151000,0.318806,0.147118,0.318806,0.147118,$1*%
%AMFreePoly2*
4,1,27,0.069517,0.447118,0.104872,0.432473,0.132473,0.404872,0.147118,0.369517,0.151000,0.350000,0.151000,-0.350000,0.147118,-0.369517,0.132473,-0.404872,0.104872,-0.432473,0.069517,-0.447118,0.050000,-0.451000,0.000711,-0.451000,-0.018806,-0.447118,-0.054161,-0.432473,-0.070706,-0.421417,-0.121417,-0.370706,-0.132473,-0.354161,-0.147118,-0.318806,-0.151000,-0.299289,-0.151000,0.350000,
-0.147118,0.369517,-0.132473,0.404872,-0.104872,0.432473,-0.069517,0.447118,-0.050000,0.451000,0.050000,0.451000,0.069517,0.447118,0.069517,0.447118,$1*%
%AMFreePoly3*
4,1,28,0.069517,0.447118,0.104872,0.432473,0.132473,0.404872,0.147118,0.369517,0.151000,0.350000,0.151000,-0.299289,0.147106,-0.318834,0.146811,-0.319545,0.132473,-0.354161,0.121417,-0.370706,0.070706,-0.421417,0.054161,-0.432473,0.018806,-0.447118,-0.000711,-0.451000,-0.050000,-0.451000,-0.069517,-0.447118,-0.104872,-0.432473,-0.132473,-0.404872,-0.147118,-0.369517,-0.151000,-0.350000,
-0.151000,0.350000,-0.147118,0.369517,-0.132473,0.404872,-0.104872,0.432473,-0.069517,0.447118,-0.050000,0.451000,0.050000,0.451000,0.069517,0.447118,0.069517,0.447118,$1*%
%AMFreePoly4*
4,1,27,0.369517,0.147118,0.404872,0.132473,0.432473,0.104872,0.447118,0.069517,0.451000,0.050000,0.451000,-0.050000,0.447118,-0.069517,0.432473,-0.104872,0.404872,-0.132473,0.369517,-0.147118,0.350000,-0.151000,-0.350000,-0.151000,-0.369517,-0.147118,-0.404872,-0.132473,-0.432473,-0.104872,-0.447118,-0.069517,-0.451000,-0.050000,-0.451000,-0.000711,-0.447118,0.018806,-0.432473,0.054161,
-0.421417,0.070706,-0.370706,0.121417,-0.354161,0.132473,-0.318806,0.147118,-0.299289,0.151000,0.350000,0.151000,0.369517,0.147118,0.369517,0.147118,$1*%
%AMFreePoly5*
4,1,27,0.369517,0.147118,0.404872,0.132473,0.432473,0.104872,0.447118,0.069517,0.451000,0.050000,0.451000,-0.050000,0.447118,-0.069517,0.432473,-0.104872,0.404872,-0.132473,0.369517,-0.147118,0.350000,-0.151000,-0.299289,-0.151000,-0.318806,-0.147118,-0.354161,-0.132473,-0.370706,-0.121417,-0.421417,-0.070706,-0.432473,-0.054161,-0.447118,-0.018806,-0.451000,0.000711,-0.451000,0.050000,
-0.447118,0.069517,-0.432473,0.104872,-0.404872,0.132473,-0.369517,0.147118,-0.350000,0.151000,0.350000,0.151000,0.369517,0.147118,0.369517,0.147118,$1*%
%AMFreePoly6*
4,1,27,0.018806,0.447118,0.054161,0.432473,0.070706,0.421417,0.121417,0.370706,0.132473,0.354161,0.147118,0.318806,0.151000,0.299289,0.151000,-0.350000,0.147118,-0.369517,0.132473,-0.404872,0.104872,-0.432473,0.069517,-0.447118,0.050000,-0.451000,-0.050000,-0.451000,-0.069517,-0.447118,-0.104872,-0.432473,-0.132473,-0.404872,-0.147118,-0.369517,-0.151000,-0.350000,-0.151000,0.350000,
-0.147118,0.369517,-0.132473,0.404872,-0.104872,0.432473,-0.069517,0.447118,-0.050000,0.451000,-0.000711,0.451000,0.018806,0.447118,0.018806,0.447118,$1*%
%AMFreePoly7*
4,1,27,0.069517,0.447118,0.104872,0.432473,0.132473,0.404872,0.147118,0.369517,0.151000,0.350000,0.151000,-0.350000,0.147118,-0.369517,0.132473,-0.404872,0.104872,-0.432473,0.069517,-0.447118,0.050000,-0.451000,-0.050000,-0.451000,-0.069517,-0.447118,-0.104872,-0.432473,-0.132473,-0.404872,-0.147118,-0.369517,-0.151000,-0.350000,-0.151000,0.299289,-0.147118,0.318806,-0.132473,0.354161,
-0.121417,0.370706,-0.070706,0.421417,-0.054161,0.432473,-0.018806,0.447118,0.000711,0.451000,0.050000,0.451000,0.069517,0.447118,0.069517,0.447118,$1*%
G04 Aperture macros list end*
%ADD10C,0.200000*%
%ADD11C,0.120000*%
%ADD12C,1.802000*%
%ADD13O,1.802000X1.802000*%
%ADD14C,2.602000*%
%ADD15RoundRect,0.288500X0.237500X-0.287500X0.237500X0.287500X-0.237500X0.287500X-0.237500X-0.287500X0*%
%ADD16RoundRect,0.301000X-0.337500X-0.475000X0.337500X-0.475000X0.337500X0.475000X-0.337500X0.475000X0*%
%ADD17RoundRect,0.288500X-0.300000X-0.237500X0.300000X-0.237500X0.300000X0.237500X-0.300000X0.237500X0*%
%ADD18RoundRect,0.051000X0.900000X1.450000X-0.900000X1.450000X-0.900000X-1.450000X0.900000X-1.450000X0*%
%ADD19RoundRect,0.288500X0.287500X0.237500X-0.287500X0.237500X-0.287500X-0.237500X0.287500X-0.237500X0*%
%ADD20RoundRect,0.288500X-0.237500X0.287500X-0.237500X-0.287500X0.237500X-0.287500X0.237500X0.287500X0*%
%ADD21RoundRect,0.288500X-0.287500X-0.237500X0.287500X-0.237500X0.287500X0.237500X-0.287500X0.237500X0*%
%ADD22RoundRect,0.401000X0.350000X0.350000X-0.350000X0.350000X-0.350000X-0.350000X0.350000X-0.350000X0*%
%ADD23RoundRect,0.301000X-0.475000X0.337500X-0.475000X-0.337500X0.475000X-0.337500X0.475000X0.337500X0*%
%ADD24RoundRect,0.051000X-1.450000X0.900000X-1.450000X-0.900000X1.450000X-0.900000X1.450000X0.900000X0*%
%ADD25RoundRect,0.113500X0.375000X0.062500X-0.375000X0.062500X-0.375000X-0.062500X0.375000X-0.062500X0*%
%ADD26RoundRect,0.113500X0.062500X0.375000X-0.062500X0.375000X-0.062500X-0.375000X0.062500X-0.375000X0*%
%ADD27RoundRect,0.051000X1.000000X1.000000X-1.000000X1.000000X-1.000000X-1.000000X1.000000X-1.000000X0*%
%ADD28RoundRect,0.288500X-0.250000X-0.237500X0.250000X-0.237500X0.250000X0.237500X-0.250000X0.237500X0*%
%ADD29RoundRect,0.288500X0.237500X-0.300000X0.237500X0.300000X-0.237500X0.300000X-0.237500X-0.300000X0*%
%ADD30RoundRect,0.288500X-0.237500X0.250000X-0.237500X-0.250000X0.237500X-0.250000X0.237500X0.250000X0*%
%ADD31FreePoly0,180.000000*%
%ADD32RoundRect,0.101000X0.350000X0.050000X-0.350000X0.050000X-0.350000X-0.050000X0.350000X-0.050000X0*%
%ADD33FreePoly1,180.000000*%
%ADD34FreePoly2,180.000000*%
%ADD35RoundRect,0.101000X0.050000X0.350000X-0.050000X0.350000X-0.050000X-0.350000X0.050000X-0.350000X0*%
%ADD36FreePoly3,180.000000*%
%ADD37FreePoly4,180.000000*%
%ADD38FreePoly5,180.000000*%
%ADD39FreePoly6,180.000000*%
%ADD40FreePoly7,180.000000*%
%ADD41RoundRect,0.051000X0.850000X0.850000X-0.850000X0.850000X-0.850000X-0.850000X0.850000X-0.850000X0*%
G04 APERTURE END LIST*
D10*
X13600000Y-30000000D02*
X13600000Y-30800000D01*
D11*
X31755563Y-20400000D02*
G75*
G03*
X31755563Y-20400000I-155563J0D01*
G01*
X19341421Y-19950000D02*
G75*
G03*
X19341421Y-19950000I-141421J0D01*
G01*
X26500000Y-15000000D02*
G75*
G03*
X26500000Y-15000000I-1500000J0D01*
G01*
D10*
X13200000Y-30800000D02*
X14000000Y-30800000D01*
X14000000Y-25400000D02*
X13200000Y-25400000D01*
X13600000Y-25000000D02*
X13600000Y-25800000D01*
X14650000Y-15749285D02*
X14150000Y-15677857D01*
X14435714Y-15392142D02*
X14435714Y-16820714D01*
X14650000Y-16677857D01*
X14650000Y-16392142D01*
X14221428Y-16177857D01*
X13935714Y-16249285D01*
X13721428Y-16392142D01*
X13792857Y-16749285D01*
X14150000Y-16820714D01*
X13935714Y-15606428D02*
X13721428Y-15892142D01*
X15114285Y-18450000D02*
X13257142Y-18450000D01*
X14257142Y-19378571D02*
X13828571Y-19378571D01*
X15042857Y-17950000D02*
X15042857Y-18235714D01*
X13828571Y-18164285D02*
X13828571Y-19378571D01*
X15042857Y-17950000D02*
X13328571Y-17950000D01*
X13328571Y-18235714D01*
X14828571Y-18664285D02*
X14471428Y-19021428D01*
X14185714Y-17664285D02*
X14185714Y-17950000D01*
X13935714Y-20222142D02*
X13935714Y-21150714D01*
X14007142Y-21436428D01*
X14292857Y-21722142D01*
X14435714Y-20222142D02*
X14507142Y-20579285D01*
X14507142Y-20865000D01*
X14435714Y-21079285D01*
X14292857Y-20865000D01*
X13861904Y-28452380D02*
X13861904Y-27452380D01*
X13480952Y-27452380D01*
X13385714Y-27500000D01*
X13338095Y-27547619D01*
X13290476Y-27642857D01*
X13290476Y-27785714D01*
X13338095Y-27880952D01*
X13385714Y-27928571D01*
X13480952Y-27976190D01*
X13861904Y-27976190D01*
D11*
X15500000Y-38750000D02*
G75*
G03*
X34500000Y-38750000I9500000J1500000D01*
G01*
X34500000Y-35750000D02*
G75*
G03*
X15500000Y-35750000I-9500000J-1500000D01*
G01*
X29990000Y-16371267D02*
X29990000Y-16028733D01*
X31010000Y-16371267D02*
X31010000Y-16028733D01*
X34238748Y-21735000D02*
X34761252Y-21735000D01*
X34238748Y-20265000D02*
X34761252Y-20265000D01*
X34603733Y-23760000D02*
X34896267Y-23760000D01*
X34603733Y-22740000D02*
X34896267Y-22740000D01*
X36600000Y-16300000D02*
X31600000Y-16300000D01*
X36600000Y-19500000D02*
X31600000Y-19500000D01*
X29171267Y-26060000D02*
X28828733Y-26060000D01*
X29171267Y-25040000D02*
X28828733Y-25040000D01*
X29171267Y-26540000D02*
X28828733Y-26540000D01*
X29171267Y-27560000D02*
X28828733Y-27560000D01*
X27110000Y-25728733D02*
X27110000Y-26071267D01*
X26090000Y-25728733D02*
X26090000Y-26071267D01*
X30890000Y-26278733D02*
X30890000Y-26621267D01*
X31910000Y-26278733D02*
X31910000Y-26621267D01*
X33410000Y-26278733D02*
X33410000Y-26621267D01*
X32390000Y-26278733D02*
X32390000Y-26621267D01*
X32078733Y-28340000D02*
X32421267Y-28340000D01*
X32078733Y-29360000D02*
X32421267Y-29360000D01*
X33728733Y-29890000D02*
X34071267Y-29890000D01*
X33728733Y-30910000D02*
X34071267Y-30910000D01*
X19100000Y-15200000D02*
X17600000Y-15200000D01*
X19100000Y-18200000D02*
X17600000Y-18200000D01*
X19251388Y-16700000D02*
G75*
G03*
X19251388Y-16700000I-901388J0D01*
G01*
X32938748Y-15735000D02*
X33461252Y-15735000D01*
X32938748Y-14265000D02*
X33461252Y-14265000D01*
X23065000Y-24138748D02*
X23065000Y-24661252D01*
X24535000Y-24138748D02*
X24535000Y-24661252D01*
X26300000Y-17000000D02*
X26300000Y-22000000D01*
X23100000Y-17000000D02*
X23100000Y-22000000D01*
X28465000Y-24010000D02*
X27990000Y-24010000D01*
X28465000Y-20290000D02*
X27990000Y-20290000D01*
X27990000Y-24010000D02*
X27990000Y-23535000D01*
X31235000Y-24010000D02*
X31710000Y-24010000D01*
X31710000Y-24010000D02*
X31710000Y-23535000D01*
X27990000Y-20290000D02*
X27990000Y-20765000D01*
X31235000Y-20290000D02*
X31710000Y-20290000D01*
X20953733Y-26840000D02*
X21246267Y-26840000D01*
X20953733Y-27860000D02*
X21246267Y-27860000D01*
X18245276Y-14622500D02*
X18754724Y-14622500D01*
X18245276Y-13577500D02*
X18754724Y-13577500D01*
X22660000Y-18696267D02*
X22660000Y-18403733D01*
X21640000Y-18696267D02*
X21640000Y-18403733D01*
X27177500Y-16745276D02*
X27177500Y-17254724D01*
X28222500Y-16745276D02*
X28222500Y-17254724D01*
X28645276Y-13277500D02*
X29154724Y-13277500D01*
X28645276Y-14322500D02*
X29154724Y-14322500D01*
X16490000Y-23010000D02*
X16040000Y-23010000D01*
X19260000Y-23010000D02*
X19260000Y-22560000D01*
X16040000Y-19790000D02*
X16040000Y-20240000D01*
X16040000Y-23010000D02*
X16040000Y-22560000D01*
X16490000Y-19790000D02*
X16040000Y-19790000D01*
X18810000Y-19790000D02*
X19260000Y-19790000D01*
X18810000Y-23010000D02*
X19260000Y-23010000D01*
X22672500Y-14945276D02*
X22672500Y-15454724D01*
X21627500Y-14945276D02*
X21627500Y-15454724D01*
X20953733Y-26710000D02*
X21246267Y-26710000D01*
X20953733Y-25690000D02*
X21246267Y-25690000D01*
%LPC*%
D12*
X17375000Y-45000000D03*
D13*
X19915000Y-45000000D03*
X22455000Y-45000000D03*
X24995000Y-45000000D03*
X27535000Y-45000000D03*
X30075000Y-45000000D03*
X32615000Y-45000000D03*
D14*
X25000000Y-15000000D03*
X15500000Y-37250000D03*
X34500000Y-37250000D03*
D15*
X30500000Y-17075000D03*
X30500000Y-15325000D03*
D16*
X33462500Y-21000000D03*
X35537500Y-21000000D03*
D17*
X33887500Y-23250000D03*
X35612500Y-23250000D03*
D18*
X35700000Y-17900000D03*
X32500000Y-17900000D03*
D19*
X29875000Y-25550000D03*
X28125000Y-25550000D03*
X29875000Y-27050000D03*
X28125000Y-27050000D03*
D20*
X26600000Y-25025000D03*
X26600000Y-26775000D03*
X31400000Y-25575000D03*
X31400000Y-27325000D03*
X32900000Y-25575000D03*
X32900000Y-27325000D03*
D21*
X31375000Y-28850000D03*
X33125000Y-28850000D03*
X33025000Y-30400000D03*
X34775000Y-30400000D03*
D22*
X20100000Y-15700000D03*
X16600000Y-17700000D03*
X16600000Y-15700000D03*
X20100000Y-17700000D03*
D16*
X32162500Y-15000000D03*
X34237500Y-15000000D03*
D23*
X23800000Y-23362500D03*
X23800000Y-25437500D03*
D24*
X24700000Y-17900000D03*
X24700000Y-21100000D03*
D25*
X31537500Y-21150000D03*
X31537500Y-21650000D03*
X31537500Y-22150000D03*
X31537500Y-22650000D03*
X31537500Y-23150000D03*
D26*
X30850000Y-23837500D03*
X30350000Y-23837500D03*
X29850000Y-23837500D03*
X29350000Y-23837500D03*
X28850000Y-23837500D03*
D25*
X28162500Y-23150000D03*
X28162500Y-22650000D03*
X28162500Y-22150000D03*
X28162500Y-21650000D03*
X28162500Y-21150000D03*
D26*
X28850000Y-20462500D03*
X29350000Y-20462500D03*
X29850000Y-20462500D03*
X30350000Y-20462500D03*
X30850000Y-20462500D03*
D27*
X29850000Y-22150000D03*
D12*
X15200000Y-30425000D03*
D13*
X15200000Y-27885000D03*
X15200000Y-25345000D03*
D17*
X20237500Y-27350000D03*
X21962500Y-27350000D03*
D28*
X17587500Y-14100000D03*
X19412500Y-14100000D03*
D29*
X22150000Y-19412500D03*
X22150000Y-17687500D03*
D30*
X27700000Y-16087500D03*
X27700000Y-17912500D03*
D28*
X27987500Y-13800000D03*
X29812500Y-13800000D03*
D31*
X19100000Y-20600000D03*
D32*
X19100000Y-21000000D03*
X19100000Y-21400000D03*
X19100000Y-21800000D03*
D33*
X19100000Y-22200000D03*
D34*
X18450000Y-22850000D03*
D35*
X18050000Y-22850000D03*
X17650000Y-22850000D03*
X17250000Y-22850000D03*
D36*
X16850000Y-22850000D03*
D37*
X16200000Y-22200000D03*
D32*
X16200000Y-21800000D03*
X16200000Y-21400000D03*
X16200000Y-21000000D03*
D38*
X16200000Y-20600000D03*
D39*
X16850000Y-19950000D03*
D35*
X17250000Y-19950000D03*
X17650000Y-19950000D03*
X18050000Y-19950000D03*
D40*
X18450000Y-19950000D03*
D41*
X17650000Y-21400000D03*
D30*
X22150000Y-14287500D03*
X22150000Y-16112500D03*
D17*
X20237500Y-26200000D03*
X21962500Y-26200000D03*
M02*
